<svg width="24" height="25" viewBox="0 0 24 25" fill="none" xmlns="http://www.w3.org/2000/svg">
<path d="M24 13C23.9995 15.843 22.9896 18.5935 21.1502 20.7614C19.3108 22.9293 16.7615 24.3737 13.9565 24.8373C11.1515 25.3008 8.273 24.7534 5.83397 23.2925C3.39494 21.8316 1.55382 19.5522 0.638668 16.8605C-0.276482 14.1687 -0.206202 11.2395 0.836981 8.59475C1.88016 5.94999 3.82848 3.76152 6.33476 2.4193C8.84104 1.07709 11.7425 0.668319 14.522 1.26584C17.3016 1.86337 19.7787 3.42836 21.512 5.68196C21.6534 5.86536 21.7161 6.0974 21.6864 6.32704C21.6566 6.55667 21.5369 6.7651 21.3535 6.90646C21.1701 7.04782 20.9381 7.11054 20.7084 7.08081C20.4788 7.05109 20.2704 6.93136 20.129 6.74796C18.6479 4.82222 16.5311 3.48492 14.1559 2.97436C11.7807 2.4638 9.30141 2.81316 7.15978 3.96017C5.01815 5.10719 3.35334 6.97734 2.46203 9.23738C1.57071 11.4974 1.51079 14.0005 2.29294 16.3006C3.07509 18.6007 4.6485 20.5484 6.73279 21.7966C8.81708 23.0447 11.2768 23.5123 13.6737 23.116C16.0706 22.7197 18.249 21.4852 19.8206 19.6325C21.3921 17.7799 22.2549 15.4294 22.255 13C22.2551 12.4781 22.2156 11.9569 22.137 11.441C22.102 11.2121 22.1593 10.9787 22.2964 10.7921C22.4335 10.6055 22.6391 10.481 22.868 10.446C23.0969 10.411 23.3303 10.4683 23.5169 10.6054C23.7035 10.7425 23.828 10.9481 23.863 11.177C23.9545 11.7803 24.0003 12.3897 24 13ZM14.369 8.19996C14.5375 8.36871 14.6322 8.59746 14.6322 8.83596C14.6322 9.07446 14.5375 9.30321 14.369 9.47196L10.823 13L14.367 16.528C14.4606 16.6087 14.5366 16.7079 14.5903 16.8193C14.6439 16.9307 14.674 17.0519 14.6787 17.1755C14.6834 17.299 14.6625 17.4222 14.6175 17.5374C14.5725 17.6525 14.5042 17.7571 14.417 17.8447C14.3297 17.9323 14.2253 18.001 14.1104 18.0465C13.9954 18.092 13.8723 18.1133 13.7487 18.1091C13.6252 18.1049 13.5038 18.0753 13.3922 18.0221C13.2806 17.9689 13.1811 17.8933 13.1 17.8L8.917 13.634C8.83325 13.5504 8.7668 13.4511 8.72146 13.3418C8.67613 13.2325 8.65279 13.1153 8.65279 12.997C8.65279 12.8786 8.67613 12.7615 8.72146 12.6521C8.7668 12.5428 8.83325 12.4436 8.917 12.36L13.1 8.19996C13.2686 8.03233 13.4967 7.93825 13.7345 7.93825C13.9723 7.93825 14.2004 8.03233 14.369 8.19996Z" fill="#EA572E"/>
</svg>
