<svg width="25" height="24" viewBox="0 0 25 24" fill="none" xmlns="http://www.w3.org/2000/svg">
<path d="M6.50704 20.2911C6.87545 20.2836 7.23776 20.3859 7.54777 20.5851C7.85778 20.7843 8.10144 21.0713 8.24769 21.4095C8.39393 21.7477 8.43613 22.1218 8.36891 22.4841C8.30168 22.8465 8.12807 23.1805 7.87023 23.4438C7.61238 23.707 7.28197 23.8875 6.92114 23.9622C6.5603 24.0369 6.18539 24.0025 5.84422 23.8632C5.50304 23.724 5.21106 23.4864 5.0055 23.1805C4.79994 22.8747 4.69012 22.5146 4.69004 22.1461C4.68577 21.6594 4.87462 21.1908 5.21521 20.8431C5.5558 20.4954 6.02035 20.2969 6.50704 20.2911ZM20.007 20.2911C20.3754 20.2836 20.7378 20.3859 21.0478 20.5851C21.3578 20.7843 21.6014 21.0713 21.7477 21.4095C21.8939 21.7477 21.9361 22.1218 21.8689 22.4841C21.8017 22.8465 21.6281 23.1805 21.3702 23.4438C21.1124 23.707 20.782 23.8875 20.4211 23.9622C20.0603 24.0369 19.6854 24.0025 19.3442 23.8632C19.003 23.724 18.7111 23.4864 18.5055 23.1805C18.2999 22.8747 18.1901 22.5146 18.19 22.1461C18.186 21.659 18.3754 21.1901 18.7166 20.8424C19.0577 20.4946 19.5229 20.2964 20.01 20.2911H20.007ZM0.931039 0.000112558L1.05404 0.0121126L3.55404 0.454113C3.75211 0.490715 3.93246 0.591927 4.0669 0.741921C4.20133 0.891915 4.28226 1.08223 4.29704 1.28311L5.44904 15.3311C5.47031 15.6511 5.61222 15.951 5.84609 16.1704C6.07996 16.3898 6.38837 16.5123 6.70904 16.5131H19.8C20.1057 16.5095 20.4 16.3965 20.6296 16.1948C20.8592 15.993 21.0091 15.7158 21.052 15.4131L22.191 7.38111C22.2062 7.2785 22.1992 7.17384 22.1706 7.07414C22.142 6.97445 22.0923 6.88204 22.025 6.80311C21.9594 6.72485 21.8773 6.66191 21.7847 6.61872C21.6921 6.57553 21.5912 6.55314 21.489 6.55311H8.60004C8.36168 6.54525 8.13572 6.44503 7.96989 6.27364C7.80406 6.10224 7.71135 5.8731 7.71135 5.63461C7.71135 5.39613 7.80406 5.16698 7.96989 4.99559C8.13572 4.82419 8.36168 4.72398 8.60004 4.71611H21.49C21.8521 4.71652 22.2096 4.79592 22.5378 4.94877C22.8659 5.10162 23.1568 5.32425 23.39 5.60111C23.6263 5.88108 23.8007 6.20781 23.9019 6.55988C24.003 6.91196 24.0286 7.28144 23.977 7.64411L22.837 15.6761C22.735 16.4117 22.3724 17.0862 21.815 17.577C21.2576 18.0677 20.5426 18.3421 19.8 18.3501H6.70904C5.93196 18.3476 5.18474 18.0505 4.61801 17.5189C4.05127 16.9872 3.70716 16.2604 3.65504 15.4851L2.55804 2.14311L0.746039 1.82311C0.508917 1.77813 0.29905 1.64157 0.161865 1.44299C0.0246794 1.24442 -0.0287868 0.999813 0.0130391 0.762113C0.0312371 0.644094 0.0727394 0.530876 0.135128 0.429056C0.197516 0.327236 0.279544 0.23885 0.376431 0.169046C0.473318 0.099243 0.583128 0.0494183 0.699462 0.0224753C0.815797 -0.00446771 0.93633 -0.00799037 1.05404 0.0121126L0.931039 0.000112558ZM17.879 9.23911C18.1174 9.24698 18.3434 9.34719 18.5092 9.51859C18.675 9.68998 18.7677 9.91913 18.7677 10.1576C18.7677 10.3961 18.675 10.6252 18.5092 10.7966C18.3434 10.968 18.1174 11.0682 17.879 11.0761H14.551C14.3127 11.0682 14.0867 10.968 13.9209 10.7966C13.7551 10.6252 13.6623 10.3961 13.6623 10.1576C13.6623 9.91913 13.7551 9.68998 13.9209 9.51859C14.0867 9.34719 14.3127 9.24698 14.551 9.23911H17.879Z"/>
</svg>
