<svg width="32" height="24" viewBox="0 0 32 24" fill="none" xmlns="http://www.w3.org/2000/svg">
<path d="M26.7536 0.739991C27.333 0.739597 27.9067 0.853426 28.4421 1.07496C28.9774 1.29649 29.4638 1.62139 29.8735 2.03107C30.2832 2.44075 30.6081 2.92717 30.8296 3.46251C31.0512 3.99786 31.165 4.57162 31.1646 5.15099V18.851C31.165 19.4303 31.0512 20.004 30.8296 20.5393C30.6081 21.0746 30.2831 21.561 29.8734 21.9706C29.4638 22.3802 28.9773 22.705 28.442 22.9264C27.9066 23.1478 27.3329 23.2615 26.7536 23.261H4.42858C3.84926 23.2615 3.27551 23.1478 2.74017 22.9264C2.20483 22.705 1.71841 22.3802 1.30872 21.9706C0.899026 21.561 0.574109 21.0746 0.352563 20.5393C0.131017 20.004 0.0171845 19.4303 0.0175791 18.851C0.0175791 18.6903 0.08143 18.5361 0.195077 18.4225C0.308724 18.3088 0.462861 18.245 0.623582 18.245C0.784303 18.245 0.93844 18.3088 1.05209 18.4225C1.16573 18.5361 1.22958 18.6903 1.22958 18.851C1.23248 19.6988 1.57056 20.511 2.17004 21.1105C2.76953 21.71 3.58178 22.0481 4.42958 22.051H26.7556C27.6033 22.0478 28.4154 21.7097 29.0148 21.1102C29.6143 20.5108 29.9524 19.6987 29.9556 18.851V8.68099H1.22958V12.515C1.22958 12.6757 1.16573 12.8299 1.05209 12.9435C0.93844 13.0571 0.784303 13.121 0.623582 13.121C0.462861 13.121 0.308724 13.0571 0.195077 12.9435C0.08143 12.8299 0.0175791 12.6757 0.0175791 12.515V5.15099C0.0171847 4.57162 0.131014 3.99786 0.352548 3.46251C0.574081 2.92717 0.898978 2.44075 1.30866 2.03107C1.71833 1.62139 2.20475 1.29649 2.7401 1.07496C3.27544 0.853426 3.84921 0.739597 4.42858 0.739991H26.7536ZM26.7536 1.952H4.42858C3.58086 1.95516 2.76877 2.29331 2.16934 2.89275C1.5699 3.49218 1.23175 4.30427 1.22859 5.15199V7.47099H29.9536V5.15199C29.9504 4.30427 29.6123 3.49218 29.0128 2.89275C28.4134 2.29331 27.6013 1.95516 26.7536 1.952Z" fill="white"/>
</svg>
