<?xml version="1.0" standalone="no"?>
<!DOCTYPE svg PUBLIC "-//W3C//DTD SVG 20010904//EN"
 "http://www.w3.org/TR/2001/REC-SVG-20010904/DTD/svg10.dtd">
<svg version="1.0" xmlns="http://www.w3.org/2000/svg"
 width="100.000000pt" height="100.000000pt" viewBox="0 0 100.000000 100.000000"
 preserveAspectRatio="xMidYMid meet">

<g transform="translate(0.000000,100.000000) scale(0.100000,-0.100000)"
fill="#fff" stroke="none">
<path d="M255 933 c-64 -33 -156 -125 -189 -190 -22 -44 -23 -52 -10 -57 9 -3
17 -6 19 -6 2 0 16 24 33 53 34 61 112 136 171 166 42 22 46 28 33 47 -5 9
-21 5 -57 -13z"/>
<path d="M390 904 c-308 -82 -412 -474 -186 -700 241 -240 651 -107 709 230
51 296 -230 548 -523 470z m273 -63 c81 -39 156 -118 188 -199 33 -81 32 -204
-1 -287 -32 -82 -123 -173 -205 -205 -83 -33 -206 -34 -287 -1 -81 32 -160
106 -200 189 -30 61 -33 75 -33 162 0 82 4 103 27 152 48 103 143 185 247 215
76 21 187 11 264 -26z"/>
<path d="M480 670 c0 -86 -4 -137 -12 -150 -15 -24 -1 -53 28 -58 10 -2 45
-29 77 -60 47 -46 59 -54 67 -42 7 11 -4 28 -45 70 -30 31 -55 63 -55 72 0 9
-4 20 -10 23 -6 4 -10 62 -10 141 0 127 -1 134 -20 134 -19 0 -20 -7 -20 -130z"/>
<path d="M899 279 c-30 -60 -105 -137 -167 -172 -36 -20 -51 -34 -48 -44 3 -8
6 -17 6 -19 0 -14 105 52 149 93 62 59 127 163 108 175 -21 13 -26 9 -48 -33z"/>
</g>
</svg>
