<svg width="17" height="27" viewBox="0 0 17 27" fill="none" xmlns="http://www.w3.org/2000/svg">
<path d="M16.034 0.00397682H1.85805C1.75773 0.00653575 1.65874 0.0275534 1.56604 0.0659771C1.544 0.0709097 1.52301 0.0797118 1.50404 0.0919762C1.46802 0.104018 1.43424 0.121927 1.40405 0.144978C1.36166 0.17333 1.32301 0.206929 1.28905 0.244976C1.28005 0.253976 1.26304 0.262976 1.25404 0.279976C1.18327 0.351612 1.12632 0.435685 1.08604 0.527977C1.07704 0.545977 1.06804 0.571977 1.06004 0.589977C1.02163 0.688953 1.00065 0.793838 0.998047 0.899977V22.11C0.997917 22.2796 1.04722 22.4456 1.13992 22.5877C1.23263 22.7298 1.36472 22.8418 1.52005 22.91L9.47905 26.448C9.59282 26.5006 9.71667 26.5279 9.84204 26.528C10.0121 26.5302 10.1788 26.4807 10.3201 26.386C10.4442 26.3056 10.5463 26.1956 10.6174 26.0659C10.6884 25.9362 10.7261 25.7909 10.7271 25.643V4.42198C10.7272 4.25233 10.6779 4.08632 10.5852 3.94425C10.4925 3.80217 10.3604 3.69018 10.205 3.62198L6.05705 1.77398H15.157V21.225H12.504C12.2695 21.225 12.0445 21.3182 11.8786 21.484C11.7127 21.6499 11.6196 21.8749 11.6196 22.1095C11.6196 22.3441 11.7127 22.569 11.8786 22.7349C12.0445 22.9008 12.2695 22.994 12.504 22.994H16.0421C16.2763 22.9932 16.5006 22.8998 16.6663 22.7342C16.8319 22.5686 16.9253 22.3442 16.926 22.11V0.884977C16.9253 0.650769 16.8319 0.42638 16.6663 0.260769C16.5006 0.0951578 16.2763 0.00176737 16.0421 0.000976562L16.034 0.00397682ZM8.95905 24.289L2.76805 21.539V2.24698L8.95905 4.99698V24.289Z"/>
<path d="M7.19005 15.9189C7.42426 15.9181 7.64864 15.8247 7.81425 15.6591C7.97987 15.4935 8.07326 15.2691 8.07405 15.0349V14.1509C8.07405 13.9163 7.98086 13.6913 7.81499 13.5254C7.64911 13.3595 7.42414 13.2664 7.18956 13.2664C6.95498 13.2664 6.72998 13.3595 6.5641 13.5254C6.39823 13.6913 6.30504 13.9163 6.30504 14.1509V15.0349C6.30583 15.2693 6.39937 15.4938 6.5652 15.6594C6.73103 15.8251 6.95567 15.9184 7.19005 15.9189Z"/>
</svg>
