<?xml version="1.0" encoding="utf-8"?>
<svg viewBox="0 0 48 48" fill="none" xmlns="http://www.w3.org/2000/svg">
  <g id="_11_-_20" data-name="11 - 20" transform="matrix(1, 0, 0, 1, 0, 4.440892098500626e-16)">
    <g id="Chemistry">
      <path d="M39.919,31.658l-8.3-10.775A3.016,3.016,0,0,1,31,19.052V7.816A2.993,2.993,0,0,0,30,2H18a2.993,2.993,0,0,0-1,5.816V19.052a3.016,3.016,0,0,1-.623,1.831l-8.3,10.775A8.908,8.908,0,0,0,15.139,46H32.861a8.908,8.908,0,0,0,7.058-14.342ZM17.962,22.1a5.015,5.015,0,0,0,.942-2.122c.033,0,.062.019.1.019h2a1,1,0,0,0,0-2H19V16h2a1,1,0,0,0,0-2H19V12h2a1,1,0,0,0,0-2H19V8h5a1,1,0,0,0,0-2H18a1,1,0,0,1,0-2H30a1,1,0,0,1,0,2H29a1,1,0,0,0,0,2V19.052A5.033,5.033,0,0,0,30.038,22.1L32.269,25H15.731ZM16,39a2,2,0,1,1,2-2A2,2,0,0,1,16,39Zm7-6a2,2,0,1,1,2-2A2,2,0,0,1,23,33Zm7,8a3,3,0,1,1,3-3A3,3,0,0,1,30,41Z"/>
    </g>
  </g>
</svg>