<svg width="20" height="20" viewBox="0 0 20 20" fill="none" xmlns="http://www.w3.org/2000/svg">
<path d="M15.426 11.9692C15.6951 11.969 15.9634 11.9985 16.226 12.0572C16.3328 12.0801 16.434 12.124 16.5238 12.1863C16.6135 12.2486 16.69 12.3281 16.7489 12.4202C16.8078 12.5122 16.8478 12.615 16.8667 12.7226C16.8856 12.8303 16.883 12.9406 16.859 13.0472C16.8074 13.2614 16.6736 13.4468 16.4865 13.5634C16.2995 13.6799 16.0741 13.7183 15.859 13.6702C15.583 13.611 15.2975 13.6134 15.0225 13.6771C14.7476 13.7407 14.49 13.8641 14.2681 14.0385C14.0462 14.2129 13.8654 14.4339 13.7385 14.686C13.6117 14.9381 13.5418 15.215 13.534 15.4972C13.5306 15.7619 13.5825 16.0244 13.6865 16.2678C13.7905 16.5113 13.9442 16.7303 14.1378 16.9109C14.3314 17.0915 14.5606 17.2296 14.8106 17.3165C15.0607 17.4033 15.3262 17.4369 15.59 17.4152C15.8539 17.3934 16.1103 17.3167 16.3427 17.1901C16.5752 17.0634 16.7787 16.8896 16.94 16.6798C17.1014 16.4699 17.2172 16.2286 17.2798 15.9714C17.3425 15.7142 17.3507 15.4467 17.304 15.1862C17.2863 15.0784 17.2901 14.9682 17.3151 14.8618C17.3402 14.7555 17.386 14.6552 17.4499 14.5666C17.5138 14.4781 17.5946 14.403 17.6877 14.3458C17.7807 14.2886 17.8841 14.2503 17.992 14.2332C18.2102 14.1963 18.4341 14.2472 18.6149 14.3748C18.7957 14.5023 18.9186 14.6962 18.957 14.9142C18.9898 15.1071 19.0062 15.3025 19.006 15.4982C19.0151 16.2069 18.8133 16.9024 18.4262 17.4961C18.039 18.0899 17.4841 18.5551 16.8319 18.8327C16.1797 19.1103 15.4597 19.1877 14.7634 19.055C14.0671 18.9223 13.426 18.5856 12.9215 18.0877C12.4171 17.5897 12.0721 16.953 11.9304 16.2585C11.7887 15.564 11.8568 14.843 12.1259 14.1873C12.395 13.5315 12.853 12.9706 13.4417 12.5758C14.0304 12.181 14.7232 11.9702 15.432 11.9702L15.426 11.9692ZM7.712 14.6692C7.93147 14.6692 8.14194 14.7563 8.29713 14.9115C8.45232 15.0667 8.5395 15.2772 8.5395 15.4967C8.5395 15.7161 8.45232 15.9266 8.29713 16.0818C8.14194 16.237 7.93147 16.3242 7.712 16.3242H0.838C0.618533 16.3242 0.408055 16.237 0.252869 16.0818C0.0976828 15.9266 0.0105 15.7161 0.0105 15.4967C0.0105 15.2772 0.0976828 15.0667 0.252869 14.9115C0.408055 14.7563 0.618533 14.6692 0.838 14.6692H7.712ZM3.575 0.975155C4.51655 0.969831 5.42174 1.33835 6.09182 1.99982C6.76191 2.66128 7.14213 3.56161 7.149 4.50315C7.14186 5.44461 6.76156 6.34479 6.09153 7.0062C5.4215 7.6676 4.51647 8.03621 3.575 8.03115C2.63336 8.03648 1.72807 7.66799 1.05782 7.00655C0.387576 6.34512 0.00713679 5.44479 0 4.50315C0.000151959 4.30743 0.0168784 4.11206 0.05 3.91915C0.0881142 3.70111 0.211047 3.50704 0.391898 3.37942C0.572749 3.25179 0.796791 3.201 1.015 3.23815C1.12287 3.25529 1.22629 3.29357 1.31932 3.35081C1.41235 3.40804 1.49316 3.48309 1.55709 3.57165C1.62102 3.6602 1.66683 3.76052 1.69187 3.86684C1.71691 3.97316 1.72069 4.08337 1.703 4.19115C1.63338 4.5751 1.68366 4.97117 1.84701 5.32553C2.01036 5.6799 2.27885 5.97538 2.616 6.17182C2.95315 6.36826 3.34261 6.45613 3.73144 6.42349C4.12028 6.39085 4.48964 6.23929 4.78932 5.98939C5.08901 5.73949 5.30448 5.40339 5.40647 5.02674C5.50846 4.6501 5.492 4.2512 5.35935 3.88423C5.2267 3.51727 4.98428 3.20005 4.66503 2.97567C4.34579 2.7513 3.9652 2.63067 3.575 2.63015C3.43307 2.62985 3.29154 2.64528 3.153 2.67615C2.93752 2.72759 2.71044 2.69139 2.52163 2.57552C2.33281 2.45964 2.19771 2.27357 2.146 2.05815C2.12135 1.95182 2.11802 1.84166 2.13619 1.73403C2.15437 1.6264 2.19371 1.52344 2.25192 1.43111C2.31013 1.33877 2.38606 1.25889 2.47533 1.19607C2.5646 1.13326 2.66543 1.08876 2.772 1.06515C3.03537 1.0047 3.30478 0.974504 3.575 0.975155ZM18.162 3.67515C18.3815 3.67515 18.5919 3.76234 18.7471 3.91752C18.9023 4.07271 18.9895 4.28319 18.9895 4.50265C18.9895 4.72212 18.9023 4.9326 18.7471 5.08779C18.5919 5.24297 18.3815 5.33015 18.162 5.33015H11.289C11.0695 5.33015 10.8591 5.24297 10.7039 5.08779C10.5487 4.9326 10.4615 4.72212 10.4615 4.50265C10.4615 4.28319 10.5487 4.07271 10.7039 3.91752C10.8591 3.76234 11.0695 3.67515 11.289 3.67515H18.162Z" fill="white"/>
</svg>
