<svg width="86" height="17" viewBox="0 0 86 17" fill="none" xmlns="http://www.w3.org/2000/svg">
<path d="M77.5 0H8.5C3.80558 0 0 3.80558 0 8.5C0 13.1944 3.80558 17 8.5 17H77.5C82.1944 17 86 13.1944 86 8.5C86 3.80558 82.1944 0 77.5 0Z" fill="#E7255F"/>
<path d="M22.445 12H23.633V8.868H25.541C27.089 8.868 28.205 7.788 28.205 6.18C28.205 4.572 27.089 3.528 25.541 3.528H22.445V12ZM23.633 7.836V4.56H25.361C26.369 4.56 26.993 5.16 26.993 6.18C26.993 7.2 26.369 7.836 25.349 7.836H23.633ZM34.4813 12H35.7173L32.6693 3.528H31.4213L28.3733 12H29.5973L30.4373 9.564H33.6293L34.4813 12ZM32.0573 4.692C32.0573 4.692 32.2373 5.46 32.3813 5.892L33.3173 8.58H30.7493L31.6973 5.892C31.8413 5.46 32.0333 4.692 32.0333 4.692H32.0573ZM36.9645 12H38.1525V8.628H39.9645L41.7525 12H43.0965L41.2965 8.712C41.1405 8.436 41.0445 8.328 41.0445 8.328V8.304C41.9685 8.004 42.5685 7.092 42.5685 6.012C42.5685 4.896 42.0045 4.044 41.1405 3.72C40.8165 3.6 40.4445 3.528 39.5565 3.528H36.9645V12ZM38.1525 7.596V4.56H39.5205C40.1805 4.56 40.4565 4.632 40.6845 4.752C41.1165 4.992 41.3565 5.436 41.3565 6.06C41.3565 7.008 40.7805 7.596 39.8565 7.596H38.1525ZM49.704 12H50.94L47.892 3.528H46.644L43.596 12H44.82L45.66 9.564H48.852L49.704 12ZM47.28 4.692C47.28 4.692 47.46 5.46 47.604 5.892L48.54 8.58H45.972L46.92 5.892C47.064 5.46 47.256 4.692 47.256 4.692H47.28ZM57.3212 12H58.5092L61.6292 3.528H60.3692L58.2452 9.516C58.0892 9.972 57.9212 10.68 57.9212 10.68H57.8972C57.8972 10.68 57.7292 9.972 57.5732 9.516L55.4732 3.528H54.1892L57.3212 12ZM62.2283 7.704C62.2283 10.2 64.1363 12.144 66.5843 12.144C69.0323 12.144 70.9283 10.2 70.9283 7.704C70.9283 5.268 69.0323 3.384 66.5843 3.384C64.1363 3.384 62.2283 5.268 62.2283 7.704ZM63.4523 7.704C63.4523 5.856 64.8563 4.464 66.5843 4.464C68.3123 4.464 69.7043 5.856 69.7043 7.704C69.7043 9.612 68.3123 11.052 66.5843 11.052C64.8563 11.052 63.4523 9.612 63.4523 7.704ZM72.0118 11.028C72.0118 11.028 73.0198 12.144 74.8198 12.144C76.4998 12.144 77.5078 11.064 77.5078 9.756C77.5078 7.008 73.4038 7.476 73.4038 5.724C73.4038 5.052 74.0398 4.488 74.9398 4.488C76.0198 4.488 76.7998 5.22 76.7998 5.22L77.3398 4.236C77.3398 4.236 76.5118 3.384 74.9398 3.384C73.3438 3.384 72.2038 4.428 72.2038 5.748C72.2038 8.352 76.3078 7.956 76.3078 9.792C76.3078 10.596 75.6358 11.04 74.8438 11.04C73.5838 11.04 72.6838 10.128 72.6838 10.128L72.0118 11.028Z" fill="white"/>
<path d="M14.906 4.14307C15.5388 4.14307 16.1457 4.39445 16.5932 4.84191C17.0407 5.28937 17.292 5.89626 17.292 6.52907V12.8581H14.906V4.14307Z" fill="white"/>
<path d="M12.693 4.14307H10.307V12.8581H12.693V4.14307Z" fill="white"/>
<path d="M8.09303 4.14307V12.8581H5.70703V6.52907C5.70703 5.89626 5.95841 5.28937 6.40587 4.84191C6.85334 4.39445 7.46022 4.14307 8.09303 4.14307V4.14307Z" fill="white"/>
</svg>
