<svg width="23" height="24" viewBox="0 0 23 24" fill="none" xmlns="http://www.w3.org/2000/svg">
<path d="M2.419 6.07909C2.6186 6.01774 2.83288 6.02408 3.0285 6.09713C3.22412 6.17018 3.39012 6.30583 3.50065 6.48299C3.61119 6.66015 3.66008 6.86888 3.6397 7.07669C3.61933 7.28451 3.53084 7.47977 3.388 7.63209L2.536 8.26309C2.33632 8.42868 2.17529 8.63595 2.06421 8.87038C1.95313 9.1048 1.8947 9.36069 1.893 9.62009V19.2451C1.89853 19.9985 2.20102 20.7193 2.7348 21.251C3.26859 21.7828 3.99057 22.0825 4.744 22.0851H9.583V22.1061C9.8287 22.1141 10.0617 22.2173 10.2327 22.3939C10.4036 22.5706 10.4992 22.8068 10.4992 23.0526C10.4992 23.2984 10.4036 23.5346 10.2327 23.7113C10.0617 23.8879 9.8287 23.9911 9.583 23.9991H4.744C3.48688 23.9962 2.28206 23.4956 1.39305 22.6067C0.504032 21.7179 0.0031692 20.5132 0 19.2561H0V9.62009C0.00830168 9.07047 0.14026 8.52978 0.386084 8.03813C0.631909 7.54648 0.985288 7.1165 1.42 6.78009L2.293 6.12809L2.419 6.07909ZM8.615 0.963089C9.39029 0.339787 10.3552 0 11.35 0C12.3448 0 13.3097 0.339787 14.085 0.963089L21.354 6.76309C21.779 7.10485 22.1229 7.53651 22.3612 8.02704C22.5995 8.51757 22.7261 9.05479 22.732 9.60009L22.721 19.2461C22.721 20.5043 22.2212 21.7109 21.3315 22.6006C20.4418 23.4903 19.2352 23.9901 17.977 23.9901H15.877C15.2682 23.9901 14.6843 23.7487 14.2531 23.3189C13.822 22.8891 13.5789 22.3059 13.577 21.6971V17.3411L13.567 17.2311C13.5413 17.0907 13.4671 16.9638 13.3575 16.8725C13.2479 16.7811 13.1097 16.7311 12.967 16.7311H9.8C9.71896 16.7311 9.63873 16.7472 9.56399 16.7786C9.48926 16.8099 9.42152 16.8558 9.36473 16.9136C9.30794 16.9714 9.26324 17.04 9.23324 17.1153C9.20324 17.1906 9.18854 17.2711 9.19 17.3521V19.0141C9.18201 19.2598 9.07879 19.4928 8.90216 19.6637C8.72553 19.8347 8.48933 19.9303 8.2435 19.9303C7.99767 19.9303 7.76147 19.8347 7.58484 19.6637C7.40821 19.4928 7.30499 19.2598 7.297 19.0141V17.3521C7.297 16.6853 7.56187 16.0459 8.03333 15.5744C8.5048 15.103 9.14425 14.8381 9.811 14.8381H12.97C13.6343 14.8418 14.2702 15.1083 14.7386 15.5794C15.2071 16.0504 15.47 16.6878 15.47 17.3521V21.7001C15.47 21.8062 15.5121 21.9079 15.5872 21.9829C15.6622 22.0579 15.7639 22.1001 15.87 22.1001H18.03C18.7832 22.1001 19.5056 21.8009 20.0382 21.2683C20.5708 20.7357 20.87 20.0133 20.87 19.2601V9.62009C20.8665 9.35684 20.8046 9.09766 20.6887 8.86125C20.5728 8.62485 20.4059 8.41713 20.2 8.25309L12.931 2.45309C12.4865 2.08722 11.9287 1.88717 11.353 1.88717C10.7773 1.88717 10.2195 2.08722 9.775 2.45309L7.437 4.20009C7.33496 4.28313 7.21701 4.34442 7.09042 4.38021C6.96382 4.416 6.83124 4.42553 6.70082 4.4082C6.57041 4.39088 6.44492 4.34707 6.33205 4.27947C6.21919 4.21187 6.12134 4.1219 6.04452 4.0151C5.96769 3.9083 5.91352 3.78692 5.88532 3.65842C5.85713 3.52992 5.85551 3.39701 5.88056 3.26785C5.90561 3.1387 5.95681 3.01603 6.031 2.90739C6.10519 2.79875 6.20082 2.70642 6.312 2.63609L8.615 0.963089Z" fill="white"/>
</svg>
