<svg width="25" height="25" viewBox="0 0 25 25" fill="none" xmlns="http://www.w3.org/2000/svg">
<path d="M15.5443 17.56C15.7799 17.5571 16.0071 17.6528 16.1758 17.826C16.3446 17.9992 16.4411 18.2358 16.4443 18.4839V18.4839V19.6135C16.4255 21.0427 15.8691 22.4057 14.8969 23.4036C13.9248 24.4015 12.6163 24.9528 11.2586 24.9367H5.56197C4.20135 24.9516 2.89056 24.3984 1.91667 23.3981C0.942777 22.3978 0.385169 21.0321 0.365967 19.6C0.369129 19.352 0.465704 19.1155 0.634466 18.9424C0.803228 18.7693 1.03037 18.6739 1.26597 18.677C1.50157 18.6739 1.72871 18.7693 1.89747 18.9424C2.06623 19.1155 2.16281 19.352 2.16597 19.6C2.17794 20.5362 2.5422 21.4292 3.17884 22.0831C3.81548 22.737 4.67252 23.0984 5.56197 23.088H11.2586C12.145 23.0986 12.9993 22.7387 13.6341 22.0871C14.2688 21.4356 14.6321 20.5457 14.6443 19.6126V19.6126V18.4839C14.6474 18.2358 14.744 17.9992 14.9127 17.826C15.0815 17.6528 15.3086 17.5571 15.5443 17.56V17.56ZM23.466 12.0122C23.6428 12.011 23.816 12.0646 23.964 12.1663C24.112 12.268 24.2283 12.4134 24.2983 12.5842C24.3659 12.7535 24.3834 12.9403 24.3483 13.1201C24.3133 13.3 24.2274 13.4645 24.102 13.592L20.6863 17.0873C20.5157 17.2613 20.2874 17.3586 20.0498 17.3586C19.8123 17.3586 19.584 17.2613 19.4134 17.0873C19.33 17.0026 19.2637 16.9011 19.2185 16.7889C19.1732 16.6767 19.1498 16.556 19.1498 16.4341C19.1498 16.3121 19.1732 16.1914 19.2185 16.0792C19.2637 15.967 19.33 15.8655 19.4134 15.7808L21.2846 13.8681H9.42512C9.19211 13.8681 8.96864 13.7707 8.80388 13.5972C8.63911 13.4238 8.54655 13.1886 8.54655 12.9433C8.54655 12.6981 8.63911 12.4628 8.80388 12.2894C8.96864 12.116 9.19211 12.0185 9.42512 12.0185H23.466V12.0122ZM11.2466 0.937356C12.6073 0.922173 13.9183 1.47531 14.8924 2.47559C15.8665 3.47588 16.4242 4.84176 16.4434 6.27404V6.27404V7.39101C16.4434 7.64226 16.3486 7.88322 16.1798 8.06088C16.011 8.23854 15.7821 8.33835 15.5434 8.33835C15.3047 8.33835 15.0758 8.23854 14.907 8.06088C14.7382 7.88322 14.6434 7.64226 14.6434 7.39101V6.27404C14.6314 5.33752 14.2669 4.44426 13.6299 3.79032C12.9929 3.13638 12.1354 2.77519 11.2457 2.78603H5.55169C4.6654 2.77566 3.81136 3.13555 3.17673 3.78683C2.54209 4.43811 2.17862 5.32765 2.16597 6.26051V15.3992C2.16281 15.6473 2.06626 15.8839 1.89752 16.0571C1.72878 16.2303 1.50165 16.326 1.26597 16.3231C1.03029 16.326 0.803151 16.2303 0.634414 16.0571C0.465677 15.8839 0.36913 15.6473 0.365967 15.3992H0.365967V6.26051C0.384717 4.83135 0.941183 3.46835 1.91332 2.47045C2.88546 1.47255 4.1939 0.921214 5.55169 0.937356H11.2466V0.937356ZM19.4117 8.79758C19.5806 8.62303 19.8072 8.52433 20.0439 8.52231C20.2806 8.52029 20.5087 8.61511 20.6803 8.78675V8.78675L21.5374 9.66011C21.6212 9.74429 21.6881 9.84538 21.734 9.95734C21.7798 10.0693 21.8038 10.1899 21.8045 10.3118C21.8051 10.4337 21.7824 10.5546 21.7377 10.667C21.693 10.7795 21.6272 10.8814 21.5443 10.9665C21.3746 11.1415 21.1468 11.2401 20.9092 11.2415C20.6717 11.2428 20.4429 11.1468 20.2714 10.9738V10.9738L19.4143 10.0986C19.3309 10.0146 19.2645 9.91372 19.219 9.80204C19.1736 9.69036 19.15 9.57016 19.1498 9.44867C19.1495 9.32717 19.1726 9.20687 19.2176 9.09499C19.2626 8.98311 19.3286 8.88195 19.4117 8.79758Z" fill="white"/>
</svg>
