<svg width="146" height="77" viewBox="0 0 146 77" fill="none" xmlns="http://www.w3.org/2000/svg">
<path d="M53.3009 55.897C53.3009 46.297 41.3699 38.467 26.6519 38.467C11.9339 38.467 0.00390625 46.295 0.00390625 55.897C0.00390625 56.146 0.00390625 56.831 0.00390625 56.918C0.00390625 67.105 10.4319 75.356 26.6519 75.356C42.9719 75.356 53.3039 67.108 53.3039 56.92V55.897" fill="#253E8B"/>
<path d="M52.2797 55.889C52.2797 64.942 40.8077 72.281 26.6557 72.281C12.5037 72.281 1.03174 64.942 1.03174 55.889C1.03174 46.836 12.5047 39.495 26.6567 39.495C40.8087 39.495 52.2807 46.834 52.2807 55.889" fill="#00AEEF"/>
<path d="M18.1484 50.718C18.1344 50.743 17.8804 51.009 18.0484 51.218C18.4559 51.5349 18.934 51.7486 19.442 51.8407C19.9499 51.9328 20.4726 51.9007 20.9654 51.747C21.9459 51.3587 22.8448 50.7899 23.6154 50.07C24.5069 49.2602 25.5299 48.6082 26.6404 48.142C27.3498 47.8825 28.1246 47.8625 28.8464 48.085C29.5796 48.3566 30.2601 48.7535 30.8574 49.258C32.6104 50.576 39.6574 56.731 40.8774 57.794C44.5059 56.2219 48.2791 55.0075 52.1434 54.168C51.4564 50.7997 49.5512 47.8031 46.7924 45.752C42.7314 47.459 37.7674 48.352 32.9154 45.978C31.266 45.2312 29.4826 44.8257 27.6724 44.786C23.8204 44.874 22.1524 46.542 20.3874 48.306L18.1514 50.716" fill="white"/>
<path d="M40.5847 58.464C40.5027 58.391 32.2947 51.209 30.4367 49.813C29.7897 49.2372 28.9918 48.858 28.1367 48.72C27.7687 48.6878 27.3978 48.7217 27.0417 48.82C25.9437 49.2337 24.928 49.8391 24.0417 50.608C23.1981 51.404 22.2016 52.0205 21.1127 52.42C20.013 52.6457 18.8689 52.4742 17.8837 51.936C17.6535 51.7944 17.468 51.5905 17.3487 51.348C17.2822 51.1624 17.2727 50.9611 17.3216 50.7701C17.3704 50.579 17.4753 50.407 17.6227 50.276L19.8847 47.829C20.1487 47.567 20.4127 47.304 20.6847 47.045C19.9868 47.1506 19.2974 47.3059 18.6217 47.51C17.8433 47.7691 17.0331 47.9205 16.2137 47.96C15.3879 47.8767 14.5674 47.7482 13.7557 47.575C11.5074 46.9965 9.31926 46.2057 7.2207 45.213C4.0007 47.613 1.8477 50.607 1.2207 53.908C1.6837 54.031 2.42971 54.253 2.74271 54.322C10.0277 55.942 12.2967 57.611 12.7087 57.96C12.9508 57.6875 13.2514 57.4735 13.5881 57.334C13.9248 57.1944 14.2887 57.133 14.6525 57.1544C15.0164 57.1758 15.3706 57.2793 15.6886 57.4573C16.0067 57.6353 16.2802 57.8831 16.4887 58.182C16.9806 57.7854 17.5939 57.57 18.2257 57.572C18.5807 57.5758 18.9327 57.6376 19.2677 57.755C19.5922 57.8589 19.8909 58.0307 20.1438 58.259C20.3967 58.4873 20.5982 58.7668 20.7347 59.079C21.0533 58.9354 21.3992 58.8624 21.7487 58.865C22.1668 58.8697 22.5794 58.9606 22.9607 59.132C23.4913 59.3804 23.9219 59.8016 24.1819 60.3266C24.4418 60.8517 24.5158 61.4494 24.3917 62.022C24.4877 62.0118 24.5842 62.0067 24.6807 62.007C25.4466 62.0083 26.1807 62.3133 26.7221 62.8551C27.2635 63.3968 27.5679 64.1311 27.5687 64.897C27.5691 65.3731 27.4502 65.8417 27.2227 66.26C27.9767 66.7214 28.8481 66.9548 29.7317 66.932C29.952 66.9323 30.17 66.887 30.3721 66.7991C30.5741 66.7111 30.7557 66.5824 30.9057 66.421C30.9777 66.321 31.0537 66.199 30.9837 66.114L28.9277 63.83C28.9277 63.83 28.5887 63.509 28.7017 63.386C28.8147 63.263 29.0267 63.441 29.1737 63.564C30.2207 64.438 31.4977 65.756 31.4977 65.756C31.5187 65.771 31.6037 65.937 32.0767 66.023C32.359 66.0718 32.6482 66.0634 32.9272 65.9983C33.2061 65.9332 33.4692 65.8127 33.7007 65.644C33.8322 65.5349 33.9519 65.4122 34.0577 65.278C34.0497 65.284 34.0427 65.294 34.0347 65.297C34.1776 65.0972 34.2495 64.8554 34.239 64.61C34.2285 64.3646 34.1361 64.1298 33.9767 63.943L31.5767 61.248C31.5767 61.248 31.2347 60.93 31.3507 60.803C31.4507 60.692 31.6757 60.86 31.8277 60.984C32.5867 61.62 33.6607 62.697 34.6907 63.704C35.0329 63.9365 35.4402 64.0542 35.8536 64.04C36.2671 64.0258 36.6653 63.8805 36.9907 63.625C37.2574 63.478 37.4781 63.2601 37.6285 62.9953C37.7789 62.7305 37.853 62.4293 37.8427 62.125C37.7907 61.7442 37.6122 61.392 37.3357 61.125L34.0577 57.825C34.0577 57.825 33.7117 57.525 33.8347 57.38C33.9347 57.254 34.1597 57.435 34.3067 57.558C35.3507 58.432 38.1787 61.025 38.1787 61.025C38.5116 61.2402 38.9013 61.3509 39.2976 61.3429C39.6939 61.3349 40.0788 61.2085 40.4027 60.98C40.611 60.8582 40.7866 60.6874 40.9141 60.4825C41.0416 60.2776 41.1174 60.0447 41.1347 59.804C41.144 59.5547 41.0995 59.3064 41.0043 59.0759C40.909 58.8453 40.7652 58.638 40.5827 58.468" fill="white"/>
<path d="M24.6837 62.6441C24.2985 62.6973 23.9183 62.7816 23.5467 62.8961C23.5067 62.8691 23.5767 62.6651 23.6247 62.5471C23.6727 62.4291 24.3427 60.4161 22.7117 59.7161C22.3464 59.5201 21.9277 59.4474 21.5178 59.5086C21.1078 59.5699 20.7287 59.7619 20.4367 60.0561C20.3677 60.1281 20.3367 60.1221 20.3287 60.0311C20.3194 59.6549 20.1924 59.2912 19.9657 58.9909C19.739 58.6907 19.4239 58.469 19.0647 58.3571C18.5557 58.2008 18.0099 58.2131 17.5085 58.392C17.007 58.5709 16.5768 58.9069 16.2817 59.3501C16.2288 58.9535 16.0439 58.5863 15.7567 58.3078C15.4694 58.0294 15.0968 57.8558 14.6988 57.8152C14.3008 57.7746 13.9007 57.8694 13.5632 58.0841C13.2257 58.2989 12.9704 58.6212 12.8386 58.9989C12.7068 59.3766 12.7061 59.7878 12.8368 60.1659C12.9674 60.544 13.2217 60.8671 13.5585 61.0829C13.8954 61.2988 14.2951 61.3948 14.6932 61.3554C15.0914 61.3161 15.4646 61.1437 15.7527 60.8661C15.7627 60.8751 15.7677 60.8911 15.7617 60.9261C15.6424 61.4776 15.7252 62.0536 15.9951 62.5492C16.2649 63.0448 16.7037 63.4269 17.2317 63.6261C17.5175 63.7357 17.8271 63.7688 18.1297 63.7219C18.4322 63.6751 18.7173 63.55 18.9567 63.3591C19.0977 63.2591 19.1217 63.3011 19.1007 63.4341C19.0591 63.8352 19.1633 64.2379 19.3943 64.5684C19.6254 64.899 19.9677 65.1353 20.3587 65.2341C20.6663 65.3838 21.0137 65.431 21.3501 65.3687C21.6865 65.3064 21.9941 65.138 22.2277 64.8881C22.3867 64.7431 22.4277 64.7651 22.4377 64.9881C22.4574 65.4281 22.606 65.8526 22.8649 66.2089C23.1238 66.5653 23.4816 66.8378 23.8939 66.9926C24.3063 67.1474 24.755 67.1777 25.1845 67.0798C25.6139 66.9818 26.0051 66.76 26.3096 66.4417C26.614 66.1234 26.8183 65.7227 26.8971 65.2894C26.9759 64.856 26.9257 64.4091 26.7528 64.004C26.5798 63.5989 26.2918 63.2535 25.9243 63.0107C25.5568 62.7679 25.1261 62.6383 24.6857 62.6381" fill="white"/>
<path d="M24.685 66.9801C24.1473 66.9831 23.6294 66.7772 23.2406 66.4057C22.8518 66.0343 22.6225 65.5264 22.601 64.9891C22.601 64.8891 22.589 64.6381 22.375 64.6381C22.2764 64.6493 22.1855 64.6967 22.12 64.7711C21.9883 64.9118 21.8301 65.0251 21.6546 65.1045C21.479 65.184 21.2896 65.228 21.097 65.2341C20.8646 65.2291 20.6354 65.1792 20.422 65.0871C19.231 64.6061 19.215 63.7871 19.263 63.4601C19.2746 63.4179 19.2769 63.3736 19.2697 63.3304C19.2624 63.2873 19.2458 63.2462 19.221 63.2101L19.148 63.1461H19.075C18.9988 63.1513 18.9262 63.1807 18.868 63.2301C18.577 63.4527 18.2232 63.578 17.857 63.5881C17.6637 63.5863 17.4725 63.5486 17.293 63.4771C16.7976 63.2916 16.3864 62.9325 16.1359 62.4666C15.8854 62.0007 15.8126 61.4597 15.931 60.9441C15.9389 60.9066 15.9367 60.8676 15.9245 60.8312C15.9124 60.7949 15.8908 60.7624 15.862 60.7371L15.751 60.6461L15.651 60.7461C15.3876 61.0007 15.046 61.1589 14.6815 61.1953C14.3169 61.2316 13.9508 61.1438 13.6424 60.9462C13.334 60.7485 13.1013 60.4526 12.9819 60.1062C12.8626 59.7599 12.8637 59.3834 12.9849 59.0377C13.1062 58.6921 13.3405 58.3974 13.6501 58.2015C13.9596 58.0056 14.3262 57.9199 14.6905 57.9582C15.0548 57.9965 15.3955 58.1567 15.6575 58.4127C15.9194 58.6688 16.0873 59.0058 16.134 59.3691L16.19 59.8051L16.43 59.4361C16.7002 59.0163 17.1019 58.6978 17.5723 58.5304C18.0427 58.3631 18.5553 58.3563 19.03 58.5111C19.3578 58.614 19.6453 58.817 19.8519 59.0916C20.0585 59.3662 20.1739 59.6986 20.182 60.0421C20.198 60.2531 20.35 60.2641 20.382 60.2641C20.4184 60.2613 20.4538 60.251 20.486 60.2338C20.5182 60.2166 20.5464 60.1928 20.569 60.1641C20.7245 60.0035 20.9111 59.8763 21.1174 59.7904C21.3238 59.7044 21.5455 59.6614 21.769 59.6641C22.0794 59.6689 22.3857 59.7369 22.669 59.8641C24.2 60.5211 23.506 62.4641 23.498 62.4871C23.366 62.8091 23.36 62.9521 23.485 63.0341L23.545 63.0621H23.59C23.6932 63.0508 23.7943 63.0245 23.89 62.9841C24.151 62.881 24.4268 62.8203 24.707 62.8041C25.2607 62.8041 25.7918 63.0241 26.1834 63.4157C26.575 63.8072 26.795 64.3383 26.795 64.8921C26.795 65.4459 26.575 65.977 26.1834 66.3685C25.7918 66.7601 25.2607 66.9801 24.707 66.9801H24.685ZM40.905 57.6051C38.377 55.3991 32.534 50.3201 30.952 49.1311C30.3389 48.6153 29.6413 48.2093 28.89 47.9311C28.5618 47.8279 28.2199 47.7749 27.876 47.7741C27.4391 47.7796 27.0057 47.8525 26.591 47.9901C25.48 48.4518 24.4559 49.0998 23.563 49.9061L23.512 49.9461C22.7597 50.6494 21.8836 51.2072 20.928 51.5911C20.6138 51.6616 20.2929 51.6971 19.971 51.6971C19.6477 51.7247 19.3221 51.688 19.0132 51.5889C18.7042 51.4899 18.4179 51.3305 18.171 51.1201C18.126 51.0621 18.154 50.9701 18.259 50.8371L18.274 50.8191L20.498 48.4191C22.239 46.6761 23.884 45.0331 27.672 44.9461C27.733 44.9461 27.798 44.9461 27.861 44.9461C29.5802 45.0165 31.2699 45.4168 32.838 46.1251C34.9459 47.179 37.2673 47.7356 39.624 47.7521C42.2078 47.7076 44.7506 47.0984 47.074 45.9671C46.785 45.7241 46.483 45.4871 46.174 45.2551C44.1187 46.1965 41.8912 46.7035 39.631 46.7441C37.4251 46.726 35.2527 46.2033 33.28 45.2161C31.5748 44.4377 29.7332 44.0024 27.86 43.9351H27.647C25.3912 43.9019 23.1986 44.6806 21.469 46.1291C20.4217 46.183 19.3858 46.3719 18.387 46.6911C17.684 46.9244 16.9534 47.064 16.214 47.1061C15.935 47.1061 15.434 47.0811 15.389 47.0791C12.722 46.6094 10.1064 45.8847 7.57797 44.9151C7.25997 45.1401 6.95396 45.3721 6.65596 45.6091C9.37815 46.7464 12.2217 47.5681 15.131 48.0581C15.479 48.0821 15.849 48.1211 16.22 48.1211C17.054 48.081 17.8788 47.9283 18.672 47.6671C19.143 47.5341 19.663 47.3901 20.212 47.2851C20.065 47.4291 19.92 47.5741 19.773 47.7201L17.511 50.1641C17.3389 50.3164 17.2172 50.5174 17.1618 50.7404C17.1065 50.9634 17.1201 51.198 17.201 51.4131C17.3338 51.6859 17.542 51.9149 17.801 52.0731C18.5322 52.487 19.3609 52.6973 20.201 52.6821C20.5227 52.6838 20.8436 52.6503 21.158 52.5821C22.2708 52.1786 23.2894 51.5518 24.151 50.7401C25.0224 49.9873 26.0178 49.3915 27.093 48.9791C27.3603 48.9083 27.6354 48.8707 27.912 48.8671C27.9832 48.867 28.0544 48.8717 28.125 48.8811C28.9527 49.0158 29.7247 49.3843 30.35 49.9431C32.205 51.3361 40.412 58.5161 40.493 58.5881C40.6559 58.7426 40.7841 58.9301 40.8689 59.1381C40.9538 59.346 40.9933 59.5697 40.985 59.7941C40.9699 60.0091 40.9023 60.217 40.7881 60.3998C40.6739 60.5825 40.5166 60.7344 40.33 60.8421C40.0104 61.0544 39.6366 61.1704 39.253 61.1761C38.9161 61.1764 38.5861 61.0814 38.301 60.9021C38.271 60.8771 35.459 58.3021 34.425 57.4321C34.2951 57.2952 34.1241 57.2043 33.938 57.1731C33.897 57.1724 33.8565 57.181 33.8194 57.1984C33.7823 57.2157 33.7497 57.2412 33.724 57.2731C33.562 57.4731 33.743 57.7511 33.959 57.9341L37.243 61.2341C37.4875 61.4734 37.6467 61.7865 37.696 62.1251C37.7044 62.402 37.636 62.6758 37.4983 62.9163C37.3606 63.1567 37.1591 63.3542 36.916 63.4871C36.5744 63.7274 36.1694 63.8613 35.752 63.8721C35.4184 63.8711 35.0926 63.772 34.815 63.5871L34.344 63.1221C33.483 62.2751 32.594 61.3991 31.944 60.8561C31.8123 60.721 31.6403 60.6323 31.454 60.6031C31.4153 60.6024 31.3769 60.6098 31.3413 60.6248C31.3057 60.6398 31.2735 60.662 31.247 60.6901C31.174 60.7721 31.121 60.9211 31.307 61.1671C31.3571 61.2326 31.4123 61.2942 31.472 61.3511L33.872 64.0441C34.0102 64.201 34.0909 64.4003 34.1007 64.6091C34.1105 64.818 34.0489 65.024 33.926 65.1931L33.841 65.2991C33.7719 65.376 33.6977 65.4482 33.619 65.5151C33.28 65.7642 32.8685 65.8949 32.448 65.8871C32.3393 65.8876 32.2309 65.8782 32.124 65.8591C31.9485 65.8454 31.7822 65.7753 31.65 65.6591L31.622 65.6291C31.492 65.4941 30.283 64.2601 29.283 63.4291C29.1597 63.2968 28.9963 63.209 28.818 63.1791C28.7767 63.1791 28.736 63.1881 28.6985 63.2054C28.6611 63.2226 28.6278 63.2478 28.601 63.2791C28.401 63.4951 28.701 63.8191 28.826 63.9391L30.871 66.1931C30.8522 66.2429 30.8259 66.2894 30.793 66.3311C30.72 66.4311 30.472 66.6801 29.73 66.7731C29.6401 66.7845 29.5496 66.7898 29.459 66.7891C28.7561 66.7439 28.0725 66.5409 27.459 66.1951C27.678 65.7304 27.7761 65.2179 27.7441 64.7051C27.7121 64.1924 27.551 63.696 27.2759 63.2622C27.0007 62.8283 26.6204 62.471 26.1703 62.2235C25.7201 61.9759 25.2147 61.8461 24.701 61.8461C24.665 61.8461 24.628 61.8461 24.592 61.8461C24.6791 61.2656 24.5753 60.6725 24.2961 60.1561C24.0169 59.6397 23.5774 59.228 23.044 58.9831C22.6426 58.8035 22.2086 58.7082 21.769 58.7031C21.45 58.7013 21.1334 58.7583 20.835 58.8711C20.524 58.2679 19.9869 57.8123 19.341 57.6041C18.9892 57.4796 18.6191 57.4144 18.246 57.4111C17.6341 57.4078 17.0371 57.599 16.541 57.9571C16.3155 57.674 16.0328 57.4417 15.7113 57.2755C15.3898 57.1093 15.0368 57.0129 14.6754 56.9927C14.3141 56.9725 13.9525 57.0289 13.6145 57.1582C13.2764 57.2876 12.9696 57.4869 12.714 57.7431C12.077 57.2571 9.55296 55.6531 2.79596 54.1181C2.46896 54.0451 1.71897 53.8291 1.25897 53.6951C1.18203 54.0612 1.12394 54.431 1.08496 54.8031C1.08496 54.8031 2.33097 55.1031 2.57697 55.1571C9.47696 56.6901 11.759 58.2841 12.146 58.5851C12.0137 58.8995 11.9458 59.2371 11.946 59.5781C11.9458 59.9579 12.0292 60.3332 12.1903 60.6771C12.3515 61.0211 12.5864 61.3253 12.8784 61.5682C13.1704 61.8112 13.5123 61.9868 13.8798 62.0827C14.2474 62.1786 14.6315 62.1924 15.005 62.1231C15.1073 62.6355 15.3409 63.1126 15.6828 63.5077C16.0248 63.9028 16.4635 64.2024 16.956 64.3771C17.2499 64.4919 17.5624 64.5522 17.878 64.5551C18.0766 64.5554 18.2744 64.5308 18.467 64.4821C18.7039 64.9808 19.0739 65.4044 19.5362 65.7063C19.9985 66.0081 20.5351 66.1766 21.087 66.1931C21.3565 66.193 21.624 66.1453 21.877 66.0521C22.0689 66.5194 22.374 66.9316 22.7649 67.2516C23.1558 67.5716 23.6201 67.7894 24.1161 67.8852C24.6121 67.981 25.1242 67.9519 25.6061 67.8006C26.0881 67.6492 26.5248 67.3803 26.877 67.0181C27.6638 67.4765 28.5486 67.7408 29.458 67.7891C29.5887 67.7885 29.7192 67.7802 29.849 67.7641C30.1851 67.7544 30.5153 67.673 30.8174 67.5253C31.1196 67.3777 31.3867 67.1673 31.601 66.9081C31.6415 66.8527 31.6776 66.7942 31.709 66.7331C31.9767 66.8156 32.2548 66.8594 32.535 66.8631C33.1419 66.8505 33.728 66.6398 34.204 66.2631C34.7069 65.9336 35.0603 65.4197 35.188 64.8321V64.8111C35.3716 64.8489 35.5585 64.868 35.746 64.8681C36.3585 64.8601 36.9549 64.6708 37.46 64.3241C37.8435 64.1014 38.1601 63.7797 38.3767 63.3927C38.5933 63.0056 38.7018 62.5675 38.691 62.1241C38.8764 62.1629 39.0655 62.1824 39.255 62.1821C39.8267 62.1764 40.3845 62.0052 40.861 61.6891C41.1775 61.4959 41.4437 61.2304 41.6377 60.9143C41.8317 60.5983 41.9479 60.2408 41.977 59.8711C42.0171 59.357 41.8932 58.8434 41.623 58.4041C45.0722 56.996 48.6337 55.8808 52.27 55.0701C52.2395 54.6995 52.1901 54.3307 52.122 53.9651C48.2752 54.8153 44.5197 56.0356 40.908 57.6091" fill="#253E8B"/>
<path d="M141.723 51.7051C141.475 51.9961 141.167 52.2298 140.82 52.3901C140.473 52.5504 140.095 52.6334 139.713 52.6334C139.331 52.6334 138.953 52.5504 138.606 52.3901C138.259 52.2298 137.951 51.9961 137.704 51.7051C137.242 50.9021 136.999 49.9919 136.999 49.0656C136.999 48.1392 137.242 47.2291 137.704 46.4261C137.952 46.1362 138.26 45.9036 138.607 45.7441C138.954 45.5846 139.331 45.502 139.713 45.502C140.095 45.502 140.472 45.5846 140.819 45.7441C141.166 45.9036 141.474 46.1362 141.723 46.4261C142.183 47.2297 142.425 48.1396 142.425 49.0656C142.425 49.9915 142.183 50.9014 141.723 51.7051ZM144.107 44.7901C142.943 43.6327 141.368 42.983 139.726 42.983C138.085 42.983 136.51 43.6327 135.346 44.7901C134.409 46.0207 133.901 47.5248 133.901 49.0716C133.901 50.6183 134.409 52.1224 135.346 53.3531C136.518 54.4944 138.09 55.1331 139.726 55.1331C141.363 55.1331 142.934 54.4944 144.107 53.3531C145.043 52.122 145.55 50.6181 145.55 49.0716C145.55 47.5251 145.043 46.0211 144.107 44.7901Z" fill="#253E8B"/>
<path d="M118.006 50.297C118.043 50.6851 117.984 51.0761 117.834 51.4362C117.685 51.7963 117.45 52.1144 117.15 52.363C116.623 52.7335 115.994 52.9319 115.35 52.931C114.971 52.9413 114.6 52.8205 114.3 52.589C114.147 52.4504 114.029 52.2781 113.954 52.0858C113.88 51.8935 113.851 51.6864 113.87 51.481C113.856 51.2251 113.914 50.9705 114.038 50.7461C114.162 50.5217 114.346 50.3367 114.57 50.212C115.004 50.0039 115.468 49.8668 115.945 49.806L116.626 49.68C116.898 49.6331 117.166 49.5638 117.426 49.473C117.629 49.398 117.823 49.3015 118.005 49.185L118.006 50.297ZM119.522 43.783C118.48 43.2733 117.333 43.0183 116.173 43.039C114.24 43.039 112.877 43.5423 112.085 44.549C111.561 45.2666 111.267 46.126 111.241 47.014H114.126C114.173 46.6331 114.32 46.2714 114.552 45.966C114.752 45.7728 114.991 45.6257 115.253 45.535C115.516 45.4443 115.795 45.4122 116.071 45.441C116.57 45.4115 117.069 45.5035 117.524 45.709C117.691 45.8058 117.826 45.9487 117.914 46.1207C118.001 46.2926 118.037 46.4861 118.017 46.678C118.014 46.87 117.95 47.056 117.834 47.2089C117.718 47.3618 117.556 47.4736 117.372 47.528C116.985 47.6669 116.582 47.755 116.172 47.79L115.149 47.916C114.23 47.9911 113.334 48.2405 112.508 48.651C111.975 48.9536 111.539 49.4007 111.249 49.9407C110.959 50.4807 110.828 51.0916 110.87 51.703C110.842 52.171 110.919 52.6394 111.095 53.074C111.271 53.5086 111.541 53.8984 111.887 54.215C112.619 54.8006 113.531 55.1144 114.468 55.103C120.993 55.394 120.919 51.664 120.979 50.888V46.594C121.039 46.0332 120.933 45.467 120.672 44.9667C120.412 44.4664 120.009 44.0542 119.515 43.782" fill="#253E8B"/>
<path d="M104.645 45.5961C104.955 45.5711 105.267 45.6209 105.553 45.7411C105.84 45.8613 106.094 46.0486 106.293 46.2871C106.537 46.6281 106.692 47.0237 106.746 47.4391H109.966C109.954 46.781 109.794 46.1341 109.499 45.5457C109.204 44.9574 108.781 44.4426 108.261 44.0391C107.151 43.3587 105.863 43.0242 104.561 43.0781C103.79 43.036 103.018 43.16 102.298 43.4415C101.579 43.723 100.928 44.1556 100.389 44.7101C99.3171 45.9807 98.7756 47.6156 98.8774 49.2751C98.8105 50.8036 99.2961 52.3052 100.245 53.5051C100.789 54.0799 101.455 54.525 102.194 54.8072C102.933 55.0893 103.726 55.2014 104.514 55.1351C105.349 55.1898 106.184 55.0403 106.947 54.6997C107.711 54.359 108.38 53.8375 108.896 53.1801C109.485 52.442 109.845 51.5481 109.932 50.6081H106.724C106.685 51.141 106.488 51.6503 106.16 52.0721C105.958 52.2775 105.712 52.4348 105.44 52.5324C105.168 52.6301 104.878 52.6655 104.591 52.6361C104.13 52.6653 103.673 52.5417 103.289 52.2844C102.905 52.0272 102.617 51.6506 102.469 51.2131C102.241 50.5682 102.136 49.8859 102.16 49.2021C102.136 48.4869 102.24 47.7731 102.469 47.0951C102.615 46.6398 102.908 46.2457 103.302 45.9743C103.695 45.7029 104.168 45.5696 104.645 45.5951" fill="#253E8B"/>
<path d="M98.0144 43.077C91.4024 43.077 91.7944 48.9311 91.7944 48.9311V54.8771H94.7944V49.3C94.7537 48.606 94.8717 47.9117 95.1394 47.2701C95.3866 46.8629 95.7461 46.5359 96.1747 46.3281C96.6033 46.1204 97.0827 46.0409 97.5554 46.0991C97.6454 46.0991 97.7634 46.0991 97.9104 46.1111C98.0574 46.1231 98.2224 46.1301 98.4104 46.1531V43.0991C98.2774 43.0901 98.1914 43.0871 98.1544 43.0821C98.1174 43.0771 98.0694 43.076 98.0134 43.076" fill="#253E8B"/>
<path d="M82.9589 46.1841C83.1947 45.9591 83.4744 45.7851 83.7805 45.6731C84.0866 45.5611 84.4125 45.5134 84.7379 45.5331C85.3831 45.5115 86.0134 45.7307 86.5059 46.1481C86.7536 46.3783 86.9517 46.6568 87.0881 46.9663C87.2244 47.2758 87.2962 47.6099 87.2989 47.9481H82.1659C82.2342 47.2902 82.5122 46.6718 82.9589 46.1841ZM86.9909 51.7701C86.8761 51.9401 86.7377 52.093 86.5799 52.2241C86.0911 52.5667 85.4977 52.7273 84.9029 52.6781C84.3433 52.7106 83.7867 52.577 83.3029 52.2941C82.9126 52.0368 82.5958 51.6825 82.3836 51.266C82.1713 50.8495 82.0708 50.3851 82.0919 49.9181H90.3919C90.4157 49.163 90.3822 48.4071 90.2919 47.6571C90.1728 46.8129 89.8626 46.0071 89.3849 45.3011C88.9017 44.5631 88.2184 43.978 87.4149 43.6141C86.5701 43.2486 85.6572 43.0672 84.7369 43.0821C83.9856 43.0527 83.2363 43.1777 82.5353 43.4493C81.8342 43.7208 81.1963 44.1333 80.6609 44.6611C80.1085 45.2744 79.6848 45.9923 79.4148 46.7723C79.1448 47.5523 79.0339 48.3785 79.0889 49.2021C79.0889 51.3107 79.6692 52.8317 80.8299 53.7651C81.9618 54.6888 83.383 55.1845 84.8439 55.1651C85.6359 55.211 86.4285 55.0863 87.1681 54.7994C87.9077 54.5124 88.5771 54.0701 89.1309 53.5021C89.619 53.0226 89.9772 52.427 90.1719 51.7711H86.9899" fill="#253E8B"/>
<path d="M77.887 54.875H75.146V47.975C75.1759 47.6979 75.1453 47.4175 75.0562 47.1534C74.9672 46.8892 74.8218 46.6476 74.6302 46.4451C74.4386 46.2426 74.2053 46.0842 73.9465 45.9808C73.6876 45.8773 73.4094 45.8314 73.131 45.846C72.8515 45.8375 72.5733 45.8872 72.314 45.9919C72.0547 46.0966 71.82 46.254 71.6248 46.4542C71.4295 46.6543 71.2779 46.8929 71.1797 47.1547C71.0814 47.4165 71.0386 47.6958 71.054 47.975V54.875H68.31V47.975C68.3425 47.6991 68.3145 47.4195 68.2277 47.1556C68.141 46.8917 67.9976 46.6499 67.8077 46.4471C67.6178 46.2444 67.3859 46.0855 67.1283 45.9817C66.8706 45.8779 66.5934 45.8316 66.316 45.846C66.036 45.8359 65.757 45.8844 65.4969 45.9885C65.2368 46.0926 65.0013 46.2499 64.8056 46.4504C64.6099 46.6509 64.4583 46.8901 64.3606 47.1527C64.2628 47.4152 64.2211 47.6953 64.238 47.975V54.875H61.497V48.04C61.455 47.3878 61.5496 46.734 61.7745 46.1204C61.9995 45.5068 62.35 44.9468 62.8036 44.4763C63.2571 44.0057 63.8039 43.635 64.4088 43.3877C65.0138 43.1404 65.6637 43.022 66.317 43.04C66.9693 43.0236 67.6164 43.1588 68.2076 43.4348C68.7988 43.7109 69.3178 44.1204 69.724 44.631C70.1375 44.1288 70.658 43.7253 71.2475 43.45C71.8369 43.1748 72.4805 43.0347 73.131 43.04C76.123 43.04 77.888 45.108 77.888 48.04V54.875" fill="#253E8B"/>
<path d="M129.41 51.729C129.196 52.037 128.907 52.2852 128.571 52.45C128.234 52.6149 127.86 52.691 127.486 52.671C127.116 52.6938 126.747 52.6182 126.416 52.4521C126.084 52.2859 125.803 52.0351 125.6 51.725C125.153 50.934 124.938 50.0328 124.979 49.125C124.948 48.2666 125.16 47.4169 125.589 46.673C125.789 46.3495 126.073 46.0865 126.411 45.9124C126.749 45.7383 127.128 45.6597 127.507 45.685C128.059 45.6774 128.594 45.8704 129.014 46.228C129.399 46.6348 129.692 47.1192 129.874 47.6488C130.056 48.1783 130.123 48.7406 130.07 49.298C130.107 50.1571 129.876 51.0065 129.41 51.729ZM133.01 39.473C133.01 39.473 129.987 39.151 129.987 41.578V44.792C129.667 44.2674 129.217 43.8336 128.681 43.532C128.118 43.2215 127.483 43.0643 126.84 43.076C126.152 43.0526 125.468 43.192 124.845 43.4829C124.221 43.7738 123.674 44.208 123.25 44.75C122.288 46.1095 121.815 47.755 121.908 49.418C121.846 50.92 122.33 52.3937 123.271 53.566C123.843 54.0997 124.516 54.5121 125.252 54.7781C125.987 55.0442 126.768 55.1585 127.549 55.114C133.074 55.114 133.009 50.375 133.009 50.375V39.475" fill="#253E8B"/>
<path d="M88.4307 65.8001C88.4881 64.8819 88.2563 63.9687 87.7677 63.1891C87.553 62.8897 87.2665 62.649 86.9345 62.4891C86.6025 62.3292 86.2357 62.2553 85.8677 62.2741C85.5069 62.2601 85.1483 62.3364 84.8245 62.4962C84.5008 62.656 84.2221 62.8942 84.0137 63.1891C83.5433 63.9747 83.3283 64.8871 83.3987 65.8001C83.333 66.6783 83.566 67.5529 84.0597 68.2821C84.2745 68.5815 84.561 68.8222 84.8929 68.9821C85.2249 69.142 85.5917 69.2159 85.9597 69.1971C86.3138 69.2086 86.6651 69.1309 86.9812 68.971C87.2974 68.8111 87.5682 68.5742 87.7687 68.2821C88.2475 67.5461 88.4797 66.6768 88.4317 65.8001M83.4037 73.9191C83.4063 74.1144 83.3681 74.3081 83.2917 74.4879C83.2152 74.6676 83.1022 74.8295 82.9597 74.9631C82.8225 75.1038 82.6579 75.2151 82.4762 75.2901C82.2944 75.3651 82.0993 75.4022 81.9027 75.3991H80.4027V64.9721C80.3393 64.1844 80.471 63.3932 80.7862 62.6684C81.1014 61.9437 81.5903 61.3079 82.2097 60.8171C83.3501 60.0033 84.7381 59.6116 86.1357 59.7091C86.8672 59.692 87.5942 59.8276 88.2704 60.1072C88.9465 60.3868 89.557 60.8043 90.0627 61.3331C91.0478 62.5573 91.5489 64.1007 91.4707 65.6701C91.5443 67.2568 91.0787 68.8217 90.1497 70.1101C89.7541 70.6349 89.2397 71.0583 88.6486 71.3457C88.0576 71.633 87.4068 71.7761 86.7497 71.7631C86.0826 71.7768 85.4207 71.6436 84.8107 71.3731C84.2144 71.0761 83.7224 70.6049 83.3997 70.0221V73.9221" fill="#00AEEF"/>
<path d="M106.413 65.802C106.413 67.802 106.991 68.9113 108.147 69.13C108.605 69.2699 109.094 69.2677 109.55 69.1236C110.007 68.9795 110.408 68.7003 110.702 68.323C111.013 67.878 111.207 67.3623 111.266 66.823C111.381 66.1548 111.388 65.4725 111.287 64.802C111.198 64.1577 110.952 63.545 110.572 63.017C110.386 62.7591 110.137 62.5523 109.85 62.4155C109.562 62.2787 109.245 62.2163 108.927 62.234C108.524 62.1917 108.118 62.273 107.762 62.4669C107.406 62.6608 107.117 62.9583 106.934 63.32C106.576 64.0968 106.398 64.9447 106.414 65.8M111.354 70.8V70.064C111.125 70.4457 110.82 70.7771 110.459 71.0384C110.099 71.2997 109.689 71.4856 109.254 71.585C108.38 71.7885 107.465 71.7118 106.636 71.366C105.709 70.9693 104.929 70.2937 104.403 69.433C103.736 68.3105 103.412 67.0166 103.473 65.712C103.402 64.1611 103.835 62.6287 104.706 61.344C105.188 60.7714 105.798 60.3211 106.488 60.0299C107.177 59.7388 107.925 59.6151 108.671 59.669C110.053 59.5464 111.43 59.9504 112.526 60.8C113.141 61.2978 113.624 61.9386 113.934 62.6664C114.244 63.3943 114.37 64.1869 114.302 64.975V71.108C114.326 71.8374 114.194 72.5635 113.914 73.2375C113.634 73.9116 113.214 74.5181 112.681 75.0163C112.147 75.5146 111.514 75.8932 110.822 76.1266C110.131 76.3601 109.398 76.4431 108.671 76.37C106.023 76.178 104.553 75.091 103.733 72.63H106.896C107.14 73.0471 107.513 73.3737 107.958 73.561C108.401 73.7764 108.903 73.838 109.384 73.736C109.9 73.6072 110.358 73.3089 110.684 72.889C111.122 72.2806 111.357 71.5495 111.354 70.8Z" fill="#00AEEF"/>
<path d="M99.3858 67.0121C99.4216 67.4 99.3625 67.7908 99.2136 68.1507C99.0646 68.5107 98.8303 68.8289 98.5308 69.0781C98.0032 69.4471 97.3746 69.6444 96.7308 69.6431C96.352 69.6545 95.981 69.5344 95.6808 69.3031C95.5276 69.1647 95.4087 68.9925 95.3337 68.8002C95.2587 68.6078 95.2296 68.4006 95.2488 68.1951C95.2354 67.9389 95.2945 67.6841 95.4194 67.46C95.5443 67.2358 95.7298 67.0515 95.9548 66.9281C96.3877 66.7186 96.8517 66.5809 97.3288 66.5201L98.0098 66.3941C98.2817 66.3475 98.5494 66.2783 98.8098 66.1871C99.0125 66.1128 99.2066 66.0169 99.3888 65.9011L99.3858 67.0121ZM100.902 60.4981C99.8607 59.9886 98.7136 59.7336 97.5548 59.7541C95.6214 59.7541 94.2585 60.2574 93.4658 61.2641C92.9417 61.9814 92.6477 62.841 92.6228 63.7291H95.5098C95.5547 63.3475 95.7011 62.9849 95.9338 62.6791C96.1333 62.4864 96.3726 62.3397 96.6348 62.2494C96.8971 62.159 97.1759 62.1271 97.4518 62.1561C97.9506 62.1267 98.449 62.2183 98.9048 62.4231C99.0715 62.5204 99.2068 62.6635 99.2946 62.8355C99.3823 63.0074 99.4188 63.201 99.3998 63.3931C99.397 63.585 99.3329 63.771 99.2168 63.924C99.1008 64.0769 98.9389 64.1887 98.7548 64.2431C98.3679 64.3821 97.9645 64.4702 97.5548 64.5051L96.5318 64.6291C95.613 64.7056 94.717 64.955 93.8908 65.3641C93.3579 65.6668 92.9213 66.1139 92.6314 66.6538C92.3414 67.1938 92.2098 67.8046 92.2518 68.4161C92.2239 68.8841 92.3008 69.3525 92.4769 69.7871C92.653 70.2217 92.9239 70.6115 93.2698 70.9281C94.0015 71.5137 94.9136 71.8275 95.8508 71.8161C102.373 72.1071 102.301 68.3761 102.361 67.6011V63.3081C102.421 62.7475 102.315 62.1816 102.054 61.6815C101.794 61.1815 101.391 60.7697 100.897 60.4981" fill="#00AEEF"/>
<path d="M123.262 68.3541C123.014 68.6456 122.706 68.8797 122.359 69.0403C122.012 69.2009 121.634 69.2841 121.252 69.2841C120.87 69.2841 120.492 69.2009 120.145 69.0403C119.798 68.8797 119.49 68.6456 119.243 68.3541C118.78 67.5519 118.536 66.6422 118.536 65.7161C118.536 64.79 118.78 63.8802 119.243 63.0781C119.491 62.7887 119.8 62.5565 120.146 62.3972C120.493 62.238 120.87 62.1556 121.252 62.1556C121.634 62.1556 122.011 62.238 122.358 62.3972C122.704 62.5565 123.013 62.7887 123.262 63.0781C123.721 63.8815 123.962 64.7908 123.962 65.7161C123.962 66.6414 123.721 67.5507 123.262 68.3541ZM125.647 61.4441C124.482 60.2866 122.907 59.637 121.266 59.637C119.624 59.637 118.049 60.2866 116.885 61.4441C115.948 62.6744 115.44 64.1782 115.44 65.7246C115.44 67.271 115.948 68.7747 116.885 70.0051C118.057 71.1465 119.629 71.7852 121.266 71.7852C122.902 71.7852 124.474 71.1465 125.647 70.0051C126.581 68.7735 127.086 67.2702 127.086 65.7246C127.086 64.1789 126.581 62.6757 125.647 61.4441Z" fill="#00AEEF"/>
<path d="M33.44 11H34.925V7.085H37.31C39.245 7.085 40.64 5.735 40.64 3.725C40.64 1.715 39.245 0.41 37.31 0.41H33.44V11ZM34.925 5.795V1.7H37.085C38.345 1.7 39.125 2.45 39.125 3.725C39.125 5 38.345 5.795 37.07 5.795H34.925ZM41.6963 7.19C41.6963 9.5 43.5263 11.18 45.7913 11.18C48.0563 11.18 49.8863 9.5 49.8863 7.19C49.8863 4.895 48.0563 3.23 45.7913 3.23C43.5263 3.23 41.6963 4.895 41.6963 7.19ZM43.1813 7.19C43.1813 5.615 44.3663 4.49 45.7913 4.49C47.2313 4.49 48.4013 5.615 48.4013 7.19C48.4013 8.78 47.2313 9.92 45.7913 9.92C44.3663 9.92 43.1813 8.78 43.1813 7.19ZM53.1717 11H54.7917L56.3517 6.125C56.4717 5.735 56.5617 5.3 56.5617 5.3H56.5917C56.5917 5.3 56.6817 5.735 56.8017 6.125L58.3767 11H59.9817L62.4267 3.41H60.8967L59.3067 8.735C59.1867 9.125 59.1267 9.545 59.1267 9.545H59.0967C59.0967 9.545 59.0067 9.125 58.8867 8.735L57.2517 3.425H55.9167L54.2667 8.735C54.1467 9.125 54.0717 9.545 54.0717 9.545H54.0417C54.0267 9.545 53.9667 9.125 53.8467 8.735L52.2717 3.41H50.7267L53.1717 11ZM63.3035 7.205C63.3035 9.455 64.9385 11.18 67.3235 11.18C69.1385 11.18 70.2635 10.1 70.2635 10.1L69.6635 9.035C69.6635 9.035 68.7185 9.92 67.4135 9.92C66.0635 9.92 64.8785 9.08 64.8035 7.415H70.3385C70.3385 7.415 70.3835 6.98 70.3835 6.785C70.3835 4.82 69.2435 3.23 67.0985 3.23C64.9385 3.23 63.3035 4.79 63.3035 7.205ZM64.8485 6.32C65.0585 5.075 65.9585 4.385 67.0685 4.385C68.0435 4.385 68.8535 5.015 68.8985 6.32H64.8485ZM72.1488 11H73.6038V7.895C73.6038 7.43 73.6488 6.965 73.7838 6.53C74.1288 5.405 74.9838 4.745 75.9138 4.745C76.1388 4.745 76.3338 4.79 76.3338 4.79V3.35C76.3338 3.35 76.1538 3.32 75.9588 3.32C74.7888 3.32 73.9038 4.19 73.5588 5.3H73.5288C73.5288 5.3 73.5588 5.045 73.5588 4.73V3.41H72.1488V11ZM77.2048 7.205C77.2048 9.455 78.8398 11.18 81.2248 11.18C83.0398 11.18 84.1648 10.1 84.1648 10.1L83.5648 9.035C83.5648 9.035 82.6198 9.92 81.3148 9.92C79.9648 9.92 78.7798 9.08 78.7048 7.415H84.2398C84.2398 7.415 84.2848 6.98 84.2848 6.785C84.2848 4.82 83.1448 3.23 80.9998 3.23C78.8398 3.23 77.2048 4.79 77.2048 7.205ZM78.7498 6.32C78.9598 5.075 79.8598 4.385 80.9698 4.385C81.9448 4.385 82.7548 5.015 82.7998 6.32H78.7498ZM85.5552 7.205C85.5552 9.56 86.8452 11.18 88.9002 11.18C90.7752 11.18 91.3902 9.77 91.3902 9.77H91.4202C91.4202 9.77 91.4052 9.98 91.4052 10.28V11H92.7852V0.41H91.3302V3.92C91.3302 4.205 91.3602 4.43 91.3602 4.43H91.3302C91.3302 4.43 90.7452 3.23 88.9902 3.23C86.9802 3.23 85.5552 4.79 85.5552 7.205ZM87.0402 7.205C87.0402 5.48 88.0302 4.49 89.2302 4.49C90.6702 4.49 91.3752 5.84 91.3752 7.19C91.3752 9.125 90.3102 9.92 89.1852 9.92C87.9252 9.92 87.0402 8.855 87.0402 7.205ZM98.9115 11H100.291V10.445C100.291 10.115 100.261 9.875 100.261 9.875H100.291C100.291 9.875 100.981 11.18 102.676 11.18C104.671 11.18 106.126 9.62 106.126 7.205C106.126 4.85 104.836 3.23 102.796 3.23C101.011 3.23 100.366 4.52 100.366 4.52H100.336C100.336 4.52 100.366 4.25 100.366 3.875V0.41H98.9115V11ZM100.321 7.235C100.321 5.3 101.371 4.505 102.511 4.505C103.771 4.505 104.656 5.57 104.656 7.22C104.656 8.945 103.666 9.935 102.466 9.935C101.026 9.935 100.321 8.585 100.321 7.235ZM106.841 13.685C106.841 13.685 107.456 14.15 108.311 14.15C109.376 14.15 110.306 13.535 110.771 12.365L114.326 3.41H112.751L110.906 8.39C110.771 8.78 110.651 9.29 110.651 9.29H110.621C110.621 9.29 110.486 8.765 110.336 8.375L108.431 3.41H106.796L109.976 10.91L109.601 11.78C109.316 12.47 108.821 12.89 108.236 12.89C107.771 12.89 107.351 12.575 107.351 12.575L106.841 13.685Z" fill="#5A5956"/>
</svg>
