<svg width="64" height="64" viewBox="0 0 64 64" fill="none" xmlns="http://www.w3.org/2000/svg">
<path d="M64 32C64 14.3269 49.6731 0 32 0C14.3269 0 0 14.3269 0 32C0 49.6731 14.3269 64 32 64C49.6731 64 64 49.6731 64 32Z" fill="white"/>
<path d="M31.828 5C26.5214 4.99842 21.3335 6.5706 16.9205 9.51772C12.5075 12.4648 9.06769 16.6545 7.03603 21.5567C5.00437 26.459 4.47218 31.8537 5.50676 37.0584C6.54135 42.2632 9.09623 47.0442 12.8483 50.7968C16.6003 54.5494 21.381 57.105 26.5856 58.1404C31.7902 59.1758 37.1849 58.6444 42.0875 56.6134C46.9901 54.5825 51.1802 51.1433 54.128 46.7308C57.0758 42.3182 58.6488 37.1306 58.648 31.824C58.639 24.7133 55.8105 17.8963 50.7829 12.8679C45.7552 7.83951 38.9387 5.01006 31.828 5ZM31.828 54.919C27.261 54.9204 22.7962 53.5674 18.9982 51.0312C15.2003 48.4951 12.2397 44.8895 10.4909 40.6707C8.74208 36.4519 8.28365 31.8092 9.17355 27.3298C10.0634 22.8504 12.2617 18.7355 15.4903 15.5054C18.7189 12.2754 22.8329 10.0754 27.3119 9.18355C31.7909 8.29171 36.4338 8.74813 40.6534 10.4951C44.873 12.242 48.4798 15.2011 51.0176 18.998C53.5555 22.7949 54.9104 27.2591 54.911 31.826C54.9044 37.9469 52.4706 43.8153 48.1434 48.1444C43.8162 52.4734 37.9488 54.9097 31.828 54.919Z" fill="#E21B2B"/>
<path d="M22.024 40.5501C21.6736 40.9004 21.4768 41.3756 21.4768 41.8711C21.4768 42.3665 21.6736 42.8417 22.024 43.1921C22.3743 43.5424 22.8495 43.7393 23.345 43.7393C23.8405 43.7393 24.3156 43.5424 24.666 43.1921C26.5664 41.2982 29.14 40.2348 31.823 40.2348C34.506 40.2348 37.0796 41.2982 38.98 43.1921C39.3328 43.5309 39.8043 43.7181 40.2935 43.7133C40.7826 43.7086 41.2505 43.5123 41.5966 43.1667C41.9428 42.821 42.1397 42.3535 42.1452 41.8643C42.1507 41.3752 41.9643 40.9034 41.626 40.5501C39.0237 37.957 35.4997 36.501 31.826 36.501C28.1523 36.501 24.6283 37.957 22.026 40.5501H22.024Z" fill="#E21B2B"/>
<path d="M22 32C24.2091 32 26 30.2091 26 28C26 25.7909 24.2091 24 22 24C19.7909 24 18 25.7909 18 28C18 30.2091 19.7909 32 22 32Z" fill="#E21B2B"/>
<path d="M41 32C43.2091 32 45 30.2091 45 28C45 25.7909 43.2091 24 41 24C38.7909 24 37 25.7909 37 28C37 30.2091 38.7909 32 41 32Z" fill="#E21B2B"/>
</svg>
