<svg width="267" height="319" viewBox="0 0 267 319" fill="none" xmlns="http://www.w3.org/2000/svg">
<path d="M75.92 255.88C76.28 254.8 77.024 254.26 78.152 254.26H81.392C82.52 254.26 83.264 254.8 83.624 255.88L91.076 277.732C91.316 278.428 91.28 278.98 90.968 279.388C90.68 279.796 90.176 280 89.456 280H87.08C85.952 280 85.208 279.448 84.848 278.344L83.768 274.6H75.74L74.66 278.344C74.348 279.448 73.616 280 72.464 280H70.088C69.368 280 68.852 279.796 68.54 279.388C68.252 278.98 68.228 278.428 68.468 277.732L75.92 255.88ZM82.292 269.56L80.852 264.556C80.732 264.148 80.612 263.692 80.492 263.188C80.396 262.684 80.288 262.204 80.168 261.748C80.048 261.22 79.928 260.68 79.808 260.128H79.736C79.616 260.68 79.496 261.22 79.376 261.748C79.256 262.204 79.136 262.684 79.016 263.188C78.92 263.692 78.812 264.148 78.692 264.556L77.216 269.56H82.292ZM94.7713 283.024C95.0113 282.4 95.3233 281.992 95.7073 281.8C96.0913 281.632 96.6193 281.656 97.2913 281.872C97.7473 282.016 98.2273 282.136 98.7313 282.232C99.2593 282.328 99.8833 282.376 100.603 282.376C101.179 282.376 101.731 282.316 102.259 282.196C102.787 282.076 103.243 281.884 103.627 281.62C104.035 281.356 104.359 280.996 104.599 280.54C104.839 280.084 104.959 279.508 104.959 278.812V277.876V277.444C104.959 277.348 104.971 277.264 104.995 277.192H104.923C104.419 277.936 103.807 278.5 103.087 278.884C102.391 279.268 101.491 279.46 100.387 279.46C98.9713 279.46 97.7233 279.196 96.6433 278.668C95.5873 278.14 94.7113 277.444 94.0153 276.58C93.3193 275.716 92.7913 274.732 92.4313 273.628C92.0953 272.5 91.9273 271.336 91.9273 270.136C91.9273 268.96 92.0953 267.832 92.4313 266.752C92.7673 265.648 93.2833 264.676 93.9793 263.836C94.6993 262.972 95.5873 262.288 96.6433 261.784C97.7233 261.28 98.9833 261.028 100.423 261.028C101.431 261.028 102.247 261.16 102.871 261.424C103.519 261.664 104.047 261.94 104.455 262.252C104.887 262.612 105.235 263.008 105.499 263.44H105.571C105.547 263.416 105.535 263.38 105.535 263.332V263.08V263.008C105.535 262.576 105.703 262.216 106.039 261.928C106.375 261.616 106.867 261.46 107.515 261.46H109.207C110.527 261.46 111.187 262.12 111.187 263.44V278.308C111.187 280.012 110.875 281.44 110.251 282.592C109.627 283.768 108.823 284.728 107.839 285.472C106.855 286.216 105.751 286.744 104.527 287.056C103.327 287.392 102.139 287.56 100.963 287.56C99.8833 287.56 98.8273 287.464 97.7953 287.272C96.7873 287.104 96.0073 286.9 95.4553 286.66C94.2793 286.18 93.9193 285.328 94.3753 284.104L94.7713 283.024ZM101.755 274.276C102.163 274.276 102.559 274.216 102.943 274.096C103.351 273.976 103.711 273.772 104.023 273.484C104.359 273.172 104.623 272.752 104.815 272.224C105.007 271.696 105.103 271.024 105.103 270.208C105.103 269.392 104.995 268.732 104.779 268.228C104.587 267.7 104.323 267.292 103.987 267.004C103.675 266.692 103.291 266.488 102.835 266.392C102.403 266.272 101.959 266.212 101.503 266.212C100.399 266.212 99.5713 266.56 99.0193 267.256C98.4673 267.952 98.1913 268.84 98.1913 269.92C98.1913 270.496 98.2633 271.048 98.4073 271.576C98.5513 272.104 98.7673 272.572 99.0553 272.98C99.3433 273.364 99.7033 273.676 100.135 273.916C100.591 274.156 101.131 274.276 101.755 274.276ZM113.646 274.78C113.646 273.532 113.97 272.5 114.618 271.684C115.29 270.868 116.142 270.22 117.174 269.74C118.206 269.26 119.334 268.924 120.558 268.732C121.782 268.54 122.97 268.444 124.122 268.444H124.662V268.12C124.662 267.352 124.398 266.824 123.87 266.536C123.342 266.224 122.73 266.068 122.034 266.068C121.434 266.068 120.846 266.152 120.27 266.32C119.694 266.488 119.166 266.68 118.686 266.896C117.462 267.424 116.574 267.136 116.022 266.032L115.59 265.132C115.326 264.58 115.254 264.076 115.374 263.62C115.494 263.14 115.83 262.756 116.382 262.468C117.078 262.132 117.954 261.808 119.01 261.496C120.066 261.184 121.266 261.028 122.61 261.028C125.178 261.028 127.194 261.7 128.658 263.044C130.146 264.364 130.89 266.212 130.89 268.588V278.02C130.89 279.34 130.23 280 128.91 280H127.182C125.862 280 125.202 279.328 125.202 277.984V277.84V277.588C125.202 277.54 125.214 277.504 125.238 277.48H125.166C124.806 278.032 124.362 278.524 123.834 278.956C123.378 279.34 122.802 279.688 122.106 280C121.41 280.288 120.606 280.432 119.694 280.432C118.806 280.432 117.99 280.288 117.246 280C116.502 279.712 115.866 279.316 115.338 278.812C114.81 278.308 114.39 277.708 114.078 277.012C113.79 276.316 113.646 275.572 113.646 274.78ZM119.802 274.204C119.802 274.636 119.946 275.008 120.234 275.32C120.546 275.632 120.99 275.788 121.566 275.788C122.022 275.788 122.442 275.692 122.826 275.5C123.21 275.284 123.546 275.02 123.834 274.708C124.122 274.396 124.338 274.048 124.482 273.664C124.65 273.28 124.734 272.896 124.734 272.512V272.008H124.158C123.678 272.008 123.174 272.044 122.646 272.116C122.142 272.188 121.674 272.308 121.242 272.476C120.834 272.644 120.486 272.872 120.198 273.16C119.934 273.424 119.802 273.772 119.802 274.204ZM134.277 263.44C134.277 262.12 134.937 261.46 136.257 261.46H138.273C139.593 261.46 140.253 262.12 140.253 263.44V264.592C140.253 264.76 140.241 264.904 140.217 265.024C140.217 265.144 140.217 265.264 140.217 265.384C140.193 265.504 140.181 265.624 140.181 265.744H140.253C140.397 265.264 140.625 264.76 140.937 264.232C141.249 263.704 141.621 263.224 142.053 262.792C142.485 262.36 142.965 262 143.493 261.712C144.045 261.424 144.609 261.28 145.185 261.28C145.809 261.28 146.241 261.448 146.481 261.784C146.745 262.12 146.877 262.612 146.877 263.26V265.276C146.877 266.596 146.217 267.256 144.897 267.256C144.153 267.256 143.505 267.412 142.953 267.724C142.401 268.012 141.945 268.408 141.585 268.912C141.225 269.416 140.949 270.004 140.757 270.676C140.589 271.348 140.505 272.056 140.505 272.8V278.02C140.505 279.34 139.845 280 138.525 280H136.257C134.937 280 134.277 279.34 134.277 278.02V263.44ZM148.867 263.44C148.867 262.12 149.527 261.46 150.847 261.46H152.863C154.183 261.46 154.843 262.12 154.843 263.44V264.592C154.843 264.76 154.831 264.904 154.807 265.024C154.807 265.144 154.807 265.264 154.807 265.384C154.783 265.504 154.771 265.624 154.771 265.744H154.843C154.987 265.264 155.215 264.76 155.527 264.232C155.839 263.704 156.211 263.224 156.643 262.792C157.075 262.36 157.555 262 158.083 261.712C158.635 261.424 159.199 261.28 159.775 261.28C160.399 261.28 160.831 261.448 161.071 261.784C161.335 262.12 161.467 262.612 161.467 263.26V265.276C161.467 266.596 160.807 267.256 159.487 267.256C158.743 267.256 158.095 267.412 157.543 267.724C156.991 268.012 156.535 268.408 156.175 268.912C155.815 269.416 155.539 270.004 155.347 270.676C155.179 271.348 155.095 272.056 155.095 272.8V278.02C155.095 279.34 154.435 280 153.115 280H150.847C149.527 280 148.867 279.34 148.867 278.02V263.44ZM161.881 274.78C161.881 273.532 162.205 272.5 162.853 271.684C163.525 270.868 164.377 270.22 165.409 269.74C166.441 269.26 167.569 268.924 168.793 268.732C170.017 268.54 171.205 268.444 172.357 268.444H172.897V268.12C172.897 267.352 172.633 266.824 172.105 266.536C171.577 266.224 170.965 266.068 170.269 266.068C169.669 266.068 169.081 266.152 168.505 266.32C167.929 266.488 167.401 266.68 166.921 266.896C165.697 267.424 164.809 267.136 164.257 266.032L163.825 265.132C163.561 264.58 163.489 264.076 163.609 263.62C163.729 263.14 164.065 262.756 164.617 262.468C165.313 262.132 166.189 261.808 167.245 261.496C168.301 261.184 169.501 261.028 170.845 261.028C173.413 261.028 175.429 261.7 176.893 263.044C178.381 264.364 179.125 266.212 179.125 268.588V278.02C179.125 279.34 178.465 280 177.145 280H175.417C174.097 280 173.437 279.328 173.437 277.984V277.84V277.588C173.437 277.54 173.449 277.504 173.473 277.48H173.401C173.041 278.032 172.597 278.524 172.069 278.956C171.613 279.34 171.037 279.688 170.341 280C169.645 280.288 168.841 280.432 167.929 280.432C167.041 280.432 166.225 280.288 165.481 280C164.737 279.712 164.101 279.316 163.573 278.812C163.045 278.308 162.625 277.708 162.313 277.012C162.025 276.316 161.881 275.572 161.881 274.78ZM168.037 274.204C168.037 274.636 168.181 275.008 168.469 275.32C168.781 275.632 169.225 275.788 169.801 275.788C170.257 275.788 170.677 275.692 171.061 275.5C171.445 275.284 171.781 275.02 172.069 274.708C172.357 274.396 172.573 274.048 172.717 273.664C172.885 273.28 172.969 272.896 172.969 272.512V272.008H172.393C171.913 272.008 171.409 272.044 170.881 272.116C170.377 272.188 169.909 272.308 169.477 272.476C169.069 272.644 168.721 272.872 168.433 273.16C168.169 273.424 168.037 273.772 168.037 274.204ZM182.512 278.74C181.96 278.428 181.648 278.032 181.576 277.552C181.528 277.072 181.672 276.556 182.008 276.004L182.548 275.176C182.908 274.648 183.292 274.348 183.7 274.276C184.132 274.204 184.66 274.312 185.284 274.6C185.74 274.792 186.256 275.008 186.832 275.248C187.408 275.464 188.068 275.572 188.812 275.572C189.436 275.572 189.868 275.476 190.108 275.284C190.372 275.068 190.504 274.816 190.504 274.528C190.504 274.168 190.288 273.88 189.856 273.664C189.424 273.448 188.884 273.244 188.236 273.052C187.612 272.836 186.916 272.608 186.148 272.368C185.404 272.104 184.708 271.756 184.06 271.324C183.436 270.868 182.908 270.292 182.476 269.596C182.044 268.876 181.828 267.976 181.828 266.896C181.828 265.936 182.02 265.096 182.404 264.376C182.812 263.632 183.364 263.02 184.06 262.54C184.756 262.036 185.572 261.664 186.508 261.424C187.444 261.16 188.452 261.028 189.532 261.028C190.708 261.028 191.728 261.16 192.592 261.424C193.48 261.688 194.212 261.952 194.788 262.216C195.34 262.48 195.664 262.852 195.76 263.332C195.856 263.812 195.772 264.328 195.508 264.88L195.076 265.744C194.812 266.32 194.464 266.668 194.032 266.788C193.6 266.908 193.072 266.848 192.448 266.608C192.016 266.44 191.536 266.284 191.008 266.14C190.48 265.972 189.904 265.888 189.28 265.888C188.608 265.888 188.164 265.984 187.948 266.176C187.732 266.368 187.624 266.596 187.624 266.86C187.624 267.22 187.84 267.508 188.272 267.724C188.704 267.916 189.232 268.12 189.856 268.336C190.504 268.528 191.2 268.744 191.944 268.984C192.712 269.224 193.408 269.572 194.032 270.028C194.68 270.46 195.22 271.024 195.652 271.72C196.084 272.392 196.3 273.268 196.3 274.348C196.3 275.212 196.12 276.016 195.76 276.76C195.424 277.504 194.92 278.152 194.248 278.704C193.6 279.232 192.796 279.652 191.836 279.964C190.9 280.276 189.844 280.432 188.668 280.432C187.276 280.432 186.064 280.252 185.032 279.892C184 279.508 183.16 279.124 182.512 278.74Z" fill="#663B73"/>
<path d="M0.62 302.886C0.62 302.49 0.818 302.292 1.214 302.292H7.406C7.802 302.292 8 302.49 8 302.886V303.246C8 303.642 7.802 303.84 7.406 303.84H2.384V307.818H6.362C6.758 307.818 6.956 308.016 6.956 308.412V308.772C6.956 309.168 6.758 309.366 6.362 309.366H2.384V313.452H7.712C8.108 313.452 8.306 313.65 8.306 314.046V314.406C8.306 314.802 8.108 315 7.712 315H1.214C0.818 315 0.62 314.802 0.62 314.406V302.886ZM10.1741 302.886C10.1741 302.49 10.3721 302.292 10.7681 302.292H11.3261C11.7221 302.292 11.9201 302.49 11.9201 302.886V312.3C11.9201 312.552 11.9441 312.756 11.9921 312.912C12.0401 313.068 12.1061 313.188 12.1901 313.272C12.2741 313.356 12.3641 313.416 12.4601 313.452C12.5561 313.476 12.6521 313.494 12.7481 313.506C12.8801 313.53 12.9881 313.584 13.0721 313.668C13.1681 313.74 13.2161 313.86 13.2161 314.028V314.46C13.2161 314.652 13.1681 314.802 13.0721 314.91C12.9881 315.018 12.8321 315.072 12.6041 315.072C12.3641 315.072 12.1001 315.048 11.8121 315C11.5241 314.94 11.2601 314.826 11.0201 314.658C10.7801 314.478 10.5761 314.22 10.4081 313.884C10.2521 313.548 10.1741 313.092 10.1741 312.516V302.886ZM19.403 306.486C19.403 306.09 19.601 305.892 19.997 305.892H20.411C20.807 305.892 21.005 306.06 21.005 306.396V306.936C21.005 307.008 20.999 307.074 20.987 307.134C20.987 307.182 20.987 307.23 20.987 307.278C20.975 307.326 20.969 307.374 20.969 307.422H21.005C21.161 307.098 21.383 306.81 21.671 306.558C21.911 306.342 22.223 306.144 22.607 305.964C23.003 305.772 23.489 305.676 24.065 305.676C24.677 305.676 25.229 305.796 25.721 306.036C26.213 306.264 26.633 306.588 26.981 307.008C27.329 307.428 27.593 307.932 27.773 308.52C27.965 309.096 28.061 309.738 28.061 310.446C28.061 311.166 27.959 311.82 27.755 312.408C27.551 312.996 27.263 313.5 26.891 313.92C26.519 314.328 26.081 314.646 25.577 314.874C25.073 315.102 24.527 315.216 23.939 315.216C23.411 315.216 22.967 315.132 22.607 314.964C22.259 314.796 21.971 314.61 21.743 314.406C21.479 314.178 21.269 313.908 21.113 313.596H21.077C21.077 313.656 21.083 313.728 21.095 313.812C21.107 313.884 21.113 313.968 21.113 314.064C21.125 314.16 21.131 314.268 21.131 314.388V318.006C21.131 318.402 20.939 318.6 20.555 318.6H19.997C19.601 318.6 19.403 318.402 19.403 318.006V306.486ZM21.095 310.482C21.095 310.89 21.149 311.286 21.257 311.67C21.377 312.054 21.545 312.396 21.761 312.696C21.977 312.996 22.241 313.242 22.553 313.434C22.877 313.614 23.249 313.704 23.669 313.704C24.029 313.704 24.365 313.632 24.677 313.488C25.001 313.344 25.283 313.134 25.523 312.858C25.763 312.582 25.949 312.246 26.081 311.85C26.225 311.442 26.297 310.98 26.297 310.464C26.297 309.972 26.231 309.528 26.099 309.132C25.979 308.724 25.805 308.382 25.577 308.106C25.349 307.818 25.073 307.596 24.749 307.44C24.437 307.284 24.095 307.206 23.723 307.206C23.375 307.206 23.045 307.272 22.733 307.404C22.421 307.524 22.139 307.716 21.887 307.98C21.647 308.244 21.455 308.586 21.311 309.006C21.167 309.414 21.095 309.906 21.095 310.482ZM30.0373 306.486C30.0373 306.09 30.2353 305.892 30.6313 305.892H31.1353C31.5313 305.892 31.7293 306.09 31.7293 306.486V307.53C31.7293 307.626 31.7233 307.716 31.7113 307.8C31.7113 307.884 31.7053 307.956 31.6933 308.016C31.6813 308.088 31.6753 308.154 31.6753 308.214H31.7113C31.8073 307.914 31.9393 307.62 32.1073 307.332C32.2873 307.044 32.4973 306.792 32.7373 306.576C32.9773 306.348 33.2413 306.168 33.5293 306.036C33.8293 305.892 34.1533 305.82 34.5013 305.82C34.8853 305.82 35.0773 306.018 35.0773 306.414V306.918C35.0773 307.314 34.8613 307.512 34.4293 307.512C33.9853 307.512 33.5953 307.626 33.2593 307.854C32.9353 308.07 32.6593 308.352 32.4313 308.7C32.2153 309.048 32.0533 309.45 31.9453 309.906C31.8373 310.35 31.7833 310.794 31.7833 311.238V314.406C31.7833 314.802 31.5853 315 31.1893 315H30.6313C30.2353 315 30.0373 314.802 30.0373 314.406V306.486ZM35.5254 310.428C35.5254 309.744 35.6514 309.114 35.9034 308.538C36.1674 307.95 36.5154 307.446 36.9474 307.026C37.3914 306.594 37.9074 306.264 38.4954 306.036C39.0954 305.796 39.7374 305.676 40.4214 305.676C41.1054 305.676 41.7414 305.796 42.3294 306.036C42.9294 306.264 43.4514 306.594 43.8954 307.026C44.3394 307.446 44.6874 307.95 44.9394 308.538C45.2034 309.114 45.3354 309.744 45.3354 310.428C45.3354 311.124 45.2034 311.766 44.9394 312.354C44.6874 312.93 44.3394 313.434 43.8954 313.866C43.4514 314.286 42.9294 314.616 42.3294 314.856C41.7414 315.096 41.1054 315.216 40.4214 315.216C39.7374 315.216 39.0954 315.096 38.4954 314.856C37.9074 314.616 37.3914 314.286 36.9474 313.866C36.5154 313.434 36.1674 312.93 35.9034 312.354C35.6514 311.766 35.5254 311.124 35.5254 310.428ZM37.2894 310.428C37.2894 310.908 37.3734 311.352 37.5414 311.76C37.7094 312.156 37.9314 312.498 38.2074 312.786C38.4954 313.074 38.8254 313.302 39.1974 313.47C39.5814 313.626 39.9894 313.704 40.4214 313.704C40.8534 313.704 41.2554 313.626 41.6274 313.47C42.0114 313.302 42.3474 313.074 42.6354 312.786C42.9234 312.498 43.1454 312.156 43.3014 311.76C43.4694 311.352 43.5534 310.908 43.5534 310.428C43.5534 309.96 43.4694 309.528 43.3014 309.132C43.1454 308.736 42.9234 308.394 42.6354 308.106C42.3474 307.818 42.0114 307.596 41.6274 307.44C41.2554 307.272 40.8534 307.188 40.4214 307.188C39.9894 307.188 39.5814 307.272 39.1974 307.44C38.8254 307.596 38.4954 307.818 38.2074 308.106C37.9314 308.394 37.7094 308.736 37.5414 309.132C37.3734 309.528 37.2894 309.96 37.2894 310.428ZM46.7059 310.446C46.7059 309.726 46.8079 309.072 47.0119 308.484C47.2159 307.896 47.4979 307.398 47.8579 306.99C48.2299 306.57 48.6679 306.246 49.1719 306.018C49.6759 305.79 50.2279 305.676 50.8279 305.676C51.3559 305.676 51.7939 305.76 52.1419 305.928C52.5019 306.084 52.7959 306.264 53.0239 306.468C53.2879 306.696 53.4979 306.954 53.6539 307.242H53.6899C53.6779 307.182 53.6659 307.122 53.6539 307.062C53.6419 307.002 53.6359 306.942 53.6359 306.882C53.6359 306.81 53.6359 306.726 53.6359 306.63V302.886C53.6359 302.49 53.8339 302.292 54.2299 302.292H54.7879C55.1839 302.292 55.3819 302.49 55.3819 302.886V314.406C55.3819 314.802 55.1839 315 54.7879 315H54.3199C53.9239 315 53.7259 314.814 53.7259 314.442V313.92C53.7259 313.764 53.7319 313.656 53.7439 313.596C53.7439 313.548 53.7499 313.506 53.7619 313.47H53.7259C53.5579 313.806 53.3359 314.1 53.0599 314.352C52.8199 314.568 52.5079 314.766 52.1239 314.946C51.7519 315.126 51.2839 315.216 50.7199 315.216C50.1079 315.216 49.5499 315.102 49.0459 314.874C48.5539 314.634 48.1339 314.304 47.7859 313.884C47.4379 313.464 47.1679 312.966 46.9759 312.39C46.7959 311.802 46.7059 311.154 46.7059 310.446ZM48.4879 310.446C48.4879 310.938 48.5479 311.388 48.6679 311.796C48.7999 312.192 48.9799 312.534 49.2079 312.822C49.4359 313.098 49.7059 313.314 50.0179 313.47C50.3299 313.626 50.6779 313.704 51.0619 313.704C51.3979 313.704 51.7219 313.644 52.0339 313.524C52.3579 313.392 52.6399 313.194 52.8799 312.93C53.1199 312.666 53.3119 312.33 53.4559 311.922C53.6119 311.502 53.6899 311.004 53.6899 310.428C53.6899 310.02 53.6359 309.624 53.5279 309.24C53.4199 308.856 53.2579 308.514 53.0419 308.214C52.8259 307.914 52.5559 307.674 52.2319 307.494C51.9079 307.302 51.5299 307.206 51.0979 307.206C50.7379 307.206 50.4019 307.278 50.0899 307.422C49.7779 307.566 49.5019 307.776 49.2619 308.052C49.0219 308.328 48.8299 308.67 48.6859 309.078C48.5539 309.474 48.4879 309.93 48.4879 310.446ZM57.8083 306.486C57.8083 306.09 58.0063 305.892 58.4023 305.892H58.9603C59.3443 305.892 59.5363 306.09 59.5363 306.486V311.328C59.5363 311.64 59.5543 311.934 59.5903 312.21C59.6383 312.486 59.7223 312.726 59.8423 312.93C59.9743 313.134 60.1483 313.296 60.3643 313.416C60.5923 313.536 60.8863 313.596 61.2463 313.596C61.7143 313.596 62.1283 313.5 62.4883 313.308C62.8603 313.116 63.1723 312.864 63.4243 312.552C63.6883 312.24 63.8863 311.88 64.0183 311.472C64.1503 311.052 64.2163 310.614 64.2163 310.158V306.486C64.2163 306.09 64.4143 305.892 64.8103 305.892H65.3683C65.7643 305.892 65.9623 306.09 65.9623 306.486V314.406C65.9623 314.802 65.7643 315 65.3683 315H64.8643C64.4683 315 64.2703 314.802 64.2703 314.406V313.596C64.2703 313.536 64.2703 313.476 64.2703 313.416C64.2703 313.344 64.2763 313.284 64.2883 313.236C64.3003 313.188 64.3123 313.134 64.3243 313.074H64.2883C64.1923 313.302 64.0423 313.542 63.8383 313.794C63.6463 314.046 63.4063 314.28 63.1183 314.496C62.8303 314.7 62.5003 314.868 62.1283 315C61.7563 315.144 61.3483 315.216 60.9043 315.216C59.8723 315.216 59.0983 314.94 58.5823 314.388C58.0663 313.824 57.8083 312.936 57.8083 311.724V306.486ZM67.8867 310.446C67.8867 309.774 68.0067 309.15 68.2467 308.574C68.4867 307.986 68.8227 307.482 69.2547 307.062C69.6867 306.63 70.1967 306.294 70.7847 306.054C71.3847 305.802 72.0387 305.676 72.7467 305.676C73.1307 305.676 73.4787 305.712 73.7907 305.784C74.1027 305.844 74.3847 305.922 74.6367 306.018C74.8887 306.114 75.1047 306.222 75.2847 306.342C75.4767 306.45 75.6327 306.552 75.7527 306.648C75.9087 306.744 75.9927 306.864 76.0047 307.008C76.0167 307.152 75.9687 307.302 75.8607 307.458L75.6807 307.728C75.4887 308.028 75.2187 308.076 74.8707 307.872C74.6787 307.74 74.4087 307.596 74.0607 307.44C73.7247 307.272 73.3167 307.188 72.8367 307.188C72.3807 307.188 71.9547 307.272 71.5587 307.44C71.1747 307.596 70.8387 307.818 70.5507 308.106C70.2747 308.394 70.0587 308.736 69.9027 309.132C69.7467 309.528 69.6687 309.96 69.6687 310.428C69.6687 310.896 69.7467 311.328 69.9027 311.724C70.0587 312.12 70.2807 312.468 70.5687 312.768C70.8567 313.056 71.1927 313.284 71.5767 313.452C71.9727 313.62 72.4047 313.704 72.8727 313.704C73.4247 313.704 73.8927 313.608 74.2767 313.416C74.6727 313.224 74.9787 313.044 75.1947 312.876C75.5307 312.66 75.8007 312.714 76.0047 313.038L76.1487 313.308C76.3407 313.632 76.2867 313.896 75.9867 314.1C75.8547 314.208 75.6867 314.328 75.4827 314.46C75.2907 314.58 75.0567 314.7 74.7807 314.82C74.5167 314.928 74.2107 315.018 73.8627 315.09C73.5267 315.174 73.1547 315.216 72.7467 315.216C72.0267 315.216 71.3667 315.096 70.7667 314.856C70.1787 314.616 69.6687 314.286 69.2367 313.866C68.8167 313.434 68.4867 312.93 68.2467 312.354C68.0067 311.766 67.8867 311.13 67.8867 310.446ZM78.4752 307.404H77.8452C77.4612 307.404 77.2692 307.206 77.2692 306.81V306.576C77.2692 306.18 77.4672 305.982 77.8632 305.982H78.5112V303.984C78.5112 303.588 78.7092 303.39 79.1052 303.39H79.6272C80.0232 303.39 80.2212 303.588 80.2212 303.984V305.982H81.8052C82.2012 305.982 82.3992 306.18 82.3992 306.576V306.81C82.3992 307.206 82.2072 307.404 81.8232 307.404H80.2212V311.454C80.2212 311.886 80.2812 312.234 80.4012 312.498C80.5212 312.762 80.6652 312.966 80.8332 313.11C81.0132 313.254 81.1992 313.356 81.3912 313.416C81.5952 313.464 81.7812 313.494 81.9492 313.506C82.1892 313.53 82.3512 313.584 82.4352 313.668C82.5312 313.752 82.5792 313.896 82.5792 314.1V314.478C82.5792 314.874 82.3392 315.072 81.8592 315.072C81.4032 315.072 80.9712 315.006 80.5632 314.874C80.1552 314.742 79.7952 314.538 79.4832 314.262C79.1832 313.986 78.9372 313.638 78.7452 313.218C78.5652 312.798 78.4752 312.3 78.4752 311.724V307.404ZM83.5137 310.428C83.5137 309.744 83.6397 309.114 83.8917 308.538C84.1557 307.95 84.5037 307.446 84.9357 307.026C85.3797 306.594 85.8957 306.264 86.4837 306.036C87.0837 305.796 87.7257 305.676 88.4097 305.676C89.0937 305.676 89.7297 305.796 90.3177 306.036C90.9177 306.264 91.4397 306.594 91.8837 307.026C92.3277 307.446 92.6757 307.95 92.9277 308.538C93.1917 309.114 93.3237 309.744 93.3237 310.428C93.3237 311.124 93.1917 311.766 92.9277 312.354C92.6757 312.93 92.3277 313.434 91.8837 313.866C91.4397 314.286 90.9177 314.616 90.3177 314.856C89.7297 315.096 89.0937 315.216 88.4097 315.216C87.7257 315.216 87.0837 315.096 86.4837 314.856C85.8957 314.616 85.3797 314.286 84.9357 313.866C84.5037 313.434 84.1557 312.93 83.8917 312.354C83.6397 311.766 83.5137 311.124 83.5137 310.428ZM85.2777 310.428C85.2777 310.908 85.3617 311.352 85.5297 311.76C85.6977 312.156 85.9197 312.498 86.1957 312.786C86.4837 313.074 86.8137 313.302 87.1857 313.47C87.5697 313.626 87.9777 313.704 88.4097 313.704C88.8417 313.704 89.2437 313.626 89.6157 313.47C89.9997 313.302 90.3357 313.074 90.6237 312.786C90.9117 312.498 91.1337 312.156 91.2897 311.76C91.4577 311.352 91.5417 310.908 91.5417 310.428C91.5417 309.96 91.4577 309.528 91.2897 309.132C91.1337 308.736 90.9117 308.394 90.6237 308.106C90.3357 307.818 89.9997 307.596 89.6157 307.44C89.2437 307.272 88.8417 307.188 88.4097 307.188C87.9777 307.188 87.5697 307.272 87.1857 307.44C86.8137 307.596 86.4837 307.818 86.1957 308.106C85.9197 308.394 85.6977 308.736 85.5297 309.132C85.3617 309.528 85.2777 309.96 85.2777 310.428ZM99.1942 310.446C99.1942 309.726 99.2962 309.072 99.5002 308.484C99.7042 307.896 99.9862 307.398 100.346 306.99C100.718 306.57 101.156 306.246 101.66 306.018C102.176 305.79 102.734 305.676 103.334 305.676C103.874 305.676 104.324 305.766 104.684 305.946C105.056 306.126 105.362 306.318 105.602 306.522C105.866 306.774 106.082 307.056 106.25 307.368H106.286C106.274 307.32 106.268 307.272 106.268 307.224C106.256 307.176 106.25 307.122 106.25 307.062C106.25 307.002 106.25 306.936 106.25 306.864V306.396C106.25 306.06 106.448 305.892 106.844 305.892H107.276C107.672 305.892 107.87 306.09 107.87 306.486V318.006C107.87 318.402 107.672 318.6 107.276 318.6H106.718C106.322 318.6 106.124 318.402 106.124 318.006V314.316C106.124 314.196 106.124 314.088 106.124 313.992C106.124 313.896 106.13 313.812 106.142 313.74C106.154 313.656 106.166 313.584 106.178 313.524H106.142C105.986 313.848 105.77 314.13 105.494 314.37C105.254 314.586 104.948 314.784 104.576 314.964C104.204 315.132 103.736 315.216 103.172 315.216C102.572 315.216 102.026 315.102 101.534 314.874C101.054 314.634 100.64 314.304 100.292 313.884C99.9442 313.464 99.6742 312.966 99.4822 312.39C99.2902 311.802 99.1942 311.154 99.1942 310.446ZM100.976 310.446C100.976 310.938 101.036 311.388 101.156 311.796C101.288 312.192 101.468 312.534 101.696 312.822C101.924 313.098 102.194 313.314 102.506 313.47C102.818 313.626 103.166 313.704 103.55 313.704C103.886 313.704 104.21 313.644 104.522 313.524C104.846 313.392 105.128 313.194 105.368 312.93C105.608 312.666 105.8 312.33 105.944 311.922C106.1 311.502 106.178 311.004 106.178 310.428C106.178 310.02 106.124 309.624 106.016 309.24C105.908 308.856 105.746 308.514 105.53 308.214C105.314 307.914 105.044 307.674 104.72 307.494C104.396 307.302 104.018 307.206 103.586 307.206C103.226 307.206 102.89 307.278 102.578 307.422C102.266 307.566 101.99 307.776 101.75 308.052C101.51 308.328 101.318 308.67 101.174 309.078C101.042 309.474 100.976 309.93 100.976 310.446ZM110.297 306.486C110.297 306.09 110.495 305.892 110.891 305.892H111.449C111.833 305.892 112.025 306.09 112.025 306.486V311.328C112.025 311.64 112.043 311.934 112.079 312.21C112.127 312.486 112.211 312.726 112.331 312.93C112.463 313.134 112.637 313.296 112.853 313.416C113.081 313.536 113.375 313.596 113.735 313.596C114.203 313.596 114.617 313.5 114.977 313.308C115.349 313.116 115.661 312.864 115.913 312.552C116.177 312.24 116.375 311.88 116.507 311.472C116.639 311.052 116.705 310.614 116.705 310.158V306.486C116.705 306.09 116.903 305.892 117.299 305.892H117.857C118.253 305.892 118.451 306.09 118.451 306.486V314.406C118.451 314.802 118.253 315 117.857 315H117.353C116.957 315 116.759 314.802 116.759 314.406V313.596C116.759 313.536 116.759 313.476 116.759 313.416C116.759 313.344 116.765 313.284 116.777 313.236C116.789 313.188 116.801 313.134 116.813 313.074H116.777C116.681 313.302 116.531 313.542 116.327 313.794C116.135 314.046 115.895 314.28 115.607 314.496C115.319 314.7 114.989 314.868 114.617 315C114.245 315.144 113.837 315.216 113.393 315.216C112.361 315.216 111.587 314.94 111.071 314.388C110.555 313.824 110.297 312.936 110.297 311.724V306.486ZM120.393 310.446C120.393 309.726 120.507 309.072 120.735 308.484C120.975 307.896 121.293 307.398 121.689 306.99C122.097 306.57 122.577 306.246 123.129 306.018C123.693 305.79 124.299 305.676 124.947 305.676C125.571 305.676 126.129 305.784 126.621 306C127.113 306.216 127.521 306.516 127.845 306.9C128.181 307.284 128.433 307.74 128.601 308.268C128.781 308.796 128.871 309.378 128.871 310.014C128.871 310.182 128.811 310.326 128.691 310.446C128.583 310.566 128.439 310.626 128.259 310.626H122.175C122.199 311.118 122.301 311.556 122.481 311.94C122.661 312.324 122.895 312.648 123.183 312.912C123.471 313.176 123.795 313.374 124.155 313.506C124.527 313.638 124.917 313.704 125.325 313.704C125.829 313.704 126.267 313.626 126.639 313.47C127.011 313.302 127.299 313.14 127.503 312.984C127.863 312.792 128.133 312.858 128.313 313.182L128.475 313.452C128.571 313.608 128.601 313.758 128.565 313.902C128.541 314.034 128.451 314.148 128.295 314.244C128.163 314.34 127.995 314.448 127.791 314.568C127.587 314.676 127.353 314.778 127.089 314.874C126.837 314.97 126.549 315.048 126.225 315.108C125.913 315.18 125.577 315.216 125.217 315.216C124.497 315.216 123.843 315.096 123.255 314.856C122.667 314.604 122.157 314.268 121.725 313.848C121.305 313.416 120.975 312.912 120.735 312.336C120.507 311.748 120.393 311.118 120.393 310.446ZM127.125 309.474C127.101 308.67 126.873 308.064 126.441 307.656C126.021 307.248 125.511 307.044 124.911 307.044C124.239 307.044 123.657 307.26 123.165 307.692C122.685 308.112 122.379 308.706 122.247 309.474H127.125ZM134.72 310.446C134.72 309.726 134.822 309.072 135.026 308.484C135.23 307.896 135.512 307.398 135.872 306.99C136.244 306.57 136.682 306.246 137.186 306.018C137.702 305.79 138.26 305.676 138.86 305.676C139.4 305.676 139.85 305.766 140.21 305.946C140.582 306.126 140.888 306.318 141.128 306.522C141.392 306.774 141.608 307.056 141.776 307.368H141.812C141.8 307.32 141.794 307.272 141.794 307.224C141.782 307.176 141.776 307.122 141.776 307.062C141.776 307.002 141.776 306.936 141.776 306.864V306.396C141.776 306.06 141.974 305.892 142.37 305.892H142.802C143.198 305.892 143.396 306.09 143.396 306.486V318.006C143.396 318.402 143.198 318.6 142.802 318.6H142.244C141.848 318.6 141.65 318.402 141.65 318.006V314.316C141.65 314.196 141.65 314.088 141.65 313.992C141.65 313.896 141.656 313.812 141.668 313.74C141.68 313.656 141.692 313.584 141.704 313.524H141.668C141.512 313.848 141.296 314.13 141.02 314.37C140.78 314.586 140.474 314.784 140.102 314.964C139.73 315.132 139.262 315.216 138.698 315.216C138.098 315.216 137.552 315.102 137.06 314.874C136.58 314.634 136.166 314.304 135.818 313.884C135.47 313.464 135.2 312.966 135.008 312.39C134.816 311.802 134.72 311.154 134.72 310.446ZM136.502 310.446C136.502 310.938 136.562 311.388 136.682 311.796C136.814 312.192 136.994 312.534 137.222 312.822C137.45 313.098 137.72 313.314 138.032 313.47C138.344 313.626 138.692 313.704 139.076 313.704C139.412 313.704 139.736 313.644 140.048 313.524C140.372 313.392 140.654 313.194 140.894 312.93C141.134 312.666 141.326 312.33 141.47 311.922C141.626 311.502 141.704 311.004 141.704 310.428C141.704 310.02 141.65 309.624 141.542 309.24C141.434 308.856 141.272 308.514 141.056 308.214C140.84 307.914 140.57 307.674 140.246 307.494C139.922 307.302 139.544 307.206 139.112 307.206C138.752 307.206 138.416 307.278 138.104 307.422C137.792 307.566 137.516 307.776 137.276 308.052C137.036 308.328 136.844 308.67 136.7 309.078C136.568 309.474 136.502 309.93 136.502 310.446ZM145.822 306.486C145.822 306.09 146.02 305.892 146.416 305.892H146.974C147.358 305.892 147.55 306.09 147.55 306.486V311.328C147.55 311.64 147.568 311.934 147.604 312.21C147.652 312.486 147.736 312.726 147.856 312.93C147.988 313.134 148.162 313.296 148.378 313.416C148.606 313.536 148.9 313.596 149.26 313.596C149.728 313.596 150.142 313.5 150.502 313.308C150.874 313.116 151.186 312.864 151.438 312.552C151.702 312.24 151.9 311.88 152.032 311.472C152.164 311.052 152.23 310.614 152.23 310.158V306.486C152.23 306.09 152.428 305.892 152.824 305.892H153.382C153.778 305.892 153.976 306.09 153.976 306.486V314.406C153.976 314.802 153.778 315 153.382 315H152.878C152.482 315 152.284 314.802 152.284 314.406V313.596C152.284 313.536 152.284 313.476 152.284 313.416C152.284 313.344 152.29 313.284 152.302 313.236C152.314 313.188 152.326 313.134 152.338 313.074H152.302C152.206 313.302 152.056 313.542 151.852 313.794C151.66 314.046 151.42 314.28 151.132 314.496C150.844 314.7 150.514 314.868 150.142 315C149.77 315.144 149.362 315.216 148.918 315.216C147.886 315.216 147.112 314.94 146.596 314.388C146.08 313.824 145.822 312.936 145.822 311.724V306.486ZM157.07 304.074C156.674 304.074 156.476 303.876 156.476 303.48V302.886C156.476 302.49 156.674 302.292 157.07 302.292H157.682C158.078 302.292 158.276 302.49 158.276 302.886V303.48C158.276 303.876 158.078 304.074 157.682 304.074H157.07ZM156.494 306.486C156.494 306.09 156.692 305.892 157.088 305.892H157.646C158.042 305.892 158.24 306.09 158.24 306.486V314.406C158.24 314.802 158.042 315 157.646 315H157.088C156.692 315 156.494 314.802 156.494 314.406V306.486ZM160.19 310.446C160.19 309.726 160.304 309.072 160.532 308.484C160.772 307.896 161.09 307.398 161.486 306.99C161.894 306.57 162.374 306.246 162.926 306.018C163.49 305.79 164.096 305.676 164.744 305.676C165.368 305.676 165.926 305.784 166.418 306C166.91 306.216 167.318 306.516 167.642 306.9C167.978 307.284 168.23 307.74 168.398 308.268C168.578 308.796 168.668 309.378 168.668 310.014C168.668 310.182 168.608 310.326 168.488 310.446C168.38 310.566 168.236 310.626 168.056 310.626H161.972C161.996 311.118 162.098 311.556 162.278 311.94C162.458 312.324 162.692 312.648 162.98 312.912C163.268 313.176 163.592 313.374 163.952 313.506C164.324 313.638 164.714 313.704 165.122 313.704C165.626 313.704 166.064 313.626 166.436 313.47C166.808 313.302 167.096 313.14 167.3 312.984C167.66 312.792 167.93 312.858 168.11 313.182L168.272 313.452C168.368 313.608 168.398 313.758 168.362 313.902C168.338 314.034 168.248 314.148 168.092 314.244C167.96 314.34 167.792 314.448 167.588 314.568C167.384 314.676 167.15 314.778 166.886 314.874C166.634 314.97 166.346 315.048 166.022 315.108C165.71 315.18 165.374 315.216 165.014 315.216C164.294 315.216 163.64 315.096 163.052 314.856C162.464 314.604 161.954 314.268 161.522 313.848C161.102 313.416 160.772 312.912 160.532 312.336C160.304 311.748 160.19 311.118 160.19 310.446ZM166.922 309.474C166.898 308.67 166.67 308.064 166.238 307.656C165.818 307.248 165.308 307.044 164.708 307.044C164.036 307.044 163.454 307.26 162.962 307.692C162.482 308.112 162.176 308.706 162.044 309.474H166.922ZM170.574 306.486C170.574 306.09 170.772 305.892 171.168 305.892H171.672C172.068 305.892 172.266 306.09 172.266 306.486V307.53C172.266 307.626 172.26 307.716 172.248 307.8C172.248 307.884 172.242 307.956 172.23 308.016C172.218 308.088 172.212 308.154 172.212 308.214H172.248C172.344 307.914 172.476 307.62 172.644 307.332C172.824 307.044 173.034 306.792 173.274 306.576C173.514 306.348 173.778 306.168 174.066 306.036C174.366 305.892 174.69 305.82 175.038 305.82C175.422 305.82 175.614 306.018 175.614 306.414V306.918C175.614 307.314 175.398 307.512 174.966 307.512C174.522 307.512 174.132 307.626 173.796 307.854C173.472 308.07 173.196 308.352 172.968 308.7C172.752 309.048 172.59 309.45 172.482 309.906C172.374 310.35 172.32 310.794 172.32 311.238V314.406C172.32 314.802 172.122 315 171.726 315H171.168C170.772 315 170.574 314.802 170.574 314.406V306.486ZM176.165 312.516C176.165 312.048 176.255 311.646 176.435 311.31C176.615 310.962 176.855 310.674 177.155 310.446C177.455 310.218 177.791 310.032 178.163 309.888C178.547 309.744 178.943 309.636 179.351 309.564C179.759 309.492 180.155 309.444 180.539 309.42C180.935 309.396 181.289 309.384 181.601 309.384H182.069V309.15C182.069 308.778 182.015 308.466 181.907 308.214C181.811 307.95 181.673 307.74 181.493 307.584C181.313 307.428 181.103 307.32 180.863 307.26C180.623 307.188 180.365 307.152 180.089 307.152C179.633 307.152 179.225 307.218 178.865 307.35C178.517 307.482 178.241 307.608 178.037 307.728C177.689 307.896 177.419 307.824 177.227 307.512L177.083 307.26C176.891 306.9 176.957 306.63 177.281 306.45C177.557 306.294 177.941 306.126 178.433 305.946C178.937 305.766 179.537 305.676 180.233 305.676C181.373 305.676 182.255 305.982 182.879 306.594C183.503 307.194 183.815 308.076 183.815 309.24V314.406C183.815 314.802 183.617 315 183.221 315H182.771C182.375 315 182.177 314.802 182.177 314.406V313.866C182.177 313.782 182.177 313.704 182.177 313.632C182.177 313.56 182.183 313.5 182.195 313.452C182.207 313.404 182.219 313.356 182.231 313.308H182.195C182.015 313.668 181.787 313.986 181.511 314.262C181.271 314.502 180.965 314.724 180.593 314.928C180.221 315.12 179.765 315.216 179.225 315.216C178.829 315.216 178.445 315.156 178.073 315.036C177.701 314.916 177.371 314.742 177.083 314.514C176.807 314.274 176.585 313.992 176.417 313.668C176.249 313.332 176.165 312.948 176.165 312.516ZM177.929 312.372C177.929 312.732 178.067 313.068 178.343 313.38C178.631 313.68 179.057 313.83 179.621 313.83C180.005 313.83 180.347 313.746 180.647 313.578C180.959 313.398 181.217 313.17 181.421 312.894C181.637 312.606 181.799 312.294 181.907 311.958C182.027 311.61 182.087 311.268 182.087 310.932V310.536H181.619C181.295 310.536 180.923 310.554 180.503 310.59C180.083 310.614 179.681 310.686 179.297 310.806C178.913 310.926 178.589 311.112 178.325 311.364C178.061 311.604 177.929 311.94 177.929 312.372ZM185.841 314.226C185.685 314.13 185.601 314.01 185.589 313.866C185.577 313.722 185.619 313.572 185.715 313.416L185.895 313.164C186.015 313.008 186.135 312.924 186.255 312.912C186.387 312.9 186.543 312.942 186.723 313.038C186.927 313.17 187.215 313.326 187.587 313.506C187.959 313.686 188.415 313.776 188.955 313.776C189.411 313.776 189.783 313.674 190.071 313.47C190.359 313.254 190.503 312.954 190.503 312.57C190.503 312.27 190.383 312.03 190.143 311.85C189.915 311.67 189.627 311.508 189.279 311.364C188.931 311.208 188.553 311.064 188.145 310.932C187.749 310.788 187.377 310.608 187.029 310.392C186.681 310.164 186.387 309.888 186.147 309.564C185.919 309.24 185.805 308.82 185.805 308.304C185.805 307.872 185.889 307.494 186.057 307.17C186.237 306.834 186.477 306.558 186.777 306.342C187.077 306.126 187.425 305.964 187.821 305.856C188.229 305.736 188.655 305.676 189.099 305.676C189.735 305.676 190.257 305.76 190.665 305.928C191.085 306.096 191.403 306.246 191.619 306.378C191.787 306.462 191.883 306.576 191.907 306.72C191.943 306.852 191.913 307.002 191.817 307.17L191.655 307.44C191.487 307.74 191.223 307.806 190.863 307.638C190.671 307.53 190.419 307.416 190.107 307.296C189.807 307.176 189.441 307.116 189.009 307.116C188.577 307.116 188.211 307.212 187.911 307.404C187.623 307.596 187.479 307.884 187.479 308.268C187.479 308.568 187.593 308.814 187.821 309.006C188.061 309.186 188.355 309.348 188.703 309.492C189.051 309.636 189.423 309.78 189.819 309.924C190.227 310.068 190.605 310.248 190.953 310.464C191.301 310.668 191.589 310.938 191.817 311.274C192.057 311.598 192.177 312.018 192.177 312.534C192.177 312.918 192.099 313.278 191.943 313.614C191.787 313.938 191.565 314.22 191.277 314.46C190.989 314.7 190.641 314.886 190.233 315.018C189.837 315.15 189.393 315.216 188.901 315.216C188.517 315.216 188.163 315.18 187.839 315.108C187.527 315.048 187.245 314.97 186.993 314.874C186.741 314.766 186.513 314.658 186.309 314.55C186.117 314.43 185.961 314.322 185.841 314.226ZM198.018 310.446C198.018 309.774 198.138 309.15 198.378 308.574C198.618 307.986 198.954 307.482 199.386 307.062C199.818 306.63 200.328 306.294 200.916 306.054C201.516 305.802 202.17 305.676 202.878 305.676C203.262 305.676 203.61 305.712 203.922 305.784C204.234 305.844 204.516 305.922 204.768 306.018C205.02 306.114 205.236 306.222 205.416 306.342C205.608 306.45 205.764 306.552 205.884 306.648C206.04 306.744 206.124 306.864 206.136 307.008C206.148 307.152 206.1 307.302 205.992 307.458L205.812 307.728C205.62 308.028 205.35 308.076 205.002 307.872C204.81 307.74 204.54 307.596 204.192 307.44C203.856 307.272 203.448 307.188 202.968 307.188C202.512 307.188 202.086 307.272 201.69 307.44C201.306 307.596 200.97 307.818 200.682 308.106C200.406 308.394 200.19 308.736 200.034 309.132C199.878 309.528 199.8 309.96 199.8 310.428C199.8 310.896 199.878 311.328 200.034 311.724C200.19 312.12 200.412 312.468 200.7 312.768C200.988 313.056 201.324 313.284 201.708 313.452C202.104 313.62 202.536 313.704 203.004 313.704C203.556 313.704 204.024 313.608 204.408 313.416C204.804 313.224 205.11 313.044 205.326 312.876C205.662 312.66 205.932 312.714 206.136 313.038L206.28 313.308C206.472 313.632 206.418 313.896 206.118 314.1C205.986 314.208 205.818 314.328 205.614 314.46C205.422 314.58 205.188 314.7 204.912 314.82C204.648 314.928 204.342 315.018 203.994 315.09C203.658 315.174 203.286 315.216 202.878 315.216C202.158 315.216 201.498 315.096 200.898 314.856C200.31 314.616 199.8 314.286 199.368 313.866C198.948 313.434 198.618 312.93 198.378 312.354C198.138 311.766 198.018 311.13 198.018 310.446ZM207.475 310.428C207.475 309.744 207.601 309.114 207.853 308.538C208.117 307.95 208.465 307.446 208.897 307.026C209.341 306.594 209.857 306.264 210.445 306.036C211.045 305.796 211.687 305.676 212.371 305.676C213.055 305.676 213.691 305.796 214.279 306.036C214.879 306.264 215.401 306.594 215.845 307.026C216.289 307.446 216.637 307.95 216.889 308.538C217.153 309.114 217.285 309.744 217.285 310.428C217.285 311.124 217.153 311.766 216.889 312.354C216.637 312.93 216.289 313.434 215.845 313.866C215.401 314.286 214.879 314.616 214.279 314.856C213.691 315.096 213.055 315.216 212.371 315.216C211.687 315.216 211.045 315.096 210.445 314.856C209.857 314.616 209.341 314.286 208.897 313.866C208.465 313.434 208.117 312.93 207.853 312.354C207.601 311.766 207.475 311.124 207.475 310.428ZM209.239 310.428C209.239 310.908 209.323 311.352 209.491 311.76C209.659 312.156 209.881 312.498 210.157 312.786C210.445 313.074 210.775 313.302 211.147 313.47C211.531 313.626 211.939 313.704 212.371 313.704C212.803 313.704 213.205 313.626 213.577 313.47C213.961 313.302 214.297 313.074 214.585 312.786C214.873 312.498 215.095 312.156 215.251 311.76C215.419 311.352 215.503 310.908 215.503 310.428C215.503 309.96 215.419 309.528 215.251 309.132C215.095 308.736 214.873 308.394 214.585 308.106C214.297 307.818 213.961 307.596 213.577 307.44C213.205 307.272 212.803 307.188 212.371 307.188C211.939 307.188 211.531 307.272 211.147 307.44C210.775 307.596 210.445 307.818 210.157 308.106C209.881 308.394 209.659 308.736 209.491 309.132C209.323 309.528 209.239 309.96 209.239 310.428ZM219.213 306.486C219.213 306.09 219.411 305.892 219.807 305.892H220.311C220.707 305.892 220.905 306.09 220.905 306.486V307.296C220.905 307.416 220.893 307.536 220.869 307.656C220.857 307.704 220.851 307.758 220.851 307.818H220.887C220.995 307.554 221.151 307.296 221.355 307.044C221.571 306.78 221.817 306.552 222.093 306.36C222.381 306.156 222.687 305.994 223.011 305.874C223.347 305.742 223.695 305.676 224.055 305.676C225.555 305.676 226.467 306.366 226.791 307.746H226.827C226.947 307.482 227.115 307.224 227.331 306.972C227.547 306.72 227.793 306.498 228.069 306.306C228.345 306.114 228.651 305.964 228.987 305.856C229.323 305.736 229.677 305.676 230.049 305.676C231.093 305.676 231.855 305.97 232.335 306.558C232.815 307.134 233.055 308.004 233.055 309.168V314.406C233.055 314.802 232.857 315 232.461 315H231.903C231.507 315 231.309 314.802 231.309 314.406V309.546C231.309 309.222 231.285 308.922 231.237 308.646C231.201 308.37 231.123 308.13 231.003 307.926C230.895 307.722 230.733 307.56 230.517 307.44C230.313 307.32 230.043 307.26 229.707 307.26C229.287 307.26 228.909 307.362 228.573 307.566C228.237 307.758 227.949 308.022 227.709 308.358C227.481 308.682 227.307 309.054 227.187 309.474C227.067 309.894 227.007 310.32 227.007 310.752V314.406C227.007 314.802 226.815 315 226.431 315H225.855C225.471 315 225.279 314.802 225.279 314.406V309.546C225.279 309.246 225.261 308.958 225.225 308.682C225.189 308.406 225.117 308.166 225.009 307.962C224.901 307.746 224.739 307.578 224.523 307.458C224.319 307.326 224.043 307.26 223.695 307.26C223.263 307.26 222.873 307.362 222.525 307.566C222.189 307.77 221.901 308.04 221.661 308.376C221.433 308.7 221.259 309.072 221.139 309.492C221.019 309.912 220.959 310.332 220.959 310.752V314.406C220.959 314.802 220.761 315 220.365 315H219.807C219.411 315 219.213 314.802 219.213 314.406V306.486ZM235.473 306.486C235.473 306.09 235.671 305.892 236.067 305.892H236.481C236.877 305.892 237.075 306.06 237.075 306.396V306.936C237.075 307.008 237.069 307.074 237.057 307.134C237.057 307.182 237.057 307.23 237.057 307.278C237.045 307.326 237.039 307.374 237.039 307.422H237.075C237.231 307.098 237.453 306.81 237.741 306.558C237.981 306.342 238.293 306.144 238.677 305.964C239.073 305.772 239.559 305.676 240.135 305.676C240.747 305.676 241.299 305.796 241.791 306.036C242.283 306.264 242.703 306.588 243.051 307.008C243.399 307.428 243.663 307.932 243.843 308.52C244.035 309.096 244.131 309.738 244.131 310.446C244.131 311.166 244.029 311.82 243.825 312.408C243.621 312.996 243.333 313.5 242.961 313.92C242.589 314.328 242.151 314.646 241.647 314.874C241.143 315.102 240.597 315.216 240.009 315.216C239.481 315.216 239.037 315.132 238.677 314.964C238.329 314.796 238.041 314.61 237.813 314.406C237.549 314.178 237.339 313.908 237.183 313.596H237.147C237.147 313.656 237.153 313.728 237.165 313.812C237.177 313.884 237.183 313.968 237.183 314.064C237.195 314.16 237.201 314.268 237.201 314.388V318.006C237.201 318.402 237.009 318.6 236.625 318.6H236.067C235.671 318.6 235.473 318.402 235.473 318.006V306.486ZM237.165 310.482C237.165 310.89 237.219 311.286 237.327 311.67C237.447 312.054 237.615 312.396 237.831 312.696C238.047 312.996 238.311 313.242 238.623 313.434C238.947 313.614 239.319 313.704 239.739 313.704C240.099 313.704 240.435 313.632 240.747 313.488C241.071 313.344 241.353 313.134 241.593 312.858C241.833 312.582 242.019 312.246 242.151 311.85C242.295 311.442 242.367 310.98 242.367 310.464C242.367 309.972 242.301 309.528 242.169 309.132C242.049 308.724 241.875 308.382 241.647 308.106C241.419 307.818 241.143 307.596 240.819 307.44C240.507 307.284 240.165 307.206 239.793 307.206C239.445 307.206 239.115 307.272 238.803 307.404C238.491 307.524 238.209 307.716 237.957 307.98C237.717 308.244 237.525 308.586 237.381 309.006C237.237 309.414 237.165 309.906 237.165 310.482ZM246.108 306.486C246.108 306.09 246.306 305.892 246.702 305.892H247.206C247.602 305.892 247.8 306.09 247.8 306.486V307.53C247.8 307.626 247.794 307.716 247.782 307.8C247.782 307.884 247.776 307.956 247.764 308.016C247.752 308.088 247.746 308.154 247.746 308.214H247.782C247.878 307.914 248.01 307.62 248.178 307.332C248.358 307.044 248.568 306.792 248.808 306.576C249.048 306.348 249.312 306.168 249.6 306.036C249.9 305.892 250.224 305.82 250.572 305.82C250.956 305.82 251.148 306.018 251.148 306.414V306.918C251.148 307.314 250.932 307.512 250.5 307.512C250.056 307.512 249.666 307.626 249.33 307.854C249.006 308.07 248.73 308.352 248.502 308.7C248.286 309.048 248.124 309.45 248.016 309.906C247.908 310.35 247.854 310.794 247.854 311.238V314.406C247.854 314.802 247.656 315 247.26 315H246.702C246.306 315 246.108 314.802 246.108 314.406V306.486ZM251.698 312.516C251.698 312.048 251.788 311.646 251.968 311.31C252.148 310.962 252.388 310.674 252.688 310.446C252.988 310.218 253.324 310.032 253.696 309.888C254.08 309.744 254.476 309.636 254.884 309.564C255.292 309.492 255.688 309.444 256.072 309.42C256.468 309.396 256.822 309.384 257.134 309.384H257.602V309.15C257.602 308.778 257.548 308.466 257.44 308.214C257.344 307.95 257.206 307.74 257.026 307.584C256.846 307.428 256.636 307.32 256.396 307.26C256.156 307.188 255.898 307.152 255.622 307.152C255.166 307.152 254.758 307.218 254.398 307.35C254.05 307.482 253.774 307.608 253.57 307.728C253.222 307.896 252.952 307.824 252.76 307.512L252.616 307.26C252.424 306.9 252.49 306.63 252.814 306.45C253.09 306.294 253.474 306.126 253.966 305.946C254.47 305.766 255.07 305.676 255.766 305.676C256.906 305.676 257.788 305.982 258.412 306.594C259.036 307.194 259.348 308.076 259.348 309.24V314.406C259.348 314.802 259.15 315 258.754 315H258.304C257.908 315 257.71 314.802 257.71 314.406V313.866C257.71 313.782 257.71 313.704 257.71 313.632C257.71 313.56 257.716 313.5 257.728 313.452C257.74 313.404 257.752 313.356 257.764 313.308H257.728C257.548 313.668 257.32 313.986 257.044 314.262C256.804 314.502 256.498 314.724 256.126 314.928C255.754 315.12 255.298 315.216 254.758 315.216C254.362 315.216 253.978 315.156 253.606 315.036C253.234 314.916 252.904 314.742 252.616 314.514C252.34 314.274 252.118 313.992 251.95 313.668C251.782 313.332 251.698 312.948 251.698 312.516ZM253.462 312.372C253.462 312.732 253.6 313.068 253.876 313.38C254.164 313.68 254.59 313.83 255.154 313.83C255.538 313.83 255.88 313.746 256.18 313.578C256.492 313.398 256.75 313.17 256.954 312.894C257.17 312.606 257.332 312.294 257.44 311.958C257.56 311.61 257.62 311.268 257.62 310.932V310.536H257.152C256.828 310.536 256.456 310.554 256.036 310.59C255.616 310.614 255.214 310.686 254.83 310.806C254.446 310.926 254.122 311.112 253.858 311.364C253.594 311.604 253.462 311.94 253.462 312.372ZM261.735 306.486C261.735 306.09 261.933 305.892 262.329 305.892H262.833C263.229 305.892 263.427 306.09 263.427 306.486V307.53C263.427 307.626 263.421 307.716 263.409 307.8C263.409 307.884 263.403 307.956 263.391 308.016C263.379 308.088 263.373 308.154 263.373 308.214H263.409C263.505 307.914 263.637 307.62 263.805 307.332C263.985 307.044 264.195 306.792 264.435 306.576C264.675 306.348 264.939 306.168 265.227 306.036C265.527 305.892 265.851 305.82 266.199 305.82C266.583 305.82 266.775 306.018 266.775 306.414V306.918C266.775 307.314 266.559 307.512 266.127 307.512C265.683 307.512 265.293 307.626 264.957 307.854C264.633 308.07 264.357 308.352 264.129 308.7C263.913 309.048 263.751 309.45 263.643 309.906C263.535 310.35 263.481 310.794 263.481 311.238V314.406C263.481 314.802 263.283 315 262.887 315H262.329C261.933 315 261.735 314.802 261.735 314.406V306.486Z" fill="#5A5956"/>
<path d="M111.145 67.383C108.777 71.772 110.145 79.483 116.51 84.283C118.01 85.419 119.371 86.344 120.619 87.15H91.787C89.3628 87.1787 87.0488 88.1677 85.3527 89.9001C83.6565 91.6324 82.7166 93.9667 82.739 96.391C82.7383 98.188 83.2594 99.9465 84.239 101.453H81.393C79.0096 101.506 76.7386 102.477 75.0541 104.164C73.3696 105.851 72.4016 108.124 72.3522 110.507C72.3028 112.891 73.1757 115.201 74.7889 116.956C76.4021 118.712 78.6308 119.776 81.01 119.928C79.9984 121.459 79.461 123.255 79.465 125.09C79.4429 127.515 80.3833 129.849 82.0801 131.582C83.7768 133.314 86.0913 134.303 88.516 134.331H92.722C91.7146 135.86 91.1794 137.652 91.183 139.483C91.1606 141.907 92.1005 144.242 93.7967 145.974C95.4928 147.706 97.8068 148.695 100.231 148.724H128.87H148.851C152.861 148.791 156.839 148.006 160.522 146.42C164.206 144.834 167.51 142.483 170.217 139.524H178.342C178.614 139.53 178.885 139.482 179.138 139.382C179.392 139.282 179.622 139.132 179.817 138.941C180.012 138.751 180.167 138.524 180.272 138.272C180.378 138.021 180.432 137.752 180.432 137.48C180.432 137.207 180.378 136.938 180.272 136.686C180.167 136.435 180.012 136.208 179.817 136.018C179.622 135.827 179.392 135.677 179.138 135.577C178.885 135.477 178.614 135.429 178.342 135.435H169.258C169.206 135.435 169.158 135.461 169.112 135.465C168.578 135.518 168.083 135.768 167.722 136.165C167.688 136.205 167.641 136.225 167.61 136.265C165.293 138.956 162.409 141.101 159.165 142.548C155.922 143.994 152.399 144.705 148.848 144.63H100.235C98.9084 144.571 97.6556 144.003 96.7375 143.044C95.8194 142.085 95.307 140.808 95.307 139.48C95.307 138.152 95.8194 136.875 96.7375 135.916C97.6556 134.957 98.9084 134.388 100.235 134.33H116.652C117.186 134.318 117.695 134.098 118.069 133.715C118.443 133.333 118.652 132.82 118.652 132.285C118.652 131.751 118.443 131.238 118.069 130.856C117.695 130.473 117.186 130.253 116.652 130.241H88.52C87.2254 130.194 85.9959 129.661 85.0766 128.749C84.1573 127.836 83.6156 126.61 83.5596 125.316C83.5036 124.022 83.9374 122.754 84.7744 121.765C85.6114 120.776 86.7903 120.139 88.076 119.981H115.613C116.147 119.969 116.656 119.749 117.03 119.366C117.403 118.984 117.613 118.471 117.613 117.936C117.613 117.402 117.403 116.889 117.03 116.507C116.656 116.124 116.147 115.904 115.613 115.892H88.751C88.6751 115.872 88.5979 115.856 88.52 115.845H81.393C80.0664 115.787 78.8135 115.218 77.8955 114.259C76.9774 113.3 76.465 112.023 76.465 110.695C76.465 109.367 76.9774 108.09 77.8955 107.131C78.8135 106.172 80.0664 105.603 81.393 105.545H115.613C116.147 105.533 116.656 105.313 117.03 104.93C117.403 104.548 117.613 104.035 117.613 103.501C117.613 102.966 117.403 102.453 117.03 102.071C116.656 101.688 116.147 101.468 115.613 101.456H91.12C89.864 101.244 88.7311 100.574 87.9408 99.575C87.1505 98.5761 86.759 97.3194 86.842 96.0483C86.925 94.7772 87.4767 93.5822 88.3902 92.6945C89.3037 91.8067 90.5141 91.2896 91.787 91.243H126.129C127.764 99.351 131.236 105.229 136.51 108.673C144.276 113.745 152.947 111.594 153.31 111.5C153.75 111.387 154.14 111.131 154.418 110.773C154.697 110.414 154.848 109.973 154.849 109.519C154.848 109.347 154.825 109.176 154.782 109.01C154.715 108.75 154.598 108.505 154.436 108.29C154.275 108.075 154.073 107.894 153.842 107.758C153.61 107.621 153.354 107.531 153.088 107.494C152.822 107.456 152.551 107.471 152.291 107.538C152.218 107.558 145.018 109.346 138.744 105.247C134.102 102.217 131.098 96.705 129.819 88.87C129.812 88.825 129.782 88.79 129.772 88.746C129.732 88.5738 129.67 88.4077 129.586 88.252C129.553 88.1832 129.515 88.1164 129.474 88.052C129.365 87.8982 129.235 87.7602 129.088 87.642C129.046 87.607 129.015 87.563 128.971 87.532C128.959 87.524 128.952 87.511 128.939 87.503C128.01 86.884 127.021 86.288 125.939 85.638C123.531 84.233 121.204 82.6932 118.969 81.026C113.674 77.037 113.601 71.452 114.74 69.337C115.26 68.375 115.686 68.528 115.889 68.601C119.339 69.843 128.936 74.052 139.089 78.501C142.829 80.143 146.632 81.808 150.208 83.363C162.826 88.851 167.408 93.453 167.444 93.49C167.444 93.495 167.456 93.497 167.461 93.502C167.634 93.6762 167.838 93.8178 168.061 93.92C168.081 93.929 168.095 93.948 168.115 93.956C168.368 94.0639 168.64 94.1194 168.915 94.119H178.332C178.604 94.125 178.875 94.0766 179.128 93.9766C179.382 93.8765 179.613 93.7269 179.807 93.5364C180.002 93.346 180.157 93.1186 180.262 92.8675C180.368 92.6165 180.422 92.3468 180.422 92.0745C180.422 91.8021 180.368 91.5325 180.262 91.2815C180.157 91.0304 180.002 90.803 179.807 90.6125C179.613 90.4221 179.382 90.2725 179.128 90.1725C178.875 90.0724 178.604 90.024 178.332 90.03H169.714C168.022 88.521 162.806 84.384 151.834 79.613C148.261 78.058 144.461 76.393 140.728 74.755C130.501 70.273 120.844 66.037 117.264 64.748C114.873 63.885 112.464 64.921 111.13 67.389" fill="#5A5956"/>
<path d="M111.145 67.383C108.777 71.772 110.145 79.483 116.51 84.283C118.01 85.419 119.371 86.344 120.619 87.15H91.787C89.3628 87.1787 87.0488 88.1677 85.3527 89.9001C83.6565 91.6324 82.7166 93.9667 82.739 96.391C82.7383 98.188 83.2594 99.9465 84.239 101.453H81.393C79.0096 101.506 76.7386 102.477 75.0541 104.164C73.3696 105.851 72.4016 108.124 72.3522 110.507C72.3028 112.891 73.1757 115.201 74.7889 116.956C76.4021 118.712 78.6308 119.776 81.01 119.928C79.9984 121.459 79.461 123.255 79.465 125.09C79.4429 127.515 80.3833 129.849 82.0801 131.582C83.7768 133.314 86.0913 134.303 88.516 134.331H92.722C91.7146 135.86 91.1794 137.652 91.183 139.483C91.1606 141.907 92.1005 144.242 93.7967 145.974C95.4928 147.706 97.8068 148.695 100.231 148.724H128.87H148.851C152.861 148.791 156.839 148.006 160.522 146.42C164.206 144.834 167.51 142.483 170.217 139.524H178.342C178.614 139.53 178.885 139.482 179.138 139.382C179.392 139.282 179.622 139.132 179.817 138.941C180.012 138.751 180.167 138.524 180.272 138.272C180.378 138.021 180.432 137.752 180.432 137.48C180.432 137.207 180.378 136.938 180.272 136.686C180.167 136.435 180.012 136.208 179.817 136.018C179.622 135.827 179.392 135.677 179.138 135.577C178.885 135.477 178.614 135.429 178.342 135.435H169.258C169.206 135.435 169.158 135.461 169.112 135.465C168.578 135.518 168.083 135.768 167.722 136.165C167.688 136.205 167.641 136.225 167.61 136.265C165.293 138.956 162.409 141.101 159.165 142.548C155.922 143.994 152.399 144.705 148.848 144.63H100.235C98.9084 144.571 97.6555 144.003 96.7375 143.044C95.8194 142.085 95.307 140.808 95.307 139.48C95.307 138.152 95.8194 136.875 96.7375 135.916C97.6555 134.957 98.9084 134.388 100.235 134.33H116.652C117.186 134.318 117.695 134.098 118.069 133.715C118.443 133.333 118.652 132.82 118.652 132.285C118.652 131.751 118.443 131.238 118.069 130.856C117.695 130.473 117.186 130.253 116.652 130.241H88.52C87.2254 130.194 85.9959 129.661 85.0766 128.749C84.1573 127.836 83.6156 126.61 83.5596 125.316C83.5036 124.022 83.9374 122.754 84.7744 121.765C85.6114 120.776 86.7903 120.139 88.076 119.981H115.613C116.147 119.969 116.656 119.749 117.03 119.366C117.404 118.984 117.613 118.471 117.613 117.936C117.613 117.402 117.404 116.889 117.03 116.507C116.656 116.124 116.147 115.904 115.613 115.892H88.751C88.6751 115.872 88.5979 115.856 88.52 115.845H81.393C80.0664 115.787 78.8135 115.218 77.8955 114.259C76.9774 113.3 76.465 112.023 76.465 110.695C76.465 109.367 76.9774 108.09 77.8955 107.131C78.8135 106.172 80.0664 105.603 81.393 105.545H115.613C116.147 105.533 116.656 105.313 117.03 104.93C117.404 104.548 117.613 104.035 117.613 103.501C117.613 102.966 117.404 102.453 117.03 102.071C116.656 101.688 116.147 101.468 115.613 101.456H91.12C89.864 101.244 88.7311 100.574 87.9408 99.575C87.1505 98.5761 86.759 97.3194 86.842 96.0483C86.925 94.7772 87.4767 93.5822 88.3902 92.6945C89.3037 91.8067 90.5141 91.2896 91.787 91.243H126.129C127.764 99.351 131.236 105.229 136.51 108.673C144.276 113.745 152.947 111.594 153.31 111.5C153.75 111.387 154.14 111.131 154.418 110.773C154.697 110.414 154.848 109.973 154.849 109.519C154.848 109.347 154.825 109.176 154.782 109.01C154.715 108.75 154.598 108.505 154.436 108.29C154.275 108.075 154.073 107.894 153.842 107.758C153.61 107.621 153.354 107.531 153.088 107.494C152.822 107.456 152.551 107.471 152.291 107.538C152.218 107.558 145.018 109.346 138.744 105.247C134.102 102.217 131.098 96.705 129.819 88.87C129.812 88.825 129.782 88.79 129.772 88.746C129.732 88.5738 129.67 88.4077 129.586 88.252C129.553 88.1832 129.515 88.1164 129.474 88.052C129.365 87.8982 129.235 87.7602 129.088 87.642C129.046 87.607 129.015 87.563 128.971 87.532C128.959 87.524 128.952 87.511 128.939 87.503C128.01 86.884 127.021 86.288 125.939 85.638C123.531 84.233 121.204 82.6932 118.969 81.026C113.674 77.037 113.601 71.452 114.74 69.337C115.26 68.375 115.686 68.528 115.889 68.601C119.339 69.843 128.936 74.052 139.089 78.501C142.829 80.143 146.632 81.808 150.208 83.363C162.826 88.851 167.408 93.453 167.444 93.49C167.444 93.495 167.456 93.497 167.461 93.502C167.634 93.6762 167.838 93.8178 168.061 93.92C168.081 93.929 168.095 93.948 168.115 93.956C168.368 94.0639 168.64 94.1194 168.915 94.119H178.332C178.604 94.125 178.875 94.0766 179.128 93.9766C179.382 93.8765 179.613 93.7269 179.807 93.5364C180.002 93.346 180.157 93.1186 180.262 92.8675C180.368 92.6165 180.422 92.3468 180.422 92.0745C180.422 91.8021 180.368 91.5325 180.262 91.2815C180.157 91.0304 180.002 90.803 179.807 90.6125C179.613 90.4221 179.382 90.2725 179.128 90.1725C178.875 90.0724 178.604 90.024 178.332 90.03H169.714C168.022 88.521 162.806 84.384 151.834 79.613C148.261 78.058 144.461 76.393 140.728 74.755C130.501 70.273 120.844 66.037 117.264 64.748C114.873 63.885 112.464 64.921 111.13 67.389" stroke="#5A5956" stroke-width="2"/>
<path d="M53.551 155.53C55.7258 155.53 57.8115 156.394 59.3493 157.932C60.8871 159.469 61.751 161.555 61.751 163.73C61.7531 168.111 63.4944 172.312 66.5923 175.409C69.6902 178.507 73.8911 180.248 78.272 180.25H89.512C93.8188 180.245 98.0843 181.089 102.065 182.733C106.046 184.377 109.663 186.789 112.712 189.831L120.595 197.731C122.129 199.282 123.956 200.513 125.97 201.353C127.984 202.192 130.145 202.623 132.327 202.62C134.514 202.674 136.687 202.268 138.706 201.427C140.725 200.587 142.545 199.331 144.048 197.742C144.808 196.979 145.712 196.373 146.706 195.959C147.701 195.545 148.768 195.331 149.845 195.329C150.922 195.327 151.989 195.538 152.985 195.948C153.981 196.359 154.887 196.961 155.65 197.722C156.413 198.482 157.019 199.386 157.433 200.38C157.847 201.375 158.061 202.441 158.063 203.519C158.065 204.596 157.854 205.663 157.444 206.659C157.033 207.655 156.43 208.561 155.67 209.324C149.505 215.5 141.144 218.98 132.417 219.003C123.691 219.025 115.312 215.588 109.115 209.444L101.134 201.46C98.04 198.383 93.8533 196.657 89.49 196.66H78.272C69.5438 196.65 61.1759 193.179 55.0042 187.007C48.8324 180.835 45.3608 172.467 45.351 163.739C45.3498 162.661 45.5611 161.594 45.9726 160.598C46.3842 159.602 46.988 158.697 47.7495 157.935C48.5111 157.172 49.4155 156.568 50.4109 156.155C51.4064 155.742 52.4734 155.53 53.551 155.53ZM186.388 22.6409C195.118 22.6512 203.487 26.1245 209.659 32.2986C215.831 38.4726 219.302 46.843 219.309 55.5729V66.8159C219.308 71.1822 221.038 75.3708 224.12 78.4639L231.97 86.3169C238.157 92.4766 241.645 100.841 241.668 109.572C241.69 118.302 238.245 126.684 232.09 132.876L224.109 140.86C221.051 143.963 219.328 148.14 219.309 152.497V163.73C219.3 172.459 215.829 180.829 209.657 187.002C203.486 193.176 195.117 196.65 186.388 196.662C184.212 196.662 182.126 195.798 180.588 194.259C179.049 192.721 178.185 190.634 178.185 188.459C178.185 186.283 179.049 184.197 180.588 182.659C182.126 181.12 184.212 180.256 186.388 180.256C190.769 180.251 194.969 178.509 198.067 175.41C201.164 172.312 202.905 168.111 202.908 163.73V152.487C202.898 148.177 203.74 143.908 205.386 139.925C207.031 135.942 209.448 132.324 212.497 129.278L220.369 121.392C221.919 119.858 223.15 118.032 223.991 116.019C224.831 114.007 225.265 111.848 225.267 109.667C225.269 107.485 224.84 105.326 224.003 103.312C223.166 101.298 221.938 99.4692 220.391 97.9319L212.508 90.0459C209.46 86.9965 207.044 83.3762 205.397 79.3921C203.749 75.408 202.904 71.1382 202.908 66.8269V55.5729C202.907 51.1911 201.166 46.9891 198.068 43.8902C194.97 40.7914 190.769 39.0493 186.387 39.0469C184.211 39.0469 182.125 38.1827 180.587 36.6443C179.048 35.106 178.184 33.0195 178.184 30.8439C178.184 28.6684 179.048 26.5819 180.587 25.0435C182.125 23.5052 184.211 22.6409 186.387 22.6409H186.388ZM109.006 9.97592C114.961 4.01663 122.975 0.568757 131.396 0.342893C139.818 0.117028 148.005 3.13038 154.271 8.76192C154.735 9.09379 155.173 9.45945 155.583 9.85592C157.047 11.389 157.869 13.4233 157.883 15.5429C157.885 17.1401 157.42 18.7032 156.546 20.04C155.673 21.3769 154.427 22.4295 152.963 23.0684C151.499 23.7073 149.881 23.9049 148.306 23.6367C146.732 23.3685 145.27 22.6464 144.1 21.5589C143.991 21.4499 143.991 21.4499 143.881 21.3509C140.734 18.3512 136.542 16.6952 132.195 16.734C127.847 16.7729 123.686 18.5035 120.593 21.5589L112.723 29.4299C109.69 32.4906 106.079 34.9178 102.1 36.5702C98.1208 38.2225 93.8527 39.0672 89.544 39.0549H78.283C73.9081 39.0702 69.7169 40.8153 66.6238 43.9092C63.5307 47.0032 61.787 51.195 61.773 55.5699V66.8379C61.7879 71.1478 60.9449 75.4176 59.2931 79.3985C57.6413 83.3793 55.2138 86.9916 52.152 90.0249L44.279 97.9099C41.181 101.036 39.4428 105.259 39.4428 109.66C39.4428 114.061 41.181 118.284 44.279 121.41C45.8016 122.956 46.6551 125.04 46.6551 127.21C46.6551 129.38 45.8016 131.463 44.279 133.01C42.7283 134.526 40.6526 135.386 38.484 135.41C37.4074 135.413 36.3408 135.202 35.3461 134.79C34.3514 134.378 33.4483 133.773 32.689 133.01C26.5052 126.839 23.021 118.468 23.0006 109.732C22.9801 100.997 26.4251 92.6093 32.58 86.4099L40.562 78.4299C42.0862 76.9083 43.2956 75.1013 44.1211 73.1121C44.9466 71.123 45.372 68.9906 45.373 66.8369V55.5729C45.3804 46.8459 48.8497 38.4783 55.0196 32.3063C61.1895 26.1344 69.556 22.6622 78.283 22.6519H89.544C91.6977 22.6534 93.8304 22.2291 95.8195 21.4032C97.8086 20.5774 99.6147 19.3664 101.134 17.8399L109.006 9.97592Z" fill="#EA572E"/>
</svg>
