<svg width="299" height="319" viewBox="0 0 299 319" fill="none" xmlns="http://www.w3.org/2000/svg">
<path d="M65.912 256.528C65.672 255.832 65.696 255.28 65.984 254.872C66.272 254.464 66.788 254.26 67.532 254.26H70.232C71.408 254.26 72.152 254.812 72.464 255.916L76.496 268.912C76.616 269.32 76.736 269.764 76.856 270.244C76.976 270.724 77.084 271.168 77.18 271.576C77.276 272.056 77.372 272.548 77.468 273.052H77.54C77.636 272.548 77.732 272.056 77.828 271.576C77.924 271.168 78.032 270.724 78.152 270.244C78.272 269.764 78.392 269.32 78.512 268.912L82.616 255.916C82.928 254.812 83.672 254.26 84.848 254.26H87.44C88.184 254.26 88.7 254.464 88.988 254.872C89.276 255.28 89.3 255.832 89.06 256.528L81.356 278.416C80.972 279.472 80.216 280 79.088 280H75.92C74.792 280 74.036 279.472 73.652 278.416L65.912 256.528ZM92.8909 259.12C91.5709 259.12 90.9109 258.46 90.9109 257.14V256.24C90.9109 254.92 91.5709 254.26 92.8909 254.26H95.0149C96.3349 254.26 96.9949 254.92 96.9949 256.24V257.14C96.9949 258.46 96.3349 259.12 95.0149 259.12H92.8909ZM90.8389 263.44C90.8389 262.12 91.4989 261.46 92.8189 261.46H95.0869C96.4069 261.46 97.0669 262.12 97.0669 263.44V278.02C97.0669 279.34 96.4069 280 95.0869 280H92.8189C91.4989 280 90.8389 279.34 90.8389 278.02V263.44ZM100.753 278.74C100.201 278.428 99.889 278.032 99.817 277.552C99.769 277.072 99.913 276.556 100.249 276.004L100.789 275.176C101.149 274.648 101.533 274.348 101.941 274.276C102.373 274.204 102.901 274.312 103.525 274.6C103.981 274.792 104.497 275.008 105.073 275.248C105.649 275.464 106.309 275.572 107.053 275.572C107.677 275.572 108.109 275.476 108.349 275.284C108.613 275.068 108.745 274.816 108.745 274.528C108.745 274.168 108.529 273.88 108.097 273.664C107.665 273.448 107.125 273.244 106.477 273.052C105.853 272.836 105.157 272.608 104.389 272.368C103.645 272.104 102.949 271.756 102.301 271.324C101.677 270.868 101.149 270.292 100.717 269.596C100.285 268.876 100.069 267.976 100.069 266.896C100.069 265.936 100.261 265.096 100.645 264.376C101.053 263.632 101.605 263.02 102.301 262.54C102.997 262.036 103.813 261.664 104.749 261.424C105.685 261.16 106.693 261.028 107.773 261.028C108.949 261.028 109.969 261.16 110.833 261.424C111.721 261.688 112.453 261.952 113.029 262.216C113.581 262.48 113.905 262.852 114.001 263.332C114.097 263.812 114.013 264.328 113.749 264.88L113.317 265.744C113.053 266.32 112.705 266.668 112.273 266.788C111.841 266.908 111.313 266.848 110.689 266.608C110.257 266.44 109.777 266.284 109.249 266.14C108.721 265.972 108.145 265.888 107.521 265.888C106.849 265.888 106.405 265.984 106.189 266.176C105.973 266.368 105.865 266.596 105.865 266.86C105.865 267.22 106.081 267.508 106.513 267.724C106.945 267.916 107.473 268.12 108.097 268.336C108.745 268.528 109.441 268.744 110.185 268.984C110.953 269.224 111.649 269.572 112.273 270.028C112.921 270.46 113.461 271.024 113.893 271.72C114.325 272.392 114.541 273.268 114.541 274.348C114.541 275.212 114.361 276.016 114.001 276.76C113.665 277.504 113.161 278.152 112.489 278.704C111.841 279.232 111.037 279.652 110.077 279.964C109.141 280.276 108.085 280.432 106.909 280.432C105.517 280.432 104.305 280.252 103.273 279.892C102.241 279.508 101.401 279.124 100.753 278.74ZM117.096 263.44C117.096 262.12 117.756 261.46 119.076 261.46H121.344C122.664 261.46 123.324 262.12 123.324 263.44V272.332C123.324 273.196 123.492 273.82 123.828 274.204C124.164 274.588 124.656 274.78 125.304 274.78C125.976 274.78 126.552 274.648 127.032 274.384C127.536 274.096 127.944 273.724 128.256 273.268C128.592 272.788 128.832 272.248 128.976 271.648C129.144 271.024 129.228 270.364 129.228 269.668V263.44C129.228 262.12 129.888 261.46 131.208 261.46H133.476C134.796 261.46 135.456 262.12 135.456 263.44V278.02C135.456 279.34 134.796 280 133.476 280H131.46C130.164 280 129.516 279.34 129.516 278.02V277.696V277.408C129.516 277.336 129.528 277.276 129.552 277.228H129.48C128.976 278.236 128.196 279.028 127.14 279.604C126.084 280.156 124.932 280.432 123.684 280.432C122.772 280.432 121.908 280.312 121.092 280.072C120.3 279.832 119.604 279.448 119.004 278.92C118.404 278.368 117.936 277.648 117.6 276.76C117.264 275.872 117.096 274.78 117.096 273.484V263.44ZM137.884 274.78C137.884 273.532 138.208 272.5 138.856 271.684C139.528 270.868 140.38 270.22 141.412 269.74C142.444 269.26 143.572 268.924 144.796 268.732C146.02 268.54 147.208 268.444 148.36 268.444H148.9V268.12C148.9 267.352 148.636 266.824 148.108 266.536C147.58 266.224 146.968 266.068 146.272 266.068C145.672 266.068 145.084 266.152 144.508 266.32C143.932 266.488 143.404 266.68 142.924 266.896C141.7 267.424 140.812 267.136 140.26 266.032L139.828 265.132C139.564 264.58 139.492 264.076 139.612 263.62C139.732 263.14 140.068 262.756 140.62 262.468C141.316 262.132 142.192 261.808 143.248 261.496C144.304 261.184 145.504 261.028 146.848 261.028C149.416 261.028 151.432 261.7 152.896 263.044C154.384 264.364 155.128 266.212 155.128 268.588V278.02C155.128 279.34 154.468 280 153.148 280H151.42C150.1 280 149.44 279.328 149.44 277.984V277.84V277.588C149.44 277.54 149.452 277.504 149.476 277.48H149.404C149.044 278.032 148.6 278.524 148.072 278.956C147.616 279.34 147.04 279.688 146.344 280C145.648 280.288 144.844 280.432 143.932 280.432C143.044 280.432 142.228 280.288 141.484 280C140.74 279.712 140.104 279.316 139.576 278.812C139.048 278.308 138.628 277.708 138.316 277.012C138.028 276.316 137.884 275.572 137.884 274.78ZM144.04 274.204C144.04 274.636 144.184 275.008 144.472 275.32C144.784 275.632 145.228 275.788 145.804 275.788C146.26 275.788 146.68 275.692 147.064 275.5C147.448 275.284 147.784 275.02 148.072 274.708C148.36 274.396 148.576 274.048 148.72 273.664C148.888 273.28 148.972 272.896 148.972 272.512V272.008H148.396C147.916 272.008 147.412 272.044 146.884 272.116C146.38 272.188 145.912 272.308 145.48 272.476C145.072 272.644 144.724 272.872 144.436 273.16C144.172 273.424 144.04 273.772 144.04 274.204ZM158.443 256.24C158.443 254.92 159.103 254.26 160.423 254.26H162.691C164.011 254.26 164.671 254.92 164.671 256.24V272.872C164.671 273.568 164.767 274.036 164.959 274.276C165.175 274.516 165.427 274.66 165.715 274.708C166.147 274.756 166.495 274.912 166.759 275.176C167.023 275.44 167.155 275.848 167.155 276.4V278.164C167.155 278.788 166.999 279.28 166.687 279.64C166.375 280 165.859 280.18 165.139 280.18C164.347 280.18 163.543 280.108 162.727 279.964C161.935 279.82 161.215 279.508 160.567 279.028C159.943 278.524 159.427 277.816 159.019 276.904C158.635 275.968 158.443 274.72 158.443 273.16V256.24ZM171.606 259.12C170.286 259.12 169.626 258.46 169.626 257.14V256.24C169.626 254.92 170.286 254.26 171.606 254.26H173.73C175.05 254.26 175.71 254.92 175.71 256.24V257.14C175.71 258.46 175.05 259.12 173.73 259.12H171.606ZM169.554 263.44C169.554 262.12 170.214 261.46 171.534 261.46H173.802C175.122 261.46 175.782 262.12 175.782 263.44V278.02C175.782 279.34 175.122 280 173.802 280H171.534C170.214 280 169.554 279.34 169.554 278.02V263.44ZM178.496 277.984C178.496 277.504 178.556 277.12 178.676 276.832C178.82 276.544 179.048 276.196 179.36 275.788L185.3 268.372C185.54 268.084 185.756 267.844 185.948 267.652C186.14 267.436 186.308 267.256 186.452 267.112C186.62 266.944 186.776 266.8 186.92 266.68V266.608C186.8 266.632 186.668 266.644 186.524 266.644C186.404 266.668 186.236 266.68 186.02 266.68C185.828 266.68 185.588 266.68 185.3 266.68H180.764C179.444 266.68 178.784 266.02 178.784 264.7V263.44C178.784 262.12 179.444 261.46 180.764 261.46H193.364C194.684 261.46 195.344 261.976 195.344 263.008V263.476C195.344 263.956 195.272 264.34 195.128 264.628C195.008 264.916 194.792 265.264 194.48 265.672L188.576 273.124C188.336 273.412 188.12 273.664 187.928 273.88C187.736 274.072 187.568 274.24 187.424 274.384C187.256 274.552 187.088 274.696 186.92 274.816V274.888C187.04 274.888 187.172 274.876 187.316 274.852C187.436 274.828 187.592 274.816 187.784 274.816C188 274.792 188.264 274.78 188.576 274.78H193.544C194.864 274.78 195.524 275.44 195.524 276.76V278.02C195.524 279.34 194.864 280 193.544 280H180.476C179.156 280 178.496 279.484 178.496 278.452V277.984ZM197.087 274.78C197.087 273.532 197.411 272.5 198.059 271.684C198.731 270.868 199.583 270.22 200.615 269.74C201.647 269.26 202.775 268.924 203.999 268.732C205.223 268.54 206.411 268.444 207.563 268.444H208.103V268.12C208.103 267.352 207.839 266.824 207.311 266.536C206.783 266.224 206.171 266.068 205.475 266.068C204.875 266.068 204.287 266.152 203.711 266.32C203.135 266.488 202.607 266.68 202.127 266.896C200.903 267.424 200.015 267.136 199.463 266.032L199.031 265.132C198.767 264.58 198.695 264.076 198.815 263.62C198.935 263.14 199.271 262.756 199.823 262.468C200.519 262.132 201.395 261.808 202.451 261.496C203.507 261.184 204.707 261.028 206.051 261.028C208.619 261.028 210.635 261.7 212.099 263.044C213.587 264.364 214.331 266.212 214.331 268.588V278.02C214.331 279.34 213.671 280 212.351 280H210.623C209.303 280 208.643 279.328 208.643 277.984V277.84V277.588C208.643 277.54 208.655 277.504 208.679 277.48H208.607C208.247 278.032 207.803 278.524 207.275 278.956C206.819 279.34 206.243 279.688 205.547 280C204.851 280.288 204.047 280.432 203.135 280.432C202.247 280.432 201.431 280.288 200.687 280C199.943 279.712 199.307 279.316 198.779 278.812C198.251 278.308 197.831 277.708 197.519 277.012C197.231 276.316 197.087 275.572 197.087 274.78ZM203.243 274.204C203.243 274.636 203.387 275.008 203.675 275.32C203.987 275.632 204.431 275.788 205.007 275.788C205.463 275.788 205.883 275.692 206.267 275.5C206.651 275.284 206.987 275.02 207.275 274.708C207.563 274.396 207.779 274.048 207.923 273.664C208.091 273.28 208.175 272.896 208.175 272.512V272.008H207.599C207.119 272.008 206.615 272.044 206.087 272.116C205.583 272.188 205.115 272.308 204.683 272.476C204.275 272.644 203.927 272.872 203.639 273.16C203.375 273.424 203.243 273.772 203.243 274.204ZM217.718 278.74C217.166 278.428 216.854 278.032 216.782 277.552C216.734 277.072 216.878 276.556 217.214 276.004L217.754 275.176C218.114 274.648 218.498 274.348 218.906 274.276C219.338 274.204 219.866 274.312 220.49 274.6C220.946 274.792 221.462 275.008 222.038 275.248C222.614 275.464 223.274 275.572 224.018 275.572C224.642 275.572 225.074 275.476 225.314 275.284C225.578 275.068 225.71 274.816 225.71 274.528C225.71 274.168 225.494 273.88 225.062 273.664C224.63 273.448 224.09 273.244 223.442 273.052C222.818 272.836 222.122 272.608 221.354 272.368C220.61 272.104 219.914 271.756 219.266 271.324C218.642 270.868 218.114 270.292 217.682 269.596C217.25 268.876 217.034 267.976 217.034 266.896C217.034 265.936 217.226 265.096 217.61 264.376C218.018 263.632 218.57 263.02 219.266 262.54C219.962 262.036 220.778 261.664 221.714 261.424C222.65 261.16 223.658 261.028 224.738 261.028C225.914 261.028 226.934 261.16 227.798 261.424C228.686 261.688 229.418 261.952 229.994 262.216C230.546 262.48 230.87 262.852 230.966 263.332C231.062 263.812 230.978 264.328 230.714 264.88L230.282 265.744C230.018 266.32 229.67 266.668 229.238 266.788C228.806 266.908 228.278 266.848 227.654 266.608C227.222 266.44 226.742 266.284 226.214 266.14C225.686 265.972 225.11 265.888 224.486 265.888C223.814 265.888 223.37 265.984 223.154 266.176C222.938 266.368 222.83 266.596 222.83 266.86C222.83 267.22 223.046 267.508 223.478 267.724C223.91 267.916 224.438 268.12 225.062 268.336C225.71 268.528 226.406 268.744 227.15 268.984C227.918 269.224 228.614 269.572 229.238 270.028C229.886 270.46 230.426 271.024 230.858 271.72C231.29 272.392 231.506 273.268 231.506 274.348C231.506 275.212 231.326 276.016 230.966 276.76C230.63 277.504 230.126 278.152 229.454 278.704C228.806 279.232 228.002 279.652 227.042 279.964C226.106 280.276 225.05 280.432 223.874 280.432C222.482 280.432 221.27 280.252 220.238 279.892C219.206 279.508 218.366 279.124 217.718 278.74Z" fill="#663B73"/>
<path d="M4.5 302.778C4.608 302.454 4.83 302.292 5.166 302.292H6.03C6.366 302.292 6.588 302.454 6.696 302.778L10.872 314.316C10.944 314.52 10.932 314.688 10.836 314.82C10.752 314.94 10.602 315 10.386 315H9.774C9.438 315 9.216 314.838 9.108 314.514L7.974 311.346H3.186L2.07 314.514C1.974 314.838 1.758 315 1.422 315H0.81C0.582 315 0.426 314.94 0.342 314.82C0.258 314.688 0.252 314.52 0.324 314.316L4.5 302.778ZM7.506 309.87L6.102 305.838C6.042 305.67 5.982 305.49 5.922 305.298C5.874 305.094 5.826 304.896 5.778 304.704C5.73 304.488 5.676 304.266 5.616 304.038H5.58C5.508 304.266 5.448 304.488 5.4 304.704C5.34 304.896 5.286 305.094 5.238 305.298C5.19 305.49 5.136 305.67 5.076 305.838L3.654 309.87H7.506ZM17.3717 307.404H16.7417C16.3577 307.404 16.1657 307.206 16.1657 306.81V306.576C16.1657 306.18 16.3637 305.982 16.7597 305.982H17.4077V303.984C17.4077 303.588 17.6057 303.39 18.0017 303.39H18.5237C18.9197 303.39 19.1177 303.588 19.1177 303.984V305.982H20.7017C21.0977 305.982 21.2957 306.18 21.2957 306.576V306.81C21.2957 307.206 21.1037 307.404 20.7197 307.404H19.1177V311.454C19.1177 311.886 19.1777 312.234 19.2977 312.498C19.4177 312.762 19.5617 312.966 19.7297 313.11C19.9097 313.254 20.0957 313.356 20.2877 313.416C20.4917 313.464 20.6777 313.494 20.8457 313.506C21.0857 313.53 21.2477 313.584 21.3317 313.668C21.4277 313.752 21.4757 313.896 21.4757 314.1V314.478C21.4757 314.874 21.2357 315.072 20.7557 315.072C20.2997 315.072 19.8677 315.006 19.4597 314.874C19.0517 314.742 18.6917 314.538 18.3797 314.262C18.0797 313.986 17.8337 313.638 17.6417 313.218C17.4617 312.798 17.3717 312.3 17.3717 311.724V307.404ZM23.092 306.486C23.092 306.09 23.29 305.892 23.686 305.892H24.19C24.586 305.892 24.784 306.09 24.784 306.486V307.53C24.784 307.626 24.778 307.716 24.766 307.8C24.766 307.884 24.76 307.956 24.748 308.016C24.736 308.088 24.73 308.154 24.73 308.214H24.766C24.862 307.914 24.994 307.62 25.162 307.332C25.342 307.044 25.552 306.792 25.792 306.576C26.032 306.348 26.296 306.168 26.584 306.036C26.884 305.892 27.208 305.82 27.556 305.82C27.94 305.82 28.132 306.018 28.132 306.414V306.918C28.132 307.314 27.916 307.512 27.484 307.512C27.04 307.512 26.65 307.626 26.314 307.854C25.99 308.07 25.714 308.352 25.486 308.7C25.27 309.048 25.108 309.45 25 309.906C24.892 310.35 24.838 310.794 24.838 311.238V314.406C24.838 314.802 24.64 315 24.244 315H23.686C23.29 315 23.092 314.802 23.092 314.406V306.486ZM28.6822 312.516C28.6822 312.048 28.7722 311.646 28.9522 311.31C29.1322 310.962 29.3722 310.674 29.6722 310.446C29.9722 310.218 30.3082 310.032 30.6802 309.888C31.0642 309.744 31.4602 309.636 31.8682 309.564C32.2762 309.492 32.6722 309.444 33.0562 309.42C33.4522 309.396 33.8062 309.384 34.1182 309.384H34.5862V309.15C34.5862 308.778 34.5322 308.466 34.4242 308.214C34.3282 307.95 34.1902 307.74 34.0102 307.584C33.8302 307.428 33.6202 307.32 33.3802 307.26C33.1402 307.188 32.8822 307.152 32.6062 307.152C32.1502 307.152 31.7422 307.218 31.3822 307.35C31.0342 307.482 30.7582 307.608 30.5542 307.728C30.2062 307.896 29.9362 307.824 29.7442 307.512L29.6002 307.26C29.4082 306.9 29.4742 306.63 29.7982 306.45C30.0742 306.294 30.4582 306.126 30.9502 305.946C31.4542 305.766 32.0542 305.676 32.7502 305.676C33.8902 305.676 34.7722 305.982 35.3962 306.594C36.0202 307.194 36.3322 308.076 36.3322 309.24V314.406C36.3322 314.802 36.1342 315 35.7382 315H35.2882C34.8922 315 34.6942 314.802 34.6942 314.406V313.866C34.6942 313.782 34.6942 313.704 34.6942 313.632C34.6942 313.56 34.7002 313.5 34.7122 313.452C34.7242 313.404 34.7362 313.356 34.7482 313.308H34.7122C34.5322 313.668 34.3042 313.986 34.0282 314.262C33.7882 314.502 33.4822 314.724 33.1102 314.928C32.7382 315.12 32.2822 315.216 31.7422 315.216C31.3462 315.216 30.9622 315.156 30.5902 315.036C30.2182 314.916 29.8882 314.742 29.6002 314.514C29.3242 314.274 29.1022 313.992 28.9342 313.668C28.7662 313.332 28.6822 312.948 28.6822 312.516ZM30.4462 312.372C30.4462 312.732 30.5842 313.068 30.8602 313.38C31.1482 313.68 31.5742 313.83 32.1382 313.83C32.5222 313.83 32.8642 313.746 33.1642 313.578C33.4762 313.398 33.7342 313.17 33.9382 312.894C34.1542 312.606 34.3162 312.294 34.4242 311.958C34.5442 311.61 34.6042 311.268 34.6042 310.932V310.536H34.1362C33.8122 310.536 33.4402 310.554 33.0202 310.59C32.6002 310.614 32.1982 310.686 31.8142 310.806C31.4302 310.926 31.1062 311.112 30.8422 311.364C30.5782 311.604 30.4462 311.94 30.4462 312.372ZM37.7307 306.576C37.6587 306.372 37.6647 306.21 37.7487 306.09C37.8327 305.958 37.9827 305.892 38.1987 305.892H38.8107C39.1467 305.892 39.3687 306.054 39.4767 306.378L41.5287 312.048C41.5767 312.18 41.6187 312.318 41.6547 312.462C41.7027 312.594 41.7387 312.726 41.7627 312.858C41.7987 313.002 41.8287 313.146 41.8527 313.29H41.8887C41.9247 313.146 41.9607 313.002 41.9967 312.858C42.0207 312.726 42.0507 312.594 42.0867 312.462C42.1227 312.318 42.1647 312.18 42.2127 312.048L44.2647 306.378C44.3727 306.054 44.5947 305.892 44.9307 305.892H45.5427C45.7587 305.892 45.9087 305.958 45.9927 306.09C46.0887 306.21 46.0947 306.372 46.0107 306.576L43.0587 314.532C42.9507 314.844 42.7287 315 42.3927 315H41.3847C41.0487 315 40.8267 314.844 40.7187 314.532L37.7307 306.576ZM51.4844 304.56C51.2804 304.56 51.1424 304.494 51.0704 304.362C50.9984 304.23 51.0164 304.074 51.1244 303.894L51.8444 302.688C52.0004 302.412 52.2344 302.274 52.5464 302.274H53.0684C53.3204 302.274 53.4764 302.346 53.5364 302.49C53.5964 302.622 53.5484 302.79 53.3924 302.994L52.5104 304.2C52.3184 304.44 52.0784 304.56 51.7904 304.56H51.4844ZM47.0024 310.446C47.0024 309.726 47.1164 309.072 47.3444 308.484C47.5844 307.896 47.9024 307.398 48.2984 306.99C48.7064 306.57 49.1864 306.246 49.7384 306.018C50.3024 305.79 50.9084 305.676 51.5564 305.676C52.1804 305.676 52.7384 305.784 53.2304 306C53.7224 306.216 54.1304 306.516 54.4544 306.9C54.7904 307.284 55.0424 307.74 55.2104 308.268C55.3904 308.796 55.4804 309.378 55.4804 310.014C55.4804 310.182 55.4204 310.326 55.3004 310.446C55.1924 310.566 55.0484 310.626 54.8684 310.626H48.7844C48.8084 311.118 48.9104 311.556 49.0904 311.94C49.2704 312.324 49.5044 312.648 49.7924 312.912C50.0804 313.176 50.4044 313.374 50.7644 313.506C51.1364 313.638 51.5264 313.704 51.9344 313.704C52.4384 313.704 52.8764 313.626 53.2484 313.47C53.6204 313.302 53.9084 313.14 54.1124 312.984C54.4724 312.792 54.7424 312.858 54.9224 313.182L55.0844 313.452C55.1804 313.608 55.2104 313.758 55.1744 313.902C55.1504 314.034 55.0604 314.148 54.9044 314.244C54.7724 314.34 54.6044 314.448 54.4004 314.568C54.1964 314.676 53.9624 314.778 53.6984 314.874C53.4464 314.97 53.1584 315.048 52.8344 315.108C52.5224 315.18 52.1864 315.216 51.8264 315.216C51.1064 315.216 50.4524 315.096 49.8644 314.856C49.2764 314.604 48.7664 314.268 48.3344 313.848C47.9144 313.416 47.5844 312.912 47.3444 312.336C47.1164 311.748 47.0024 311.118 47.0024 310.446ZM53.7344 309.474C53.7104 308.67 53.4824 308.064 53.0504 307.656C52.6304 307.248 52.1204 307.044 51.5204 307.044C50.8484 307.044 50.2664 307.26 49.7744 307.692C49.2944 308.112 48.9884 308.706 48.8564 309.474H53.7344ZM57.027 314.226C56.871 314.13 56.787 314.01 56.775 313.866C56.763 313.722 56.805 313.572 56.901 313.416L57.081 313.164C57.201 313.008 57.321 312.924 57.441 312.912C57.573 312.9 57.729 312.942 57.909 313.038C58.113 313.17 58.401 313.326 58.773 313.506C59.145 313.686 59.601 313.776 60.141 313.776C60.597 313.776 60.969 313.674 61.257 313.47C61.545 313.254 61.689 312.954 61.689 312.57C61.689 312.27 61.569 312.03 61.329 311.85C61.101 311.67 60.813 311.508 60.465 311.364C60.117 311.208 59.739 311.064 59.331 310.932C58.935 310.788 58.563 310.608 58.215 310.392C57.867 310.164 57.573 309.888 57.333 309.564C57.105 309.24 56.991 308.82 56.991 308.304C56.991 307.872 57.075 307.494 57.243 307.17C57.423 306.834 57.663 306.558 57.963 306.342C58.263 306.126 58.611 305.964 59.007 305.856C59.415 305.736 59.841 305.676 60.285 305.676C60.921 305.676 61.443 305.76 61.851 305.928C62.271 306.096 62.589 306.246 62.805 306.378C62.973 306.462 63.069 306.576 63.093 306.72C63.129 306.852 63.099 307.002 63.003 307.17L62.841 307.44C62.673 307.74 62.409 307.806 62.049 307.638C61.857 307.53 61.605 307.416 61.293 307.296C60.993 307.176 60.627 307.116 60.195 307.116C59.763 307.116 59.397 307.212 59.097 307.404C58.809 307.596 58.665 307.884 58.665 308.268C58.665 308.568 58.779 308.814 59.007 309.006C59.247 309.186 59.541 309.348 59.889 309.492C60.237 309.636 60.609 309.78 61.005 309.924C61.413 310.068 61.791 310.248 62.139 310.464C62.487 310.668 62.775 310.938 63.003 311.274C63.243 311.598 63.363 312.018 63.363 312.534C63.363 312.918 63.285 313.278 63.129 313.614C62.973 313.938 62.751 314.22 62.463 314.46C62.175 314.7 61.827 314.886 61.419 315.018C61.023 315.15 60.579 315.216 60.087 315.216C59.703 315.216 59.349 315.18 59.025 315.108C58.713 315.048 58.431 314.97 58.179 314.874C57.927 314.766 57.699 314.658 57.495 314.55C57.303 314.43 57.147 314.322 57.027 314.226ZM69.2391 310.446C69.2391 309.726 69.3411 309.072 69.5451 308.484C69.7491 307.896 70.0311 307.398 70.3911 306.99C70.7631 306.57 71.2011 306.246 71.7051 306.018C72.2091 305.79 72.7611 305.676 73.3611 305.676C73.8891 305.676 74.3271 305.76 74.6751 305.928C75.0351 306.084 75.3291 306.264 75.5571 306.468C75.8211 306.696 76.0311 306.954 76.1871 307.242H76.2231C76.2111 307.182 76.1991 307.122 76.1871 307.062C76.1751 307.002 76.1691 306.942 76.1691 306.882C76.1691 306.81 76.1691 306.726 76.1691 306.63V302.886C76.1691 302.49 76.3671 302.292 76.7631 302.292H77.3211C77.7171 302.292 77.9151 302.49 77.9151 302.886V314.406C77.9151 314.802 77.7171 315 77.3211 315H76.8531C76.4571 315 76.2591 314.814 76.2591 314.442V313.92C76.2591 313.764 76.2651 313.656 76.2771 313.596C76.2771 313.548 76.2831 313.506 76.2951 313.47H76.2591C76.0911 313.806 75.8691 314.1 75.5931 314.352C75.3531 314.568 75.0411 314.766 74.6571 314.946C74.2851 315.126 73.8171 315.216 73.2531 315.216C72.6411 315.216 72.0831 315.102 71.5791 314.874C71.0871 314.634 70.6671 314.304 70.3191 313.884C69.9711 313.464 69.7011 312.966 69.5091 312.39C69.3291 311.802 69.2391 311.154 69.2391 310.446ZM71.0211 310.446C71.0211 310.938 71.0811 311.388 71.2011 311.796C71.3331 312.192 71.5131 312.534 71.7411 312.822C71.9691 313.098 72.2391 313.314 72.5511 313.47C72.8631 313.626 73.2111 313.704 73.5951 313.704C73.9311 313.704 74.2551 313.644 74.5671 313.524C74.8911 313.392 75.1731 313.194 75.4131 312.93C75.6531 312.666 75.8451 312.33 75.9891 311.922C76.1451 311.502 76.2231 311.004 76.2231 310.428C76.2231 310.02 76.1691 309.624 76.0611 309.24C75.9531 308.856 75.7911 308.514 75.5751 308.214C75.3591 307.914 75.0891 307.674 74.7651 307.494C74.4411 307.302 74.0631 307.206 73.6311 307.206C73.2711 307.206 72.9351 307.278 72.6231 307.422C72.3111 307.566 72.0351 307.776 71.7951 308.052C71.5551 308.328 71.3631 308.67 71.2191 309.078C71.0871 309.474 71.0211 309.93 71.0211 310.446ZM79.8735 310.446C79.8735 309.726 79.9875 309.072 80.2155 308.484C80.4555 307.896 80.7735 307.398 81.1695 306.99C81.5775 306.57 82.0575 306.246 82.6095 306.018C83.1735 305.79 83.7795 305.676 84.4275 305.676C85.0515 305.676 85.6095 305.784 86.1015 306C86.5935 306.216 87.0015 306.516 87.3255 306.9C87.6615 307.284 87.9135 307.74 88.0815 308.268C88.2615 308.796 88.3515 309.378 88.3515 310.014C88.3515 310.182 88.2915 310.326 88.1715 310.446C88.0635 310.566 87.9195 310.626 87.7395 310.626H81.6555C81.6795 311.118 81.7815 311.556 81.9615 311.94C82.1415 312.324 82.3755 312.648 82.6635 312.912C82.9515 313.176 83.2755 313.374 83.6355 313.506C84.0075 313.638 84.3975 313.704 84.8055 313.704C85.3095 313.704 85.7475 313.626 86.1195 313.47C86.4915 313.302 86.7795 313.14 86.9835 312.984C87.3435 312.792 87.6135 312.858 87.7935 313.182L87.9555 313.452C88.0515 313.608 88.0815 313.758 88.0455 313.902C88.0215 314.034 87.9315 314.148 87.7755 314.244C87.6435 314.34 87.4755 314.448 87.2715 314.568C87.0675 314.676 86.8335 314.778 86.5695 314.874C86.3175 314.97 86.0295 315.048 85.7055 315.108C85.3935 315.18 85.0575 315.216 84.6975 315.216C83.9775 315.216 83.3235 315.096 82.7355 314.856C82.1475 314.604 81.6375 314.268 81.2055 313.848C80.7855 313.416 80.4555 312.912 80.2155 312.336C79.9875 311.748 79.8735 311.118 79.8735 310.446ZM86.6055 309.474C86.5815 308.67 86.3535 308.064 85.9215 307.656C85.5015 307.248 84.9915 307.044 84.3915 307.044C83.7195 307.044 83.1375 307.26 82.6455 307.692C82.1655 308.112 81.8595 308.706 81.7275 309.474H86.6055ZM94.758 302.886C94.758 302.49 94.956 302.292 95.352 302.292H95.91C96.306 302.292 96.504 302.49 96.504 302.886V312.3C96.504 312.552 96.528 312.756 96.576 312.912C96.624 313.068 96.69 313.188 96.774 313.272C96.858 313.356 96.948 313.416 97.044 313.452C97.14 313.476 97.236 313.494 97.332 313.506C97.464 313.53 97.572 313.584 97.656 313.668C97.752 313.74 97.8 313.86 97.8 314.028V314.46C97.8 314.652 97.752 314.802 97.656 314.91C97.572 315.018 97.416 315.072 97.188 315.072C96.948 315.072 96.684 315.048 96.396 315C96.108 314.94 95.844 314.826 95.604 314.658C95.364 314.478 95.16 314.22 94.992 313.884C94.836 313.548 94.758 313.092 94.758 312.516V302.886ZM98.731 312.516C98.731 312.048 98.821 311.646 99.001 311.31C99.181 310.962 99.421 310.674 99.721 310.446C100.021 310.218 100.357 310.032 100.729 309.888C101.113 309.744 101.509 309.636 101.917 309.564C102.325 309.492 102.721 309.444 103.105 309.42C103.501 309.396 103.855 309.384 104.167 309.384H104.635V309.15C104.635 308.778 104.581 308.466 104.473 308.214C104.377 307.95 104.239 307.74 104.059 307.584C103.879 307.428 103.669 307.32 103.429 307.26C103.189 307.188 102.931 307.152 102.655 307.152C102.199 307.152 101.791 307.218 101.431 307.35C101.083 307.482 100.807 307.608 100.603 307.728C100.255 307.896 99.985 307.824 99.793 307.512L99.649 307.26C99.457 306.9 99.523 306.63 99.847 306.45C100.123 306.294 100.507 306.126 100.999 305.946C101.503 305.766 102.103 305.676 102.799 305.676C103.939 305.676 104.821 305.982 105.445 306.594C106.069 307.194 106.381 308.076 106.381 309.24V314.406C106.381 314.802 106.183 315 105.787 315H105.337C104.941 315 104.743 314.802 104.743 314.406V313.866C104.743 313.782 104.743 313.704 104.743 313.632C104.743 313.56 104.749 313.5 104.761 313.452C104.773 313.404 104.785 313.356 104.797 313.308H104.761C104.581 313.668 104.353 313.986 104.077 314.262C103.837 314.502 103.531 314.724 103.159 314.928C102.787 315.12 102.331 315.216 101.791 315.216C101.395 315.216 101.011 315.156 100.639 315.036C100.267 314.916 99.937 314.742 99.649 314.514C99.373 314.274 99.151 313.992 98.983 313.668C98.815 313.332 98.731 312.948 98.731 312.516ZM100.495 312.372C100.495 312.732 100.633 313.068 100.909 313.38C101.197 313.68 101.623 313.83 102.187 313.83C102.571 313.83 102.913 313.746 103.213 313.578C103.525 313.398 103.783 313.17 103.987 312.894C104.203 312.606 104.365 312.294 104.473 311.958C104.593 311.61 104.653 311.268 104.653 310.932V310.536H104.185C103.861 310.536 103.489 310.554 103.069 310.59C102.649 310.614 102.247 310.686 101.863 310.806C101.479 310.926 101.155 311.112 100.891 311.364C100.627 311.604 100.495 311.94 100.495 312.372ZM116.508 302.778C116.616 302.454 116.838 302.292 117.174 302.292H118.038C118.374 302.292 118.596 302.454 118.704 302.778L122.88 314.316C122.952 314.52 122.94 314.688 122.844 314.82C122.76 314.94 122.61 315 122.394 315H121.782C121.446 315 121.224 314.838 121.116 314.514L119.982 311.346H115.194L114.078 314.514C113.982 314.838 113.766 315 113.43 315H112.818C112.59 315 112.434 314.94 112.35 314.82C112.266 314.688 112.26 314.52 112.332 314.316L116.508 302.778ZM119.514 309.87L118.11 305.838C118.05 305.67 117.99 305.49 117.93 305.298C117.882 305.094 117.834 304.896 117.786 304.704C117.738 304.488 117.684 304.266 117.624 304.038H117.588C117.516 304.266 117.456 304.488 117.408 304.704C117.348 304.896 117.294 305.094 117.246 305.298C117.198 305.49 117.144 305.67 117.084 305.838L115.662 309.87H119.514ZM124.808 302.886C124.808 302.49 125.006 302.292 125.402 302.292H129.452C130.028 302.292 130.562 302.388 131.054 302.58C131.546 302.76 131.966 303.024 132.314 303.372C132.662 303.72 132.932 304.14 133.124 304.632C133.328 305.124 133.43 305.67 133.43 306.27C133.43 306.87 133.328 307.422 133.124 307.926C132.932 308.418 132.662 308.844 132.314 309.204C131.966 309.552 131.546 309.822 131.054 310.014C130.562 310.206 130.028 310.302 129.452 310.302H126.572V314.406C126.572 314.802 126.374 315 125.978 315H125.402C125.006 315 124.808 314.802 124.808 314.406V302.886ZM129.164 308.754C129.932 308.754 130.532 308.532 130.964 308.088C131.408 307.644 131.63 307.038 131.63 306.27C131.63 305.502 131.408 304.908 130.964 304.488C130.532 304.056 129.938 303.84 129.182 303.84H126.572V308.754H129.164ZM135.53 302.886C135.53 302.49 135.728 302.292 136.124 302.292H140.174C140.75 302.292 141.284 302.388 141.776 302.58C142.268 302.76 142.688 303.024 143.036 303.372C143.384 303.72 143.654 304.14 143.846 304.632C144.05 305.124 144.152 305.67 144.152 306.27C144.152 306.87 144.05 307.422 143.846 307.926C143.654 308.418 143.384 308.844 143.036 309.204C142.688 309.552 142.268 309.822 141.776 310.014C141.284 310.206 140.75 310.302 140.174 310.302H137.294V314.406C137.294 314.802 137.096 315 136.7 315H136.124C135.728 315 135.53 314.802 135.53 314.406V302.886ZM139.886 308.754C140.654 308.754 141.254 308.532 141.686 308.088C142.13 307.644 142.352 307.038 142.352 306.27C142.352 305.502 142.13 304.908 141.686 304.488C141.254 304.056 140.66 303.84 139.904 303.84H137.294V308.754H139.886ZM149.817 310.446C149.817 309.726 149.931 309.072 150.159 308.484C150.399 307.896 150.717 307.398 151.113 306.99C151.521 306.57 152.001 306.246 152.553 306.018C153.117 305.79 153.723 305.676 154.371 305.676C154.995 305.676 155.553 305.784 156.045 306C156.537 306.216 156.945 306.516 157.269 306.9C157.605 307.284 157.857 307.74 158.025 308.268C158.205 308.796 158.295 309.378 158.295 310.014C158.295 310.182 158.235 310.326 158.115 310.446C158.007 310.566 157.863 310.626 157.683 310.626H151.599C151.623 311.118 151.725 311.556 151.905 311.94C152.085 312.324 152.319 312.648 152.607 312.912C152.895 313.176 153.219 313.374 153.579 313.506C153.951 313.638 154.341 313.704 154.749 313.704C155.253 313.704 155.691 313.626 156.063 313.47C156.435 313.302 156.723 313.14 156.927 312.984C157.287 312.792 157.557 312.858 157.737 313.182L157.899 313.452C157.995 313.608 158.025 313.758 157.989 313.902C157.965 314.034 157.875 314.148 157.719 314.244C157.587 314.34 157.419 314.448 157.215 314.568C157.011 314.676 156.777 314.778 156.513 314.874C156.261 314.97 155.973 315.048 155.649 315.108C155.337 315.18 155.001 315.216 154.641 315.216C153.921 315.216 153.267 315.096 152.679 314.856C152.091 314.604 151.581 314.268 151.149 313.848C150.729 313.416 150.399 312.912 150.159 312.336C149.931 311.748 149.817 311.118 149.817 310.446ZM156.549 309.474C156.525 308.67 156.297 308.064 155.865 307.656C155.445 307.248 154.935 307.044 154.335 307.044C153.663 307.044 153.081 307.26 152.589 307.692C152.109 308.112 151.803 308.706 151.671 309.474H156.549ZM160.201 302.886C160.201 302.49 160.399 302.292 160.795 302.292H161.353C161.749 302.292 161.947 302.49 161.947 302.886V312.3C161.947 312.552 161.971 312.756 162.019 312.912C162.067 313.068 162.133 313.188 162.217 313.272C162.301 313.356 162.391 313.416 162.487 313.452C162.583 313.476 162.679 313.494 162.775 313.506C162.907 313.53 163.015 313.584 163.099 313.668C163.195 313.74 163.243 313.86 163.243 314.028V314.46C163.243 314.652 163.195 314.802 163.099 314.91C163.015 315.018 162.859 315.072 162.631 315.072C162.391 315.072 162.127 315.048 161.839 315C161.551 314.94 161.287 314.826 161.047 314.658C160.807 314.478 160.603 314.22 160.435 313.884C160.279 313.548 160.201 313.092 160.201 312.516V302.886ZM168.854 310.446C168.854 309.726 168.956 309.072 169.16 308.484C169.364 307.896 169.646 307.398 170.006 306.99C170.378 306.57 170.816 306.246 171.32 306.018C171.824 305.79 172.376 305.676 172.976 305.676C173.504 305.676 173.942 305.76 174.29 305.928C174.65 306.084 174.944 306.264 175.172 306.468C175.436 306.696 175.646 306.954 175.802 307.242H175.838C175.826 307.182 175.814 307.122 175.802 307.062C175.79 307.002 175.784 306.942 175.784 306.882C175.784 306.81 175.784 306.726 175.784 306.63V302.886C175.784 302.49 175.982 302.292 176.378 302.292H176.936C177.332 302.292 177.53 302.49 177.53 302.886V314.406C177.53 314.802 177.332 315 176.936 315H176.468C176.072 315 175.874 314.814 175.874 314.442V313.92C175.874 313.764 175.88 313.656 175.892 313.596C175.892 313.548 175.898 313.506 175.91 313.47H175.874C175.706 313.806 175.484 314.1 175.208 314.352C174.968 314.568 174.656 314.766 174.272 314.946C173.9 315.126 173.432 315.216 172.868 315.216C172.256 315.216 171.698 315.102 171.194 314.874C170.702 314.634 170.282 314.304 169.934 313.884C169.586 313.464 169.316 312.966 169.124 312.39C168.944 311.802 168.854 311.154 168.854 310.446ZM170.636 310.446C170.636 310.938 170.696 311.388 170.816 311.796C170.948 312.192 171.128 312.534 171.356 312.822C171.584 313.098 171.854 313.314 172.166 313.47C172.478 313.626 172.826 313.704 173.21 313.704C173.546 313.704 173.87 313.644 174.182 313.524C174.506 313.392 174.788 313.194 175.028 312.93C175.268 312.666 175.46 312.33 175.604 311.922C175.76 311.502 175.838 311.004 175.838 310.428C175.838 310.02 175.784 309.624 175.676 309.24C175.568 308.856 175.406 308.514 175.19 308.214C174.974 307.914 174.704 307.674 174.38 307.494C174.056 307.302 173.678 307.206 173.246 307.206C172.886 307.206 172.55 307.278 172.238 307.422C171.926 307.566 171.65 307.776 171.41 308.052C171.17 308.328 170.978 308.67 170.834 309.078C170.702 309.474 170.636 309.93 170.636 310.446ZM179.489 310.446C179.489 309.726 179.603 309.072 179.831 308.484C180.071 307.896 180.389 307.398 180.785 306.99C181.193 306.57 181.673 306.246 182.225 306.018C182.789 305.79 183.395 305.676 184.043 305.676C184.667 305.676 185.225 305.784 185.717 306C186.209 306.216 186.617 306.516 186.941 306.9C187.277 307.284 187.529 307.74 187.697 308.268C187.877 308.796 187.967 309.378 187.967 310.014C187.967 310.182 187.907 310.326 187.787 310.446C187.679 310.566 187.535 310.626 187.355 310.626H181.271C181.295 311.118 181.397 311.556 181.577 311.94C181.757 312.324 181.991 312.648 182.279 312.912C182.567 313.176 182.891 313.374 183.251 313.506C183.623 313.638 184.013 313.704 184.421 313.704C184.925 313.704 185.363 313.626 185.735 313.47C186.107 313.302 186.395 313.14 186.599 312.984C186.959 312.792 187.229 312.858 187.409 313.182L187.571 313.452C187.667 313.608 187.697 313.758 187.661 313.902C187.637 314.034 187.547 314.148 187.391 314.244C187.259 314.34 187.091 314.448 186.887 314.568C186.683 314.676 186.449 314.778 186.185 314.874C185.933 314.97 185.645 315.048 185.321 315.108C185.009 315.18 184.673 315.216 184.313 315.216C183.593 315.216 182.939 315.096 182.351 314.856C181.763 314.604 181.253 314.268 180.821 313.848C180.401 313.416 180.071 312.912 179.831 312.336C179.603 311.748 179.489 311.118 179.489 310.446ZM186.221 309.474C186.197 308.67 185.969 308.064 185.537 307.656C185.117 307.248 184.607 307.044 184.007 307.044C183.335 307.044 182.753 307.26 182.261 307.692C181.781 308.112 181.475 308.706 181.343 309.474H186.221ZM190.253 307.404H189.623C189.239 307.404 189.047 307.206 189.047 306.81V306.576C189.047 306.18 189.245 305.982 189.641 305.982H190.289V303.984C190.289 303.588 190.487 303.39 190.883 303.39H191.405C191.801 303.39 191.999 303.588 191.999 303.984V305.982H193.583C193.979 305.982 194.177 306.18 194.177 306.576V306.81C194.177 307.206 193.985 307.404 193.601 307.404H191.999V311.454C191.999 311.886 192.059 312.234 192.179 312.498C192.299 312.762 192.443 312.966 192.611 313.11C192.791 313.254 192.977 313.356 193.169 313.416C193.373 313.464 193.559 313.494 193.727 313.506C193.967 313.53 194.129 313.584 194.213 313.668C194.309 313.752 194.357 313.896 194.357 314.1V314.478C194.357 314.874 194.117 315.072 193.637 315.072C193.181 315.072 192.749 315.006 192.341 314.874C191.933 314.742 191.573 314.538 191.261 314.262C190.961 313.986 190.715 313.638 190.523 313.218C190.343 312.798 190.253 312.3 190.253 311.724V307.404ZM195.235 312.516C195.235 312.048 195.325 311.646 195.505 311.31C195.685 310.962 195.925 310.674 196.225 310.446C196.525 310.218 196.861 310.032 197.233 309.888C197.617 309.744 198.013 309.636 198.421 309.564C198.829 309.492 199.225 309.444 199.609 309.42C200.005 309.396 200.359 309.384 200.671 309.384H201.139V309.15C201.139 308.778 201.085 308.466 200.977 308.214C200.881 307.95 200.743 307.74 200.563 307.584C200.383 307.428 200.173 307.32 199.933 307.26C199.693 307.188 199.435 307.152 199.159 307.152C198.703 307.152 198.295 307.218 197.935 307.35C197.587 307.482 197.311 307.608 197.107 307.728C196.759 307.896 196.489 307.824 196.297 307.512L196.153 307.26C195.961 306.9 196.027 306.63 196.351 306.45C196.627 306.294 197.011 306.126 197.503 305.946C198.007 305.766 198.607 305.676 199.303 305.676C200.443 305.676 201.325 305.982 201.949 306.594C202.573 307.194 202.885 308.076 202.885 309.24V314.406C202.885 314.802 202.687 315 202.291 315H201.841C201.445 315 201.247 314.802 201.247 314.406V313.866C201.247 313.782 201.247 313.704 201.247 313.632C201.247 313.56 201.253 313.5 201.265 313.452C201.277 313.404 201.289 313.356 201.301 313.308H201.265C201.085 313.668 200.857 313.986 200.581 314.262C200.341 314.502 200.035 314.724 199.663 314.928C199.291 315.12 198.835 315.216 198.295 315.216C197.899 315.216 197.515 315.156 197.143 315.036C196.771 314.916 196.441 314.742 196.153 314.514C195.877 314.274 195.655 313.992 195.487 313.668C195.319 313.332 195.235 312.948 195.235 312.516ZM196.999 312.372C196.999 312.732 197.137 313.068 197.413 313.38C197.701 313.68 198.127 313.83 198.691 313.83C199.075 313.83 199.417 313.746 199.717 313.578C200.029 313.398 200.287 313.17 200.491 312.894C200.707 312.606 200.869 312.294 200.977 311.958C201.097 311.61 201.157 311.268 201.157 310.932V310.536H200.689C200.365 310.536 199.993 310.554 199.573 310.59C199.153 310.614 198.751 310.686 198.367 310.806C197.983 310.926 197.659 311.112 197.395 311.364C197.131 311.604 196.999 311.94 196.999 312.372ZM205.272 302.886C205.272 302.49 205.47 302.292 205.866 302.292H206.424C206.82 302.292 207.018 302.49 207.018 302.886V312.3C207.018 312.552 207.042 312.756 207.09 312.912C207.138 313.068 207.204 313.188 207.288 313.272C207.372 313.356 207.462 313.416 207.558 313.452C207.654 313.476 207.75 313.494 207.846 313.506C207.978 313.53 208.086 313.584 208.17 313.668C208.266 313.74 208.314 313.86 208.314 314.028V314.46C208.314 314.652 208.266 314.802 208.17 314.91C208.086 315.018 207.93 315.072 207.702 315.072C207.462 315.072 207.198 315.048 206.91 315C206.622 314.94 206.358 314.826 206.118 314.658C205.878 314.478 205.674 314.22 205.506 313.884C205.35 313.548 205.272 313.092 205.272 312.516V302.886ZM209.983 302.886C209.983 302.49 210.181 302.292 210.577 302.292H211.135C211.531 302.292 211.729 302.49 211.729 302.886V312.3C211.729 312.552 211.753 312.756 211.801 312.912C211.849 313.068 211.915 313.188 211.999 313.272C212.083 313.356 212.173 313.416 212.269 313.452C212.365 313.476 212.461 313.494 212.557 313.506C212.689 313.53 212.797 313.584 212.881 313.668C212.977 313.74 213.025 313.86 213.025 314.028V314.46C213.025 314.652 212.977 314.802 212.881 314.91C212.797 315.018 212.641 315.072 212.413 315.072C212.173 315.072 211.909 315.048 211.621 315C211.333 314.94 211.069 314.826 210.829 314.658C210.589 314.478 210.385 314.22 210.217 313.884C210.061 313.548 209.983 313.092 209.983 312.516V302.886ZM214.118 310.446C214.118 309.726 214.232 309.072 214.46 308.484C214.7 307.896 215.018 307.398 215.414 306.99C215.822 306.57 216.302 306.246 216.854 306.018C217.418 305.79 218.024 305.676 218.672 305.676C219.296 305.676 219.854 305.784 220.346 306C220.838 306.216 221.246 306.516 221.57 306.9C221.906 307.284 222.158 307.74 222.326 308.268C222.506 308.796 222.596 309.378 222.596 310.014C222.596 310.182 222.536 310.326 222.416 310.446C222.308 310.566 222.164 310.626 221.984 310.626H215.9C215.924 311.118 216.026 311.556 216.206 311.94C216.386 312.324 216.62 312.648 216.908 312.912C217.196 313.176 217.52 313.374 217.88 313.506C218.252 313.638 218.642 313.704 219.05 313.704C219.554 313.704 219.992 313.626 220.364 313.47C220.736 313.302 221.024 313.14 221.228 312.984C221.588 312.792 221.858 312.858 222.038 313.182L222.2 313.452C222.296 313.608 222.326 313.758 222.29 313.902C222.266 314.034 222.176 314.148 222.02 314.244C221.888 314.34 221.72 314.448 221.516 314.568C221.312 314.676 221.078 314.778 220.814 314.874C220.562 314.97 220.274 315.048 219.95 315.108C219.638 315.18 219.302 315.216 218.942 315.216C218.222 315.216 217.568 315.096 216.98 314.856C216.392 314.604 215.882 314.268 215.45 313.848C215.03 313.416 214.7 312.912 214.46 312.336C214.232 311.748 214.118 311.118 214.118 310.446ZM220.85 309.474C220.826 308.67 220.598 308.064 220.166 307.656C219.746 307.248 219.236 307.044 218.636 307.044C217.964 307.044 217.382 307.26 216.89 307.692C216.41 308.112 216.104 308.706 215.972 309.474H220.85ZM228.444 310.446C228.444 309.726 228.546 309.072 228.75 308.484C228.954 307.896 229.236 307.398 229.596 306.99C229.968 306.57 230.406 306.246 230.91 306.018C231.414 305.79 231.966 305.676 232.566 305.676C233.094 305.676 233.532 305.76 233.88 305.928C234.24 306.084 234.534 306.264 234.762 306.468C235.026 306.696 235.236 306.954 235.392 307.242H235.428C235.416 307.182 235.404 307.122 235.392 307.062C235.38 307.002 235.374 306.942 235.374 306.882C235.374 306.81 235.374 306.726 235.374 306.63V302.886C235.374 302.49 235.572 302.292 235.968 302.292H236.526C236.922 302.292 237.12 302.49 237.12 302.886V314.406C237.12 314.802 236.922 315 236.526 315H236.058C235.662 315 235.464 314.814 235.464 314.442V313.92C235.464 313.764 235.47 313.656 235.482 313.596C235.482 313.548 235.488 313.506 235.5 313.47H235.464C235.296 313.806 235.074 314.1 234.798 314.352C234.558 314.568 234.246 314.766 233.862 314.946C233.49 315.126 233.022 315.216 232.458 315.216C231.846 315.216 231.288 315.102 230.784 314.874C230.292 314.634 229.872 314.304 229.524 313.884C229.176 313.464 228.906 312.966 228.714 312.39C228.534 311.802 228.444 311.154 228.444 310.446ZM230.226 310.446C230.226 310.938 230.286 311.388 230.406 311.796C230.538 312.192 230.718 312.534 230.946 312.822C231.174 313.098 231.444 313.314 231.756 313.47C232.068 313.626 232.416 313.704 232.8 313.704C233.136 313.704 233.46 313.644 233.772 313.524C234.096 313.392 234.378 313.194 234.618 312.93C234.858 312.666 235.05 312.33 235.194 311.922C235.35 311.502 235.428 311.004 235.428 310.428C235.428 310.02 235.374 309.624 235.266 309.24C235.158 308.856 234.996 308.514 234.78 308.214C234.564 307.914 234.294 307.674 233.97 307.494C233.646 307.302 233.268 307.206 232.836 307.206C232.476 307.206 232.14 307.278 231.828 307.422C231.516 307.566 231.24 307.776 231 308.052C230.76 308.328 230.568 308.67 230.424 309.078C230.292 309.474 230.226 309.93 230.226 310.446ZM239.079 310.446C239.079 309.726 239.193 309.072 239.421 308.484C239.661 307.896 239.979 307.398 240.375 306.99C240.783 306.57 241.263 306.246 241.815 306.018C242.379 305.79 242.985 305.676 243.633 305.676C244.257 305.676 244.815 305.784 245.307 306C245.799 306.216 246.207 306.516 246.531 306.9C246.867 307.284 247.119 307.74 247.287 308.268C247.467 308.796 247.557 309.378 247.557 310.014C247.557 310.182 247.497 310.326 247.377 310.446C247.269 310.566 247.125 310.626 246.945 310.626H240.861C240.885 311.118 240.987 311.556 241.167 311.94C241.347 312.324 241.581 312.648 241.869 312.912C242.157 313.176 242.481 313.374 242.841 313.506C243.213 313.638 243.603 313.704 244.011 313.704C244.515 313.704 244.953 313.626 245.325 313.47C245.697 313.302 245.985 313.14 246.189 312.984C246.549 312.792 246.819 312.858 246.999 313.182L247.161 313.452C247.257 313.608 247.287 313.758 247.251 313.902C247.227 314.034 247.137 314.148 246.981 314.244C246.849 314.34 246.681 314.448 246.477 314.568C246.273 314.676 246.039 314.778 245.775 314.874C245.523 314.97 245.235 315.048 244.911 315.108C244.599 315.18 244.263 315.216 243.903 315.216C243.183 315.216 242.529 315.096 241.941 314.856C241.353 314.604 240.843 314.268 240.411 313.848C239.991 313.416 239.661 312.912 239.421 312.336C239.193 311.748 239.079 311.118 239.079 310.446ZM245.811 309.474C245.787 308.67 245.559 308.064 245.127 307.656C244.707 307.248 244.197 307.044 243.597 307.044C242.925 307.044 242.343 307.26 241.851 307.692C241.371 308.112 241.065 308.706 240.933 309.474H245.811ZM249.463 302.886C249.463 302.49 249.661 302.292 250.057 302.292H250.615C251.011 302.292 251.209 302.49 251.209 302.886V312.3C251.209 312.552 251.233 312.756 251.281 312.912C251.329 313.068 251.395 313.188 251.479 313.272C251.563 313.356 251.653 313.416 251.749 313.452C251.845 313.476 251.941 313.494 252.037 313.506C252.169 313.53 252.277 313.584 252.361 313.668C252.457 313.74 252.505 313.86 252.505 314.028V314.46C252.505 314.652 252.457 314.802 252.361 314.91C252.277 315.018 252.121 315.072 251.893 315.072C251.653 315.072 251.389 315.048 251.101 315C250.813 314.94 250.549 314.826 250.309 314.658C250.069 314.478 249.865 314.22 249.697 313.884C249.541 313.548 249.463 313.092 249.463 312.516V302.886ZM258.692 306.486C258.692 306.09 258.89 305.892 259.286 305.892H259.7C260.096 305.892 260.294 306.06 260.294 306.396V306.936C260.294 307.008 260.288 307.074 260.276 307.134C260.276 307.182 260.276 307.23 260.276 307.278C260.264 307.326 260.258 307.374 260.258 307.422H260.294C260.45 307.098 260.672 306.81 260.96 306.558C261.2 306.342 261.512 306.144 261.896 305.964C262.292 305.772 262.778 305.676 263.354 305.676C263.966 305.676 264.518 305.796 265.01 306.036C265.502 306.264 265.922 306.588 266.27 307.008C266.618 307.428 266.882 307.932 267.062 308.52C267.254 309.096 267.35 309.738 267.35 310.446C267.35 311.166 267.248 311.82 267.044 312.408C266.84 312.996 266.552 313.5 266.18 313.92C265.808 314.328 265.37 314.646 264.866 314.874C264.362 315.102 263.816 315.216 263.228 315.216C262.7 315.216 262.256 315.132 261.896 314.964C261.548 314.796 261.26 314.61 261.032 314.406C260.768 314.178 260.558 313.908 260.402 313.596H260.366C260.366 313.656 260.372 313.728 260.384 313.812C260.396 313.884 260.402 313.968 260.402 314.064C260.414 314.16 260.42 314.268 260.42 314.388V318.006C260.42 318.402 260.228 318.6 259.844 318.6H259.286C258.89 318.6 258.692 318.402 258.692 318.006V306.486ZM260.384 310.482C260.384 310.89 260.438 311.286 260.546 311.67C260.666 312.054 260.834 312.396 261.05 312.696C261.266 312.996 261.53 313.242 261.842 313.434C262.166 313.614 262.538 313.704 262.958 313.704C263.318 313.704 263.654 313.632 263.966 313.488C264.29 313.344 264.572 313.134 264.812 312.858C265.052 312.582 265.238 312.246 265.37 311.85C265.514 311.442 265.586 310.98 265.586 310.464C265.586 309.972 265.52 309.528 265.388 309.132C265.268 308.724 265.094 308.382 264.866 308.106C264.638 307.818 264.362 307.596 264.038 307.44C263.726 307.284 263.384 307.206 263.012 307.206C262.664 307.206 262.334 307.272 262.022 307.404C261.71 307.524 261.428 307.716 261.176 307.98C260.936 308.244 260.744 308.586 260.6 309.006C260.456 309.414 260.384 309.906 260.384 310.482ZM268.588 312.516C268.588 312.048 268.678 311.646 268.858 311.31C269.038 310.962 269.278 310.674 269.578 310.446C269.878 310.218 270.214 310.032 270.586 309.888C270.97 309.744 271.366 309.636 271.774 309.564C272.182 309.492 272.578 309.444 272.962 309.42C273.358 309.396 273.712 309.384 274.024 309.384H274.492V309.15C274.492 308.778 274.438 308.466 274.33 308.214C274.234 307.95 274.096 307.74 273.916 307.584C273.736 307.428 273.526 307.32 273.286 307.26C273.046 307.188 272.788 307.152 272.512 307.152C272.056 307.152 271.648 307.218 271.288 307.35C270.94 307.482 270.664 307.608 270.46 307.728C270.112 307.896 269.842 307.824 269.65 307.512L269.506 307.26C269.314 306.9 269.38 306.63 269.704 306.45C269.98 306.294 270.364 306.126 270.856 305.946C271.36 305.766 271.96 305.676 272.656 305.676C273.796 305.676 274.678 305.982 275.302 306.594C275.926 307.194 276.238 308.076 276.238 309.24V314.406C276.238 314.802 276.04 315 275.644 315H275.194C274.798 315 274.6 314.802 274.6 314.406V313.866C274.6 313.782 274.6 313.704 274.6 313.632C274.6 313.56 274.606 313.5 274.618 313.452C274.63 313.404 274.642 313.356 274.654 313.308H274.618C274.438 313.668 274.21 313.986 273.934 314.262C273.694 314.502 273.388 314.724 273.016 314.928C272.644 315.12 272.188 315.216 271.648 315.216C271.252 315.216 270.868 315.156 270.496 315.036C270.124 314.916 269.794 314.742 269.506 314.514C269.23 314.274 269.008 313.992 268.84 313.668C268.672 313.332 268.588 312.948 268.588 312.516ZM270.352 312.372C270.352 312.732 270.49 313.068 270.766 313.38C271.054 313.68 271.48 313.83 272.044 313.83C272.428 313.83 272.77 313.746 273.07 313.578C273.382 313.398 273.64 313.17 273.844 312.894C274.06 312.606 274.222 312.294 274.33 311.958C274.45 311.61 274.51 311.268 274.51 310.932V310.536H274.042C273.718 310.536 273.346 310.554 272.926 310.59C272.506 310.614 272.104 310.686 271.72 310.806C271.336 310.926 271.012 311.112 270.748 311.364C270.484 311.604 270.352 311.94 270.352 312.372ZM279.273 317.178C279.429 316.842 279.681 316.74 280.029 316.872C280.245 316.956 280.515 317.04 280.839 317.124C281.163 317.22 281.553 317.268 282.009 317.268C282.393 317.268 282.759 317.22 283.107 317.124C283.455 317.04 283.755 316.896 284.007 316.692C284.271 316.488 284.481 316.224 284.637 315.9C284.793 315.576 284.871 315.18 284.871 314.712V313.92C284.871 313.848 284.871 313.782 284.871 313.722C284.871 313.65 284.877 313.584 284.889 313.524C284.901 313.464 284.913 313.404 284.925 313.344H284.889C284.625 313.824 284.271 314.202 283.827 314.478C283.395 314.754 282.849 314.892 282.189 314.892C281.553 314.892 280.977 314.772 280.461 314.532C279.957 314.292 279.525 313.968 279.165 313.56C278.817 313.14 278.547 312.648 278.355 312.084C278.175 311.508 278.085 310.884 278.085 310.212C278.085 309.564 278.175 308.964 278.355 308.412C278.535 307.86 278.793 307.38 279.129 306.972C279.477 306.564 279.903 306.246 280.407 306.018C280.911 305.79 281.493 305.676 282.153 305.676C282.717 305.676 283.179 305.76 283.539 305.928C283.911 306.084 284.205 306.258 284.421 306.45C284.673 306.666 284.865 306.918 284.997 307.206H285.033C285.021 307.194 285.015 307.17 285.015 307.134C285.003 307.098 284.997 307.026 284.997 306.918V306.396C284.997 306.06 285.195 305.892 285.591 305.892H286.023C286.419 305.892 286.617 306.09 286.617 306.486V314.622C286.617 315.378 286.485 316.014 286.221 316.53C285.957 317.058 285.609 317.49 285.177 317.826C284.757 318.162 284.277 318.402 283.737 318.546C283.197 318.702 282.651 318.78 282.099 318.78C281.595 318.78 281.115 318.732 280.659 318.636C280.203 318.552 279.801 318.432 279.453 318.276C279.093 318.12 278.991 317.856 279.147 317.484L279.273 317.178ZM282.495 313.38C282.807 313.38 283.107 313.332 283.395 313.236C283.695 313.128 283.953 312.954 284.169 312.714C284.397 312.462 284.577 312.138 284.709 311.742C284.841 311.346 284.907 310.854 284.907 310.266C284.907 309.666 284.835 309.168 284.691 308.772C284.559 308.376 284.379 308.064 284.151 307.836C283.923 307.596 283.653 307.428 283.341 307.332C283.041 307.236 282.723 307.188 282.387 307.188C281.559 307.188 280.929 307.458 280.497 307.998C280.077 308.526 279.867 309.24 279.867 310.14C279.867 311.124 280.095 311.91 280.551 312.498C281.019 313.086 281.667 313.38 282.495 313.38ZM288.561 310.428C288.561 309.744 288.687 309.114 288.939 308.538C289.203 307.95 289.551 307.446 289.983 307.026C290.427 306.594 290.943 306.264 291.531 306.036C292.131 305.796 292.773 305.676 293.457 305.676C294.141 305.676 294.777 305.796 295.365 306.036C295.965 306.264 296.487 306.594 296.931 307.026C297.375 307.446 297.723 307.95 297.975 308.538C298.239 309.114 298.371 309.744 298.371 310.428C298.371 311.124 298.239 311.766 297.975 312.354C297.723 312.93 297.375 313.434 296.931 313.866C296.487 314.286 295.965 314.616 295.365 314.856C294.777 315.096 294.141 315.216 293.457 315.216C292.773 315.216 292.131 315.096 291.531 314.856C290.943 314.616 290.427 314.286 289.983 313.866C289.551 313.434 289.203 312.93 288.939 312.354C288.687 311.766 288.561 311.124 288.561 310.428ZM290.325 310.428C290.325 310.908 290.409 311.352 290.577 311.76C290.745 312.156 290.967 312.498 291.243 312.786C291.531 313.074 291.861 313.302 292.233 313.47C292.617 313.626 293.025 313.704 293.457 313.704C293.889 313.704 294.291 313.626 294.663 313.47C295.047 313.302 295.383 313.074 295.671 312.786C295.959 312.498 296.181 312.156 296.337 311.76C296.505 311.352 296.589 310.908 296.589 310.428C296.589 309.96 296.505 309.528 296.337 309.132C296.181 308.736 295.959 308.394 295.671 308.106C295.383 307.818 295.047 307.596 294.663 307.44C294.291 307.272 293.889 307.188 293.457 307.188C293.025 307.188 292.617 307.272 292.233 307.44C291.861 307.596 291.531 307.818 291.243 308.106C290.967 308.394 290.745 308.736 290.577 309.132C290.409 309.528 290.325 309.96 290.325 310.428Z" fill="#484744"/>
<path d="M74.4082 117.377C74.4192 117.338 74.4262 117.298 74.4382 117.259C74.3489 117.426 74.2897 117.607 74.2632 117.795C74.2932 117.716 74.3282 117.638 74.3562 117.558L74.4082 117.377Z" fill="#663B73"/>
<path d="M75.3112 117.9V118C75.3242 117.965 75.3392 117.93 75.3522 117.894H75.3152" fill="#663B73"/>
<path d="M75.4192 117.69C75.4197 117.684 75.4197 117.678 75.4192 117.672V117.681V117.69Z" fill="#663B73"/>
<path d="M75.3112 117.9C75.3416 117.871 75.3669 117.837 75.3862 117.8C75.3972 117.762 75.4052 117.723 75.4162 117.685V117.677C75.3637 117.744 75.3268 117.821 75.3082 117.904" fill="#663B73"/>
<path d="M75.3111 118.957V118.003C75.1921 118.33 75.0581 118.648 74.9111 118.957H75.3111Z" fill="#663B73"/>
<path d="M75.3522 117.895H76.3652H75.4202V117.795L76.0582 117.158L75.4202 117.79V117.69C75.4134 117.724 75.4037 117.758 75.3912 117.79C75.3792 117.824 75.3642 117.857 75.3522 117.89" fill="#663B73"/>
<path d="M70.551 155.53C72.7258 155.53 74.8115 156.394 76.3493 157.932C77.8871 159.469 78.751 161.555 78.751 163.73C78.7531 168.111 80.4944 172.312 83.5923 175.409C86.6902 178.507 90.8911 180.248 95.272 180.25H106.512C110.819 180.245 115.084 181.089 119.065 182.733C123.046 184.377 126.663 186.789 129.712 189.831V189.831L137.595 197.731C139.129 199.282 140.956 200.513 142.97 201.353C144.984 202.192 147.145 202.623 149.327 202.62C151.514 202.674 153.687 202.268 155.706 201.427C157.725 200.587 159.545 199.331 161.048 197.742C161.808 196.979 162.712 196.373 163.706 195.959C164.701 195.545 165.768 195.331 166.845 195.329C167.922 195.327 168.989 195.538 169.985 195.948C170.981 196.359 171.887 196.961 172.65 197.722C173.413 198.482 174.019 199.386 174.433 200.38C174.847 201.375 175.061 202.441 175.063 203.519C175.065 204.596 174.854 205.663 174.444 206.659C174.033 207.655 173.43 208.561 172.67 209.324C166.505 215.5 158.144 218.98 149.417 219.003C140.691 219.025 132.312 215.588 126.115 209.444V209.444L118.134 201.46C115.04 198.383 110.853 196.657 106.49 196.66H95.272C86.5438 196.65 78.1759 193.179 72.0042 187.007C65.8324 180.835 62.3608 172.467 62.351 163.739C62.3498 162.661 62.561 161.594 62.9726 160.598C63.3842 159.602 63.988 158.697 64.7495 157.935C65.5111 157.172 66.4155 156.568 67.4109 156.155C68.4064 155.742 69.4734 155.53 70.551 155.53V155.53ZM203.388 22.6409C212.118 22.6512 220.487 26.1245 226.659 32.2986C232.831 38.4726 236.302 46.843 236.309 55.5729V55.5729V66.8159C236.308 71.1822 238.038 75.3707 241.12 78.4639V78.4639L248.97 86.3169C255.157 92.4766 258.645 100.841 258.668 109.572C258.69 118.302 255.245 126.684 249.09 132.876V132.876L241.109 140.86C238.051 143.963 236.328 148.14 236.309 152.497V163.73C236.3 172.459 232.829 180.829 226.657 187.002C220.486 193.176 212.117 196.65 203.388 196.662C201.212 196.662 199.126 195.798 197.588 194.259C196.049 192.721 195.185 190.634 195.185 188.459C195.185 186.283 196.049 184.197 197.588 182.659C199.126 181.12 201.212 180.256 203.388 180.256C207.769 180.251 211.969 178.509 215.067 175.41C218.164 172.312 219.905 168.111 219.908 163.73V163.73V152.487C219.898 148.177 220.74 143.908 222.386 139.925C224.031 135.942 226.448 132.324 229.497 129.278V129.278L237.369 121.392C238.919 119.858 240.15 118.032 240.991 116.019C241.831 114.007 242.265 111.848 242.267 109.667C242.269 107.485 241.84 105.326 241.003 103.312C240.166 101.298 238.938 99.4692 237.391 97.9319V97.9319L229.508 90.0459C226.46 86.9965 224.044 83.3762 222.397 79.3921C220.749 75.408 219.904 71.1382 219.908 66.8269V66.8269V55.5729C219.907 51.1911 218.166 46.9891 215.068 43.8902C211.97 40.7914 207.769 39.0493 203.387 39.0469C201.211 39.0469 199.125 38.1827 197.587 36.6443C196.048 35.106 195.184 33.0195 195.184 30.8439C195.184 28.6684 196.048 26.5819 197.587 25.0435C199.125 23.5052 201.211 22.6409 203.387 22.6409H203.388ZM126.006 9.97592C131.961 4.01663 139.975 0.568757 148.396 0.342893C156.818 0.117028 165.005 3.13038 171.271 8.76192C171.735 9.09379 172.173 9.45945 172.583 9.85592C174.047 11.389 174.869 13.4233 174.883 15.5429C174.885 17.1401 174.42 18.7032 173.546 20.04C172.673 21.3769 171.427 22.4295 169.963 23.0684C168.499 23.7073 166.881 23.9049 165.306 23.6367C163.732 23.3685 162.27 22.6464 161.1 21.5589C160.991 21.4499 160.991 21.4499 160.881 21.3509C157.734 18.3512 153.542 16.6952 149.195 16.734C144.847 16.7729 140.686 18.5035 137.593 21.5589L129.723 29.4299C126.69 32.4906 123.079 34.9178 119.1 36.5702C115.121 38.2225 110.853 39.0672 106.544 39.0549H95.283C90.9081 39.0702 86.7169 40.8153 83.6238 43.9092C80.5307 47.0032 78.787 51.195 78.773 55.5699V66.8379C78.7879 71.1478 77.9449 75.4176 76.2931 79.3985C74.6413 83.3793 72.2138 86.9916 69.152 90.0249V90.0249L61.279 97.9099C58.181 101.036 56.4428 105.259 56.4428 109.66C56.4428 114.061 58.181 118.284 61.279 121.41C62.8016 122.956 63.6551 125.04 63.6551 127.21C63.6551 129.38 62.8016 131.463 61.279 133.01C59.7283 134.526 57.6526 135.386 55.484 135.41C54.4074 135.413 53.3408 135.202 52.3461 134.79C51.3514 134.378 50.4483 133.773 49.689 133.01C43.5052 126.839 40.021 118.468 40.0006 109.732C39.9801 100.997 43.4251 92.6093 49.58 86.4099V86.4099L57.562 78.4299C59.0862 76.9083 60.2956 75.1013 61.1211 73.1121C61.9466 71.123 62.372 68.9906 62.373 66.8369V55.5729C62.3804 46.8459 65.8497 38.4783 72.0196 32.3063C78.1895 26.1344 86.556 22.6622 95.283 22.6519H106.544C108.698 22.6534 110.83 22.2291 112.82 21.4032C114.809 20.5774 116.615 19.3664 118.134 17.8399V17.8399L126.006 9.97592Z" fill="#EA572E"/>
<path d="M128.606 134.06C126.89 132.74 126.725 131.222 128.111 129.506L129.695 127.229C130.883 125.579 132.434 125.381 134.348 126.635C135.008 127.163 135.833 127.757 136.823 128.417C137.879 129.011 139.034 129.605 140.288 130.199C141.608 130.727 143.027 131.189 144.545 131.585C146.129 131.915 147.779 132.08 149.495 132.08C151.145 132.08 152.696 131.849 154.148 131.387C155.6 130.925 156.887 130.265 158.009 129.407C159.131 128.549 160.022 127.493 160.682 126.239C161.342 124.919 161.672 123.434 161.672 121.784C161.672 119.408 160.814 117.428 159.098 115.844C157.448 114.194 155.336 112.742 152.762 111.488C150.254 110.168 147.515 108.881 144.545 107.627C141.575 106.373 138.803 104.921 136.229 103.271C133.721 101.621 131.609 99.641 129.893 97.331C128.243 94.955 127.418 91.985 127.418 88.421C127.418 86.045 127.847 83.768 128.705 81.59C129.629 79.412 130.883 77.498 132.467 75.848C134.051 74.132 135.965 72.713 138.209 71.591C140.453 70.403 142.961 69.611 145.733 69.215V63.176C145.733 60.998 146.789 59.909 148.901 59.909H149.693C151.739 59.909 152.762 60.866 152.762 62.78V69.116C156.326 69.314 159.329 69.974 161.771 71.096C164.213 72.218 166.094 73.241 167.414 74.165C168.272 74.693 168.734 75.353 168.8 76.145C168.932 76.871 168.767 77.696 168.305 78.62L167.018 81.095C165.962 82.943 164.444 83.24 162.464 81.986C161.21 81.194 159.494 80.336 157.316 79.412C155.204 78.488 152.729 78.026 149.891 78.026C148.043 78.026 146.327 78.29 144.743 78.818C143.225 79.346 141.905 80.105 140.783 81.095C139.661 82.019 138.77 83.108 138.11 84.362C137.516 85.55 137.219 86.837 137.219 88.223C137.219 90.533 138.044 92.447 139.694 93.965C141.41 95.483 143.522 96.869 146.03 98.123C148.604 99.311 151.376 100.499 154.346 101.687C157.316 102.875 160.055 104.327 162.563 106.043C165.137 107.759 167.249 109.838 168.899 112.28C170.615 114.722 171.473 117.791 171.473 121.487C171.473 123.995 171.044 126.371 170.186 128.615C169.328 130.793 168.107 132.74 166.523 134.456C164.939 136.172 162.992 137.624 160.682 138.812C158.372 139.934 155.732 140.66 152.762 140.99V146.831C152.762 149.009 151.739 150.098 149.693 150.098H148.901C146.789 150.098 145.733 149.141 145.733 147.227V140.99C143.621 140.792 141.641 140.429 139.793 139.901C138.011 139.373 136.394 138.779 134.942 138.119C133.556 137.393 132.302 136.667 131.18 135.941C130.124 135.215 129.266 134.588 128.606 134.06Z" fill="#5A5956"/>
</svg>
