<svg width="271" height="271" viewBox="0 0 271 271" fill="none" xmlns="http://www.w3.org/2000/svg">
<path d="M37.7297 192.619C40.4155 192.621 42.9907 193.688 44.8895 195.588C46.7883 197.488 47.8551 200.063 47.8557 202.749C47.8586 208.158 50.0088 213.346 53.8339 217.171C57.659 220.996 62.8462 223.146 68.2557 223.149H82.1387C87.4575 223.143 92.7254 224.185 97.6415 226.215C102.558 228.245 107.026 231.224 110.791 234.981L120.526 244.733C122.42 246.649 124.677 248.169 127.164 249.206C129.651 250.242 132.319 250.774 135.014 250.771C137.714 250.838 140.398 250.336 142.892 249.299C145.386 248.261 147.633 246.71 149.489 244.747C150.421 243.777 151.538 243.002 152.773 242.468C154.009 241.934 155.338 241.652 156.684 241.637C158.029 241.623 159.365 241.877 160.611 242.384C161.858 242.891 162.991 243.641 163.944 244.591C164.897 245.541 165.652 246.671 166.164 247.916C166.676 249.161 166.934 250.495 166.925 251.841C166.915 253.186 166.638 254.517 166.108 255.754C165.579 256.991 164.808 258.111 163.842 259.047C156.228 266.674 145.902 270.973 135.125 271.001C124.349 271.029 114 266.784 106.348 259.196L96.4907 249.336C92.6702 245.535 87.4996 243.403 82.1107 243.406H68.2587C57.4789 243.395 47.1437 239.108 39.5211 231.486C31.8985 223.864 27.6111 213.529 27.5997 202.749C27.6002 200.062 28.6676 197.486 30.5673 195.587C32.4669 193.687 35.0432 192.62 37.7297 192.619ZM201.779 28.503C212.56 28.5146 222.896 32.8035 230.519 40.4283C238.141 48.0531 242.426 58.3906 242.435 69.172V83.057C242.434 88.4491 244.57 93.6216 248.376 97.442L258.071 107.142C265.712 114.749 270.02 125.079 270.048 135.861C270.076 146.643 265.822 156.996 258.22 164.642L248.363 174.502C244.586 178.334 242.458 183.492 242.435 188.873V202.745C242.423 213.525 238.136 223.861 230.514 231.485C222.893 239.109 212.559 243.399 201.779 243.414C199.092 243.414 196.515 242.347 194.616 240.447C192.716 238.547 191.649 235.971 191.649 233.284C191.649 230.597 192.716 228.021 194.616 226.121C196.515 224.221 199.092 223.154 201.779 223.154C207.189 223.148 212.375 220.995 216.2 217.169C220.025 213.343 222.175 208.155 222.179 202.745V188.857C222.166 183.535 223.206 178.263 225.238 173.344C227.271 168.425 230.255 163.956 234.021 160.195L243.743 150.456C245.657 148.561 247.177 146.306 248.216 143.821C249.254 141.335 249.79 138.669 249.792 135.976C249.795 133.282 249.264 130.615 248.23 128.127C247.197 125.64 245.681 123.382 243.77 121.484L234.035 111.745C230.271 107.979 227.287 103.508 225.253 98.5876C223.218 93.6673 222.174 88.3942 222.18 83.07V69.17C222.178 63.7591 220.029 58.5702 216.204 54.7433C212.379 50.9164 207.191 48.7647 201.78 48.761C199.093 48.761 196.516 47.6937 194.617 45.794C192.717 43.8942 191.65 41.3176 191.65 38.631C191.65 35.9443 192.717 33.3677 194.617 31.468C196.516 29.5682 199.093 28.501 201.78 28.501L201.779 28.503ZM106.214 12.862C113.567 5.50225 123.464 1.24403 133.865 0.964952C144.265 0.685875 154.376 4.40721 162.114 11.362C162.686 11.7718 163.228 12.2234 163.734 12.713C165.54 14.6071 166.554 17.1197 166.57 19.737C166.57 21.7077 165.996 23.6358 164.917 25.2849C163.838 26.9341 162.301 28.2325 160.495 29.0212C158.689 29.8098 156.692 30.0544 154.749 29.7248C152.806 29.3953 151.002 28.506 149.557 27.166C149.422 27.031 149.422 27.031 149.287 26.909C145.4 23.2045 140.224 21.1594 134.855 21.2073C129.486 21.2553 124.346 23.3926 120.527 27.166L110.805 36.891C107.06 40.6709 102.6 43.6684 97.686 45.7089C92.7717 47.7495 87.5007 48.7924 82.1797 48.777H68.2717C62.8681 48.796 57.6915 50.9517 53.8716 54.7736C50.0517 58.5956 47.8988 63.7734 47.8827 69.177V83.084C47.9009 88.4066 46.8596 93.6797 44.8194 98.5959C42.7793 103.512 39.7811 107.973 35.9997 111.719L26.2777 121.458C22.4504 125.319 20.303 130.535 20.303 135.971C20.303 141.407 22.4504 146.623 26.2777 150.484C28.1598 152.394 29.2149 154.968 29.2149 157.649C29.2149 160.331 28.1598 162.905 26.2777 164.815C24.362 166.685 21.7988 167.745 19.1217 167.773C17.7926 167.777 16.4758 167.518 15.2475 167.01C14.0192 166.503 12.9038 165.757 11.9657 164.815C4.32793 157.194 0.0244436 146.856 -0.000864309 136.066C-0.0261723 125.277 4.22877 114.918 11.8307 107.262L21.6877 97.402C23.5702 95.5228 25.0639 93.291 26.0835 90.8343C27.103 88.3775 27.6285 85.7439 27.6297 83.084V69.172C27.6387 58.3945 31.923 48.0609 39.5425 40.4387C47.162 32.8166 57.4942 28.5287 68.2717 28.516H82.1797C84.8394 28.5178 87.4732 27.9936 89.9296 26.9737C92.386 25.9538 94.6165 24.4582 96.4927 22.573L106.214 12.862Z" fill="#EBE9DA"/>
<path d="M161.628 94.1248C161.628 94.9629 161.961 95.7667 162.553 96.3593C163.146 96.9519 163.95 97.2848 164.788 97.2848H171.865C172.693 97.2701 173.482 96.9307 174.063 96.3398C174.643 95.7489 174.969 94.9537 174.969 94.1253C174.969 93.297 174.643 92.5017 174.063 91.9108C173.482 91.3199 172.693 90.9806 171.865 90.9658H164.788C163.95 90.9658 163.146 91.2986 162.554 91.891C161.961 92.4834 161.628 93.2869 161.628 94.1248Z" fill="#EBE9DA" stroke="#19A77D"/>
<path d="M113.071 94.1248C113.071 94.9629 113.404 95.7667 113.997 96.3593C114.589 96.9519 115.393 97.2848 116.231 97.2848H123.309C124.137 97.2701 124.927 96.9307 125.507 96.3398C126.088 95.7489 126.413 94.9537 126.413 94.1253C126.413 93.297 126.088 92.5017 125.507 91.9108C124.927 91.3199 124.137 90.9806 123.309 90.9658H116.231C115.393 90.9658 114.59 91.2986 113.997 91.891C113.405 92.4834 113.072 93.2869 113.071 94.1248Z" fill="#EBE9DA" stroke="#19A77D"/>
<path d="M147.206 73.3849V66.3079C147.191 65.4797 146.852 64.6904 146.261 64.1099C145.67 63.5294 144.875 63.2041 144.047 63.2041C143.218 63.2041 142.423 63.5294 141.832 64.1099C141.241 64.6904 140.902 65.4797 140.887 66.3079V73.3849C140.88 73.8045 140.956 74.2215 141.111 74.6113C141.267 75.0012 141.498 75.3562 141.792 75.6556C142.087 75.955 142.437 76.1928 142.824 76.3552C143.212 76.5175 143.627 76.6011 144.047 76.6011C144.466 76.6011 144.882 76.5175 145.269 76.3552C145.656 76.1928 146.007 75.955 146.301 75.6556C146.595 75.3562 146.827 75.0012 146.982 74.6113C147.137 74.2215 147.214 73.8045 147.206 73.3849Z" fill="#EBE9DA" stroke="#19A77D"/>
<path d="M161.526 72.2219L156.471 77.2769C155.894 77.8734 155.574 78.6731 155.58 79.5035C155.587 80.3338 155.92 81.1283 156.507 81.7154C157.094 82.3026 157.888 82.6354 158.719 82.6421C159.549 82.6487 160.349 82.3286 160.945 81.7509L166 76.6959C166.578 76.0994 166.898 75.2998 166.891 74.4694C166.885 73.639 166.552 72.8446 165.965 72.2574C165.378 71.6702 164.583 71.3374 163.753 71.3308C162.922 71.3242 162.123 71.6442 161.526 72.2219Z" fill="#EBE9DA" stroke="#19A77D"/>
<path d="M129.387 82.6229C130.013 82.6245 130.626 82.4399 131.147 82.0926C131.668 81.7453 132.074 81.2509 132.314 80.6723C132.554 80.0936 132.616 79.4567 132.493 78.8426C132.37 78.2284 132.068 77.6646 131.624 77.2229L126.569 72.1679C126.275 71.8741 125.926 71.6411 125.542 71.4822C125.158 71.3233 124.746 71.2416 124.331 71.2417C123.915 71.2418 123.503 71.3238 123.12 71.483C122.736 71.6422 122.387 71.8754 122.093 72.1694C121.799 72.4633 121.566 72.8123 121.408 73.1963C121.249 73.5803 121.167 73.9918 121.167 74.4074C121.167 74.823 121.249 75.2345 121.408 75.6184C121.567 76.0023 121.801 76.3511 122.095 76.6449L127.151 81.7009C127.444 81.9947 127.793 82.2275 128.177 82.3857C128.561 82.544 128.972 82.6246 129.388 82.6229H129.387Z" fill="#EBE9DA" stroke="#19A77D"/>
<path d="M91.4088 119.058C89.7331 119.058 88.1262 119.724 86.9412 120.909C85.7563 122.094 85.0904 123.701 85.0898 125.377V180.677C85.0898 182.353 85.7556 183.96 86.9406 185.145C88.1257 186.33 89.7329 186.996 91.4088 186.996H109.709C111.311 187 112.855 186.395 114.028 185.304C115.201 184.213 115.916 182.717 116.028 181.119L119.946 183.469C123.676 185.707 127.943 186.891 132.293 186.894H158.993C162.222 186.928 165.423 186.291 168.393 185.023C176.924 181.231 178.263 174.571 177.632 170.148C179.822 168.309 181.392 165.839 182.127 163.075C182.862 160.311 182.726 157.388 181.739 154.704C183.854 152.146 184.976 148.91 184.899 145.592C184.76 142.992 183.859 140.491 182.308 138.4C183.277 136.168 183.52 133.687 183 131.31C182.481 128.933 181.226 126.779 179.414 125.155C179.152 124.91 178.877 124.678 178.592 124.46C177.154 123.391 175.496 122.657 173.739 122.312H173.6C165.221 120.53 159.584 120.412 151.294 120.412C150.978 118.503 150.994 114.498 153.494 106.952C155.806 99.963 155.604 94.188 152.887 89.776C151.767 88.0115 150.272 86.5148 148.51 85.3916C146.747 84.2684 144.759 83.5461 142.687 83.276H142.296C140.845 83.2503 139.425 83.6976 138.25 84.5504C137.076 85.4032 136.211 86.6151 135.787 88.003C135.742 88.1519 135.709 88.304 135.687 88.4579L134.739 95.282C134.453 97.3321 133.857 99.3266 132.97 101.197L123.757 120.546C123.068 122.142 122.005 123.548 120.659 124.648C119.313 125.747 117.723 126.508 116.022 126.865V125.365C116.022 123.689 115.356 122.082 114.171 120.897C112.986 119.712 111.379 119.046 109.703 119.046L91.4088 119.058ZM91.4088 180.68V125.38H109.709V180.68H91.4088ZM116.685 133.238C119.485 132.747 122.119 131.565 124.348 129.799C126.577 128.034 128.33 125.741 129.45 123.127L138.587 103.827C139.749 101.373 140.528 98.7563 140.899 96.067L141.872 89.684C141.917 89.6399 141.974 89.6094 142.036 89.596C143.138 89.7703 144.192 90.1728 145.13 90.7778C146.068 91.3827 146.869 92.1767 147.483 93.109C149.151 95.809 149.151 99.921 147.483 104.977C145.031 112.357 144.273 118.184 145.209 122.304C145.497 123.574 146.21 124.708 147.231 125.517C148.251 126.326 149.518 126.762 150.82 126.753C159.174 126.753 164.33 126.829 172.305 128.51H172.432C173.274 128.662 174.073 128.999 174.77 129.496L175.17 129.837C178.405 132.757 176.358 136.497 175.928 137.193C175.524 137.825 175.358 138.58 175.459 139.324C175.561 140.067 175.924 140.75 176.483 141.25C177.713 142.495 178.469 144.132 178.619 145.876C178.582 147.04 178.312 148.185 177.823 149.243C177.335 150.3 176.638 151.248 175.776 152.031C175.302 152.531 175.005 153.172 174.93 153.856C174.855 154.541 175.005 155.231 175.359 155.822C175.498 156.062 178.746 161.712 172.313 166.438C171.774 166.843 171.376 167.408 171.176 168.053C170.976 168.697 170.985 169.388 171.2 170.027C171.541 171.038 172.881 176.22 165.942 179.266C163.742 180.185 161.374 180.633 158.991 180.58H132.243C129.041 180.575 125.901 179.701 123.157 178.053L116.029 173.781V133.338L116.685 133.238Z" fill="#EBE9DA" stroke="#19A77D"/>
<path d="M104.415 170.849C104.415 171.611 104.189 172.357 103.766 172.991C103.342 173.625 102.74 174.119 102.036 174.411C101.331 174.703 100.556 174.78 99.8083 174.631C99.0604 174.482 98.3734 174.115 97.8342 173.576C97.295 173.037 96.9278 172.35 96.7791 171.602C96.6304 170.854 96.7068 170.079 96.9987 169.374C97.2906 168.67 97.7849 168.068 98.419 167.644C99.0531 167.221 99.7986 166.995 100.561 166.995C101.583 166.995 102.564 167.401 103.286 168.124C104.009 168.846 104.415 169.827 104.415 170.849Z" fill="#EBE9DA"/>
<path d="M104.415 170.849C104.415 171.611 104.189 172.357 103.766 172.991C103.342 173.625 102.74 174.119 102.036 174.411C101.331 174.703 100.556 174.78 99.8083 174.631C99.0604 174.482 98.3734 174.115 97.8342 173.576C97.295 173.037 96.9278 172.35 96.7791 171.602C96.6304 170.854 96.7068 170.079 96.9987 169.374C97.2906 168.67 97.7849 168.068 98.419 167.644C99.0531 167.221 99.7986 166.995 100.561 166.995C101.583 166.995 102.564 167.401 103.286 168.124C104.009 168.846 104.415 169.827 104.415 170.849" stroke="#19A77D"/>
</svg>
