<svg width="64" height="64" viewBox="0 0 64 64" fill="none" xmlns="http://www.w3.org/2000/svg">
<path d="M64 32C64 14.3269 49.6731 0 32 0C14.3269 0 0 14.3269 0 32C0 49.6731 14.3269 64 32 64C49.6731 64 64 49.6731 64 32Z" fill="white"/>
<path d="M31.8279 5C26.5214 4.99862 21.3337 6.57099 16.921 9.51825C12.5082 12.4655 9.06867 16.6552 7.03733 21.5575C5.00599 26.4598 4.47414 31.8544 5.50904 37.059C6.54394 42.2636 9.0991 47.0443 12.8513 50.7966C16.6036 54.5488 21.3844 57.104 26.5889 58.1389C31.7935 59.1738 37.1881 58.6419 42.0904 56.6106C46.9927 54.5793 51.1824 51.1397 54.1297 46.7269C57.0769 42.3142 58.6493 37.1265 58.6479 31.82C58.6386 24.7097 55.81 17.8934 50.7823 12.8656C45.7546 7.83791 38.9382 5.00926 31.8279 5ZM31.8279 54.912C27.2613 54.9134 22.7968 53.5606 18.9989 51.0247C15.2011 48.4889 12.2405 44.8838 10.4915 40.6653C8.7425 36.4469 8.28366 31.8046 9.17299 27.3253C10.0623 22.8461 12.2599 18.7312 15.4878 15.5009C18.7157 12.2707 22.829 10.0701 27.3076 9.17743C31.7861 8.2848 36.4288 8.7402 40.6485 10.4861C44.8682 12.232 48.4755 15.1899 51.0142 18.9859C53.5529 22.7819 54.9089 27.2454 54.9109 31.812C54.9054 37.9339 52.4722 43.8036 48.1449 48.134C43.8177 52.4644 37.9498 54.902 31.8279 54.912Z" fill="#00A87C"/>
<path d="M38.9819 38.6609C37.0537 40.5013 34.4905 41.5282 31.8249 41.5282C29.1594 41.5282 26.5962 40.5013 24.6679 38.6609C24.3176 38.3106 23.8424 38.1138 23.3469 38.1138C22.8515 38.1138 22.3763 38.3106 22.0259 38.6609C21.6756 39.0113 21.4788 39.4865 21.4788 39.9819C21.4788 40.4774 21.6756 40.9526 22.0259 41.3029C23.3123 42.591 24.8399 43.6128 26.5215 44.31C28.203 45.0072 30.0056 45.3661 31.8259 45.3661C33.6463 45.3661 35.4488 45.0072 37.1304 44.31C38.812 43.6128 40.3396 42.591 41.6259 41.3029C41.9698 40.951 42.1611 40.4776 42.1581 39.9856C42.1552 39.4935 41.9583 39.0224 41.6102 38.6746C41.2622 38.3268 40.791 38.1303 40.2989 38.1277C39.8068 38.1252 39.3336 38.3168 38.9819 38.6609Z" fill="#00A87C"/>
<path d="M22 32C24.2091 32 26 30.2091 26 28C26 25.7909 24.2091 24 22 24C19.7909 24 18 25.7909 18 28C18 30.2091 19.7909 32 22 32Z" fill="#00A87C"/>
<path d="M41 32C43.2091 32 45 30.2091 45 28C45 25.7909 43.2091 24 41 24C38.7909 24 37 25.7909 37 28C37 30.2091 38.7909 32 41 32Z" fill="#00A87C"/>
</svg>
