<svg width="30" height="28" viewBox="0 0 30 28" fill="none" xmlns="http://www.w3.org/2000/svg">
<path d="M27.17 8.57896L25.27 3.28596C24.9256 2.32917 24.2153 1.54832 23.2953 1.11513C22.3753 0.681944 21.3209 0.631884 20.364 0.975963L3.53803 7.02797C2.67648 7.33805 1.95449 7.94646 1.50285 8.74298C1.05121 9.53949 0.899795 10.4714 1.07603 11.37C1.05608 11.5252 1.0454 11.6815 1.04404 11.838V23.229C1.04536 24.2455 1.44989 25.22 2.16886 25.9385C2.88783 26.6571 3.86252 27.0612 4.87903 27.062H25.171C26.1874 27.0609 27.1618 26.6568 27.8806 25.9382C28.5993 25.2196 29.0037 24.2453 29.005 23.229V11.839C29.004 11.1846 28.8352 10.5415 28.5148 9.97094C28.1944 9.40039 27.7332 8.92149 27.175 8.57996L27.17 8.57896ZM28.046 23.229C28.0452 23.9923 27.7417 24.7241 27.2019 25.2639C26.6622 25.8036 25.9304 26.1072 25.167 26.108H4.87404C4.11072 26.1072 3.37889 25.8036 2.83915 25.2639C2.2994 24.7241 1.99583 23.9923 1.99503 23.229V11.838C1.9958 11.6987 2.0065 11.5597 2.02704 11.422C2.12931 10.7387 2.47285 10.1147 2.99547 9.66292C3.51808 9.21112 4.18521 8.96139 4.87604 8.95897H9.53904C9.66555 8.95897 9.78687 8.90871 9.87633 8.81926C9.96578 8.7298 10.016 8.60847 10.016 8.48196C10.016 8.35546 9.96578 8.23413 9.87633 8.14468C9.78687 8.05522 9.66555 8.00497 9.53904 8.00497H4.87504C4.10779 8.00623 3.35879 8.23905 2.72603 8.67297C3.03776 8.33697 3.42564 8.08078 3.85703 7.92596L20.684 1.87397C21.4026 1.61567 22.1944 1.65335 22.8853 1.9787C23.5761 2.30406 24.1094 2.89046 24.368 3.60897L25.982 8.09797C25.7141 8.03794 25.4406 8.00677 25.166 8.00497H13.337C13.2105 8.00497 13.0892 8.05522 12.9997 8.14468C12.9103 8.23413 12.86 8.35546 12.86 8.48196C12.86 8.60847 12.9103 8.7298 12.9997 8.81926C13.0892 8.90871 13.2105 8.95897 13.337 8.95897H25.166C25.5441 8.95883 25.9186 9.03321 26.2679 9.17785C26.6173 9.32249 26.9347 9.53454 27.2021 9.80191C27.4695 10.0693 27.6815 10.3867 27.8261 10.7361C27.9708 11.0854 28.0452 11.4599 28.045 11.838L28.046 23.229Z" />
</svg>
