<svg width="271" height="272" viewBox="0 0 271 272" fill="none" xmlns="http://www.w3.org/2000/svg">
<path d="M132.999 156.244C129.171 156.244 127.257 154.33 127.257 150.502L126.387 72.898C126.387 69.07 128.243 67.156 131.955 67.156H137.871C141.699 67.156 143.613 69.07 143.613 72.898L142.743 150.502C142.511 154.33 140.539 156.244 136.827 156.244H132.999ZM126.387 178.69C126.387 174.862 128.301 172.948 132.129 172.948H138.045C141.873 172.948 143.787 174.862 143.787 178.69V184.258C143.787 188.086 141.873 190 138.045 190H132.129C128.301 190 126.387 188.086 126.387 184.258V178.69Z" fill="white"/>
<path d="M37.7297 192.62C40.4155 192.622 42.9907 193.69 44.8895 195.589C46.7883 197.489 47.8551 200.064 47.8557 202.75C47.8586 208.16 50.0088 213.347 53.8339 217.172C57.659 220.997 62.8462 223.147 68.2557 223.15H82.1387C87.4575 223.144 92.7254 224.186 97.6415 226.216C102.558 228.246 107.026 231.225 110.791 234.982L120.526 244.734C122.42 246.65 124.677 248.17 127.164 249.207C129.651 250.243 132.319 250.775 135.014 250.772C137.714 250.839 140.398 250.337 142.892 249.3C145.386 248.262 147.633 246.711 149.489 244.748C150.421 243.778 151.538 243.003 152.773 242.469C154.009 241.935 155.338 241.653 156.684 241.638C158.029 241.624 159.365 241.878 160.611 242.385C161.858 242.892 162.991 243.642 163.944 244.592C164.897 245.542 165.652 246.672 166.164 247.917C166.676 249.162 166.934 250.496 166.925 251.842C166.915 253.187 166.638 254.518 166.108 255.755C165.579 256.992 164.808 258.112 163.842 259.048C156.228 266.676 145.902 270.974 135.125 271.002C124.349 271.03 114 266.785 106.348 259.197L96.4907 249.337C92.6702 245.537 87.4996 243.404 82.1107 243.407H68.2587C57.4789 243.396 47.1437 239.109 39.5211 231.487C31.8985 223.865 27.6111 213.53 27.5997 202.75C27.6002 200.064 28.6676 197.487 30.5673 195.588C32.4669 193.688 35.0432 192.621 37.7297 192.62ZM201.779 28.5041C212.56 28.5157 222.896 32.8046 230.519 40.4294C238.141 48.0542 242.426 58.3917 242.435 69.1731V83.0581C242.434 88.4502 244.57 93.6227 248.376 97.4431L258.071 107.143C265.712 114.75 270.02 125.08 270.048 135.862C270.076 146.645 265.822 156.997 258.22 164.643L248.363 174.503C244.586 178.335 242.458 183.493 242.435 188.874V202.746C242.423 213.526 238.136 223.862 230.514 231.486C222.893 239.11 212.559 243.4 201.779 243.415C199.092 243.415 196.515 242.348 194.616 240.448C192.716 238.548 191.649 235.972 191.649 233.285C191.649 230.598 192.716 228.022 194.616 226.122C196.515 224.222 199.092 223.155 201.779 223.155C207.189 223.149 212.375 220.997 216.2 217.17C220.025 213.344 222.175 208.156 222.179 202.746V188.858C222.166 183.536 223.206 178.264 225.238 173.345C227.271 168.426 230.255 163.957 234.021 160.196L243.743 150.457C245.657 148.562 247.177 146.307 248.216 143.822C249.254 141.337 249.79 138.67 249.792 135.977C249.795 133.283 249.264 130.616 248.23 128.129C247.197 125.641 245.681 123.383 243.77 121.485L234.035 111.746C230.271 107.98 227.287 103.509 225.253 98.5887C223.218 93.6684 222.174 88.3953 222.18 83.0711V69.1711C222.178 63.7602 220.029 58.5713 216.204 54.7444C212.379 50.9175 207.191 48.7658 201.78 48.7621C199.093 48.7621 196.516 47.6948 194.617 45.7951C192.717 43.8953 191.65 41.3187 191.65 38.6321C191.65 35.9454 192.717 33.3688 194.617 31.4691C196.516 29.5693 199.093 28.5021 201.78 28.5021L201.779 28.5041ZM106.214 12.8631C113.567 5.50335 123.464 1.24513 133.865 0.96605C144.265 0.686974 154.376 4.40831 162.114 11.3631C162.686 11.7729 163.228 12.2245 163.734 12.7141C165.54 14.6082 166.554 17.1208 166.57 19.7381C166.57 21.7088 165.996 23.6369 164.917 25.286C163.838 26.9352 162.301 28.2336 160.495 29.0223C158.689 29.8109 156.692 30.0555 154.749 29.7259C152.806 29.3964 151.002 28.5071 149.557 27.1671C149.422 27.0321 149.422 27.0321 149.287 26.9101C145.4 23.2056 140.224 21.1605 134.855 21.2084C129.486 21.2564 124.346 23.3937 120.527 27.1671L110.805 36.8921C107.06 40.672 102.6 43.6695 97.686 45.71C92.7717 47.7506 87.5007 48.7935 82.1797 48.7781H68.2717C62.8681 48.7971 57.6915 50.9528 53.8716 54.7747C50.0517 58.5967 47.8988 63.7745 47.8827 69.1781V83.0851C47.9009 88.4077 46.8596 93.6808 44.8194 98.597C42.7793 103.513 39.7811 107.974 35.9997 111.72L26.2777 121.459C22.4504 125.32 20.303 130.536 20.303 135.972C20.303 141.408 22.4504 146.624 26.2777 150.485C28.1598 152.395 29.2149 154.969 29.2149 157.651C29.2149 160.332 28.1598 162.906 26.2777 164.816C24.362 166.686 21.7988 167.746 19.1217 167.774C17.7926 167.778 16.4758 167.519 15.2475 167.012C14.0192 166.504 12.9038 165.758 11.9657 164.816C4.32793 157.195 0.0244436 146.857 -0.000864309 136.067C-0.0261723 125.278 4.22877 114.919 11.8307 107.263L21.6877 97.4031C23.5702 95.5239 25.0639 93.2921 26.0835 90.8354C27.103 88.3786 27.6285 85.745 27.6297 83.0851V69.1731C27.6387 58.3956 31.923 48.062 39.5425 40.4398C47.162 32.8177 57.4942 28.5298 68.2717 28.5171H82.1797C84.8394 28.5189 87.4732 27.9947 89.9296 26.9748C92.386 25.9549 94.6165 24.4593 96.4927 22.5741L106.214 12.8631Z" fill="white"/>
</svg>
