<svg width="227" height="171" viewBox="0 0 227 171" fill="none" xmlns="http://www.w3.org/2000/svg">
<path d="M0 0H227V121C227 134.261 221.732 146.979 212.355 156.355C202.979 165.732 190.261 171 177 171H0V0Z" fill="#663B73"/>
<path d="M25.688 38.416C26.984 38.416 27.656 39.064 27.704 40.36L28.136 54.184C28.184 55.528 27.536 56.2 26.192 56.2H23.744C22.4 56.2 21.752 55.528 21.8 54.184L22.232 40.36C22.28 39.064 22.952 38.416 24.248 38.416H25.688ZM27.812 33.88C27.812 35.2 27.152 35.86 25.832 35.86H24.104C22.784 35.86 22.124 35.2 22.124 33.88V32.44C22.124 31.12 22.784 30.46 24.104 30.46H25.832C27.152 30.46 27.812 31.12 27.812 32.44V33.88ZM32.4332 25.24C32.4332 23.92 33.0932 23.26 34.4132 23.26H36.7532C38.0732 23.26 38.7332 23.92 38.7332 25.24V33.556H48.0932V25.24C48.0932 23.92 48.7532 23.26 50.0732 23.26H52.4132C53.7332 23.26 54.3932 23.92 54.3932 25.24V47.02C54.3932 48.34 53.7332 49 52.4132 49H50.0732C48.7532 49 48.0932 48.34 48.0932 47.02V38.92H38.7332V47.02C38.7332 48.34 38.0732 49 36.7532 49H34.4132C33.0932 49 32.4332 48.34 32.4332 47.02V25.24ZM57.1436 39.784C57.1436 38.32 57.4196 36.988 57.9716 35.788C58.5236 34.588 59.2676 33.568 60.2036 32.728C61.1636 31.864 62.2796 31.204 63.5516 30.748C64.8236 30.268 66.1796 30.028 67.6196 30.028C69.0836 30.028 70.4516 30.268 71.7236 30.748C73.0196 31.204 74.1356 31.864 75.0716 32.728C76.0316 33.568 76.7876 34.588 77.3396 35.788C77.8916 36.988 78.1676 38.32 78.1676 39.784C78.1676 41.224 77.8916 42.544 77.3396 43.744C76.7876 44.92 76.0316 45.94 75.0716 46.804C74.1356 47.644 73.0316 48.292 71.7596 48.748C70.4876 49.204 69.1196 49.432 67.6556 49.432C66.1916 49.432 64.8236 49.204 63.5516 48.748C62.2796 48.292 61.1636 47.644 60.2036 46.804C59.2676 45.94 58.5236 44.92 57.9716 43.744C57.4196 42.544 57.1436 41.224 57.1436 39.784ZM63.4436 39.784C63.4436 40.48 63.5516 41.104 63.7676 41.656C64.0076 42.208 64.3196 42.676 64.7036 43.06C65.0876 43.444 65.5316 43.744 66.0356 43.96C66.5396 44.152 67.0796 44.248 67.6556 44.248C68.2316 44.248 68.7716 44.152 69.2756 43.96C69.7796 43.744 70.2236 43.444 70.6076 43.06C70.9916 42.676 71.2916 42.208 71.5076 41.656C71.7476 41.104 71.8676 40.48 71.8676 39.784C71.8676 39.088 71.7476 38.464 71.5076 37.912C71.2916 37.336 70.9916 36.856 70.6076 36.472C70.2236 36.064 69.7796 35.752 69.2756 35.536C68.7716 35.32 68.2316 35.212 67.6556 35.212C67.0796 35.212 66.5396 35.32 66.0356 35.536C65.5316 35.752 65.0876 36.064 64.7036 36.472C64.3196 36.856 64.0076 37.336 63.7676 37.912C63.5516 38.464 63.4436 39.088 63.4436 39.784ZM80.721 25.24C80.721 23.92 81.381 23.26 82.701 23.26H84.969C86.289 23.26 86.949 23.92 86.949 25.24V41.872C86.949 42.568 87.045 43.036 87.237 43.276C87.453 43.516 87.705 43.66 87.993 43.708C88.425 43.756 88.773 43.912 89.037 44.176C89.301 44.44 89.433 44.848 89.433 45.4V47.164C89.433 47.788 89.277 48.28 88.965 48.64C88.653 49 88.137 49.18 87.417 49.18C86.625 49.18 85.821 49.108 85.005 48.964C84.213 48.82 83.493 48.508 82.845 48.028C82.221 47.524 81.705 46.816 81.297 45.904C80.913 44.968 80.721 43.72 80.721 42.16V25.24ZM90.5721 43.78C90.5721 42.532 90.8961 41.5 91.5441 40.684C92.2161 39.868 93.0681 39.22 94.1001 38.74C95.1321 38.26 96.2601 37.924 97.4841 37.732C98.7081 37.54 99.8961 37.444 101.048 37.444H101.588V37.12C101.588 36.352 101.324 35.824 100.796 35.536C100.268 35.224 99.6561 35.068 98.9601 35.068C98.3601 35.068 97.7721 35.152 97.1961 35.32C96.6201 35.488 96.0921 35.68 95.6121 35.896C94.3881 36.424 93.5001 36.136 92.9481 35.032L92.5161 34.132C92.2521 33.58 92.1801 33.076 92.3001 32.62C92.4201 32.14 92.7561 31.756 93.3081 31.468C94.0041 31.132 94.8801 30.808 95.9361 30.496C96.9921 30.184 98.1921 30.028 99.5361 30.028C102.104 30.028 104.12 30.7 105.584 32.044C107.072 33.364 107.816 35.212 107.816 37.588V47.02C107.816 48.34 107.156 49 105.836 49H104.108C102.788 49 102.128 48.328 102.128 46.984V46.84V46.588C102.128 46.54 102.14 46.504 102.164 46.48H102.092C101.732 47.032 101.288 47.524 100.76 47.956C100.304 48.34 99.7281 48.688 99.0321 49C98.3361 49.288 97.5321 49.432 96.6201 49.432C95.7321 49.432 94.9161 49.288 94.1721 49C93.4281 48.712 92.7921 48.316 92.2641 47.812C91.7361 47.308 91.3161 46.708 91.0041 46.012C90.7161 45.316 90.5721 44.572 90.5721 43.78ZM96.7281 43.204C96.7281 43.636 96.8721 44.008 97.1601 44.32C97.4721 44.632 97.9161 44.788 98.4921 44.788C98.9481 44.788 99.3681 44.692 99.7521 44.5C100.136 44.284 100.472 44.02 100.76 43.708C101.048 43.396 101.264 43.048 101.408 42.664C101.576 42.28 101.66 41.896 101.66 41.512V41.008H101.084C100.604 41.008 100.1 41.044 99.5721 41.116C99.0681 41.188 98.6001 41.308 98.1681 41.476C97.7601 41.644 97.4121 41.872 97.1241 42.16C96.8601 42.424 96.7281 42.772 96.7281 43.204ZM113.795 41.044C112.499 41.044 111.827 40.396 111.779 39.1L111.347 25.276C111.299 23.932 111.947 23.26 113.291 23.26H115.739C117.083 23.26 117.731 23.932 117.683 25.276L117.251 39.1C117.203 40.396 116.531 41.044 115.235 41.044H113.795ZM111.671 45.58C111.671 44.26 112.331 43.6 113.651 43.6H115.379C116.699 43.6 117.359 44.26 117.359 45.58V47.02C117.359 48.34 116.699 49 115.379 49H113.651C112.331 49 111.671 48.34 111.671 47.02V45.58Z" fill="#EBE9DA"/>
<path d="M21.62 89.886C21.62 89.49 21.818 89.292 22.214 89.292H26.264C26.84 89.292 27.374 89.388 27.866 89.58C28.358 89.76 28.778 90.024 29.126 90.372C29.474 90.72 29.744 91.14 29.936 91.632C30.14 92.124 30.242 92.67 30.242 93.27C30.242 93.87 30.14 94.422 29.936 94.926C29.744 95.418 29.474 95.844 29.126 96.204C28.778 96.552 28.358 96.822 27.866 97.014C27.374 97.206 26.84 97.302 26.264 97.302H23.384V101.406C23.384 101.802 23.186 102 22.79 102H22.214C21.818 102 21.62 101.802 21.62 101.406V89.886ZM25.976 95.754C26.744 95.754 27.344 95.532 27.776 95.088C28.22 94.644 28.442 94.038 28.442 93.27C28.442 92.502 28.22 91.908 27.776 91.488C27.344 91.056 26.75 90.84 25.994 90.84H23.384V95.754H25.976ZM31.8948 93.486C31.8948 93.09 32.0928 92.892 32.4888 92.892H32.9928C33.3888 92.892 33.5868 93.09 33.5868 93.486V94.53C33.5868 94.626 33.5808 94.716 33.5688 94.8C33.5688 94.884 33.5628 94.956 33.5508 95.016C33.5388 95.088 33.5328 95.154 33.5328 95.214H33.5688C33.6648 94.914 33.7968 94.62 33.9648 94.332C34.1448 94.044 34.3548 93.792 34.5948 93.576C34.8348 93.348 35.0988 93.168 35.3868 93.036C35.6868 92.892 36.0108 92.82 36.3588 92.82C36.7428 92.82 36.9348 93.018 36.9348 93.414V93.918C36.9348 94.314 36.7188 94.512 36.2868 94.512C35.8428 94.512 35.4528 94.626 35.1168 94.854C34.7928 95.07 34.5168 95.352 34.2888 95.7C34.0728 96.048 33.9108 96.45 33.8028 96.906C33.6948 97.35 33.6408 97.794 33.6408 98.238V101.406C33.6408 101.802 33.4428 102 33.0468 102H32.4888C32.0928 102 31.8948 101.802 31.8948 101.406V93.486ZM38.8868 91.074C38.4908 91.074 38.2928 90.876 38.2928 90.48V89.886C38.2928 89.49 38.4908 89.292 38.8868 89.292H39.4988C39.8948 89.292 40.0928 89.49 40.0928 89.886V90.48C40.0928 90.876 39.8948 91.074 39.4988 91.074H38.8868ZM38.3108 93.486C38.3108 93.09 38.5088 92.892 38.9048 92.892H39.4628C39.8588 92.892 40.0568 93.09 40.0568 93.486V101.406C40.0568 101.802 39.8588 102 39.4628 102H38.9048C38.5088 102 38.3108 101.802 38.3108 101.406V93.486ZM42.5823 93.486C42.5823 93.09 42.7803 92.892 43.1763 92.892H43.6803C44.0763 92.892 44.2743 93.09 44.2743 93.486V94.296C44.2743 94.416 44.2623 94.536 44.2383 94.656C44.2263 94.704 44.2203 94.758 44.2203 94.818H44.2563C44.3643 94.554 44.5203 94.296 44.7243 94.044C44.9403 93.78 45.1863 93.552 45.4623 93.36C45.7503 93.156 46.0563 92.994 46.3803 92.874C46.7163 92.742 47.0643 92.676 47.4243 92.676C48.9243 92.676 49.8363 93.366 50.1603 94.746H50.1963C50.3163 94.482 50.4843 94.224 50.7003 93.972C50.9163 93.72 51.1623 93.498 51.4383 93.306C51.7143 93.114 52.0203 92.964 52.3563 92.856C52.6923 92.736 53.0463 92.676 53.4183 92.676C54.4623 92.676 55.2243 92.97 55.7043 93.558C56.1843 94.134 56.4243 95.004 56.4243 96.168V101.406C56.4243 101.802 56.2263 102 55.8303 102H55.2723C54.8763 102 54.6783 101.802 54.6783 101.406V96.546C54.6783 96.222 54.6543 95.922 54.6063 95.646C54.5703 95.37 54.4923 95.13 54.3723 94.926C54.2643 94.722 54.1023 94.56 53.8863 94.44C53.6823 94.32 53.4123 94.26 53.0763 94.26C52.6563 94.26 52.2783 94.362 51.9423 94.566C51.6063 94.758 51.3183 95.022 51.0783 95.358C50.8503 95.682 50.6763 96.054 50.5563 96.474C50.4363 96.894 50.3763 97.32 50.3763 97.752V101.406C50.3763 101.802 50.1843 102 49.8003 102H49.2243C48.8403 102 48.6483 101.802 48.6483 101.406V96.546C48.6483 96.246 48.6303 95.958 48.5943 95.682C48.5583 95.406 48.4863 95.166 48.3783 94.962C48.2703 94.746 48.1083 94.578 47.8923 94.458C47.6883 94.326 47.4123 94.26 47.0643 94.26C46.6323 94.26 46.2423 94.362 45.8943 94.566C45.5583 94.77 45.2703 95.04 45.0303 95.376C44.8023 95.7 44.6283 96.072 44.5083 96.492C44.3883 96.912 44.3283 97.332 44.3283 97.752V101.406C44.3283 101.802 44.1303 102 43.7343 102H43.1763C42.7803 102 42.5823 101.802 42.5823 101.406V93.486ZM58.2485 97.446C58.2485 96.726 58.3625 96.072 58.5905 95.484C58.8305 94.896 59.1485 94.398 59.5445 93.99C59.9525 93.57 60.4325 93.246 60.9845 93.018C61.5485 92.79 62.1545 92.676 62.8025 92.676C63.4265 92.676 63.9845 92.784 64.4765 93C64.9685 93.216 65.3765 93.516 65.7005 93.9C66.0365 94.284 66.2885 94.74 66.4565 95.268C66.6365 95.796 66.7265 96.378 66.7265 97.014C66.7265 97.182 66.6665 97.326 66.5465 97.446C66.4385 97.566 66.2945 97.626 66.1145 97.626H60.0305C60.0545 98.118 60.1565 98.556 60.3365 98.94C60.5165 99.324 60.7505 99.648 61.0385 99.912C61.3265 100.176 61.6505 100.374 62.0105 100.506C62.3825 100.638 62.7725 100.704 63.1805 100.704C63.6845 100.704 64.1225 100.626 64.4945 100.47C64.8665 100.302 65.1545 100.14 65.3585 99.984C65.7185 99.792 65.9885 99.858 66.1685 100.182L66.3305 100.452C66.4265 100.608 66.4565 100.758 66.4205 100.902C66.3965 101.034 66.3065 101.148 66.1505 101.244C66.0185 101.34 65.8505 101.448 65.6465 101.568C65.4425 101.676 65.2085 101.778 64.9445 101.874C64.6925 101.97 64.4045 102.048 64.0805 102.108C63.7685 102.18 63.4325 102.216 63.0725 102.216C62.3525 102.216 61.6985 102.096 61.1105 101.856C60.5225 101.604 60.0125 101.268 59.5805 100.848C59.1605 100.416 58.8305 99.912 58.5905 99.336C58.3625 98.748 58.2485 98.118 58.2485 97.446ZM64.9805 96.474C64.9565 95.67 64.7285 95.064 64.2965 94.656C63.8765 94.248 63.3665 94.044 62.7665 94.044C62.0945 94.044 61.5125 94.26 61.0205 94.692C60.5405 95.112 60.2345 95.706 60.1025 96.474H64.9805ZM68.633 93.486C68.633 93.09 68.831 92.892 69.227 92.892H69.731C70.127 92.892 70.325 93.09 70.325 93.486V94.53C70.325 94.626 70.319 94.716 70.307 94.8C70.307 94.884 70.301 94.956 70.289 95.016C70.277 95.088 70.271 95.154 70.271 95.214H70.307C70.403 94.914 70.535 94.62 70.703 94.332C70.883 94.044 71.093 93.792 71.333 93.576C71.573 93.348 71.837 93.168 72.125 93.036C72.425 92.892 72.749 92.82 73.097 92.82C73.481 92.82 73.673 93.018 73.673 93.414V93.918C73.673 94.314 73.457 94.512 73.025 94.512C72.581 94.512 72.191 94.626 71.855 94.854C71.531 95.07 71.255 95.352 71.027 95.7C70.811 96.048 70.649 96.45 70.541 96.906C70.433 97.35 70.379 97.794 70.379 98.238V101.406C70.379 101.802 70.181 102 69.785 102H69.227C68.831 102 68.633 101.802 68.633 101.406V93.486ZM74.1211 97.428C74.1211 96.744 74.2471 96.114 74.4991 95.538C74.7631 94.95 75.1111 94.446 75.5431 94.026C75.9871 93.594 76.5031 93.264 77.0911 93.036C77.6911 92.796 78.3331 92.676 79.0171 92.676C79.7011 92.676 80.3371 92.796 80.9251 93.036C81.5251 93.264 82.0471 93.594 82.4911 94.026C82.9351 94.446 83.2831 94.95 83.5351 95.538C83.7991 96.114 83.9311 96.744 83.9311 97.428C83.9311 98.124 83.7991 98.766 83.5351 99.354C83.2831 99.93 82.9351 100.434 82.4911 100.866C82.0471 101.286 81.5251 101.616 80.9251 101.856C80.3371 102.096 79.7011 102.216 79.0171 102.216C78.3331 102.216 77.6911 102.096 77.0911 101.856C76.5031 101.616 75.9871 101.286 75.5431 100.866C75.1111 100.434 74.7631 99.93 74.4991 99.354C74.2471 98.766 74.1211 98.124 74.1211 97.428ZM75.8851 97.428C75.8851 97.908 75.9691 98.352 76.1371 98.76C76.3051 99.156 76.5271 99.498 76.8031 99.786C77.0911 100.074 77.4211 100.302 77.7931 100.47C78.1771 100.626 78.5851 100.704 79.0171 100.704C79.4491 100.704 79.8511 100.626 80.2231 100.47C80.6071 100.302 80.9431 100.074 81.2311 99.786C81.5191 99.498 81.7411 99.156 81.8971 98.76C82.0651 98.352 82.1491 97.908 82.1491 97.428C82.1491 96.96 82.0651 96.528 81.8971 96.132C81.7411 95.736 81.5191 95.394 81.2311 95.106C80.9431 94.818 80.6071 94.596 80.2231 94.44C79.8511 94.272 79.4491 94.188 79.0171 94.188C78.5851 94.188 78.1771 94.272 77.7931 94.44C77.4211 94.596 77.0911 94.818 76.8031 95.106C76.5271 95.394 76.3051 95.736 76.1371 96.132C75.9691 96.528 75.8851 96.96 75.8851 97.428ZM85.8274 100.614C85.9114 100.278 86.1334 100.11 86.4934 100.11H87.0514C87.2794 100.11 87.4354 100.176 87.5194 100.308C87.6154 100.428 87.6154 100.59 87.5194 100.794L86.2954 103.782C86.1754 104.082 85.9414 104.232 85.5934 104.232H85.3954C84.9394 104.232 84.7714 104.01 84.8914 103.566L85.8274 100.614ZM94.9049 94.404H94.2749C93.8909 94.404 93.6989 94.206 93.6989 93.81V93.576C93.6989 93.18 93.8969 92.982 94.2929 92.982H94.9409V90.984C94.9409 90.588 95.1389 90.39 95.5349 90.39H96.0569C96.4529 90.39 96.6509 90.588 96.6509 90.984V92.982H98.2349C98.6309 92.982 98.8289 93.18 98.8289 93.576V93.81C98.8289 94.206 98.6369 94.404 98.2529 94.404H96.6509V98.454C96.6509 98.886 96.7109 99.234 96.8309 99.498C96.9509 99.762 97.0949 99.966 97.2629 100.11C97.4429 100.254 97.6289 100.356 97.8209 100.416C98.0249 100.464 98.2109 100.494 98.3789 100.506C98.6189 100.53 98.7809 100.584 98.8649 100.668C98.9609 100.752 99.0089 100.896 99.0089 101.1V101.478C99.0089 101.874 98.7689 102.072 98.2889 102.072C97.8329 102.072 97.4009 102.006 96.9929 101.874C96.5849 101.742 96.2249 101.538 95.9129 101.262C95.6129 100.986 95.3669 100.638 95.1749 100.218C94.9949 99.798 94.9049 99.3 94.9049 98.724V94.404ZM99.9789 97.446C99.9789 96.726 100.093 96.072 100.321 95.484C100.561 94.896 100.879 94.398 101.275 93.99C101.683 93.57 102.163 93.246 102.715 93.018C103.279 92.79 103.885 92.676 104.533 92.676C105.157 92.676 105.715 92.784 106.207 93C106.699 93.216 107.107 93.516 107.431 93.9C107.767 94.284 108.019 94.74 108.187 95.268C108.367 95.796 108.457 96.378 108.457 97.014C108.457 97.182 108.397 97.326 108.277 97.446C108.169 97.566 108.025 97.626 107.845 97.626H101.761C101.785 98.118 101.887 98.556 102.067 98.94C102.247 99.324 102.481 99.648 102.769 99.912C103.057 100.176 103.381 100.374 103.741 100.506C104.113 100.638 104.503 100.704 104.911 100.704C105.415 100.704 105.853 100.626 106.225 100.47C106.597 100.302 106.885 100.14 107.089 99.984C107.449 99.792 107.719 99.858 107.899 100.182L108.061 100.452C108.157 100.608 108.187 100.758 108.151 100.902C108.127 101.034 108.037 101.148 107.881 101.244C107.749 101.34 107.581 101.448 107.377 101.568C107.173 101.676 106.939 101.778 106.675 101.874C106.423 101.97 106.135 102.048 105.811 102.108C105.499 102.18 105.163 102.216 104.803 102.216C104.083 102.216 103.429 102.096 102.841 101.856C102.253 101.604 101.743 101.268 101.311 100.848C100.891 100.416 100.561 99.912 100.321 99.336C100.093 98.748 99.9789 98.118 99.9789 97.446ZM106.711 96.474C106.687 95.67 106.459 95.064 106.027 94.656C105.607 94.248 105.097 94.044 104.497 94.044C103.825 94.044 103.243 94.26 102.751 94.692C102.271 95.112 101.965 95.706 101.833 96.474H106.711ZM21.26 114.486C21.26 114.09 21.458 113.892 21.854 113.892H22.358C22.754 113.892 22.952 114.09 22.952 114.486V115.296C22.952 115.416 22.94 115.536 22.916 115.656C22.904 115.704 22.898 115.758 22.898 115.818H22.934C23.042 115.554 23.198 115.296 23.402 115.044C23.618 114.78 23.864 114.552 24.14 114.36C24.428 114.156 24.734 113.994 25.058 113.874C25.394 113.742 25.742 113.676 26.102 113.676C27.602 113.676 28.514 114.366 28.838 115.746H28.874C28.994 115.482 29.162 115.224 29.378 114.972C29.594 114.72 29.84 114.498 30.116 114.306C30.392 114.114 30.698 113.964 31.034 113.856C31.37 113.736 31.724 113.676 32.096 113.676C33.14 113.676 33.902 113.97 34.382 114.558C34.862 115.134 35.102 116.004 35.102 117.168V122.406C35.102 122.802 34.904 123 34.508 123H33.95C33.554 123 33.356 122.802 33.356 122.406V117.546C33.356 117.222 33.332 116.922 33.284 116.646C33.248 116.37 33.17 116.13 33.05 115.926C32.942 115.722 32.78 115.56 32.564 115.44C32.36 115.32 32.09 115.26 31.754 115.26C31.334 115.26 30.956 115.362 30.62 115.566C30.284 115.758 29.996 116.022 29.756 116.358C29.528 116.682 29.354 117.054 29.234 117.474C29.114 117.894 29.054 118.32 29.054 118.752V122.406C29.054 122.802 28.862 123 28.478 123H27.902C27.518 123 27.326 122.802 27.326 122.406V117.546C27.326 117.246 27.308 116.958 27.272 116.682C27.236 116.406 27.164 116.166 27.056 115.962C26.948 115.746 26.786 115.578 26.57 115.458C26.366 115.326 26.09 115.26 25.742 115.26C25.31 115.26 24.92 115.362 24.572 115.566C24.236 115.77 23.948 116.04 23.708 116.376C23.48 116.7 23.306 117.072 23.186 117.492C23.066 117.912 23.006 118.332 23.006 118.752V122.406C23.006 122.802 22.808 123 22.412 123H21.854C21.458 123 21.26 122.802 21.26 122.406V114.486ZM36.9082 118.428C36.9082 117.744 37.0342 117.114 37.2862 116.538C37.5502 115.95 37.8982 115.446 38.3302 115.026C38.7742 114.594 39.2902 114.264 39.8782 114.036C40.4782 113.796 41.1202 113.676 41.8042 113.676C42.4882 113.676 43.1242 113.796 43.7122 114.036C44.3122 114.264 44.8342 114.594 45.2782 115.026C45.7222 115.446 46.0702 115.95 46.3222 116.538C46.5862 117.114 46.7182 117.744 46.7182 118.428C46.7182 119.124 46.5862 119.766 46.3222 120.354C46.0702 120.93 45.7222 121.434 45.2782 121.866C44.8342 122.286 44.3122 122.616 43.7122 122.856C43.1242 123.096 42.4882 123.216 41.8042 123.216C41.1202 123.216 40.4782 123.096 39.8782 122.856C39.2902 122.616 38.7742 122.286 38.3302 121.866C37.8982 121.434 37.5502 120.93 37.2862 120.354C37.0342 119.766 36.9082 119.124 36.9082 118.428ZM38.6722 118.428C38.6722 118.908 38.7562 119.352 38.9242 119.76C39.0922 120.156 39.3142 120.498 39.5902 120.786C39.8782 121.074 40.2082 121.302 40.5802 121.47C40.9642 121.626 41.3722 121.704 41.8042 121.704C42.2362 121.704 42.6382 121.626 43.0102 121.47C43.3942 121.302 43.7302 121.074 44.0182 120.786C44.3062 120.498 44.5282 120.156 44.6842 119.76C44.8522 119.352 44.9362 118.908 44.9362 118.428C44.9362 117.96 44.8522 117.528 44.6842 117.132C44.5282 116.736 44.3062 116.394 44.0182 116.106C43.7302 115.818 43.3942 115.596 43.0102 115.44C42.6382 115.272 42.2362 115.188 41.8042 115.188C41.3722 115.188 40.9642 115.272 40.5802 115.44C40.2082 115.596 39.8782 115.818 39.5902 116.106C39.3142 116.394 39.0922 116.736 38.9242 117.132C38.7562 117.528 38.6722 117.96 38.6722 118.428ZM48.2867 122.226C48.1307 122.13 48.0467 122.01 48.0347 121.866C48.0227 121.722 48.0647 121.572 48.1607 121.416L48.3407 121.164C48.4607 121.008 48.5807 120.924 48.7007 120.912C48.8327 120.9 48.9887 120.942 49.1687 121.038C49.3727 121.17 49.6607 121.326 50.0327 121.506C50.4047 121.686 50.8607 121.776 51.4007 121.776C51.8567 121.776 52.2287 121.674 52.5167 121.47C52.8047 121.254 52.9487 120.954 52.9487 120.57C52.9487 120.27 52.8287 120.03 52.5887 119.85C52.3607 119.67 52.0727 119.508 51.7247 119.364C51.3767 119.208 50.9987 119.064 50.5907 118.932C50.1947 118.788 49.8227 118.608 49.4747 118.392C49.1267 118.164 48.8327 117.888 48.5927 117.564C48.3647 117.24 48.2507 116.82 48.2507 116.304C48.2507 115.872 48.3347 115.494 48.5027 115.17C48.6827 114.834 48.9227 114.558 49.2227 114.342C49.5227 114.126 49.8707 113.964 50.2667 113.856C50.6747 113.736 51.1007 113.676 51.5447 113.676C52.1807 113.676 52.7027 113.76 53.1107 113.928C53.5307 114.096 53.8487 114.246 54.0647 114.378C54.2327 114.462 54.3287 114.576 54.3527 114.72C54.3887 114.852 54.3587 115.002 54.2627 115.17L54.1007 115.44C53.9327 115.74 53.6687 115.806 53.3087 115.638C53.1167 115.53 52.8647 115.416 52.5527 115.296C52.2527 115.176 51.8867 115.116 51.4547 115.116C51.0227 115.116 50.6567 115.212 50.3567 115.404C50.0687 115.596 49.9247 115.884 49.9247 116.268C49.9247 116.568 50.0387 116.814 50.2667 117.006C50.5067 117.186 50.8007 117.348 51.1487 117.492C51.4967 117.636 51.8687 117.78 52.2647 117.924C52.6727 118.068 53.0507 118.248 53.3987 118.464C53.7467 118.668 54.0347 118.938 54.2627 119.274C54.5027 119.598 54.6227 120.018 54.6227 120.534C54.6227 120.918 54.5447 121.278 54.3887 121.614C54.2327 121.938 54.0107 122.22 53.7227 122.46C53.4347 122.7 53.0867 122.886 52.6787 123.018C52.2827 123.15 51.8387 123.216 51.3467 123.216C50.9627 123.216 50.6087 123.18 50.2847 123.108C49.9727 123.048 49.6907 122.97 49.4387 122.874C49.1867 122.766 48.9587 122.658 48.7547 122.55C48.5627 122.43 48.4067 122.322 48.2867 122.226ZM56.9889 115.404H56.3589C55.9749 115.404 55.7829 115.206 55.7829 114.81V114.576C55.7829 114.18 55.9809 113.982 56.3769 113.982H57.0249V111.984C57.0249 111.588 57.2229 111.39 57.6189 111.39H58.1409C58.5369 111.39 58.7349 111.588 58.7349 111.984V113.982H60.3189C60.7149 113.982 60.9129 114.18 60.9129 114.576V114.81C60.9129 115.206 60.7209 115.404 60.3369 115.404H58.7349V119.454C58.7349 119.886 58.7949 120.234 58.9149 120.498C59.0349 120.762 59.1789 120.966 59.3469 121.11C59.5269 121.254 59.7129 121.356 59.9049 121.416C60.1089 121.464 60.2949 121.494 60.4629 121.506C60.7029 121.53 60.8649 121.584 60.9489 121.668C61.0449 121.752 61.0929 121.896 61.0929 122.1V122.478C61.0929 122.874 60.8529 123.072 60.3729 123.072C59.9169 123.072 59.4849 123.006 59.0769 122.874C58.6689 122.742 58.3089 122.538 57.9969 122.262C57.6969 121.986 57.4509 121.638 57.2589 121.218C57.0789 120.798 56.9889 120.3 56.9889 119.724V115.404ZM62.7092 114.486C62.7092 114.09 62.9072 113.892 63.3032 113.892H63.8072C64.2032 113.892 64.4012 114.09 64.4012 114.486V115.53C64.4012 115.626 64.3952 115.716 64.3832 115.8C64.3832 115.884 64.3772 115.956 64.3652 116.016C64.3532 116.088 64.3472 116.154 64.3472 116.214H64.3832C64.4792 115.914 64.6112 115.62 64.7792 115.332C64.9592 115.044 65.1692 114.792 65.4092 114.576C65.6492 114.348 65.9132 114.168 66.2012 114.036C66.5012 113.892 66.8252 113.82 67.1732 113.82C67.5572 113.82 67.7492 114.018 67.7492 114.414V114.918C67.7492 115.314 67.5332 115.512 67.1012 115.512C66.6572 115.512 66.2672 115.626 65.9312 115.854C65.6072 116.07 65.3312 116.352 65.1032 116.7C64.8872 117.048 64.7252 117.45 64.6172 117.906C64.5092 118.35 64.4552 118.794 64.4552 119.238V122.406C64.4552 122.802 64.2572 123 63.8612 123H63.3032C62.9072 123 62.7092 122.802 62.7092 122.406V114.486ZM68.2993 120.516C68.2993 120.048 68.3893 119.646 68.5693 119.31C68.7493 118.962 68.9893 118.674 69.2893 118.446C69.5893 118.218 69.9253 118.032 70.2973 117.888C70.6813 117.744 71.0773 117.636 71.4853 117.564C71.8933 117.492 72.2893 117.444 72.6733 117.42C73.0693 117.396 73.4233 117.384 73.7353 117.384H74.2033V117.15C74.2033 116.778 74.1493 116.466 74.0413 116.214C73.9453 115.95 73.8073 115.74 73.6273 115.584C73.4473 115.428 73.2373 115.32 72.9973 115.26C72.7573 115.188 72.4993 115.152 72.2233 115.152C71.7673 115.152 71.3593 115.218 70.9993 115.35C70.6513 115.482 70.3753 115.608 70.1713 115.728C69.8233 115.896 69.5533 115.824 69.3613 115.512L69.2173 115.26C69.0253 114.9 69.0913 114.63 69.4153 114.45C69.6913 114.294 70.0753 114.126 70.5673 113.946C71.0713 113.766 71.6713 113.676 72.3673 113.676C73.5073 113.676 74.3893 113.982 75.0133 114.594C75.6373 115.194 75.9493 116.076 75.9493 117.24V122.406C75.9493 122.802 75.7513 123 75.3553 123H74.9053C74.5093 123 74.3113 122.802 74.3113 122.406V121.866C74.3113 121.782 74.3113 121.704 74.3113 121.632C74.3113 121.56 74.3173 121.5 74.3293 121.452C74.3413 121.404 74.3533 121.356 74.3653 121.308H74.3293C74.1493 121.668 73.9213 121.986 73.6453 122.262C73.4053 122.502 73.0993 122.724 72.7273 122.928C72.3553 123.12 71.8993 123.216 71.3593 123.216C70.9633 123.216 70.5793 123.156 70.2073 123.036C69.8353 122.916 69.5053 122.742 69.2173 122.514C68.9413 122.274 68.7193 121.992 68.5513 121.668C68.3833 121.332 68.2993 120.948 68.2993 120.516ZM70.0633 120.372C70.0633 120.732 70.2013 121.068 70.4773 121.38C70.7653 121.68 71.1913 121.83 71.7553 121.83C72.1393 121.83 72.4813 121.746 72.7813 121.578C73.0933 121.398 73.3513 121.17 73.5553 120.894C73.7713 120.606 73.9333 120.294 74.0413 119.958C74.1613 119.61 74.2213 119.268 74.2213 118.932V118.536H73.7533C73.4293 118.536 73.0573 118.554 72.6373 118.59C72.2173 118.614 71.8153 118.686 71.4313 118.806C71.0473 118.926 70.7233 119.112 70.4593 119.364C70.1953 119.604 70.0633 119.94 70.0633 120.372ZM78.3362 114.486C78.3362 114.09 78.5342 113.892 78.9302 113.892H79.4342C79.8302 113.892 80.0282 114.09 80.0282 114.486V115.296C80.0282 115.416 80.0162 115.536 79.9922 115.656C79.9802 115.704 79.9742 115.758 79.9742 115.818H80.0102C80.1182 115.554 80.2742 115.296 80.4782 115.044C80.6942 114.78 80.9402 114.552 81.2162 114.36C81.5042 114.156 81.8102 113.994 82.1342 113.874C82.4702 113.742 82.8182 113.676 83.1782 113.676C84.6782 113.676 85.5902 114.366 85.9142 115.746H85.9502C86.0702 115.482 86.2382 115.224 86.4542 114.972C86.6702 114.72 86.9162 114.498 87.1922 114.306C87.4682 114.114 87.7742 113.964 88.1102 113.856C88.4462 113.736 88.8002 113.676 89.1722 113.676C90.2162 113.676 90.9782 113.97 91.4582 114.558C91.9382 115.134 92.1782 116.004 92.1782 117.168V122.406C92.1782 122.802 91.9802 123 91.5842 123H91.0262C90.6302 123 90.4322 122.802 90.4322 122.406V117.546C90.4322 117.222 90.4082 116.922 90.3602 116.646C90.3242 116.37 90.2462 116.13 90.1262 115.926C90.0182 115.722 89.8562 115.56 89.6402 115.44C89.4362 115.32 89.1662 115.26 88.8302 115.26C88.4102 115.26 88.0322 115.362 87.6962 115.566C87.3602 115.758 87.0722 116.022 86.8322 116.358C86.6042 116.682 86.4302 117.054 86.3102 117.474C86.1902 117.894 86.1302 118.32 86.1302 118.752V122.406C86.1302 122.802 85.9382 123 85.5542 123H84.9782C84.5942 123 84.4022 122.802 84.4022 122.406V117.546C84.4022 117.246 84.3842 116.958 84.3482 116.682C84.3122 116.406 84.2402 116.166 84.1322 115.962C84.0242 115.746 83.8622 115.578 83.6462 115.458C83.4422 115.326 83.1662 115.26 82.8182 115.26C82.3862 115.26 81.9962 115.362 81.6482 115.566C81.3122 115.77 81.0242 116.04 80.7842 116.376C80.5562 116.7 80.3822 117.072 80.2622 117.492C80.1422 117.912 80.0822 118.332 80.0822 118.752V122.406C80.0822 122.802 79.8842 123 79.4882 123H78.9302C78.5342 123 78.3362 122.802 78.3362 122.406V114.486ZM93.9844 118.428C93.9844 117.744 94.1104 117.114 94.3624 116.538C94.6264 115.95 94.9744 115.446 95.4064 115.026C95.8504 114.594 96.3664 114.264 96.9544 114.036C97.5544 113.796 98.1964 113.676 98.8804 113.676C99.5644 113.676 100.2 113.796 100.788 114.036C101.388 114.264 101.91 114.594 102.354 115.026C102.798 115.446 103.146 115.95 103.398 116.538C103.662 117.114 103.794 117.744 103.794 118.428C103.794 119.124 103.662 119.766 103.398 120.354C103.146 120.93 102.798 121.434 102.354 121.866C101.91 122.286 101.388 122.616 100.788 122.856C100.2 123.096 99.5644 123.216 98.8804 123.216C98.1964 123.216 97.5544 123.096 96.9544 122.856C96.3664 122.616 95.8504 122.286 95.4064 121.866C94.9744 121.434 94.6264 120.93 94.3624 120.354C94.1104 119.766 93.9844 119.124 93.9844 118.428ZM95.7484 118.428C95.7484 118.908 95.8324 119.352 96.0004 119.76C96.1684 120.156 96.3904 120.498 96.6664 120.786C96.9544 121.074 97.2844 121.302 97.6564 121.47C98.0404 121.626 98.4484 121.704 98.8804 121.704C99.3124 121.704 99.7144 121.626 100.086 121.47C100.47 121.302 100.806 121.074 101.094 120.786C101.382 120.498 101.604 120.156 101.76 119.76C101.928 119.352 102.012 118.908 102.012 118.428C102.012 117.96 101.928 117.528 101.76 117.132C101.604 116.736 101.382 116.394 101.094 116.106C100.806 115.818 100.47 115.596 100.086 115.44C99.7144 115.272 99.3124 115.188 98.8804 115.188C98.4484 115.188 98.0404 115.272 97.6564 115.44C97.2844 115.596 96.9544 115.818 96.6664 116.106C96.3904 116.394 96.1684 116.736 96.0004 117.132C95.8324 117.528 95.7484 117.96 95.7484 118.428ZM105.363 122.226C105.207 122.13 105.123 122.01 105.111 121.866C105.099 121.722 105.141 121.572 105.237 121.416L105.417 121.164C105.537 121.008 105.657 120.924 105.777 120.912C105.909 120.9 106.065 120.942 106.245 121.038C106.449 121.17 106.737 121.326 107.109 121.506C107.481 121.686 107.937 121.776 108.477 121.776C108.933 121.776 109.305 121.674 109.593 121.47C109.881 121.254 110.025 120.954 110.025 120.57C110.025 120.27 109.905 120.03 109.665 119.85C109.437 119.67 109.149 119.508 108.801 119.364C108.453 119.208 108.075 119.064 107.667 118.932C107.271 118.788 106.899 118.608 106.551 118.392C106.203 118.164 105.909 117.888 105.669 117.564C105.441 117.24 105.327 116.82 105.327 116.304C105.327 115.872 105.411 115.494 105.579 115.17C105.759 114.834 105.999 114.558 106.299 114.342C106.599 114.126 106.947 113.964 107.343 113.856C107.751 113.736 108.177 113.676 108.621 113.676C109.257 113.676 109.779 113.76 110.187 113.928C110.607 114.096 110.925 114.246 111.141 114.378C111.309 114.462 111.405 114.576 111.429 114.72C111.465 114.852 111.435 115.002 111.339 115.17L111.177 115.44C111.009 115.74 110.745 115.806 110.385 115.638C110.193 115.53 109.941 115.416 109.629 115.296C109.329 115.176 108.963 115.116 108.531 115.116C108.099 115.116 107.733 115.212 107.433 115.404C107.145 115.596 107.001 115.884 107.001 116.268C107.001 116.568 107.115 116.814 107.343 117.006C107.583 117.186 107.877 117.348 108.225 117.492C108.573 117.636 108.945 117.78 109.341 117.924C109.749 118.068 110.127 118.248 110.475 118.464C110.823 118.668 111.111 118.938 111.339 119.274C111.579 119.598 111.699 120.018 111.699 120.534C111.699 120.918 111.621 121.278 111.465 121.614C111.309 121.938 111.087 122.22 110.799 122.46C110.511 122.7 110.163 122.886 109.755 123.018C109.359 123.15 108.915 123.216 108.423 123.216C108.039 123.216 107.685 123.18 107.361 123.108C107.049 123.048 106.767 122.97 106.515 122.874C106.263 122.766 106.035 122.658 105.831 122.55C105.639 122.43 105.483 122.322 105.363 122.226ZM20.666 139.446C20.666 138.774 20.786 138.15 21.026 137.574C21.266 136.986 21.602 136.482 22.034 136.062C22.466 135.63 22.976 135.294 23.564 135.054C24.164 134.802 24.818 134.676 25.526 134.676C25.91 134.676 26.258 134.712 26.57 134.784C26.882 134.844 27.164 134.922 27.416 135.018C27.668 135.114 27.884 135.222 28.064 135.342C28.256 135.45 28.412 135.552 28.532 135.648C28.688 135.744 28.772 135.864 28.784 136.008C28.796 136.152 28.748 136.302 28.64 136.458L28.46 136.728C28.268 137.028 27.998 137.076 27.65 136.872C27.458 136.74 27.188 136.596 26.84 136.44C26.504 136.272 26.096 136.188 25.616 136.188C25.16 136.188 24.734 136.272 24.338 136.44C23.954 136.596 23.618 136.818 23.33 137.106C23.054 137.394 22.838 137.736 22.682 138.132C22.526 138.528 22.448 138.96 22.448 139.428C22.448 139.896 22.526 140.328 22.682 140.724C22.838 141.12 23.06 141.468 23.348 141.768C23.636 142.056 23.972 142.284 24.356 142.452C24.752 142.62 25.184 142.704 25.652 142.704C26.204 142.704 26.672 142.608 27.056 142.416C27.452 142.224 27.758 142.044 27.974 141.876C28.31 141.66 28.58 141.714 28.784 142.038L28.928 142.308C29.12 142.632 29.066 142.896 28.766 143.1C28.634 143.208 28.466 143.328 28.262 143.46C28.07 143.58 27.836 143.7 27.56 143.82C27.296 143.928 26.99 144.018 26.642 144.09C26.306 144.174 25.934 144.216 25.526 144.216C24.806 144.216 24.146 144.096 23.546 143.856C22.958 143.616 22.448 143.286 22.016 142.866C21.596 142.434 21.266 141.93 21.026 141.354C20.786 140.766 20.666 140.13 20.666 139.446ZM34.965 133.56C34.761 133.56 34.623 133.494 34.551 133.362C34.479 133.23 34.497 133.074 34.605 132.894L35.325 131.688C35.481 131.412 35.715 131.274 36.027 131.274H36.549C36.801 131.274 36.957 131.346 37.017 131.49C37.077 131.622 37.029 131.79 36.873 131.994L35.991 133.2C35.799 133.44 35.559 133.56 35.271 133.56H34.965ZM30.123 139.428C30.123 138.744 30.249 138.114 30.501 137.538C30.765 136.95 31.113 136.446 31.545 136.026C31.989 135.594 32.505 135.264 33.093 135.036C33.693 134.796 34.335 134.676 35.019 134.676C35.703 134.676 36.339 134.796 36.927 135.036C37.527 135.264 38.049 135.594 38.493 136.026C38.937 136.446 39.285 136.95 39.537 137.538C39.801 138.114 39.933 138.744 39.933 139.428C39.933 140.124 39.801 140.766 39.537 141.354C39.285 141.93 38.937 142.434 38.493 142.866C38.049 143.286 37.527 143.616 36.927 143.856C36.339 144.096 35.703 144.216 35.019 144.216C34.335 144.216 33.693 144.096 33.093 143.856C32.505 143.616 31.989 143.286 31.545 142.866C31.113 142.434 30.765 141.93 30.501 141.354C30.249 140.766 30.123 140.124 30.123 139.428ZM31.887 139.428C31.887 139.908 31.971 140.352 32.139 140.76C32.307 141.156 32.529 141.498 32.805 141.786C33.093 142.074 33.423 142.302 33.795 142.47C34.179 142.626 34.587 142.704 35.019 142.704C35.451 142.704 35.853 142.626 36.225 142.47C36.609 142.302 36.945 142.074 37.233 141.786C37.521 141.498 37.743 141.156 37.899 140.76C38.067 140.352 38.151 139.908 38.151 139.428C38.151 138.96 38.067 138.528 37.899 138.132C37.743 137.736 37.521 137.394 37.233 137.106C36.945 136.818 36.609 136.596 36.225 136.44C35.853 136.272 35.451 136.188 35.019 136.188C34.587 136.188 34.179 136.272 33.795 136.44C33.423 136.596 33.093 136.818 32.805 137.106C32.529 137.394 32.307 137.736 32.139 138.132C31.971 138.528 31.887 138.96 31.887 139.428ZM41.8616 135.486C41.8616 135.09 42.0596 134.892 42.4556 134.892H42.9596C43.3556 134.892 43.5536 135.09 43.5536 135.486V136.296C43.5536 136.416 43.5416 136.536 43.5176 136.656C43.5056 136.704 43.4996 136.758 43.4996 136.818H43.5356C43.6436 136.554 43.7996 136.296 44.0036 136.044C44.2196 135.78 44.4656 135.552 44.7416 135.36C45.0296 135.156 45.3356 134.994 45.6596 134.874C45.9956 134.742 46.3436 134.676 46.7036 134.676C48.2036 134.676 49.1156 135.366 49.4396 136.746H49.4756C49.5956 136.482 49.7636 136.224 49.9796 135.972C50.1956 135.72 50.4416 135.498 50.7176 135.306C50.9936 135.114 51.2996 134.964 51.6356 134.856C51.9716 134.736 52.3256 134.676 52.6976 134.676C53.7416 134.676 54.5036 134.97 54.9836 135.558C55.4636 136.134 55.7036 137.004 55.7036 138.168V143.406C55.7036 143.802 55.5056 144 55.1096 144H54.5516C54.1556 144 53.9576 143.802 53.9576 143.406V138.546C53.9576 138.222 53.9336 137.922 53.8856 137.646C53.8496 137.37 53.7716 137.13 53.6516 136.926C53.5436 136.722 53.3816 136.56 53.1656 136.44C52.9616 136.32 52.6916 136.26 52.3556 136.26C51.9356 136.26 51.5576 136.362 51.2216 136.566C50.8856 136.758 50.5976 137.022 50.3576 137.358C50.1296 137.682 49.9556 138.054 49.8356 138.474C49.7156 138.894 49.6556 139.32 49.6556 139.752V143.406C49.6556 143.802 49.4636 144 49.0796 144H48.5036C48.1196 144 47.9276 143.802 47.9276 143.406V138.546C47.9276 138.246 47.9096 137.958 47.8736 137.682C47.8376 137.406 47.7656 137.166 47.6576 136.962C47.5496 136.746 47.3876 136.578 47.1716 136.458C46.9676 136.326 46.6916 136.26 46.3436 136.26C45.9116 136.26 45.5216 136.362 45.1736 136.566C44.8376 136.77 44.5496 137.04 44.3096 137.376C44.0816 137.7 43.9076 138.072 43.7876 138.492C43.6676 138.912 43.6076 139.332 43.6076 139.752V143.406C43.6076 143.802 43.4096 144 43.0136 144H42.4556C42.0596 144 41.8616 143.802 41.8616 143.406V135.486ZM57.5098 139.428C57.5098 138.744 57.6358 138.114 57.8878 137.538C58.1518 136.95 58.4998 136.446 58.9318 136.026C59.3758 135.594 59.8918 135.264 60.4798 135.036C61.0798 134.796 61.7218 134.676 62.4058 134.676C63.0898 134.676 63.7258 134.796 64.3138 135.036C64.9138 135.264 65.4358 135.594 65.8798 136.026C66.3238 136.446 66.6718 136.95 66.9238 137.538C67.1878 138.114 67.3198 138.744 67.3198 139.428C67.3198 140.124 67.1878 140.766 66.9238 141.354C66.6718 141.93 66.3238 142.434 65.8798 142.866C65.4358 143.286 64.9138 143.616 64.3138 143.856C63.7258 144.096 63.0898 144.216 62.4058 144.216C61.7218 144.216 61.0798 144.096 60.4798 143.856C59.8918 143.616 59.3758 143.286 58.9318 142.866C58.4998 142.434 58.1518 141.93 57.8878 141.354C57.6358 140.766 57.5098 140.124 57.5098 139.428ZM59.2738 139.428C59.2738 139.908 59.3578 140.352 59.5258 140.76C59.6938 141.156 59.9158 141.498 60.1918 141.786C60.4798 142.074 60.8098 142.302 61.1818 142.47C61.5658 142.626 61.9738 142.704 62.4058 142.704C62.8378 142.704 63.2398 142.626 63.6118 142.47C63.9958 142.302 64.3318 142.074 64.6198 141.786C64.9078 141.498 65.1298 141.156 65.2858 140.76C65.4538 140.352 65.5378 139.908 65.5378 139.428C65.5378 138.96 65.4538 138.528 65.2858 138.132C65.1298 137.736 64.9078 137.394 64.6198 137.106C64.3318 136.818 63.9958 136.596 63.6118 136.44C63.2398 136.272 62.8378 136.188 62.4058 136.188C61.9738 136.188 61.5658 136.272 61.1818 136.44C60.8098 136.596 60.4798 136.818 60.1918 137.106C59.9158 137.394 59.6938 137.736 59.5258 138.132C59.3578 138.528 59.2738 138.96 59.2738 139.428ZM74.1443 136.404H73.5683C73.1723 136.404 72.9743 136.206 72.9743 135.81V135.576C72.9743 135.18 73.1723 134.982 73.5683 134.982H74.1443V134.55C74.1443 133.83 74.2703 133.254 74.5223 132.822C74.7863 132.378 75.0923 132.036 75.4403 131.796C75.7883 131.556 76.1483 131.4 76.5203 131.328C76.8923 131.244 77.1983 131.202 77.4383 131.202H77.6543C78.0503 131.202 78.2483 131.4 78.2483 131.796V132.138C78.2483 132.342 78.1943 132.486 78.0863 132.57C77.9783 132.654 77.8223 132.708 77.6183 132.732C77.4503 132.744 77.2643 132.768 77.0603 132.804C76.8683 132.84 76.6823 132.924 76.5023 133.056C76.3343 133.188 76.1903 133.38 76.0703 133.632C75.9503 133.872 75.8903 134.202 75.8903 134.622V134.982H77.4563C77.8523 134.982 78.0503 135.18 78.0503 135.576V135.81C78.0503 136.206 77.8523 136.404 77.4563 136.404H75.8903V143.406C75.8903 143.802 75.6923 144 75.2963 144H74.7383C74.3423 144 74.1443 143.802 74.1443 143.406V136.404ZM79.4411 135.486C79.4411 135.09 79.6391 134.892 80.0351 134.892H80.5931C80.9771 134.892 81.1691 135.09 81.1691 135.486V140.328C81.1691 140.64 81.1871 140.934 81.2231 141.21C81.2711 141.486 81.3551 141.726 81.4751 141.93C81.6071 142.134 81.7811 142.296 81.9971 142.416C82.2251 142.536 82.5191 142.596 82.8791 142.596C83.3471 142.596 83.7611 142.5 84.1211 142.308C84.4931 142.116 84.8051 141.864 85.0571 141.552C85.3211 141.24 85.5191 140.88 85.6511 140.472C85.7831 140.052 85.8491 139.614 85.8491 139.158V135.486C85.8491 135.09 86.0471 134.892 86.4431 134.892H87.0011C87.3971 134.892 87.5951 135.09 87.5951 135.486V143.406C87.5951 143.802 87.3971 144 87.0011 144H86.4971C86.1011 144 85.9031 143.802 85.9031 143.406V142.596C85.9031 142.536 85.9031 142.476 85.9031 142.416C85.9031 142.344 85.9091 142.284 85.9211 142.236C85.9331 142.188 85.9451 142.134 85.9571 142.074H85.9211C85.8251 142.302 85.6751 142.542 85.4711 142.794C85.2791 143.046 85.0391 143.28 84.7511 143.496C84.4631 143.7 84.1331 143.868 83.7611 144C83.3891 144.144 82.9811 144.216 82.5371 144.216C81.5051 144.216 80.7311 143.94 80.2151 143.388C79.6991 142.824 79.4411 141.936 79.4411 140.724V135.486ZM90.1135 135.486C90.1135 135.09 90.3115 134.892 90.7075 134.892H91.2115C91.6075 134.892 91.8055 135.09 91.8055 135.486V136.296C91.8055 136.416 91.7935 136.536 91.7695 136.656C91.7575 136.704 91.7515 136.758 91.7515 136.818H91.7875C91.8715 136.626 92.0035 136.404 92.1835 136.152C92.3755 135.9 92.6155 135.666 92.9035 135.45C93.1915 135.234 93.5275 135.054 93.9115 134.91C94.2955 134.754 94.7395 134.676 95.2435 134.676C96.3235 134.676 97.1095 134.97 97.6015 135.558C98.1055 136.134 98.3575 137.004 98.3575 138.168V143.406C98.3575 143.802 98.1595 144 97.7635 144H97.2055C96.8095 144 96.6115 143.802 96.6115 143.406V138.564C96.6115 138.24 96.5875 137.94 96.5395 137.664C96.5035 137.388 96.4255 137.148 96.3055 136.944C96.1855 136.74 96.0115 136.578 95.7835 136.458C95.5555 136.338 95.2615 136.278 94.9015 136.278C94.4575 136.278 94.0495 136.368 93.6775 136.548C93.3055 136.716 92.9815 136.95 92.7055 137.25C92.4415 137.55 92.2315 137.91 92.0755 138.33C91.9315 138.738 91.8595 139.176 91.8595 139.644V143.406C91.8595 143.802 91.6615 144 91.2655 144H90.7075C90.3115 144 90.1135 143.802 90.1135 143.406V135.486ZM100.154 139.446C100.154 138.774 100.274 138.15 100.514 137.574C100.754 136.986 101.09 136.482 101.522 136.062C101.954 135.63 102.464 135.294 103.052 135.054C103.652 134.802 104.306 134.676 105.014 134.676C105.398 134.676 105.746 134.712 106.058 134.784C106.37 134.844 106.652 134.922 106.904 135.018C107.156 135.114 107.372 135.222 107.552 135.342C107.744 135.45 107.9 135.552 108.02 135.648C108.176 135.744 108.26 135.864 108.272 136.008C108.284 136.152 108.236 136.302 108.128 136.458L107.948 136.728C107.756 137.028 107.486 137.076 107.138 136.872C106.946 136.74 106.676 136.596 106.328 136.44C105.992 136.272 105.584 136.188 105.104 136.188C104.648 136.188 104.222 136.272 103.826 136.44C103.442 136.596 103.106 136.818 102.818 137.106C102.542 137.394 102.326 137.736 102.17 138.132C102.014 138.528 101.936 138.96 101.936 139.428C101.936 139.896 102.014 140.328 102.17 140.724C102.326 141.12 102.548 141.468 102.836 141.768C103.124 142.056 103.46 142.284 103.844 142.452C104.24 142.62 104.672 142.704 105.14 142.704C105.692 142.704 106.16 142.608 106.544 142.416C106.94 142.224 107.246 142.044 107.462 141.876C107.798 141.66 108.068 141.714 108.272 142.038L108.416 142.308C108.608 142.632 108.554 142.896 108.254 143.1C108.122 143.208 107.954 143.328 107.75 143.46C107.558 143.58 107.324 143.7 107.048 143.82C106.784 143.928 106.478 144.018 106.13 144.09C105.794 144.174 105.422 144.216 105.014 144.216C104.294 144.216 103.634 144.096 103.034 143.856C102.446 143.616 101.936 143.286 101.504 142.866C101.084 142.434 100.754 141.93 100.514 141.354C100.274 140.766 100.154 140.13 100.154 139.446ZM110.887 133.074C110.491 133.074 110.293 132.876 110.293 132.48V131.886C110.293 131.49 110.491 131.292 110.887 131.292H111.499C111.895 131.292 112.093 131.49 112.093 131.886V132.48C112.093 132.876 111.895 133.074 111.499 133.074H110.887ZM110.311 135.486C110.311 135.09 110.509 134.892 110.905 134.892H111.463C111.859 134.892 112.057 135.09 112.057 135.486V143.406C112.057 143.802 111.859 144 111.463 144H110.905C110.509 144 110.311 143.802 110.311 143.406V135.486ZM113.988 139.428C113.988 138.744 114.114 138.114 114.366 137.538C114.63 136.95 114.978 136.446 115.41 136.026C115.854 135.594 116.37 135.264 116.958 135.036C117.558 134.796 118.2 134.676 118.884 134.676C119.568 134.676 120.204 134.796 120.792 135.036C121.392 135.264 121.914 135.594 122.358 136.026C122.802 136.446 123.15 136.95 123.402 137.538C123.666 138.114 123.798 138.744 123.798 139.428C123.798 140.124 123.666 140.766 123.402 141.354C123.15 141.93 122.802 142.434 122.358 142.866C121.914 143.286 121.392 143.616 120.792 143.856C120.204 144.096 119.568 144.216 118.884 144.216C118.2 144.216 117.558 144.096 116.958 143.856C116.37 143.616 115.854 143.286 115.41 142.866C114.978 142.434 114.63 141.93 114.366 141.354C114.114 140.766 113.988 140.124 113.988 139.428ZM115.752 139.428C115.752 139.908 115.836 140.352 116.004 140.76C116.172 141.156 116.394 141.498 116.67 141.786C116.958 142.074 117.288 142.302 117.66 142.47C118.044 142.626 118.452 142.704 118.884 142.704C119.316 142.704 119.718 142.626 120.09 142.47C120.474 142.302 120.81 142.074 121.098 141.786C121.386 141.498 121.608 141.156 121.764 140.76C121.932 140.352 122.016 139.908 122.016 139.428C122.016 138.96 121.932 138.528 121.764 138.132C121.608 137.736 121.386 137.394 121.098 137.106C120.81 136.818 120.474 136.596 120.09 136.44C119.718 136.272 119.316 136.188 118.884 136.188C118.452 136.188 118.044 136.272 117.66 136.44C117.288 136.596 116.958 136.818 116.67 137.106C116.394 137.394 116.172 137.736 116.004 138.132C115.836 138.528 115.752 138.96 115.752 139.428ZM125.727 135.486C125.727 135.09 125.925 134.892 126.321 134.892H126.825C127.221 134.892 127.419 135.09 127.419 135.486V136.296C127.419 136.416 127.407 136.536 127.383 136.656C127.371 136.704 127.365 136.758 127.365 136.818H127.401C127.485 136.626 127.617 136.404 127.797 136.152C127.989 135.9 128.229 135.666 128.517 135.45C128.805 135.234 129.141 135.054 129.525 134.91C129.909 134.754 130.353 134.676 130.857 134.676C131.937 134.676 132.723 134.97 133.215 135.558C133.719 136.134 133.971 137.004 133.971 138.168V143.406C133.971 143.802 133.773 144 133.377 144H132.819C132.423 144 132.225 143.802 132.225 143.406V138.564C132.225 138.24 132.201 137.94 132.153 137.664C132.117 137.388 132.039 137.148 131.919 136.944C131.799 136.74 131.625 136.578 131.397 136.458C131.169 136.338 130.875 136.278 130.515 136.278C130.071 136.278 129.663 136.368 129.291 136.548C128.919 136.716 128.595 136.95 128.319 137.25C128.055 137.55 127.845 137.91 127.689 138.33C127.545 138.738 127.473 139.176 127.473 139.644V143.406C127.473 143.802 127.275 144 126.879 144H126.321C125.925 144 125.727 143.802 125.727 143.406V135.486ZM135.624 141.516C135.624 141.048 135.714 140.646 135.894 140.31C136.074 139.962 136.314 139.674 136.614 139.446C136.914 139.218 137.25 139.032 137.622 138.888C138.006 138.744 138.402 138.636 138.81 138.564C139.218 138.492 139.614 138.444 139.998 138.42C140.394 138.396 140.748 138.384 141.06 138.384H141.528V138.15C141.528 137.778 141.474 137.466 141.366 137.214C141.27 136.95 141.132 136.74 140.952 136.584C140.772 136.428 140.562 136.32 140.322 136.26C140.082 136.188 139.824 136.152 139.548 136.152C139.092 136.152 138.684 136.218 138.324 136.35C137.976 136.482 137.7 136.608 137.496 136.728C137.148 136.896 136.878 136.824 136.686 136.512L136.542 136.26C136.35 135.9 136.416 135.63 136.74 135.45C137.016 135.294 137.4 135.126 137.892 134.946C138.396 134.766 138.996 134.676 139.692 134.676C140.832 134.676 141.714 134.982 142.338 135.594C142.962 136.194 143.274 137.076 143.274 138.24V143.406C143.274 143.802 143.076 144 142.68 144H142.23C141.834 144 141.636 143.802 141.636 143.406V142.866C141.636 142.782 141.636 142.704 141.636 142.632C141.636 142.56 141.642 142.5 141.654 142.452C141.666 142.404 141.678 142.356 141.69 142.308H141.654C141.474 142.668 141.246 142.986 140.97 143.262C140.73 143.502 140.424 143.724 140.052 143.928C139.68 144.12 139.224 144.216 138.684 144.216C138.288 144.216 137.904 144.156 137.532 144.036C137.16 143.916 136.83 143.742 136.542 143.514C136.266 143.274 136.044 142.992 135.876 142.668C135.708 142.332 135.624 141.948 135.624 141.516ZM137.388 141.372C137.388 141.732 137.526 142.068 137.802 142.38C138.09 142.68 138.516 142.83 139.08 142.83C139.464 142.83 139.806 142.746 140.106 142.578C140.418 142.398 140.676 142.17 140.88 141.894C141.096 141.606 141.258 141.294 141.366 140.958C141.486 140.61 141.546 140.268 141.546 139.932V139.536H141.078C140.754 139.536 140.382 139.554 139.962 139.59C139.542 139.614 139.14 139.686 138.756 139.806C138.372 139.926 138.048 140.112 137.784 140.364C137.52 140.604 137.388 140.94 137.388 141.372Z" fill="#EBE9DA"/>
</svg>
