<svg width="189" height="132" viewBox="0 0 189 132" fill="none" xmlns="http://www.w3.org/2000/svg">
<path d="M85.083 41.491C84.3883 41.491 83.7123 41.4637 83.055 41.409C82.5008 41.3711 81.9504 41.2895 81.409 41.165V33.594C82.3136 33.7545 83.2314 33.8279 84.15 33.813C85.3862 33.9109 86.6202 33.5986 87.6611 32.9246C88.702 32.2505 89.4917 31.2521 89.908 30.084V30.029L80.94 6.34599C80.6984 5.70776 80.6153 5.02043 80.6978 4.34301C80.7803 3.66559 81.026 3.01832 81.4138 2.45677C81.8016 1.89522 82.3198 1.43617 82.9241 1.11902C83.5284 0.801883 84.2006 0.636126 84.883 0.635987H88.592L95.009 18.897L102.462 0.635987H105.72C106.412 0.635594 107.094 0.806876 107.704 1.13451C108.314 1.46214 108.834 1.9359 109.216 2.51339C109.598 3.09089 109.831 3.75411 109.894 4.44371C109.957 5.13332 109.848 5.82779 109.577 6.46499L99.062 31.126C98.2004 33.3093 97.0177 35.3518 95.553 37.186C94.367 38.6329 92.8408 39.7633 91.111 40.476C89.1845 41.1947 87.1386 41.5392 85.083 41.491Z" fill="#E33E20"/>
<path d="M112.38 25.045V5.09995C112.38 3.91707 112.849 2.7825 113.685 1.94561C114.521 1.10872 115.655 0.63801 116.838 0.63695H121.26V2.50195C122.985 1.21145 125.022 0.40404 127.163 0.162884C129.303 -0.0782712 131.469 0.255545 133.438 1.12995C134.881 1.81003 136.141 2.82564 137.112 4.09195C138.274 2.81819 139.695 1.80818 141.28 1.12995C142.944 0.42424 144.736 0.0695124 146.544 0.08795C148.58 0.0471997 150.589 0.559011 152.357 1.56895C154.033 2.55144 155.408 3.97381 156.333 5.68195C157.329 7.55357 157.829 9.64922 157.785 11.7689V24.3569C157.785 25.0509 157.649 25.738 157.383 26.3791C157.118 27.0203 156.729 27.6028 156.238 28.0936C155.747 28.5844 155.165 28.9737 154.524 29.2393C153.883 29.505 153.196 29.6418 152.502 29.6419H148.902V12.9759C148.976 11.5789 148.515 10.2061 147.614 9.13595C147.181 8.66311 146.65 8.29058 146.058 8.04443C145.466 7.79828 144.828 7.68447 144.187 7.71095C143.262 7.69835 142.345 7.88562 141.499 8.25995C140.684 8.63458 139.969 9.19815 139.415 9.90395C139.452 10.1966 139.48 10.4983 139.497 10.8089C139.516 11.1209 139.526 11.4399 139.526 11.7689V29.646H130.638V12.9759C130.711 11.5787 130.25 10.206 129.349 9.13595C128.916 8.66297 128.385 8.29037 127.793 8.04422C127.201 7.79807 126.562 7.68432 125.921 7.71095C125.008 7.69617 124.102 7.87368 123.262 8.23195C122.477 8.58007 121.79 9.11661 121.262 9.79395V29.646H116.98C116.376 29.646 115.778 29.5269 115.219 29.2957C114.661 29.0645 114.154 28.7255 113.727 28.2983C113.3 27.871 112.961 27.3638 112.73 26.8056C112.499 26.2474 112.38 25.6491 112.38 25.045Z" fill="#E33E20"/>
<path d="M171.22 30.139C169.338 30.1741 167.472 29.7805 165.765 28.988C164.255 28.289 162.965 27.1891 162.036 25.808C161.133 24.4237 160.666 22.7998 160.697 21.147C160.64 19.8947 160.899 18.6482 161.45 17.5222C162.001 16.3961 162.826 15.4267 163.85 14.703C165.953 13.187 168.887 12.4283 172.65 12.427C174.87 12.4209 177.081 12.6978 179.231 13.251V11.824C179.277 11.2076 179.174 10.5892 178.93 10.0212C178.686 9.45321 178.309 8.95232 177.831 8.56101C176.604 7.76477 175.151 7.38923 173.691 7.49101C172.402 7.51306 171.122 7.69752 169.879 8.04001C168.185 8.50555 166.527 9.09171 164.917 9.79401L161.737 3.26901C163.952 2.2648 166.255 1.46612 168.616 0.883008C170.798 0.355647 173.034 0.0871298 175.278 0.0830078C179.3 0.0830078 182.426 1.04301 184.655 2.96301C185.784 3.97486 186.67 5.22782 187.249 6.62898C187.827 8.03014 188.083 9.54355 187.997 11.057V23.857C187.997 25.393 187.387 26.866 186.301 27.9522C185.215 29.0384 183.742 29.6487 182.206 29.649H179.227V27.891C178.101 28.6742 176.85 29.2586 175.527 29.619C174.12 29.9792 172.672 30.154 171.22 30.139V30.139ZM169.137 20.981C169.128 21.413 169.235 21.8395 169.447 22.2159C169.659 22.5922 169.969 22.9045 170.343 23.12C171.364 23.6858 172.524 23.9521 173.689 23.888C174.694 23.8941 175.697 23.7837 176.677 23.559C177.578 23.3527 178.44 23.0008 179.228 22.517V18.788C178.38 18.5675 177.519 18.4025 176.65 18.294C175.758 18.1833 174.861 18.1282 173.962 18.129C172.73 18.0621 171.501 18.3175 170.398 18.87C170.012 19.0689 169.689 19.3721 169.466 19.7453C169.243 20.1184 169.129 20.5465 169.137 20.981Z" fill="#E33E20"/>
<path d="M30.886 29.521L1.92599 29.521L1.92599 0.560997L17.758 0.560997C19.4821 0.560997 21.1893 0.900596 22.7821 1.5604C24.3749 2.22021 25.8222 3.1873 27.0412 4.40645C28.2603 5.62561 29.2273 7.07294 29.887 8.66582C30.5467 10.2587 30.8861 11.9659 30.886 13.69L30.886 29.521Z" fill="#4D2C60"/>
<path d="M68.763 0.0489502H70.369C71.2238 0.0489502 72.0702 0.21731 72.8599 0.544418C73.6496 0.871526 74.3671 1.35098 74.9716 1.95539C75.576 2.55981 76.0554 3.27736 76.3825 4.06706C76.7096 4.85677 76.878 5.70318 76.878 6.55795V29.6849H68.763V0.0489502Z" fill="#E33E20"/>
<path d="M61.237 0.0489502H53.122V29.6849H61.237V0.0489502Z" fill="#E33E20"/>
<path d="M43.99 0.0489502H45.596V29.6849H37.481V6.55795C37.481 4.83166 38.1668 3.17607 39.3874 1.95539C40.6081 0.734718 42.2637 0.0489502 43.99 0.0489502V0.0489502Z" fill="#E33E20"/>
<path d="M5.95299 53.949C5.99589 53.7778 6.0974 53.627 6.23989 53.5229C6.38239 53.4188 6.55686 53.3679 6.73299 53.379H7.74399C7.92017 53.3677 8.09474 53.4185 8.23727 53.5227C8.37981 53.6268 8.48128 53.7777 8.52399 53.949L13.418 67.47C13.4618 67.5615 13.4819 67.6626 13.4765 67.764C13.4711 67.8653 13.4403 67.9637 13.387 68.05C13.3225 68.1287 13.2395 68.1902 13.1455 68.2289C13.0514 68.2677 12.9492 68.2825 12.848 68.272H12.131C11.9549 68.2829 11.7805 68.2319 11.6381 68.1278C11.4956 68.0237 11.3941 67.8731 11.351 67.702L10.023 63.989H4.41199L3.10599 67.701C3.06893 67.8715 2.97173 68.0229 2.83217 68.1276C2.69261 68.2322 2.52002 68.2831 2.34599 68.271H1.62799C1.52516 68.2837 1.4208 68.2699 1.32475 68.2311C1.2287 68.1922 1.14412 68.1296 1.07899 68.049C1.02925 67.9611 1.00138 67.8625 0.997727 67.7616C0.994072 67.6606 1.01474 67.5603 1.05799 67.469L5.95299 53.949ZM9.47499 62.261L7.82999 57.535C7.75866 57.335 7.69199 57.12 7.62999 56.89C7.56799 56.66 7.50799 56.4303 7.44999 56.201C7.39399 55.9477 7.33099 55.6877 7.26099 55.421H7.21699C7.13299 55.688 7.06199 55.948 7.00599 56.201C6.93933 56.4263 6.87633 56.655 6.81699 56.887C6.76527 57.1051 6.70218 57.3204 6.62799 57.532L4.96099 62.26L9.47499 62.261Z" fill="#4E2C61"/>
<path d="M14.622 58.2939C14.6074 58.1986 14.6154 58.1012 14.6454 58.0096C14.6754 57.918 14.7266 57.8348 14.7947 57.7666C14.8629 57.6985 14.9461 57.6473 15.0377 57.6173C15.1293 57.5873 15.2267 57.5793 15.322 57.5939H15.977C16.0706 57.582 16.1657 57.5922 16.2547 57.6236C16.3437 57.655 16.4242 57.7068 16.4896 57.7748C16.5551 57.8428 16.6038 57.9251 16.6318 58.0152C16.6598 58.1053 16.6664 58.2008 16.651 58.2939V63.9689C16.6493 64.3146 16.674 64.66 16.725 65.0019C16.7667 65.3007 16.8688 65.5878 17.025 65.8459C17.1744 66.0872 17.3857 66.284 17.637 66.4159C17.9551 66.5693 18.3062 66.6418 18.659 66.6269C19.168 66.6363 19.6715 66.5202 20.125 66.2889C20.5481 66.0714 20.9223 65.7699 21.225 65.4029C21.5341 65.0262 21.7674 64.5932 21.912 64.1279C22.0678 63.6329 22.1458 63.1168 22.143 62.5979V58.2979C22.1288 58.2027 22.1371 58.1055 22.1673 58.0141C22.1975 57.9227 22.2486 57.8397 22.3167 57.7716C22.3848 57.7035 22.4678 57.6524 22.5592 57.6222C22.6506 57.592 22.7478 57.5837 22.843 57.5979H23.496C23.5912 57.5837 23.6884 57.592 23.7798 57.6222C23.8712 57.6524 23.9542 57.7035 24.0223 57.7716C24.0903 57.8397 24.1415 57.9227 24.1717 58.0141C24.2018 58.1055 24.2102 58.2027 24.196 58.2979V67.5759C24.2102 67.6711 24.2018 67.7683 24.1717 67.8597C24.1415 67.9511 24.0903 68.0341 24.0223 68.1022C23.9542 68.1702 23.8712 68.2214 23.7798 68.2516C23.6884 68.2817 23.5912 68.2901 23.496 68.2759H22.895C22.7998 68.2901 22.7026 68.2817 22.6112 68.2516C22.5198 68.2214 22.4368 68.1702 22.3687 68.1022C22.3006 68.0341 22.2495 67.9511 22.2193 67.8597C22.1891 67.7683 22.1808 67.6711 22.195 67.5759V66.4039C22.1941 66.3366 22.2011 66.2695 22.216 66.2039C22.23 66.1479 22.243 66.0839 22.258 66.0149H22.215C22.0808 66.3173 21.9073 66.6008 21.699 66.8579C21.4523 67.1666 21.1647 67.4401 20.844 67.6709C20.4872 67.9274 20.0964 68.133 19.683 68.2819C19.2234 68.4481 18.7377 68.5304 18.249 68.5249C17.7519 68.5629 17.2524 68.4952 16.7833 68.3261C16.3143 68.157 15.8865 67.8904 15.528 67.5439C14.8492 66.657 14.5261 65.5486 14.622 64.4359V58.2939Z" fill="#4E2C61"/>
<path d="M27.47 70.8239C27.4982 70.7375 27.545 70.6582 27.607 70.5918C27.6691 70.5253 27.7449 70.4731 27.8292 70.439C27.9135 70.4049 28.0043 70.3897 28.0951 70.3943C28.1859 70.399 28.2746 70.4234 28.355 70.4659C28.609 70.5659 28.925 70.6659 29.305 70.7709C29.7529 70.8848 30.214 70.9379 30.676 70.9289C31.1096 70.9315 31.5417 70.8787 31.962 70.7719C32.3494 70.6764 32.7123 70.5002 33.027 70.2549C33.3384 70.0063 33.5876 69.6886 33.755 69.3269C33.9496 68.8897 34.0433 68.4143 34.029 67.9359V66.7639C34.0287 66.6894 34.036 66.615 34.051 66.5419L34.092 66.3329H34.052C33.7559 66.9084 33.2996 67.3859 32.7382 67.7077C32.1768 68.0296 31.5342 68.1822 30.888 68.1469C30.1929 68.1571 29.5043 68.0126 28.872 67.7239C28.2898 67.4536 27.7723 67.0618 27.354 66.5749C26.9266 66.0665 26.6041 65.4786 26.405 64.8449C26.1801 64.1394 26.0693 63.4024 26.077 62.6619C26.0707 61.9466 26.1777 61.2348 26.394 60.5529C26.588 59.936 26.9001 59.3627 27.313 58.8649C27.7168 58.3843 28.2251 58.0023 28.799 57.7479C29.4447 57.4692 30.1429 57.3328 30.846 57.3479C31.4043 57.33 31.9604 57.4266 32.48 57.6319C32.8507 57.7858 33.1954 57.9959 33.502 58.2549C33.7893 58.4965 34.0195 58.7988 34.176 59.1399H34.22C34.2022 59.1158 34.1947 59.0856 34.199 59.0559C34.18 58.9727 34.1726 58.8872 34.177 58.8019V58.1859C34.177 57.7919 34.41 57.5949 34.877 57.5949H35.383C35.4782 57.5808 35.5754 57.5891 35.6668 57.6193C35.7582 57.6494 35.8412 57.7006 35.9093 57.7686C35.9773 57.8367 36.0285 57.9198 36.0587 58.0111C36.0888 58.1025 36.0972 58.1997 36.083 58.2949V67.8309C36.1068 68.6053 35.9478 69.3744 35.619 70.0759C35.3288 70.6631 34.9121 71.1788 34.399 71.5859C33.8952 71.9818 33.3171 72.2725 32.699 72.4409C32.0739 72.6153 31.428 72.7038 30.779 72.7039C30.2125 72.7065 29.6471 72.6536 29.091 72.5459C28.6048 72.4557 28.1304 72.3105 27.677 72.1129C27.5846 72.086 27.4996 72.0382 27.4286 71.9731C27.3577 71.908 27.3027 71.8275 27.268 71.7377C27.2333 71.6479 27.2197 71.5514 27.2284 71.4555C27.2371 71.3596 27.2677 71.267 27.318 71.1849L27.47 70.8239ZM31.246 66.3729C31.6086 66.3733 31.9687 66.3125 32.311 66.1929C32.6607 66.0698 32.9732 65.8595 33.219 65.5819C33.5019 65.2528 33.7137 64.8688 33.841 64.4539C34.0092 63.8931 34.0875 63.3092 34.073 62.7239C34.0889 62.1313 34.0072 61.54 33.831 60.9739C33.6992 60.5621 33.479 60.1839 33.186 59.8659C32.9279 59.5962 32.6055 59.3966 32.249 59.2859C31.8836 59.1716 31.5028 59.1143 31.12 59.1159C30.7054 59.0891 30.2902 59.1601 29.9081 59.3232C29.5259 59.4863 29.1875 59.737 28.92 60.0549C28.3877 60.7844 28.1232 61.6751 28.171 62.5769C28.1206 63.5634 28.4069 64.5376 28.983 65.3399C29.2512 65.6793 29.5963 65.95 29.9898 66.1296C30.3833 66.3092 30.8139 66.3926 31.246 66.3729Z" fill="#4E2C61"/>
<path d="M38.628 58.2939C38.6134 58.1986 38.6214 58.1013 38.6514 58.0097C38.6814 57.9181 38.7326 57.8348 38.8007 57.7666C38.8689 57.6985 38.9521 57.6473 39.0437 57.6173C39.1353 57.5873 39.2327 57.5793 39.328 57.5939H39.919C40.0142 57.5795 40.1115 57.5877 40.203 57.6178C40.2945 57.6479 40.3777 57.699 40.4458 57.7671C40.5139 57.8352 40.565 57.9184 40.5951 58.0099C40.6252 58.1014 40.6334 58.1987 40.619 58.2939V59.2439C40.6192 59.386 40.6052 59.5277 40.577 59.6669C40.5629 59.7286 40.5562 59.7917 40.557 59.8549H40.598C40.738 59.5236 40.9263 59.2149 41.157 58.9389C41.4071 58.6337 41.6982 58.3645 42.022 58.1389C42.3559 57.9061 42.7173 57.7153 43.098 57.5709C43.4852 57.4227 43.8964 57.3474 44.311 57.3489C45.0537 57.2698 45.7986 57.4767 46.3942 57.9274C46.9897 58.378 47.3912 59.0387 47.517 59.7749H47.559C47.7118 59.4457 47.9108 59.1399 48.15 58.8669C48.4042 58.5714 48.6949 58.3093 49.015 58.0869C49.3464 57.8584 49.7083 57.6776 50.09 57.5499C50.4909 57.4155 50.9112 57.3479 51.334 57.3499C51.8291 57.3065 52.3276 57.3761 52.7918 57.5535C53.2561 57.7308 53.674 58.0114 54.014 58.3739C54.6399 59.2694 54.9377 60.3534 54.857 61.4429V67.5759C54.8714 67.6711 54.8632 67.7684 54.8331 67.8599C54.803 67.9514 54.7519 68.0346 54.6838 68.1027C54.6157 68.1708 54.5325 68.222 54.441 68.252C54.3495 68.2821 54.2522 68.2903 54.157 68.2759H53.502C53.4068 68.2903 53.3095 68.2821 53.218 68.252C53.1265 68.222 53.0433 68.1708 52.9752 68.1027C52.9071 68.0346 52.856 67.9514 52.8259 67.8599C52.7958 67.7684 52.7876 67.6711 52.802 67.5759V61.8759C52.8036 61.5229 52.7788 61.1703 52.728 60.8209C52.6875 60.5253 52.594 60.2394 52.452 59.9769C52.32 59.7378 52.1231 59.5409 51.884 59.4089C51.588 59.2556 51.257 59.1825 50.924 59.1969C50.4577 59.1907 49.9984 59.311 49.595 59.5449C49.1995 59.7801 48.8586 60.0968 48.595 60.4739C48.3131 60.8741 48.1027 61.32 47.973 61.7919C47.8319 62.2794 47.7605 62.7844 47.761 63.2919V67.5759C47.7764 67.669 47.7698 67.7645 47.7418 67.8546C47.7138 67.9447 47.6651 68.027 47.5996 68.095C47.5342 68.163 47.4537 68.2148 47.3647 68.2462C47.2757 68.2776 47.1806 68.2878 47.087 68.2759H46.411C46.3174 68.2878 46.2223 68.2776 46.1333 68.2462C46.0442 68.2148 45.9638 68.163 45.8983 68.095C45.8329 68.027 45.7842 67.9447 45.7562 67.8546C45.7282 67.7645 45.7216 67.669 45.737 67.5759V61.8759C45.7377 61.5375 45.7163 61.1995 45.673 60.8639C45.6381 60.5666 45.5525 60.2774 45.42 60.0089C45.2929 59.7635 45.0992 59.559 44.861 59.4189C44.56 59.2577 44.221 59.1809 43.88 59.1969C43.4023 59.1893 42.9317 59.3136 42.52 59.5559C42.1189 59.793 41.7731 60.1132 41.506 60.4949C41.2258 60.896 41.0155 61.3417 40.884 61.8129C40.7449 62.2929 40.6739 62.7901 40.673 63.2899V67.5759C40.6874 67.6711 40.6792 67.7684 40.6491 67.8599C40.619 67.9514 40.5679 68.0346 40.4998 68.1027C40.4317 68.1708 40.3485 68.222 40.257 68.252C40.1655 68.2821 40.0682 68.2903 39.973 68.2759H39.318C39.2227 68.2905 39.1253 68.2825 39.0337 68.2525C38.9421 68.2225 38.8589 68.1713 38.7907 68.1032C38.7226 68.035 38.6714 67.9518 38.6414 67.8602C38.6114 67.7686 38.6034 67.6712 38.618 67.5759L38.628 58.2939Z" fill="#4E2C61"/>
<path d="M56.558 62.9349C56.5472 62.149 56.6867 61.3684 56.969 60.6349C57.2209 59.9792 57.601 59.3802 58.087 58.8729C58.5643 58.3826 59.1394 57.9983 59.775 57.7449C60.4482 57.4737 61.1682 57.3378 61.894 57.3449C62.5669 57.3338 63.2347 57.4628 63.855 57.7239C64.4106 57.9617 64.9047 58.3228 65.3 58.7799C65.6982 59.2494 65.9993 59.7933 66.186 60.3799C66.3958 61.0413 66.4988 61.732 66.491 62.4259C66.4927 62.5193 66.4759 62.6121 66.4416 62.6989C66.4073 62.7858 66.3561 62.865 66.291 62.9319C66.2246 63.0016 66.1442 63.0565 66.0551 63.0928C65.966 63.1292 65.8702 63.1463 65.774 63.1429H58.644C58.6615 63.6747 58.7831 64.1979 59.002 64.6829C59.1989 65.1132 59.4789 65.5003 59.826 65.8219C60.158 66.1296 60.5484 66.3677 60.974 66.5219C61.4108 66.6774 61.8713 66.7556 62.335 66.7529C62.8627 66.765 63.3873 66.6683 63.876 66.4689C64.2336 66.3225 64.5729 66.1349 64.887 65.9099C64.9609 65.8512 65.0472 65.8102 65.1394 65.79C65.2316 65.7698 65.3271 65.7709 65.4188 65.7933C65.5105 65.8157 65.5958 65.8587 65.6683 65.9192C65.7408 65.9796 65.7985 66.0558 65.837 66.1419L66.026 66.4589C66.1306 66.6091 66.1723 66.7944 66.142 66.9749C66.1191 67.0624 66.0782 67.1442 66.0219 67.215C65.9656 67.2857 65.8951 67.344 65.815 67.3859C65.6261 67.521 65.4291 67.6442 65.225 67.7549C64.9638 67.8986 64.692 68.0219 64.412 68.1239C64.0824 68.2447 63.7441 68.3399 63.4 68.4089C62.2295 68.6369 61.0183 68.5269 59.908 68.0919C59.2417 67.819 58.6358 67.4174 58.125 66.9099C57.6221 66.4043 57.2277 65.8013 56.966 65.1379C56.6892 64.4367 56.5507 63.6887 56.558 62.9349ZM64.448 61.7959C64.463 61.4063 64.4007 61.0176 64.2648 60.6522C64.1289 60.2868 63.922 59.952 63.656 59.6669C63.4184 59.4341 63.1369 59.2507 62.828 59.1275C62.519 59.0042 62.1886 58.9435 61.856 58.9489C61.1077 58.935 60.3813 59.2019 59.82 59.6969C59.2237 60.2485 58.8394 60.9915 58.734 61.7969L64.448 61.7959Z" fill="#4E2C61"/>
<path d="M68.306 58.2939C68.2916 58.1987 68.2998 58.1014 68.3299 58.0099C68.3599 57.9184 68.4111 57.8353 68.4792 57.7672C68.5473 57.699 68.6305 57.6479 68.722 57.6178C68.8135 57.5877 68.9108 57.5795 69.006 57.5939H69.597C69.6922 57.5795 69.7895 57.5877 69.881 57.6178C69.9725 57.6479 70.0557 57.699 70.1238 57.7672C70.1919 57.8353 70.243 57.9184 70.2731 58.0099C70.3032 58.1014 70.3114 58.1987 70.297 58.2939V59.2439C70.2966 59.386 70.2826 59.5276 70.255 59.6669C70.2399 59.7284 70.2329 59.7916 70.234 59.8549H70.276C70.4063 59.5791 70.5652 59.3177 70.75 59.0749C70.9866 58.7622 71.2672 58.4854 71.583 58.2529C71.9467 57.9859 72.3446 57.769 72.766 57.6079C73.2624 57.4255 73.7882 57.3363 74.317 57.3449C74.8262 57.3 75.339 57.3685 75.8185 57.5456C76.298 57.7227 76.7322 58.0039 77.09 58.3689C77.7373 59.2553 78.0476 60.3434 77.965 61.4379V67.5759C77.9794 67.6706 77.9714 67.7674 77.9417 67.8585C77.912 67.9495 77.8614 68.0324 77.794 68.1004C77.7265 68.1684 77.6441 68.2197 77.5533 68.2502C77.4625 68.2807 77.3658 68.2895 77.271 68.2759H76.617C76.5217 68.2905 76.4243 68.2825 76.3327 68.2525C76.2411 68.2225 76.1579 68.1714 76.0897 68.1032C76.0216 68.035 75.9704 67.9518 75.9404 67.8602C75.9104 67.7686 75.9024 67.6712 75.917 67.5759V61.9019C75.9183 61.5489 75.8932 61.1962 75.842 60.8469C75.8025 60.5499 75.7061 60.2634 75.558 60.0029C75.4116 59.7592 75.1995 59.5617 74.946 59.4329C74.6235 59.2809 74.2693 59.2085 73.913 59.2219C73.4183 59.2163 72.9286 59.3205 72.479 59.5269C72.0505 59.7253 71.6667 60.0087 71.351 60.3599C71.0273 60.7271 70.778 61.1537 70.617 61.6159C70.4394 62.1136 70.3504 62.6385 70.354 63.1669V67.5759C70.3682 67.6711 70.3598 67.7683 70.3297 67.8597C70.2995 67.9511 70.2483 68.0342 70.1803 68.1022C70.1122 68.1703 70.0292 68.2214 69.9378 68.2516C69.8464 68.2818 69.7492 68.2901 69.654 68.2759H69.001C68.9057 68.2903 68.8085 68.2821 68.717 68.2521C68.6255 68.222 68.5423 68.1708 68.4742 68.1027C68.4061 68.0346 68.3549 67.9514 68.3249 67.8599C68.2948 67.7685 68.2866 67.6712 68.301 67.5759L68.306 58.2939Z" fill="#4E2C61"/>
<path d="M80.753 59.371H80.014C79.9204 59.3828 79.8252 59.3726 79.7362 59.3412C79.6472 59.3098 79.5668 59.2581 79.5013 59.1901C79.4359 59.1221 79.3872 59.0398 79.3592 58.9496C79.3312 58.8595 79.3246 58.7641 79.34 58.671V58.397C79.3256 58.3017 79.3338 58.2044 79.3639 58.1129C79.3939 58.0215 79.4451 57.9383 79.5132 57.8702C79.5813 57.8021 79.6645 57.7509 79.756 57.7208C79.8475 57.6908 79.9448 57.6826 80.04 57.697H80.798V55.363C80.7838 55.2678 80.7921 55.1706 80.8223 55.0792C80.8525 54.9878 80.9036 54.9047 80.9717 54.8367C81.0397 54.7686 81.1228 54.7175 81.2142 54.6873C81.3056 54.6571 81.4028 54.6488 81.498 54.663H82.1C82.1948 54.6496 82.2914 54.6586 82.3821 54.6891C82.4728 54.7197 82.5551 54.771 82.6225 54.839C82.6899 54.9069 82.7405 54.9897 82.7702 55.0807C82.8 55.1716 82.8081 55.2683 82.794 55.363V57.704H84.652C84.7472 57.6896 84.8445 57.6978 84.936 57.7278C85.0275 57.7579 85.1107 57.8091 85.1788 57.8772C85.2469 57.9453 85.298 58.0285 85.3281 58.1199C85.3582 58.2114 85.3664 58.3087 85.352 58.404V58.678C85.3672 58.7712 85.3605 58.8668 85.3323 58.957C85.3041 59.0472 85.2552 59.1295 85.1896 59.1975C85.1239 59.2655 85.0433 59.3172 84.9541 59.3485C84.865 59.3799 84.7697 59.3899 84.676 59.378H82.8V64.116C82.7841 64.5343 82.8563 64.9513 83.012 65.34C83.1273 65.6151 83.3037 65.8603 83.528 66.057C83.7186 66.219 83.9421 66.3377 84.183 66.405C84.3931 66.4644 84.6084 66.5035 84.826 66.522C85.0343 66.523 85.2371 66.5891 85.406 66.711C85.4647 66.7793 85.5089 66.8589 85.5361 66.9448C85.5632 67.0307 85.5727 67.1213 85.564 67.211V67.656C85.564 68.1226 85.2827 68.356 84.72 68.356C84.2052 68.3586 83.6932 68.28 83.203 68.123C82.7381 67.9767 82.3101 67.7322 81.948 67.406C81.5754 67.0644 81.2801 66.647 81.082 66.182C80.853 65.6276 80.7424 65.0316 80.757 64.432L80.753 59.371Z" fill="#4E2C61"/>
<path d="M86.273 62.9349C86.2628 62.1491 86.4022 61.3685 86.684 60.6349C86.9371 59.9793 87.3178 59.3804 87.804 58.8729C88.2811 58.3829 88.8558 57.9985 89.491 57.7449C90.1649 57.4737 90.8856 57.3378 91.612 57.3449C92.2849 57.3339 92.9527 57.4629 93.573 57.7239C94.1284 57.962 94.6224 58.3231 95.018 58.7799C95.4162 59.2494 95.7173 59.7932 95.904 60.3799C96.1138 61.0413 96.2168 61.732 96.209 62.4259C96.2119 62.6144 96.14 62.7964 96.009 62.9319C95.9425 63.0015 95.8621 63.0563 95.773 63.0926C95.6839 63.129 95.5882 63.1461 95.492 63.1429H88.362C88.3795 63.6747 88.5011 64.1979 88.72 64.6829C88.917 65.1129 89.1966 65.4999 89.543 65.8219C89.8754 66.1296 90.2661 66.3676 90.692 66.5219C91.1288 66.6774 91.5893 66.7556 92.053 66.7529C92.5804 66.7652 93.1046 66.6685 93.593 66.4689C93.951 66.3228 94.2907 66.1351 94.605 65.9099C94.6789 65.8512 94.7652 65.8102 94.8574 65.79C94.9496 65.7698 95.0451 65.7709 95.1368 65.7933C95.2284 65.8157 95.3138 65.8587 95.3863 65.9192C95.4587 65.9796 95.5165 66.0558 95.555 66.1419L95.744 66.4589C95.8486 66.6091 95.8903 66.7943 95.86 66.9749C95.8369 67.0623 95.7959 67.144 95.7396 67.2147C95.6833 67.2855 95.613 67.3438 95.533 67.3859C95.3439 67.5212 95.1465 67.6444 94.942 67.7549C94.6813 67.8988 94.4098 68.0222 94.13 68.1239C93.8004 68.2445 93.4621 68.3398 93.118 68.4089C91.9475 68.6369 90.7363 68.5269 89.626 68.0919C88.9595 67.8193 88.3535 67.4176 87.843 66.9099C87.3398 66.4041 86.9448 65.8012 86.682 65.1379C86.4054 64.4366 86.2666 63.6887 86.273 62.9349ZM94.173 61.7959C94.1886 61.4064 94.1268 61.0177 93.9912 60.6523C93.8556 60.2868 93.6489 59.9519 93.383 59.6669C93.1448 59.4335 92.8625 59.2499 92.5526 59.1266C92.2427 59.0033 91.9114 58.9429 91.578 58.9489C90.83 58.9351 90.104 59.202 89.543 59.6969C88.9468 60.2487 88.5623 60.9915 88.456 61.7969L94.173 61.7959Z" fill="#4E2C61"/>
<path d="M97.376 62.9349C97.3656 62.1536 97.4866 61.3761 97.734 60.6349C97.9486 59.9877 98.2884 59.389 98.734 58.8729C99.1586 58.3912 99.6822 58.0068 100.269 57.7459C100.88 57.4745 101.542 57.3381 102.211 57.3459C102.742 57.3297 103.27 57.4265 103.761 57.6299C104.132 57.7922 104.477 58.0097 104.783 58.2749C105.082 58.5297 105.333 58.8367 105.522 59.181H105.563L105.522 58.9699C105.507 58.8969 105.5 58.8225 105.5 58.7479V54.0749C105.486 53.9798 105.494 53.8826 105.524 53.7912C105.554 53.6998 105.606 53.6167 105.674 53.5487C105.742 53.4806 105.825 53.4294 105.916 53.3993C106.008 53.3691 106.105 53.3608 106.2 53.3749H106.853C106.948 53.3606 107.046 53.3687 107.137 53.3988C107.229 53.4289 107.312 53.4801 107.38 53.5482C107.448 53.6163 107.499 53.6994 107.529 53.7909C107.559 53.8824 107.567 53.9797 107.553 54.0749V67.5749C107.567 67.6702 107.559 67.7675 107.529 67.859C107.499 67.9505 107.448 68.0336 107.38 68.1017C107.312 68.1698 107.229 68.221 107.137 68.2511C107.046 68.2812 106.948 68.2893 106.853 68.2749H106.306C105.842 68.2749 105.606 68.0569 105.606 67.6219V67.0099C105.602 66.8829 105.609 66.7558 105.627 66.6299C105.626 66.5801 105.633 66.5303 105.649 66.4829H105.605C105.411 66.8725 105.147 67.2228 104.825 67.516C104.499 67.8005 104.133 68.0363 103.739 68.216C103.217 68.4427 102.652 68.551 102.083 68.5329C101.41 68.5428 100.744 68.4024 100.132 68.1219C99.5561 67.855 99.0473 67.4623 98.643 66.973C98.2196 66.4514 97.9008 65.8532 97.704 65.2109C97.4776 64.4738 97.3669 63.706 97.376 62.9349ZM99.463 62.946C99.4571 63.4765 99.5319 64.0049 99.685 64.5129C99.8144 64.9487 100.026 65.356 100.307 65.7129C100.564 66.0351 100.888 66.2975 101.257 66.4819C101.638 66.6673 102.057 66.7604 102.48 66.7539C102.873 66.7545 103.263 66.6802 103.629 66.5349C104.004 66.3857 104.34 66.1516 104.61 65.8509C104.914 65.5038 105.148 65.1002 105.296 64.6629C105.483 64.1035 105.572 63.5158 105.559 62.926C105.56 62.4569 105.496 61.9899 105.371 61.5379C105.253 61.1075 105.06 60.7012 104.801 60.3379C104.55 59.9881 104.226 59.697 103.851 59.4849C103.445 59.2609 102.986 59.1488 102.522 59.1599C102.114 59.1567 101.711 59.2427 101.34 59.412C100.968 59.5852 100.637 59.8366 100.37 60.1489C100.073 60.498 99.8479 60.9015 99.706 61.3369C99.5363 61.8561 99.4542 62.3999 99.463 62.946Z" fill="#4E2C61"/>
<path d="M2.57699 74.965C2.56343 74.8702 2.57223 74.7735 2.60271 74.6827C2.63319 74.5919 2.68449 74.5095 2.75251 74.442C2.82054 74.3746 2.90339 74.324 2.99446 74.2943C3.08553 74.2646 3.18229 74.2566 3.27699 74.271H8.01999C8.66015 74.2651 9.29609 74.3752 9.89699 74.596C10.4504 74.8001 10.9536 75.1203 11.373 75.535C11.7895 75.9574 12.1161 76.4598 12.333 77.012C12.5715 77.6236 12.6896 78.2756 12.681 78.932C12.6889 79.5916 12.5708 80.2467 12.333 80.862C12.1173 81.4215 11.7907 81.9317 11.373 82.362C10.955 82.7835 10.4518 83.1109 9.89699 83.322C9.29807 83.5514 8.66132 83.6661 8.01999 83.66H4.64399V88.468C4.65839 88.5632 4.65021 88.6605 4.62012 88.752C4.59003 88.8435 4.53888 88.9267 4.47077 88.9948C4.40266 89.0629 4.31951 89.114 4.22801 89.1441C4.13651 89.1742 4.03923 89.1824 3.94399 89.168H3.27299C3.17776 89.1824 3.08047 89.1742 2.98897 89.1441C2.89747 89.114 2.81432 89.0629 2.74622 88.9948C2.67811 88.9267 2.62695 88.8435 2.59686 88.752C2.56677 88.6605 2.5586 88.5632 2.57299 88.468L2.57699 74.965ZM7.67699 81.843C8.0652 81.8647 8.45373 81.8066 8.81867 81.6725C9.18361 81.5384 9.51723 81.3309 9.79899 81.063C10.064 80.7783 10.2689 80.4431 10.4017 80.0776C10.5345 79.712 10.5924 79.3234 10.572 78.935C10.595 78.5509 10.5386 78.1662 10.4063 77.8049C10.2739 77.4436 10.0686 77.1134 9.80299 76.835C9.51994 76.5774 9.18855 76.3787 8.82804 76.2503C8.46754 76.1219 8.08512 76.0664 7.70299 76.087H4.64399V81.845L7.67699 81.843Z" fill="#4E2C61"/>
<path d="M14.327 74.965C14.3134 74.8702 14.3222 74.7735 14.3527 74.6827C14.3832 74.5919 14.4345 74.5095 14.5025 74.442C14.5705 74.3746 14.6534 74.324 14.7445 74.2943C14.8355 74.2646 14.9323 74.2566 15.027 74.271H15.682C15.7752 74.2588 15.87 74.2685 15.9589 74.2994C16.0477 74.3303 16.1281 74.3814 16.1937 74.4488C16.2594 74.5161 16.3084 74.5979 16.3369 74.6875C16.3654 74.7771 16.3726 74.8721 16.358 74.965V79.796C16.358 79.9233 16.3543 80.043 16.347 80.155C16.3419 80.2469 16.3312 80.3384 16.315 80.429C16.3026 80.5128 16.2959 80.5973 16.295 80.682H16.336C16.4728 80.3903 16.6465 80.1174 16.853 79.87C17.1015 79.5671 17.3886 79.2982 17.707 79.07C18.0627 78.8158 18.453 78.6137 18.866 78.47C19.3328 78.3096 19.8235 78.2302 20.317 78.235C20.8279 78.1908 21.3423 78.2597 21.8236 78.4367C22.3049 78.6136 22.7414 78.8944 23.102 79.259C23.7555 80.1428 24.0699 81.2319 23.988 82.328V88.465C24.0022 88.5602 23.9938 88.6574 23.9637 88.7488C23.9335 88.8402 23.8823 88.9232 23.8143 88.9913C23.7462 89.0593 23.6632 89.1105 23.5718 89.1407C23.4804 89.1708 23.3832 89.1792 23.288 89.165H22.637C22.5418 89.1794 22.4445 89.1712 22.353 89.1411C22.2615 89.111 22.1783 89.0599 22.1102 88.9918C22.0421 88.9237 21.9909 88.8405 21.9609 88.749C21.9308 88.6575 21.9226 88.5602 21.937 88.465V82.793C21.9406 82.4391 21.9172 82.0854 21.867 81.735C21.8268 81.4368 21.7268 81.1497 21.573 80.891C21.421 80.6482 21.2061 80.4512 20.951 80.321C20.6285 80.1691 20.2742 80.0968 19.918 80.11C19.4306 80.1075 18.9484 80.2098 18.504 80.41C18.073 80.6043 17.6885 80.8883 17.376 81.243C17.0513 81.6163 16.7975 82.0456 16.627 82.51C16.4407 83.0199 16.3482 83.5592 16.354 84.102V88.468C16.3692 88.5613 16.3625 88.6568 16.3343 88.747C16.3061 88.8372 16.2572 88.9196 16.1916 88.9876C16.1259 89.0555 16.0453 89.1073 15.9561 89.1386C15.867 89.1699 15.7717 89.18 15.678 89.168H15.023C14.9278 89.1824 14.8305 89.1742 14.739 89.1441C14.6475 89.114 14.5643 89.0629 14.4962 88.9948C14.4281 88.9267 14.377 88.8435 14.3469 88.752C14.3168 88.6605 14.3086 88.5632 14.323 88.468L14.327 74.965Z" fill="#4E2C61"/>
<path d="M25.591 91.6289C25.7358 91.5877 25.8892 91.5877 26.034 91.6289C26.146 91.6729 26.27 91.7209 26.403 91.7789C26.5542 91.8382 26.7157 91.8668 26.878 91.8629C27.0878 91.8652 27.2958 91.8231 27.4882 91.7396C27.6807 91.656 27.8534 91.5328 27.995 91.3779C28.3046 91.0554 28.5484 90.6756 28.713 90.2599L29.24 89.0359L25.106 79.2909C25.0502 79.2049 25.0196 79.105 25.0176 79.0025C25.0157 78.9 25.0425 78.799 25.095 78.7109C25.1597 78.6325 25.2427 78.5712 25.3367 78.5325C25.4307 78.4938 25.5328 78.4788 25.634 78.4889H26.456C26.6296 78.4766 26.8021 78.5245 26.9446 78.6245C27.087 78.7245 27.1906 78.8705 27.238 79.0379L29.749 85.4689C29.791 85.6099 29.836 85.7539 29.886 85.9019C29.936 86.0499 29.973 86.1859 30.002 86.3129C30.044 86.4679 30.087 86.6129 30.128 86.7559H30.172L30.272 86.3329C30.301 86.2079 30.336 86.0699 30.372 85.9229C30.4147 85.7762 30.4647 85.6316 30.522 85.4899L32.949 79.0579C32.9924 78.887 33.0941 78.7366 33.2364 78.6326C33.3788 78.5285 33.553 78.4774 33.729 78.4879H34.488C34.5892 78.4778 34.6913 78.4928 34.7853 78.5315C34.8793 78.5702 34.9623 78.6315 35.027 78.7099C35.0794 78.7972 35.108 78.8968 35.1097 78.9986C35.1115 79.1004 35.0864 79.2009 35.037 79.2899L30.337 91.0399C30.074 91.8031 29.5859 92.4687 28.937 92.9489C28.3369 93.3756 27.6172 93.6014 26.881 93.5939C26.5991 93.5972 26.3183 93.5581 26.048 93.4779C25.8013 93.3993 25.5863 93.3253 25.403 93.2559C25.3165 93.225 25.2383 93.1747 25.1743 93.1089C25.1103 93.043 25.0623 92.9633 25.034 92.8759C24.9853 92.7002 25.0039 92.5127 25.086 92.3499L25.256 91.9909C25.2813 91.9094 25.3245 91.8346 25.3825 91.772C25.4404 91.7093 25.5117 91.6605 25.591 91.6289Z" fill="#4E2C61"/>
<path d="M37.215 91.719C37.243 91.6323 37.2896 91.5529 37.3515 91.4862C37.4135 91.4195 37.4894 91.3672 37.5737 91.3329C37.6581 91.2987 37.7489 91.2834 37.8399 91.2881C37.9308 91.2927 38.0196 91.3173 38.1 91.36C38.3533 91.4586 38.67 91.5603 39.05 91.665C39.9231 91.8763 40.8339 91.8763 41.707 91.665C42.0947 91.57 42.458 91.3942 42.773 91.149C43.0826 90.8985 43.3315 90.5813 43.501 90.221C43.6954 89.7826 43.789 89.3063 43.775 88.827V87.654C43.7743 87.5794 43.7813 87.505 43.796 87.432C43.81 87.363 43.825 87.292 43.837 87.221H43.796C43.5054 87.7627 43.0805 88.2207 42.562 88.551C41.9779 88.8929 41.3083 89.0608 40.632 89.035C39.9375 89.0463 39.2492 88.9028 38.617 88.615C38.0338 88.3445 37.5155 87.952 37.097 87.464C36.6696 86.9559 36.3471 86.3683 36.148 85.735C35.9241 85.0289 35.8138 84.2917 35.821 83.551C35.8147 82.836 35.9217 82.1245 36.138 81.443C36.3318 80.8262 36.6436 80.2529 37.056 79.755C37.4597 79.274 37.968 78.8916 38.542 78.637C39.188 78.3591 39.8859 78.2227 40.589 78.237C41.1476 78.2175 41.7042 78.3135 42.224 78.519C42.5953 78.6725 42.9406 78.8823 43.248 79.141C43.5349 79.3833 43.765 79.6858 43.922 80.027H43.964C43.9465 80.0023 43.939 79.9719 43.943 79.942C43.925 79.8589 43.918 79.7739 43.922 79.689V79.079C43.922 78.686 44.154 78.488 44.622 78.488H45.129C45.2242 78.4738 45.3214 78.4821 45.4128 78.5123C45.5042 78.5425 45.5872 78.5936 45.6553 78.6617C45.7233 78.7297 45.7745 78.8128 45.8047 78.9042C45.8348 78.9956 45.8432 79.0928 45.829 79.188V88.719C45.8525 89.4937 45.6935 90.263 45.365 90.965C45.0757 91.5505 44.6612 92.0653 44.151 92.473C43.6475 92.869 43.0693 93.1594 42.451 93.327C41.826 93.5018 41.18 93.5906 40.531 93.591C39.9648 93.5937 39.3998 93.5408 38.844 93.433C38.3579 93.3424 37.8835 93.1971 37.43 93C37.3375 92.973 37.2526 92.925 37.1816 92.8598C37.1107 92.7946 37.0557 92.714 37.021 92.6242C36.9863 92.5343 36.9727 92.4377 36.9814 92.3417C36.9901 92.2458 37.0207 92.1531 37.071 92.071L37.215 91.719ZM40.99 87.265C41.3529 87.2652 41.7133 87.2044 42.056 87.085C42.4052 86.9614 42.717 86.7508 42.962 86.473C43.2451 86.1437 43.4569 85.7592 43.584 85.344C43.7527 84.7836 43.8314 84.2 43.817 83.615C43.8325 83.0216 43.7504 82.4297 43.574 81.863C43.4434 81.4516 43.2239 81.074 42.931 80.757C42.6721 80.4871 42.349 80.2873 41.992 80.176C41.6267 80.0629 41.2464 80.0062 40.864 80.008C40.4485 79.9803 40.0324 80.0509 39.6493 80.2141C39.2662 80.3772 38.927 80.6283 38.659 80.947C38.1274 81.6764 37.8629 82.5666 37.91 83.468C37.8596 84.4546 38.1463 85.4289 38.723 86.231C38.9912 86.5714 39.3369 86.8429 39.7312 87.0227C40.1255 87.2026 40.5571 87.2856 40.99 87.265Z" fill="#4E2C61"/>
<path d="M49.048 76.3579C48.9528 76.3723 48.8555 76.3641 48.764 76.334C48.6725 76.304 48.5893 76.2528 48.5212 76.1847C48.4531 76.1166 48.4019 76.0334 48.3719 75.9419C48.3418 75.8504 48.3336 75.7532 48.348 75.6579V74.9579C48.3344 74.8631 48.3432 74.7664 48.3737 74.6756C48.4042 74.5848 48.4555 74.5024 48.5235 74.4349C48.5915 74.3675 48.6744 74.3169 48.7655 74.2872C48.8565 74.2575 48.9533 74.2495 49.048 74.2639H49.769C49.8637 74.2495 49.9604 74.2575 50.0515 74.2872C50.1426 74.3169 50.2254 74.3675 50.2935 74.4349C50.3615 74.5024 50.4128 74.5848 50.4433 74.6756C50.4737 74.7664 50.4826 74.8631 50.469 74.9579V75.6579C50.4834 75.7532 50.4752 75.8504 50.4451 75.9419C50.415 76.0334 50.3639 76.1166 50.2958 76.1847C50.2277 76.2528 50.1445 76.304 50.053 76.334C49.9615 76.3641 49.8642 76.3723 49.769 76.3579H49.048ZM48.369 79.1849C48.3548 79.0897 48.3631 78.9925 48.3933 78.9011C48.4235 78.8097 48.4746 78.7267 48.5427 78.6586C48.6107 78.5906 48.6938 78.5394 48.7852 78.5092C48.8766 78.4791 48.9738 78.4707 49.069 78.4849H49.722C49.8171 78.471 49.9142 78.4794 50.0055 78.5097C50.0968 78.5399 50.1798 78.5911 50.2478 78.6591C50.3158 78.7271 50.367 78.8101 50.3972 78.9014C50.4275 78.9927 50.4359 79.0898 50.422 79.1849V88.4649C50.4362 88.5601 50.4278 88.6573 50.3977 88.7487C50.3675 88.8401 50.3163 88.9232 50.2483 88.9912C50.1802 89.0593 50.0972 89.1104 50.0058 89.1406C49.9144 89.1708 49.8172 89.1791 49.722 89.1649H49.069C48.9738 89.1791 48.8766 89.1708 48.7852 89.1406C48.6938 89.1104 48.6107 89.0593 48.5427 88.9912C48.4746 88.9232 48.4235 88.8401 48.3933 88.7487C48.3631 88.6573 48.3548 88.5601 48.369 88.4649V79.1849Z" fill="#4E2C61"/>
<path d="M53.456 80.259H52.717C52.6237 80.2719 52.5286 80.2627 52.4396 80.2321C52.3505 80.2014 52.2699 80.1503 52.2042 80.0827C52.1386 80.0151 52.0898 79.933 52.0618 79.8431C52.0338 79.7532 52.0273 79.6579 52.043 79.565V79.289C52.0286 79.1938 52.0368 79.0965 52.0669 79.005C52.0969 78.9135 52.1481 78.8303 52.2162 78.7622C52.2843 78.6941 52.3675 78.643 52.459 78.6129C52.5505 78.5828 52.6478 78.5746 52.743 78.589H53.499V76.253C53.4846 76.1578 53.4928 76.0605 53.5229 75.969C53.5529 75.8775 53.6041 75.7943 53.6722 75.7262C53.7403 75.6581 53.8235 75.607 53.915 75.5769C54.0065 75.5468 54.1038 75.5386 54.199 75.553H54.811C54.9063 75.5384 55.0036 75.5464 55.0952 75.5764C55.1868 75.6064 55.2701 75.6576 55.3383 75.7257C55.4064 75.7939 55.4576 75.8771 55.4876 75.9687C55.5176 76.0603 55.5256 76.1577 55.511 76.253V78.589H57.367C57.4622 78.5748 57.5594 78.5832 57.6508 78.6133C57.7422 78.6435 57.8252 78.6946 57.8933 78.7627C57.9613 78.8308 58.0125 78.9138 58.0427 79.0052C58.0728 79.0966 58.0812 79.1938 58.067 79.289V79.565C58.0816 79.6579 58.0744 79.7529 58.0459 79.8425C58.0174 79.9321 57.9684 80.0139 57.9027 80.0812C57.8371 80.1486 57.7567 80.1997 57.6679 80.2306C57.579 80.2615 57.4842 80.2712 57.391 80.259H55.499V85.006C55.4824 85.4241 55.5547 85.8409 55.711 86.229C55.8265 86.5042 56.0029 86.7497 56.227 86.947C56.4174 87.1082 56.64 87.2268 56.88 87.295C57.0907 87.3547 57.3067 87.3935 57.525 87.411C57.7332 87.4125 57.9358 87.4785 58.105 87.6C58.1643 87.6692 58.2089 87.7497 58.2361 87.8367C58.2632 87.9237 58.2724 88.0153 58.263 88.106V88.55C58.263 89.0167 57.9817 89.25 57.419 89.25C56.9039 89.2529 56.3916 89.1746 55.901 89.018C55.4363 88.8712 55.0084 88.6267 54.646 88.301C54.2742 87.9588 53.9794 87.5416 53.781 87.077C53.5509 86.5229 53.4395 85.9268 53.454 85.327L53.456 80.259Z" fill="#4E2C61"/>
<path d="M58.878 86.2509C58.8616 85.7832 58.9584 85.3185 59.1602 84.8963C59.362 84.4741 59.6628 84.1069 60.037 83.8259C60.4014 83.5516 60.8031 83.3307 61.23 83.1699C61.6774 83.0007 62.1398 82.8742 62.611 82.7919C63.0739 82.7078 63.5414 82.6511 64.011 82.6219C64.4683 82.5932 64.8797 82.5792 65.245 82.5799H65.795V82.3059C65.8044 81.9285 65.7431 81.5527 65.614 81.1979C65.5102 80.9191 65.3403 80.6697 65.119 80.4709C64.9053 80.2872 64.6531 80.1539 64.381 80.0809C64.0849 80.0017 63.7795 79.9627 63.473 79.9649C62.9883 79.9567 62.506 80.0353 62.049 80.1969C61.7105 80.3178 61.3825 80.4659 61.068 80.6399C60.9907 80.6915 60.9033 80.7261 60.8116 80.7412C60.72 80.7564 60.6261 80.7519 60.5363 80.728C60.4465 80.704 60.3628 80.6612 60.2909 80.6024C60.2189 80.5436 60.1603 80.4701 60.119 80.3869L59.949 80.0929C59.8902 80.019 59.849 79.9326 59.8288 79.8404C59.8085 79.7481 59.8097 79.6524 59.8322 79.5607C59.8547 79.4689 59.8979 79.3836 59.9586 79.3112C60.0192 79.2387 60.0956 79.1812 60.182 79.1429C60.6183 78.9095 61.0728 78.7119 61.541 78.5519C62.2176 78.3262 62.928 78.219 63.641 78.2349C64.2025 78.1992 64.7655 78.275 65.2976 78.458C65.8296 78.641 66.3202 78.9274 66.741 79.3009C67.128 79.7164 67.4254 80.2071 67.6146 80.7425C67.8039 81.2779 67.8809 81.8465 67.841 82.4129V88.4659C67.8554 88.5611 67.8472 88.6584 67.8171 88.7499C67.787 88.8414 67.7359 88.9246 67.6678 88.9927C67.5997 89.0608 67.5165 89.1119 67.425 89.142C67.3335 89.1721 67.2362 89.1803 67.141 89.1659H66.614C66.5188 89.1803 66.4215 89.1721 66.33 89.142C66.2385 89.1119 66.1553 89.0608 66.0872 88.9927C66.0191 88.9246 65.968 88.8414 65.9379 88.7499C65.9078 88.6584 65.8996 88.5611 65.914 88.4659V87.5589C65.912 87.488 65.9191 87.4171 65.935 87.3479C65.949 87.2919 65.962 87.2359 65.977 87.1799H65.935C65.7304 87.5933 65.4603 87.9709 65.135 88.2979C64.8166 88.606 64.4544 88.8651 64.06 89.0669C63.5633 89.3123 63.0138 89.4318 62.46 89.4149C62.0018 89.4153 61.5463 89.3441 61.11 89.2039C60.6904 89.0728 60.3002 88.8616 59.961 88.5819C59.6311 88.3097 59.3614 87.9719 59.169 87.5899C58.9666 87.1732 58.8668 86.7141 58.878 86.2509ZM60.945 86.0829C60.9537 86.5233 61.1329 86.9431 61.445 87.2539C61.6406 87.4437 61.8744 87.5897 62.1308 87.6823C62.3871 87.7749 62.6602 87.8119 62.932 87.7909C63.3561 87.7974 63.7744 87.6922 64.145 87.4859C64.4996 87.2856 64.8083 87.013 65.051 86.6859C65.2988 86.3522 65.4912 85.9808 65.621 85.5859C65.7522 85.2021 65.8198 84.7995 65.821 84.3939V83.9299H65.272C64.893 83.9299 64.455 83.9469 63.964 83.9839C63.484 84.0162 63.0095 84.1045 62.55 84.2469C62.127 84.3725 61.7379 84.5924 61.412 84.8899C61.2535 85.0439 61.1298 85.23 61.0493 85.4358C60.9687 85.6416 60.9332 85.8622 60.945 86.0829Z" fill="#4E2C61"/>
<path d="M70.226 74.965C70.2124 74.8702 70.2212 74.7735 70.2517 74.6827C70.2822 74.5919 70.3335 74.5095 70.4015 74.442C70.4695 74.3746 70.5524 74.324 70.6435 74.2943C70.7345 74.2646 70.8313 74.2566 70.926 74.271H71.579C71.6737 74.2568 71.7703 74.265 71.8613 74.2947C71.9523 74.3245 72.035 74.3751 72.103 74.4425C72.171 74.5099 72.2223 74.5922 72.2528 74.6829C72.2834 74.7736 72.2923 74.8702 72.279 74.965V85.998C72.2722 86.2398 72.3005 86.4813 72.363 86.715C72.4044 86.8729 72.4841 87.0182 72.595 87.138C72.6823 87.2301 72.7913 87.2988 72.912 87.338C73.0222 87.3731 73.1353 87.3982 73.25 87.413C73.3938 87.4357 73.5286 87.4973 73.64 87.591C73.6965 87.6474 73.7399 87.7154 73.7672 87.7904C73.7945 87.8654 73.805 87.9455 73.798 88.025V88.525C73.8098 88.7145 73.7538 88.902 73.64 89.054C73.5662 89.1243 73.4779 89.1776 73.3814 89.2103C73.2848 89.2429 73.1823 89.2541 73.081 89.243C72.7691 89.2401 72.4581 89.2083 72.152 89.148C71.8163 89.0859 71.4988 88.9492 71.223 88.748C70.9158 88.512 70.673 88.2025 70.517 87.848C70.3059 87.342 70.2086 86.7958 70.232 86.248L70.226 74.965Z" fill="#4E2C61"/>
<path d="M1.353 102.48C1.34397 101.431 1.54139 100.391 1.934 99.4189C2.30508 98.4996 2.85738 97.6644 3.558 96.9629C4.2734 96.253 5.12334 95.6931 6.058 95.3159C7.07666 94.9066 8.16623 94.7026 9.264 94.7159C9.80038 94.7129 10.3359 94.7588 10.864 94.8529C11.322 94.9356 11.7733 95.0522 12.214 95.2019C12.5849 95.3257 12.9445 95.4809 13.289 95.6659C13.5636 95.8141 13.8306 95.976 14.089 96.1509C14.2181 96.2303 14.329 96.3361 14.4143 96.4614C14.4996 96.5868 14.5575 96.7287 14.584 96.8779C14.6098 97.1894 14.524 97.4999 14.342 97.7539L13.813 98.6189C13.7457 98.7563 13.6484 98.8768 13.5283 98.9715C13.4082 99.0662 13.2683 99.1326 13.119 99.1659C12.8055 99.1983 12.4908 99.1163 12.233 98.9349C11.8324 98.7156 11.4167 98.5251 10.989 98.3649C10.4899 98.1784 9.96075 98.0855 9.42799 98.0909C8.76165 98.0727 8.09923 98.1986 7.486 98.4599C6.98143 98.6837 6.53167 99.0147 6.168 99.4299C5.82359 99.83 5.56522 100.297 5.409 100.801C5.24791 101.317 5.1673 101.854 5.17 102.395C5.16955 102.957 5.25452 103.515 5.422 104.051C5.58564 104.582 5.85125 105.077 6.204 105.507C6.56658 105.944 7.02055 106.297 7.534 106.54C8.12936 106.813 8.77922 106.946 9.434 106.93C10.0307 106.935 10.6219 106.816 11.17 106.58C11.6381 106.38 12.0864 106.136 12.509 105.852C12.62 105.738 12.7559 105.652 12.9059 105.6C13.056 105.548 13.2162 105.531 13.3737 105.552C13.5312 105.572 13.6819 105.629 13.8136 105.718C13.9454 105.807 14.0548 105.925 14.133 106.063L14.725 106.886C14.9075 107.136 15.0002 107.441 14.988 107.75C14.9706 107.901 14.9211 108.048 14.8428 108.178C14.7645 108.309 14.6593 108.422 14.534 108.509C14.2947 108.692 14.0063 108.889 13.669 109.1C13.2972 109.328 12.906 109.522 12.5 109.681C12.0203 109.867 11.5264 110.015 11.023 110.122C10.444 110.246 9.85316 110.307 9.261 110.303C8.13979 110.319 7.02603 110.118 5.981 109.712C5.04968 109.351 4.20507 108.797 3.50236 108.087C2.79965 107.377 2.25466 106.527 1.903 105.592C1.52826 104.598 1.34176 103.542 1.353 102.48Z" fill="#4E2C61"/>
<path d="M15.233 104.653C15.2217 103.848 15.3866 103.05 15.716 102.315C16.0259 101.63 16.4747 101.017 17.034 100.515C17.6044 100.008 18.2666 99.6142 18.985 99.3559C19.7488 99.0778 20.5562 98.9386 21.369 98.9449C22.192 98.9382 23.0096 99.0773 23.784 99.3559C24.5065 99.6124 25.1727 100.006 25.746 100.515C26.3049 101.018 26.7536 101.63 27.064 102.315C27.3949 103.05 27.5608 103.849 27.55 104.656C27.5604 105.452 27.3944 106.241 27.064 106.965C26.752 107.647 26.3034 108.257 25.746 108.759C25.177 109.266 24.5142 109.656 23.795 109.908C22.2364 110.444 20.5436 110.444 18.985 109.908C18.2658 109.656 17.603 109.266 17.034 108.759C16.4759 108.257 16.0272 107.645 15.716 106.962C15.3866 106.237 15.2217 105.449 15.233 104.653ZM18.924 104.653C18.9181 105.025 18.9861 105.395 19.124 105.741C19.2475 106.046 19.4308 106.323 19.663 106.556C19.8845 106.779 20.1502 106.953 20.443 107.068C21.0539 107.306 21.7321 107.306 22.343 107.068C22.6355 106.953 22.901 106.778 23.123 106.556C23.3552 106.323 23.5385 106.046 23.662 105.741C23.7999 105.395 23.8679 105.025 23.862 104.653C23.8675 104.277 23.7996 103.903 23.662 103.553C23.5387 103.241 23.3556 102.956 23.123 102.715C22.9013 102.487 22.6361 102.305 22.343 102.181C21.7347 101.929 21.0513 101.929 20.443 102.181C20.1495 102.304 19.8842 102.486 19.663 102.715C19.4304 102.956 19.2473 103.241 19.124 103.553C18.9864 103.903 18.9185 104.277 18.924 104.653Z" fill="#4E2C61"/>
<path d="M28.675 100.351C28.6522 100.193 28.6665 100.032 28.7168 99.881C28.7671 99.7298 28.852 99.5923 28.9647 99.4796C29.0774 99.3669 29.2148 99.282 29.3661 99.2318C29.5173 99.1815 29.6782 99.1671 29.836 99.1899H31.017C31.1734 99.169 31.3326 99.1848 31.4819 99.2361C31.6312 99.2874 31.7664 99.3728 31.877 99.4854C31.9875 99.5981 32.0703 99.735 32.1187 99.8852C32.1672 100.035 32.1799 100.195 32.156 100.351V100.539C32.1558 100.568 32.1525 100.596 32.146 100.624C32.1386 100.652 32.1349 100.68 32.135 100.709V100.815H32.175C32.3159 100.582 32.4783 100.363 32.66 100.161C32.8679 99.9265 33.1096 99.7243 33.377 99.5609C33.6841 99.3723 34.0137 99.2232 34.358 99.1169C34.7714 98.9926 35.2014 98.9326 35.633 98.9389C36.1541 98.9349 36.6731 99.006 37.174 99.1499C37.6329 99.28 38.0553 99.5149 38.408 99.8359C38.7746 100.185 39.0562 100.614 39.231 101.09C39.4502 101.706 39.5536 102.357 39.536 103.01V108.896C39.558 109.053 39.5432 109.214 39.4926 109.365C39.442 109.515 39.3571 109.652 39.2445 109.765C39.1319 109.877 38.9947 109.962 38.8438 110.012C38.6929 110.062 38.5324 110.076 38.375 110.054H37.045C36.8873 110.076 36.7266 110.062 36.5755 110.011C36.4245 109.961 36.2872 109.876 36.1746 109.763C36.062 109.651 35.9771 109.513 35.9267 109.362C35.8763 109.211 35.8616 109.051 35.884 108.893V103.682C35.9194 103.292 35.8152 102.902 35.59 102.582C35.4729 102.463 35.331 102.371 35.1745 102.312C35.018 102.254 34.8505 102.231 34.684 102.244C34.3183 102.235 33.9558 102.315 33.628 102.477C33.3372 102.628 33.0848 102.844 32.89 103.108C32.6877 103.387 32.5407 103.703 32.457 104.038C32.3647 104.397 32.3186 104.767 32.32 105.138V108.893C32.3426 109.051 32.3281 109.211 32.2777 109.363C32.2274 109.514 32.1425 109.651 32.0298 109.764C31.9172 109.876 31.7798 109.961 31.6287 110.012C31.4775 110.062 31.3167 110.077 31.159 110.054H29.832C29.6746 110.076 29.5142 110.061 29.3636 110.01C29.213 109.959 29.0762 109.875 28.964 109.762C28.8518 109.649 28.7673 109.512 28.7172 109.361C28.667 109.211 28.6526 109.05 28.675 108.893V100.351Z" fill="#4E2C61"/>
<path d="M40.208 100.518C40.1207 100.369 40.0784 100.198 40.0862 100.025C40.094 99.8528 40.1517 99.6862 40.2522 99.5457C40.3527 99.4053 40.4917 99.2969 40.6524 99.2338C40.8132 99.1706 40.9888 99.1554 41.158 99.1899H42.572C42.8679 99.1671 43.1619 99.253 43.3989 99.4316C43.6358 99.6102 43.7994 99.8692 43.859 100.16L45.273 104.97C45.329 105.152 45.373 105.349 45.42 105.56C45.467 105.771 45.504 105.975 45.546 106.173C45.59 106.397 45.631 106.622 45.673 106.847H45.714C45.7429 106.62 45.7854 106.395 45.841 106.173C45.868 105.973 45.908 105.773 45.958 105.56C46.008 105.347 46.058 105.152 46.116 104.97L47.507 100.16C47.5663 99.8691 47.7299 99.61 47.9669 99.4314C48.2039 99.2527 48.4981 99.1669 48.794 99.1899H50.25C50.4178 99.1724 50.5873 99.1959 50.744 99.2582C50.9008 99.3206 51.0401 99.42 51.15 99.5479C51.2386 99.6925 51.2898 99.857 51.2989 100.026C51.308 100.196 51.2747 100.365 51.202 100.518L48.27 109.104C48.1969 109.39 48.0262 109.641 47.7874 109.815C47.5485 109.988 47.2566 110.073 46.962 110.054H44.491C44.1963 110.073 43.9043 109.988 43.6654 109.815C43.4264 109.641 43.2554 109.39 43.182 109.104L40.208 100.518Z" fill="#4E2C61"/>
<path d="M51.41 104.615C51.4028 103.852 51.535 103.095 51.8 102.38C52.0457 101.704 52.4309 101.088 52.9305 100.571C53.4302 100.054 54.0331 99.6484 54.7 99.38C55.4507 99.0769 56.2545 98.9269 57.064 98.939C57.7974 98.9259 58.5258 99.062 59.205 99.339C59.803 99.5845 60.3408 99.9566 60.7814 100.43C61.2219 100.903 61.5547 101.466 61.757 102.08C61.9792 102.739 62.0897 103.431 62.084 104.127C62.0752 104.43 61.9552 104.719 61.747 104.939C61.6382 105.067 61.5021 105.168 61.3487 105.236C61.1953 105.303 61.0286 105.336 60.861 105.33H55.144C55.1901 105.624 55.2962 105.905 55.4559 106.157C55.6156 106.408 55.8253 106.623 56.072 106.79C56.5492 107.096 57.1053 107.255 57.672 107.249C58.0292 107.25 58.3847 107.201 58.728 107.102C59.0474 107.01 59.358 106.89 59.656 106.743C59.9349 106.6 60.2519 106.548 60.562 106.595C60.7073 106.64 60.841 106.717 60.9539 106.819C61.0668 106.921 61.1562 107.046 61.216 107.186L61.516 107.738C61.6743 108.01 61.7337 108.328 61.684 108.638C61.6458 108.788 61.5749 108.928 61.4764 109.047C61.3778 109.167 61.2541 109.263 61.114 109.329C60.6259 109.596 60.1136 109.816 59.584 109.987C58.8728 110.212 58.1298 110.32 57.384 110.306C56.5017 110.323 55.6253 110.158 54.81 109.82C54.1071 109.526 53.4715 109.093 52.942 108.545C52.442 108.018 52.0535 107.396 51.8 106.715C51.5437 106.044 51.4115 105.333 51.41 104.615ZM58.474 103.239C58.4849 102.82 58.3427 102.412 58.074 102.09C57.9392 101.932 57.7699 101.807 57.5792 101.725C57.3885 101.642 57.1815 101.605 56.974 101.615C56.7501 101.598 56.5254 101.634 56.3173 101.718C56.1092 101.802 55.9233 101.933 55.774 102.101C55.5023 102.431 55.3137 102.821 55.224 103.239H58.474Z" fill="#4E2C61"/>
<path d="M63.159 100.351C63.1362 100.193 63.1505 100.032 63.2008 99.881C63.2511 99.7298 63.336 99.5923 63.4487 99.4796C63.5614 99.3669 63.6988 99.282 63.8501 99.2318C64.0013 99.1815 64.1622 99.1671 64.32 99.1899H65.499C65.6554 99.169 65.8146 99.1848 65.9639 99.2361C66.1132 99.2874 66.2484 99.3728 66.359 99.4854C66.4695 99.5981 66.5523 99.735 66.6007 99.8852C66.6492 100.035 66.6619 100.195 66.638 100.351V100.539C66.6378 100.568 66.6345 100.596 66.628 100.624C66.6206 100.652 66.617 100.68 66.617 100.709V100.815H66.659C66.8003 100.583 66.9627 100.364 67.144 100.161C67.3519 99.9265 67.5936 99.7243 67.861 99.5609C68.1681 99.3723 68.4977 99.2232 68.842 99.1169C69.2554 98.9926 69.6854 98.9326 70.117 98.9389C70.6381 98.9349 71.1571 99.006 71.658 99.1499C72.117 99.2798 72.5395 99.5146 72.892 99.8359C73.2586 100.185 73.5402 100.614 73.715 101.09C73.9342 101.706 74.0376 102.357 74.02 103.01V108.896C74.0425 109.053 74.028 109.214 73.9778 109.365C73.9275 109.516 73.8428 109.653 73.7304 109.766C73.618 109.878 73.4809 109.963 73.33 110.014C73.1791 110.064 73.0186 110.079 72.861 110.057H71.531C71.3734 110.079 71.2129 110.064 71.062 110.014C70.9111 109.963 70.774 109.878 70.6616 109.766C70.5491 109.653 70.4645 109.516 70.4142 109.365C70.3639 109.214 70.3495 109.053 70.372 108.896V103.682C70.4056 103.291 70.2993 102.901 70.072 102.582C69.9549 102.463 69.813 102.371 69.6565 102.312C69.5 102.254 69.3325 102.231 69.166 102.244C68.8003 102.235 68.4378 102.315 68.11 102.477C67.8192 102.628 67.5668 102.844 67.372 103.108C67.1699 103.387 67.0235 103.703 66.941 104.038C66.8477 104.397 66.8013 104.767 66.803 105.138V108.893C66.8256 109.051 66.8111 109.211 66.7607 109.363C66.7104 109.514 66.6255 109.651 66.5128 109.764C66.4002 109.876 66.2628 109.961 66.1117 110.012C65.9605 110.062 65.7997 110.077 65.642 110.054H64.32C64.1623 110.077 64.0015 110.062 63.8503 110.012C63.6992 109.961 63.5618 109.876 63.4492 109.764C63.3365 109.651 63.2516 109.514 63.2013 109.363C63.1509 109.211 63.1364 109.051 63.159 108.893V100.351Z" fill="#4E2C61"/>
<path d="M75.605 100.351C75.5822 100.194 75.5963 100.033 75.6462 99.8823C75.6962 99.7314 75.7806 99.5942 75.8928 99.4815C76.0049 99.3689 76.1418 99.2839 76.2925 99.2333C76.4432 99.1827 76.6036 99.1679 76.761 99.19H78.09C78.2477 99.1674 78.4085 99.1819 78.5597 99.2323C78.7108 99.2826 78.8482 99.3675 78.9608 99.4802C79.0735 99.5928 79.1584 99.7302 79.2087 99.8813C79.2591 100.032 79.2736 100.193 79.251 100.351V108.893C79.2734 109.051 79.2587 109.211 79.2083 109.362C79.1578 109.513 79.073 109.651 78.9604 109.763C78.8478 109.876 78.7105 109.961 78.5594 110.011C78.4084 110.062 78.2477 110.076 78.09 110.054H76.761C76.6034 110.076 76.4427 110.062 76.2917 110.011C76.1407 109.961 76.0036 109.876 75.8911 109.763C75.7786 109.651 75.6939 109.513 75.6438 109.362C75.5936 109.211 75.5793 109.051 75.602 108.893L75.605 100.351ZM76.805 97.818C76.6474 97.8407 76.4867 97.8264 76.3357 97.7762C76.1846 97.726 76.0473 97.6414 75.9346 97.5289C75.8219 97.4164 75.737 97.2792 75.6866 97.1283C75.6361 96.9773 75.6216 96.8166 75.644 96.659V96.13C75.6216 95.9723 75.6363 95.8116 75.6867 95.6605C75.7371 95.5095 75.822 95.3722 75.9346 95.2596C76.0472 95.147 76.1845 95.0621 76.3355 95.0117C76.4866 94.9613 76.6473 94.9466 76.805 94.969H78.05C78.2078 94.9462 78.3687 94.9606 78.52 95.0109C78.6713 95.0612 78.8088 95.146 78.9215 95.2587C79.0343 95.3714 79.1193 95.5088 79.1697 95.66C79.2201 95.8113 79.2346 95.9722 79.212 96.13V96.657C79.2346 96.8144 79.2202 96.975 79.1699 97.1259C79.1196 97.2768 79.0349 97.414 78.9224 97.5264C78.81 97.6389 78.6728 97.7236 78.5219 97.7739C78.371 97.8242 78.2104 97.8386 78.053 97.816L76.805 97.818Z" fill="#4E2C61"/>
<path d="M80.371 104.615C80.3642 103.852 80.4967 103.095 80.762 102.38C81.008 101.712 81.3881 101.101 81.879 100.586C82.3846 100.068 82.9915 99.6592 83.662 99.386C84.412 99.0829 85.2151 98.9329 86.024 98.945C86.7574 98.9318 87.4858 99.0679 88.165 99.345C88.7633 99.5903 89.3013 99.9623 89.7421 100.435C90.1828 100.909 90.5158 101.472 90.718 102.086C90.9402 102.745 91.0508 103.437 91.045 104.133C91.0364 104.436 90.916 104.725 90.707 104.945C90.5982 105.073 90.4621 105.174 90.3087 105.242C90.1553 105.309 89.9886 105.342 89.821 105.336H84.104C84.1501 105.63 84.2562 105.911 84.4159 106.163C84.5756 106.414 84.7853 106.629 85.032 106.796C85.5093 107.101 86.0653 107.261 86.632 107.255C86.9892 107.256 87.3448 107.207 87.688 107.108C88.0076 107.017 88.3182 106.897 88.616 106.749C88.8957 106.606 89.2133 106.554 89.524 106.601C89.6692 106.646 89.8029 106.722 89.9157 106.824C90.0284 106.927 90.1176 107.052 90.177 107.192L90.477 107.744C90.6344 108.016 90.6934 108.334 90.644 108.644C90.6058 108.794 90.5349 108.934 90.4364 109.053C90.3378 109.173 90.2141 109.269 90.074 109.335C89.5867 109.602 89.0751 109.823 88.546 109.993C87.8348 110.218 87.0918 110.326 86.346 110.312C85.464 110.329 84.588 110.164 83.773 109.826C83.0689 109.531 82.4327 109.095 81.904 108.545C81.4036 108.018 81.0151 107.396 80.762 106.715C80.5054 106.044 80.3729 105.333 80.371 104.615ZM87.438 103.244C87.449 102.825 87.3068 102.416 87.038 102.095C86.9032 101.937 86.7339 101.812 86.5432 101.73C86.3525 101.647 86.1455 101.61 85.938 101.62C85.7141 101.604 85.4895 101.639 85.2814 101.723C85.0734 101.808 84.8875 101.938 84.738 102.106C84.4666 102.436 84.2784 102.826 84.189 103.244H87.438Z" fill="#4E2C61"/>
<path d="M92.122 100.351C92.0991 100.193 92.1132 100.033 92.1633 99.8814C92.2134 99.7302 92.2981 99.5928 92.4106 99.4801C92.5231 99.3674 92.6604 99.2825 92.8115 99.2321C92.9626 99.1817 93.1233 99.1673 93.281 99.1899H94.463C94.6194 99.169 94.7786 99.1848 94.9279 99.2361C95.0772 99.2874 95.2124 99.3728 95.323 99.4855C95.4335 99.5981 95.5163 99.735 95.5647 99.8853C95.6132 100.035 95.6259 100.195 95.602 100.351V100.539C95.6021 100.568 95.5984 100.596 95.591 100.624C95.5836 100.652 95.58 100.68 95.58 100.709V100.815H95.622C95.7638 100.583 95.9261 100.364 96.107 100.161C96.3152 99.9268 96.5568 99.7247 96.824 99.561C97.1313 99.3728 97.4608 99.2237 97.805 99.117C98.219 98.9925 98.6497 98.9325 99.082 98.9389C99.6028 98.935 100.121 99.0061 100.622 99.15C101.081 99.2798 101.503 99.5146 101.856 99.836C102.223 100.185 102.505 100.614 102.68 101.09C102.899 101.706 103.003 102.357 102.985 103.01V108.896C103.007 109.053 102.992 109.213 102.941 109.363C102.891 109.513 102.806 109.65 102.694 109.762C102.583 109.874 102.446 109.959 102.296 110.009C102.146 110.06 101.986 110.075 101.829 110.054H100.496C100.338 110.076 100.178 110.062 100.027 110.011C99.8755 109.961 99.7382 109.876 99.6256 109.763C99.513 109.651 99.4281 109.513 99.3777 109.362C99.3273 109.211 99.3126 109.051 99.335 108.893V103.682C99.3704 103.292 99.2662 102.902 99.041 102.582C98.9234 102.463 98.7812 102.371 98.6244 102.312C98.4675 102.254 98.2998 102.231 98.133 102.244C97.7673 102.235 97.4049 102.315 97.077 102.477C96.7865 102.628 96.5344 102.844 96.34 103.108C96.1367 103.387 95.9896 103.703 95.907 104.038C95.8147 104.397 95.7686 104.767 95.77 105.138V108.893C95.7923 109.051 95.7777 109.211 95.7273 109.362C95.6768 109.513 95.592 109.651 95.4794 109.763C95.3668 109.876 95.2295 109.961 95.0784 110.011C94.9274 110.062 94.7667 110.076 94.609 110.054H93.281C93.1234 110.076 92.9627 110.062 92.8117 110.011C92.6607 109.961 92.5236 109.876 92.4111 109.763C92.2986 109.651 92.2139 109.513 92.1638 109.362C92.1136 109.211 92.0993 109.051 92.122 108.893V100.351Z" fill="#4E2C61"/>
<path d="M103.955 104.615C103.954 103.889 104.09 103.17 104.355 102.494C104.62 101.817 105.019 101.2 105.527 100.68C106.068 100.134 106.715 99.7041 107.427 99.415C108.248 99.0865 109.127 98.9253 110.011 98.941C110.727 98.9234 111.441 99.0275 112.122 99.249C112.612 99.4118 113.08 99.6363 113.513 99.917C113.644 99.9915 113.756 100.094 113.843 100.217C113.929 100.34 113.987 100.481 114.013 100.629C114.038 100.942 113.952 101.254 113.77 101.51L113.411 102.062C113.347 102.197 113.252 102.315 113.136 102.408C113.019 102.501 112.883 102.566 112.737 102.599C112.428 102.623 112.119 102.554 111.851 102.399C111.623 102.28 111.382 102.184 111.134 102.115C110.846 102.035 110.548 101.996 110.249 101.999C109.858 101.99 109.469 102.065 109.11 102.22C108.801 102.355 108.524 102.554 108.298 102.805C108.082 103.045 107.917 103.327 107.812 103.632C107.708 103.935 107.654 104.253 107.654 104.573C107.655 104.902 107.713 105.228 107.824 105.537C107.934 105.854 108.106 106.146 108.33 106.395C108.567 106.655 108.854 106.865 109.174 107.012C109.551 107.181 109.961 107.263 110.374 107.253C110.734 107.254 111.092 107.189 111.429 107.062C111.743 106.947 112.046 106.807 112.337 106.642C112.607 106.462 112.933 106.386 113.255 106.431C113.404 106.477 113.541 106.555 113.656 106.661C113.771 106.767 113.86 106.897 113.918 107.042L114.194 107.572C114.339 107.845 114.398 108.156 114.362 108.463C114.334 108.607 114.277 108.743 114.193 108.864C114.11 108.984 114.002 109.086 113.877 109.163C113.391 109.47 112.875 109.726 112.337 109.927C111.594 110.198 110.807 110.328 110.016 110.31C109.133 110.325 108.255 110.167 107.432 109.845C106.719 109.563 106.072 109.136 105.532 108.591C105.022 108.068 104.623 107.447 104.36 106.766C104.092 106.08 103.955 105.351 103.955 104.615Z" fill="#4E2C61"/>
<path d="M114.504 104.615C114.497 103.852 114.629 103.095 114.894 102.38C115.14 101.704 115.525 101.088 116.024 100.571C116.524 100.054 117.127 99.6482 117.794 99.38C118.544 99.0769 119.347 98.9269 120.156 98.939C120.889 98.9258 121.618 99.0619 122.297 99.339C122.895 99.5848 123.433 99.957 123.873 100.43C124.314 100.903 124.647 101.466 124.85 102.08C125.072 102.739 125.181 103.431 125.175 104.127C125.167 104.43 125.047 104.719 124.838 104.939C124.729 105.067 124.593 105.168 124.44 105.236C124.286 105.303 124.12 105.336 123.952 105.33H118.238C118.284 105.624 118.39 105.905 118.55 106.157C118.71 106.408 118.919 106.623 119.166 106.79C119.643 107.096 120.199 107.255 120.766 107.249C121.123 107.25 121.479 107.201 121.822 107.102C122.142 107.011 122.452 106.891 122.75 106.743C123.03 106.6 123.347 106.548 123.658 106.595C123.803 106.64 123.937 106.716 124.05 106.818C124.162 106.921 124.252 107.046 124.311 107.186L124.611 107.738C124.769 108.01 124.829 108.328 124.779 108.638C124.741 108.788 124.67 108.928 124.571 109.047C124.473 109.167 124.349 109.263 124.209 109.329C123.722 109.596 123.21 109.817 122.681 109.987C121.97 110.212 121.227 110.32 120.481 110.306C119.599 110.323 118.723 110.158 117.908 109.82C117.205 109.527 116.569 109.093 116.04 108.545C115.538 108.019 115.148 107.396 114.894 106.715C114.638 106.044 114.506 105.333 114.504 104.615ZM121.571 103.244C121.581 102.825 121.439 102.417 121.171 102.095C121.036 101.937 120.867 101.812 120.676 101.73C120.486 101.647 120.278 101.61 120.071 101.62C119.847 101.604 119.622 101.639 119.414 101.723C119.206 101.807 119.02 101.938 118.871 102.106C118.6 102.436 118.411 102.826 118.321 103.244H121.571Z" fill="#4E2C61"/>
<path d="M1.86 129.7C1.74841 129.618 1.64762 129.522 1.56 129.415C1.47546 129.31 1.41412 129.188 1.38 129.057C1.34376 128.915 1.34376 128.765 1.38 128.623C1.43267 128.432 1.52236 128.253 1.644 128.096L2.297 127.147C2.37035 127.016 2.47072 126.903 2.59141 126.814C2.71211 126.725 2.85037 126.662 2.997 126.631C3.31716 126.612 3.63485 126.697 3.903 126.873L4.356 127.126C4.533 127.226 4.736 127.326 4.969 127.431C5.21659 127.543 5.47403 127.631 5.738 127.695C6.03447 127.768 6.33878 127.803 6.644 127.801C7.07135 127.834 7.49782 127.726 7.858 127.494C7.9779 127.409 8.07578 127.297 8.14345 127.167C8.21113 127.036 8.24663 126.892 8.247 126.745C8.24498 126.566 8.19874 126.39 8.11239 126.233C8.02603 126.076 7.90224 125.943 7.752 125.845C7.36793 125.567 6.95404 125.332 6.518 125.145C6.02533 124.927 5.492 124.694 4.918 124.445C4.35059 124.203 3.81358 123.895 3.318 123.527C2.82611 123.162 2.40746 122.707 2.084 122.187C1.73606 121.59 1.56444 120.906 1.589 120.215C1.58087 119.563 1.72142 118.918 2 118.328C2.26909 117.765 2.65339 117.266 3.128 116.861C3.63099 116.441 4.21115 116.122 4.836 115.924C5.52429 115.702 6.24375 115.591 6.967 115.597C7.7907 115.587 8.61051 115.712 9.394 115.966C9.97279 116.141 10.5257 116.393 11.038 116.714C11.1697 116.795 11.2842 116.9 11.375 117.025C11.4658 117.15 11.531 117.292 11.567 117.442C11.6017 117.738 11.5422 118.037 11.397 118.297L10.891 119.288C10.6777 119.705 10.4343 119.917 10.161 119.922C9.86194 119.923 9.56774 119.846 9.307 119.7C8.95566 119.532 8.59333 119.374 8.22 119.225C7.80456 119.07 7.36346 118.994 6.92 119.003C6.47533 118.964 6.0302 119.072 5.653 119.311C5.53543 119.397 5.43983 119.51 5.37398 119.64C5.30812 119.77 5.27387 119.913 5.274 120.059C5.27451 120.24 5.32005 120.417 5.40648 120.576C5.49291 120.734 5.61751 120.869 5.769 120.967C6.15493 121.235 6.56865 121.461 7.003 121.641C7.49566 121.852 8.029 122.073 8.603 122.305C9.17065 122.534 9.70802 122.831 10.203 123.191C10.6956 123.55 11.1143 124.001 11.436 124.519C11.7844 125.116 11.956 125.8 11.931 126.491C11.9341 127.11 11.8163 127.723 11.584 128.296C11.3541 128.864 11.0049 129.375 10.56 129.796C10.0809 130.241 9.51842 130.587 8.905 130.814C8.18198 131.078 7.41659 131.207 6.647 131.194C6.13403 131.196 5.62213 131.147 5.119 131.047C4.66107 130.955 4.21001 130.832 3.769 130.678C3.38485 130.544 3.01116 130.381 2.651 130.192C2.37375 130.051 2.10912 129.886 1.86 129.7Z" fill="#4E2C61"/>
<path d="M13.588 123.118H13.271C13.1146 123.139 12.9555 123.123 12.8062 123.072C12.657 123.021 12.5217 122.936 12.4112 122.823C12.3007 122.711 12.218 122.574 12.1697 122.424C12.1214 122.273 12.1089 122.114 12.133 121.958V121.431C12.1103 121.273 12.1246 121.113 12.1748 120.962C12.2249 120.811 12.3096 120.673 12.4221 120.561C12.5346 120.448 12.6717 120.363 12.8227 120.313C12.9737 120.262 13.1344 120.248 13.292 120.27H13.692V118.309C13.6692 118.151 13.6835 117.99 13.7338 117.839C13.7841 117.688 13.869 117.55 13.9817 117.438C14.0944 117.325 14.2318 117.24 14.3831 117.19C14.5343 117.14 14.6952 117.125 14.853 117.148H16.077C16.2346 117.126 16.3953 117.14 16.5463 117.191C16.6973 117.241 16.8344 117.326 16.9469 117.439C17.0594 117.551 17.144 117.689 17.1942 117.84C17.2444 117.991 17.2587 118.151 17.236 118.309V120.27H18.354C18.5117 120.248 18.6724 120.262 18.8234 120.313C18.9745 120.363 19.1118 120.448 19.2244 120.561C19.337 120.673 19.4219 120.81 19.4723 120.962C19.5227 121.113 19.5374 121.273 19.515 121.431V121.958C19.5387 122.114 19.5259 122.273 19.4773 122.423C19.4288 122.573 19.346 122.71 19.2355 122.823C19.125 122.935 18.9898 123.021 18.8406 123.072C18.6914 123.123 18.5324 123.139 18.376 123.118H17.237V126.409C17.2199 126.594 17.2463 126.781 17.314 126.955C17.3816 127.129 17.4888 127.284 17.627 127.409C17.8793 127.61 18.182 127.737 18.502 127.778C18.8257 127.796 19.1376 127.905 19.402 128.093C19.5018 128.208 19.5767 128.342 19.622 128.487C19.6673 128.633 19.6819 128.786 19.665 128.937V129.887C19.6842 130.058 19.6594 130.231 19.5928 130.389C19.5263 130.548 19.4204 130.687 19.285 130.793C18.9451 130.984 18.5571 131.072 18.168 131.047C17.6986 131.04 17.2313 130.983 16.774 130.877C16.2428 130.76 15.7355 130.554 15.274 130.266C14.7861 129.959 14.3755 129.544 14.074 129.053C13.7289 128.454 13.5607 127.77 13.589 127.08L13.588 123.118Z" fill="#4E2C61"/>
<path d="M20.085 125.549C20.0744 124.742 20.2399 123.943 20.57 123.207C20.8811 122.523 21.3301 121.91 21.889 121.407C22.4587 120.899 23.1207 120.506 23.839 120.248C24.603 119.971 25.4102 119.832 26.223 119.837C27.0462 119.831 27.8641 119.97 28.639 120.248C29.3614 120.504 30.0274 120.898 30.6 121.407C31.1593 121.909 31.6084 122.522 31.919 123.207C32.2497 123.943 32.4152 124.742 32.404 125.549C32.4145 126.345 32.2489 127.133 31.919 127.858C31.6071 128.54 31.1581 129.151 30.6 129.652C30.0317 130.159 29.3691 130.549 28.65 130.8C27.091 131.335 25.398 131.335 23.839 130.8C23.1199 130.549 22.4573 130.159 21.889 129.652C21.3313 129.15 20.8824 128.54 20.57 127.858C20.2407 127.133 20.0751 126.345 20.085 125.549ZM23.776 125.549C23.7693 125.921 23.8373 126.291 23.976 126.637C24.0995 126.942 24.282 127.22 24.513 127.454C24.736 127.675 25.0012 127.849 25.293 127.966C25.904 128.204 26.582 128.204 27.193 127.966C27.4846 127.849 27.7498 127.675 27.973 127.454C28.204 127.22 28.3865 126.942 28.51 126.637C28.6487 126.291 28.7167 125.921 28.71 125.549C28.7164 125.173 28.6484 124.799 28.51 124.449C28.3874 124.138 28.205 123.853 27.973 123.612C27.7488 123.381 27.4799 123.197 27.1827 123.073C26.8855 122.949 26.5661 122.886 26.244 122.889C25.9179 122.887 25.5948 122.951 25.294 123.077C25.0008 123.201 24.7356 123.383 24.514 123.612C24.282 123.853 24.0996 124.138 23.977 124.449C23.8389 124.797 23.7706 125.169 23.776 125.544V125.549Z" fill="#4E2C61"/>
<path d="M33.522 121.24C33.499 121.082 33.5132 120.921 33.5634 120.77C33.6136 120.618 33.6985 120.481 33.8112 120.368C33.924 120.255 34.0615 120.17 34.2128 120.12C34.3641 120.069 34.5251 120.055 34.683 120.078H35.864C36.0215 120.055 36.1821 120.07 36.3331 120.12C36.4841 120.17 36.6213 120.255 36.7339 120.368C36.8465 120.48 36.9315 120.617 36.982 120.768C37.0325 120.919 37.0472 121.079 37.025 121.237V121.911C37.0257 121.996 37.0221 122.081 37.014 122.165C37.0069 122.235 37.0036 122.305 37.004 122.376C36.9893 122.445 36.982 122.516 36.982 122.587H37.026C37.123 122.276 37.2573 121.979 37.426 121.701C37.607 121.393 37.8264 121.11 38.079 120.858C38.3312 120.606 38.6193 120.393 38.934 120.225C39.2349 120.06 39.572 119.973 39.915 119.972C40.0578 119.957 40.2021 119.976 40.3359 120.029C40.4697 120.081 40.589 120.164 40.684 120.272C40.8481 120.529 40.9259 120.832 40.906 121.136V122.319C40.9283 122.477 40.9135 122.637 40.8629 122.788C40.8124 122.939 40.7274 123.076 40.6146 123.189C40.5019 123.301 40.3645 123.386 40.2134 123.436C40.0623 123.486 39.9016 123.501 39.744 123.478C39.3483 123.469 38.9567 123.56 38.605 123.741C38.2873 123.912 38.0135 124.154 37.805 124.449C37.5856 124.762 37.4246 125.112 37.33 125.482C37.2227 125.888 37.1696 126.306 37.172 126.726V129.784C37.1946 129.942 37.1801 130.102 37.1297 130.254C37.0794 130.405 36.9945 130.542 36.8818 130.655C36.7692 130.767 36.6318 130.852 36.4807 130.903C36.3295 130.953 36.1687 130.968 36.011 130.945H34.683C34.5253 130.968 34.3645 130.953 34.2133 130.903C34.0622 130.852 33.9248 130.767 33.8122 130.655C33.6995 130.542 33.6146 130.405 33.5643 130.254C33.5139 130.102 33.4994 129.942 33.522 129.784V121.24Z" fill="#4E2C61"/>
<path d="M40.926 125.502C40.9193 124.739 41.0518 123.981 41.317 123.265C41.5632 122.59 41.9486 121.975 42.4483 121.459C42.9479 120.943 43.5505 120.539 44.217 120.271C44.9674 119.967 45.7713 119.816 46.581 119.828C47.3137 119.815 48.0414 119.951 48.72 120.228C49.3186 120.473 49.8569 120.846 50.2977 121.319C50.7384 121.793 51.0712 122.356 51.273 122.971C51.4952 123.63 51.6058 124.322 51.6 125.017C51.5915 125.32 51.4711 125.61 51.262 125.83C51.1531 125.957 51.0169 126.059 50.8635 126.126C50.7101 126.194 50.5435 126.226 50.376 126.22H44.661C44.7069 126.514 44.813 126.796 44.9727 127.047C45.1324 127.298 45.3422 127.514 45.589 127.68C46.0659 127.986 46.6222 128.146 47.189 128.14C47.5459 128.141 47.9012 128.091 48.244 127.992C48.564 127.901 48.875 127.781 49.173 127.633C49.4518 127.489 49.769 127.438 50.079 127.486C50.2246 127.531 50.3586 127.607 50.4717 127.709C50.5848 127.811 50.6743 127.937 50.734 128.077L51.034 128.628C51.1919 128.9 51.2513 129.218 51.202 129.528C51.1634 129.678 51.0924 129.818 50.9939 129.937C50.8954 130.056 50.7718 130.153 50.632 130.219C50.1437 130.486 49.6314 130.706 49.102 130.877C48.3907 131.102 47.6477 131.209 46.902 131.195C46.0201 131.212 45.1443 131.047 44.329 130.71C43.6259 130.416 42.9903 129.981 42.461 129.433C41.963 128.908 41.5759 128.287 41.323 127.609C41.0636 126.937 40.9291 126.223 40.926 125.502ZM47.993 124.132C48.0047 123.712 47.8624 123.303 47.593 122.981C47.4579 122.823 47.2886 122.699 47.0979 122.616C46.9073 122.534 46.7003 122.497 46.493 122.507C46.2692 122.491 46.0447 122.526 45.8367 122.61C45.6287 122.694 45.4427 122.825 45.293 122.992C45.0221 123.323 44.8339 123.713 44.744 124.131L47.993 124.132Z" fill="#4E2C61"/>
<path d="M52.675 130.206C52.5351 130.142 52.413 130.045 52.3194 129.923C52.2258 129.801 52.1635 129.658 52.138 129.506C52.1121 129.185 52.1976 128.865 52.38 128.6L52.697 128.114C52.7698 127.984 52.8681 127.871 52.986 127.78C53.1039 127.69 53.239 127.624 53.383 127.587C53.7011 127.559 54.0203 127.626 54.301 127.778C54.568 127.89 54.871 128.014 55.207 128.146C55.5778 128.286 55.9718 128.354 56.368 128.346C56.6371 128.371 56.907 128.308 57.137 128.166C57.2054 128.116 57.2611 128.051 57.2996 127.976C57.3382 127.901 57.3585 127.817 57.359 127.733C57.3529 127.62 57.3135 127.512 57.2458 127.422C57.1782 127.332 57.0853 127.264 56.979 127.227C56.6756 127.081 56.3617 126.957 56.04 126.858C55.668 126.738 55.26 126.605 54.817 126.458C54.3817 126.315 53.9697 126.109 53.594 125.847C53.2136 125.578 52.8937 125.233 52.655 124.833C52.3854 124.354 52.2539 123.81 52.275 123.261C52.265 122.744 52.3846 122.233 52.623 121.775C52.8554 121.346 53.1845 120.978 53.584 120.699C54.0194 120.4 54.5042 120.18 55.016 120.049C55.5944 119.898 56.1902 119.824 56.788 119.828C57.3961 119.818 58.0024 119.896 58.588 120.06C59.0235 120.186 59.4501 120.341 59.865 120.524C60.0062 120.578 60.132 120.666 60.2313 120.781C60.3307 120.895 60.4006 121.032 60.435 121.179C60.4868 121.489 60.4351 121.807 60.288 122.085L60.034 122.591C59.984 122.732 59.903 122.86 59.7972 122.966C59.6913 123.072 59.5631 123.153 59.422 123.203C59.1099 123.269 58.7849 123.234 58.494 123.103C58.241 123.003 57.959 122.909 57.65 122.818C57.321 122.724 56.9801 122.678 56.638 122.681C56.3664 122.651 56.0923 122.71 55.858 122.851C55.7987 122.899 55.751 122.96 55.7183 123.03C55.6856 123.099 55.6687 123.174 55.669 123.251C55.6744 123.362 55.7135 123.469 55.7812 123.558C55.8489 123.646 55.942 123.712 56.048 123.746C56.3527 123.886 56.6664 124.006 56.987 124.105C57.3597 124.225 57.7677 124.355 58.211 124.495C58.6465 124.632 59.0588 124.835 59.434 125.095C59.8102 125.359 60.1296 125.696 60.373 126.086C60.6438 126.557 60.7756 127.094 60.753 127.637C60.7571 128.125 60.653 128.608 60.448 129.051C60.2418 129.489 59.9389 129.875 59.562 130.179C59.1409 130.514 58.6615 130.768 58.148 130.928C57.5445 131.118 56.9146 131.211 56.282 131.202C55.5581 131.217 54.8371 131.106 54.151 130.875C53.6395 130.698 53.1455 130.474 52.675 130.206Z" fill="#4E2C61"/>
</svg>
