<svg width="24" height="24" viewBox="0 0 24 24" fill="none" xmlns="http://www.w3.org/2000/svg">
<path d="M1.3972e-06 12C0.000507566 9.15698 1.01042 6.40645 2.84979 4.23857C4.68916 2.07068 7.23848 0.626284 10.0435 0.162746C12.8485 -0.300791 15.727 0.246647 18.166 1.70751C20.6051 3.16838 22.4462 5.44777 23.3613 8.13951C24.2765 10.8313 24.2062 13.7605 23.163 16.4053C22.1198 19.05 20.1715 21.2385 17.6652 22.5807C15.159 23.9229 12.2575 24.3317 9.47797 23.7342C6.69841 23.1366 4.22129 21.5716 2.488 19.318C2.34664 19.1346 2.28392 18.9026 2.31365 18.673C2.34337 18.4433 2.4631 18.2349 2.6465 18.0935C2.8299 17.9522 3.06194 17.8895 3.29158 17.9192C3.52122 17.9489 3.72964 18.0686 3.871 18.252C5.35213 20.1778 7.46889 21.5151 9.84408 22.0256C12.2193 22.5362 14.6986 22.1868 16.8402 21.0398C18.9818 19.8928 20.6467 18.0227 21.538 15.7626C22.4293 13.5026 22.4892 10.9995 21.7071 8.69939C20.9249 6.3993 19.3515 4.45162 17.2672 3.20344C15.1829 1.95526 12.7232 1.48767 10.3263 1.88399C7.92935 2.28031 5.75102 3.51479 4.17945 5.36745C2.60787 7.22011 1.74514 9.57059 1.745 12C1.74495 12.5219 1.7844 13.0431 1.863 13.559C1.89801 13.7879 1.84066 14.0213 1.70357 14.2079C1.56648 14.3945 1.36088 14.519 1.132 14.554C0.90312 14.589 0.669705 14.5317 0.483106 14.3946C0.296508 14.2575 0.17201 14.0519 0.137001 13.823C0.0455053 13.2197 -0.000291625 12.6103 1.3972e-06 12ZM9.631 16.8C9.46246 16.6313 9.36779 16.4025 9.36779 16.164C9.36779 15.9255 9.46246 15.6968 9.631 15.528L13.177 12L9.633 8.47204C9.53936 8.39131 9.46336 8.29215 9.40974 8.18074C9.35611 8.06934 9.32602 7.94808 9.32133 7.82453C9.31664 7.70098 9.33746 7.57779 9.38249 7.46264C9.42752 7.34749 9.49578 7.24286 9.58304 7.15526C9.67029 7.06767 9.77466 6.99899 9.88962 6.95351C10.0046 6.90803 10.1277 6.88672 10.2513 6.89092C10.3748 6.89513 10.4962 6.92474 10.6078 6.97792C10.7194 7.03111 10.8189 7.10672 10.9 7.20004L15.083 11.366C15.1668 11.4496 15.2332 11.5489 15.2785 11.6582C15.3239 11.7675 15.3472 11.8847 15.3472 12.003C15.3472 12.1214 15.3239 12.2385 15.2785 12.3479C15.2332 12.4572 15.1668 12.5564 15.083 12.64L10.9 16.8C10.7314 16.9677 10.5033 17.0618 10.2655 17.0618C10.0277 17.0618 9.79963 16.9677 9.631 16.8Z" fill="white"/>
</svg>
