<svg width="24" height="24" viewBox="0 0 24 24" fill="none" xmlns="http://www.w3.org/2000/svg">
<path d="M16.5 0C21.1 0 24 2.87 24 7.5V10.583C23.9997 10.8235 23.9041 11.054 23.7341 11.2241C23.564 11.3941 23.3335 11.4897 23.093 11.49H23.082V11.468C22.9616 11.4681 22.8423 11.4445 22.731 11.3986C22.6197 11.3526 22.5185 11.2852 22.4333 11.2001C22.348 11.1151 22.2804 11.014 22.2342 10.9028C22.188 10.7916 22.1641 10.6724 22.164 10.552V7.5C22.164 3.836 20.164 1.832 16.507 1.832H7.507C3.852 1.832 1.836 3.848 1.836 7.5V16.5C1.836 20.141 3.852 22.157 7.504 22.157H16.504C20.156 22.157 22.161 20.141 22.161 16.5C22.161 16.2561 22.2579 16.0223 22.4303 15.8498C22.6028 15.6774 22.8366 15.5805 23.0805 15.5805C23.3244 15.5805 23.5582 15.6774 23.7307 15.8498C23.9031 16.0223 24 16.2561 24 16.5C24 21.13 21.13 24 16.507 24H7.507C2.87 24 0 21.13 0 16.507V7.507C0 2.87 2.87 0 7.5 0H16.5ZM9.378 13.375C9.46618 13.2927 9.56971 13.2286 9.68266 13.1864C9.79562 13.1441 9.91579 13.1245 10.0363 13.1287C10.1568 13.1329 10.2754 13.1607 10.3851 13.2107C10.4949 13.2607 10.5937 13.3318 10.676 13.42C10.7583 13.5082 10.8224 13.6117 10.8646 13.7247C10.9069 13.8376 10.9265 13.9578 10.9223 14.0783C10.9181 14.1988 10.8903 14.3174 10.8403 14.4271C10.7903 14.5369 10.7192 14.6357 10.631 14.718L9.814 15.535C9.6401 15.6978 9.4097 15.7865 9.17155 15.7824C8.93339 15.7783 8.70618 15.6817 8.538 15.513L8.512 15.494C8.34772 15.3145 8.2605 15.0777 8.2691 14.8346C8.2777 14.5914 8.38145 14.3614 8.558 14.194L9.378 13.375ZM8.69 8.27C8.7731 8.18455 8.87225 8.11635 8.98176 8.06928C9.09127 8.02222 9.20899 7.99723 9.32818 7.99575C9.44736 7.99426 9.56567 8.01631 9.67632 8.06062C9.78697 8.10494 9.88779 8.17065 9.973 8.254L9.983 8.262L12.22 10.5L14.256 8.462C14.4323 8.29382 14.667 8.20066 14.9106 8.20215C15.1543 8.20364 15.3878 8.29967 15.562 8.47C15.6271 8.53447 15.6818 8.6087 15.724 8.69C15.825 8.86536 15.8654 9.0691 15.839 9.26973C15.8126 9.47036 15.7209 9.65672 15.578 9.8L13.55 11.829L15.756 14.036C15.8444 14.1196 15.9154 14.2198 15.965 14.3309C16.0146 14.442 16.0417 14.5618 16.0449 14.6834C16.0481 14.8051 16.0272 14.9261 15.9834 15.0396C15.9397 15.1532 15.8739 15.2569 15.79 15.345C15.79 15.352 15.778 15.357 15.772 15.364C15.602 15.5333 15.3727 15.6294 15.1328 15.6321C14.893 15.6347 14.6616 15.5435 14.488 15.378L14.442 15.334L8.706 9.6C8.53676 9.42085 8.44114 9.18456 8.43818 8.93813C8.43521 8.69169 8.52511 8.45317 8.69 8.27Z" fill="#5A5956"/>
</svg>
