<svg width="219" height="220" viewBox="0 0 219 220" fill="none" xmlns="http://www.w3.org/2000/svg">
<path d="M88.504 67.383C86.1141 71.772 87.4947 79.483 93.9186 84.283C95.4325 85.419 96.8061 86.344 98.0656 87.15H68.9669C66.5202 87.1787 64.1848 88.1677 62.473 89.9001C60.7612 91.6324 59.8125 93.9667 59.8351 96.391C59.8344 98.188 60.3603 99.9465 61.349 101.453H58.4767C56.0712 101.506 53.7792 102.477 52.0791 104.164C50.379 105.851 49.4021 108.124 49.3522 110.507C49.3024 112.891 50.1834 115.201 51.8115 116.956C53.4396 118.712 55.6889 119.776 58.0901 119.928C57.0691 121.459 56.5268 123.255 56.5309 125.09C56.5085 127.515 57.4576 129.849 59.1701 131.582C60.8825 133.314 63.2185 134.303 65.6656 134.331H69.9105C68.8938 135.86 68.3536 137.652 68.3573 139.483C68.3346 141.907 69.2833 144.242 70.9951 145.974C72.707 147.706 75.0423 148.695 77.489 148.724H106.393H126.559C130.606 148.791 134.621 148.006 138.338 146.42C142.056 144.834 145.391 142.483 148.123 139.524H156.323C156.597 139.53 156.871 139.482 157.126 139.382C157.382 139.282 157.615 139.132 157.811 138.941C158.008 138.751 158.164 138.524 158.271 138.272C158.377 138.021 158.432 137.752 158.432 137.48C158.432 137.207 158.377 136.938 158.271 136.686C158.164 136.435 158.008 136.208 157.811 136.018C157.615 135.827 157.382 135.677 157.126 135.577C156.871 135.477 156.597 135.429 156.323 135.435H147.155C147.102 135.435 147.054 135.461 147.007 135.465C146.468 135.518 145.968 135.768 145.604 136.165C145.57 136.205 145.523 136.225 145.491 136.265C143.153 138.956 140.242 141.101 136.969 142.548C133.695 143.994 130.139 144.705 126.556 144.63H77.493C76.1541 144.571 74.8897 144.003 73.9631 143.044C73.0366 142.085 72.5194 140.808 72.5194 139.48C72.5194 138.152 73.0366 136.875 73.9631 135.916C74.8897 134.957 76.1541 134.388 77.493 134.33H94.0619C94.6013 134.318 95.1145 134.098 95.4917 133.715C95.869 133.333 96.0802 132.82 96.0802 132.285C96.0802 131.751 95.869 131.238 95.4917 130.856C95.1145 130.473 94.6013 130.253 94.0619 130.241H65.6696C64.363 130.194 63.1222 129.661 62.1944 128.749C61.2665 127.836 60.7199 126.61 60.6633 125.316C60.6068 124.022 61.0446 122.754 61.8893 121.765C62.7341 120.776 63.9239 120.139 65.2215 119.981H93.0133C93.5527 119.969 94.0659 119.749 94.4431 119.366C94.8203 118.984 95.0316 118.471 95.0316 117.936C95.0316 117.402 94.8203 116.889 94.4431 116.507C94.0659 116.124 93.5527 115.904 93.0133 115.892H65.9028C65.8261 115.872 65.7482 115.856 65.6696 115.845H58.4767C57.1378 115.787 55.8733 115.218 54.9468 114.259C54.0202 113.3 53.5031 112.023 53.5031 110.695C53.5031 109.367 54.0202 108.09 54.9468 107.131C55.8733 106.172 57.1378 105.603 58.4767 105.545H93.0133C93.5527 105.533 94.0659 105.313 94.4431 104.93C94.8203 104.548 95.0316 104.035 95.0316 103.501C95.0316 102.966 94.8203 102.453 94.4431 102.071C94.0659 101.688 93.5527 101.468 93.0133 101.456H68.2937C67.026 101.244 65.8827 100.574 65.0851 99.575C64.2875 98.5761 63.8923 97.3194 63.9761 96.0483C64.0599 94.7772 64.6166 93.5822 65.5386 92.6945C66.4606 91.8067 67.6821 91.2896 68.9669 91.243H103.627C105.277 99.351 108.781 105.229 114.104 108.673C121.941 113.745 130.693 111.594 131.059 111.5C131.503 111.387 131.896 111.131 132.177 110.773C132.459 110.414 132.612 109.973 132.612 109.519C132.611 109.347 132.588 109.176 132.545 109.01C132.477 108.75 132.359 108.505 132.196 108.29C132.033 108.075 131.829 107.894 131.596 107.758C131.362 107.621 131.104 107.531 130.835 107.494C130.567 107.456 130.293 107.471 130.031 107.538C129.957 107.558 122.69 109.346 116.358 105.247C111.673 102.217 108.642 96.705 107.351 88.87C107.344 88.825 107.313 88.79 107.303 88.746C107.263 88.5738 107.2 88.4077 107.116 88.252C107.082 88.1832 107.044 88.1164 107.003 88.052C106.892 87.8982 106.761 87.7602 106.613 87.642C106.571 87.607 106.539 87.563 106.495 87.532C106.483 87.524 106.476 87.511 106.463 87.503C105.525 86.884 104.527 86.288 103.435 85.638C101.004 84.233 98.6558 82.6932 96.4004 81.026C91.0564 77.037 90.9827 71.452 92.1322 69.337C92.657 68.375 93.087 68.528 93.2919 68.601C96.7738 69.843 106.46 74.052 116.707 78.501C120.481 80.143 124.319 81.808 127.928 83.363C140.663 88.851 145.288 93.453 145.324 93.49C145.324 93.495 145.336 93.497 145.341 93.502C145.516 93.6762 145.721 93.8178 145.947 93.92C145.967 93.929 145.981 93.948 146.001 93.956C146.256 94.0639 146.531 94.1194 146.808 94.119H156.313C156.587 94.125 156.861 94.0766 157.116 93.9766C157.372 93.8765 157.605 93.7269 157.801 93.5364C157.998 93.346 158.154 93.1186 158.261 92.8675C158.367 92.6165 158.422 92.3468 158.422 92.0745C158.422 91.8021 158.367 91.5325 158.261 91.2815C158.154 91.0304 157.998 90.803 157.801 90.6125C157.605 90.4221 157.372 90.2725 157.116 90.1725C156.861 90.0724 156.587 90.024 156.313 90.03H147.615C145.907 88.521 140.643 84.384 129.569 79.613C125.963 78.058 122.128 76.393 118.361 74.755C108.039 70.273 98.2927 66.037 94.6796 64.748C92.2665 63.885 89.8352 64.921 88.4888 67.389" fill="#EBE9DA"/>
<path d="M88.504 67.383C86.1141 71.772 87.4947 79.483 93.9186 84.283C95.4325 85.419 96.8061 86.344 98.0656 87.15H68.9669C66.5202 87.1787 64.1848 88.1677 62.473 89.9001C60.7612 91.6324 59.8125 93.9667 59.8351 96.391C59.8344 98.188 60.3603 99.9465 61.349 101.453H58.4767C56.0712 101.506 53.7792 102.477 52.0791 104.164C50.379 105.851 49.4021 108.124 49.3522 110.507C49.3024 112.891 50.1834 115.201 51.8115 116.956C53.4396 118.712 55.6889 119.776 58.0901 119.928C57.0691 121.459 56.5268 123.255 56.5309 125.09C56.5085 127.515 57.4576 129.849 59.1701 131.582C60.8825 133.314 63.2185 134.303 65.6656 134.331H69.9105C68.8938 135.86 68.3536 137.652 68.3573 139.483C68.3346 141.907 69.2833 144.242 70.9951 145.974C72.707 147.706 75.0423 148.695 77.489 148.724H106.393H126.559C130.606 148.791 134.621 148.006 138.338 146.42C142.056 144.834 145.391 142.483 148.123 139.524H156.323C156.597 139.53 156.871 139.482 157.126 139.382C157.382 139.282 157.615 139.132 157.811 138.941C158.008 138.751 158.164 138.524 158.271 138.272C158.377 138.021 158.432 137.752 158.432 137.48C158.432 137.207 158.377 136.938 158.271 136.686C158.164 136.435 158.008 136.208 157.811 136.018C157.615 135.827 157.382 135.677 157.126 135.577C156.871 135.477 156.597 135.429 156.323 135.435H147.155C147.102 135.435 147.054 135.461 147.007 135.465C146.468 135.518 145.968 135.768 145.604 136.165C145.57 136.205 145.523 136.225 145.491 136.265C143.153 138.956 140.242 141.101 136.969 142.548C133.695 143.994 130.139 144.705 126.556 144.63H77.493C76.1541 144.571 74.8897 144.003 73.9631 143.044C73.0366 142.085 72.5194 140.808 72.5194 139.48C72.5194 138.152 73.0366 136.875 73.9631 135.916C74.8897 134.957 76.1541 134.388 77.493 134.33H94.0619C94.6013 134.318 95.1145 134.098 95.4917 133.715C95.869 133.333 96.0802 132.82 96.0802 132.285C96.0802 131.751 95.869 131.238 95.4917 130.856C95.1145 130.473 94.6013 130.253 94.0619 130.241H65.6696C64.363 130.194 63.1222 129.661 62.1944 128.749C61.2665 127.836 60.7199 126.61 60.6633 125.316C60.6068 124.022 61.0446 122.754 61.8893 121.765C62.7341 120.776 63.9239 120.139 65.2215 119.981H93.0133C93.5527 119.969 94.0659 119.749 94.4431 119.366C94.8203 118.984 95.0316 118.471 95.0316 117.936C95.0316 117.402 94.8203 116.889 94.4431 116.507C94.0659 116.124 93.5527 115.904 93.0133 115.892H65.9028C65.8261 115.872 65.7482 115.856 65.6696 115.845H58.4767C57.1378 115.787 55.8733 115.218 54.9468 114.259C54.0202 113.3 53.5031 112.023 53.5031 110.695C53.5031 109.367 54.0202 108.09 54.9468 107.131C55.8733 106.172 57.1378 105.603 58.4767 105.545H93.0133C93.5527 105.533 94.0659 105.313 94.4431 104.93C94.8203 104.548 95.0316 104.035 95.0316 103.501C95.0316 102.966 94.8203 102.453 94.4431 102.071C94.0659 101.688 93.5527 101.468 93.0133 101.456H68.2937C67.026 101.244 65.8827 100.574 65.0851 99.575C64.2875 98.5761 63.8923 97.3194 63.9761 96.0483C64.0599 94.7772 64.6166 93.5822 65.5386 92.6945C66.4606 91.8067 67.6821 91.2896 68.9669 91.243H103.627C105.277 99.351 108.781 105.229 114.104 108.673C121.941 113.745 130.693 111.594 131.059 111.5C131.503 111.387 131.896 111.131 132.177 110.773C132.459 110.414 132.612 109.973 132.612 109.519C132.611 109.347 132.588 109.176 132.545 109.01C132.477 108.75 132.359 108.505 132.196 108.29C132.033 108.075 131.829 107.894 131.596 107.758C131.362 107.621 131.104 107.531 130.835 107.494C130.567 107.456 130.293 107.471 130.031 107.538C129.957 107.558 122.69 109.346 116.358 105.247C111.673 102.217 108.642 96.705 107.351 88.87C107.344 88.825 107.313 88.79 107.303 88.746C107.263 88.5738 107.2 88.4077 107.116 88.252C107.082 88.1832 107.044 88.1164 107.003 88.052C106.892 87.8982 106.761 87.7602 106.613 87.642C106.571 87.607 106.539 87.563 106.495 87.532C106.483 87.524 106.476 87.511 106.463 87.503C105.525 86.884 104.527 86.288 103.435 85.638C101.004 84.233 98.6558 82.6932 96.4004 81.026C91.0564 77.037 90.9827 71.452 92.1322 69.337C92.657 68.375 93.087 68.528 93.2919 68.601C96.7738 69.843 106.46 74.052 116.707 78.501C120.481 80.143 124.319 81.808 127.928 83.363C140.663 88.851 145.288 93.453 145.324 93.49C145.324 93.495 145.336 93.497 145.341 93.502C145.516 93.6762 145.721 93.8178 145.947 93.92C145.967 93.929 145.981 93.948 146.001 93.956C146.256 94.0639 146.531 94.1194 146.808 94.119H156.313C156.587 94.125 156.861 94.0766 157.116 93.9766C157.372 93.8765 157.605 93.7269 157.801 93.5364C157.998 93.346 158.154 93.1186 158.261 92.8675C158.367 92.6165 158.422 92.3468 158.422 92.0745C158.422 91.8021 158.367 91.5325 158.261 91.2815C158.154 91.0304 157.998 90.803 157.801 90.6125C157.605 90.4221 157.372 90.2725 157.116 90.1725C156.861 90.0724 156.587 90.024 156.313 90.03H147.615C145.907 88.521 140.643 84.384 129.569 79.613C125.963 78.058 122.128 76.393 118.361 74.755C108.039 70.273 98.2927 66.037 94.6796 64.748C92.2665 63.885 89.8352 64.921 88.4888 67.389" stroke="#EBE9DA" stroke-width="2"/>
<path d="M30.551 155.53C32.7258 155.53 34.8115 156.394 36.3493 157.932C37.8871 159.469 38.751 161.555 38.751 163.73C38.7531 168.111 40.4944 172.312 43.5923 175.409C46.6902 178.507 50.8911 180.248 55.272 180.25H66.512C70.8188 180.245 75.0843 181.089 79.0649 182.733C83.0456 184.377 86.6635 186.789 89.712 189.831V189.831L97.595 197.731C99.1293 199.282 100.956 200.513 102.97 201.353C104.984 202.192 107.145 202.623 109.327 202.62C111.514 202.674 113.687 202.268 115.706 201.427C117.725 200.587 119.545 199.331 121.048 197.742C121.808 196.979 122.712 196.373 123.706 195.959C124.701 195.545 125.768 195.331 126.845 195.329C127.922 195.327 128.989 195.538 129.985 195.948C130.981 196.359 131.887 196.961 132.65 197.722C133.413 198.482 134.019 199.386 134.433 200.38C134.847 201.375 135.061 202.441 135.063 203.519C135.065 204.596 134.854 205.663 134.444 206.659C134.033 207.655 133.43 208.561 132.67 209.324C126.505 215.5 118.144 218.98 109.417 219.003C100.691 219.025 92.3117 215.588 86.115 209.444V209.444L78.134 201.46C75.04 198.383 70.8533 196.657 66.49 196.66H55.272C46.5438 196.65 38.1759 193.179 32.0042 187.007C25.8324 180.835 22.3608 172.467 22.351 163.739C22.3498 162.661 22.561 161.594 22.9726 160.598C23.3842 159.602 23.988 158.697 24.7495 157.935C25.5111 157.172 26.4155 156.568 27.4109 156.155C28.4064 155.742 29.4734 155.53 30.551 155.53V155.53ZM163.388 22.6409C172.118 22.6512 180.487 26.1245 186.659 32.2986C192.831 38.4726 196.302 46.843 196.309 55.5729V55.5729V66.8159C196.308 71.1822 198.038 75.3707 201.12 78.4639V78.4639L208.97 86.3169C215.157 92.4766 218.645 100.841 218.668 109.572C218.69 118.302 215.245 126.684 209.09 132.876V132.876L201.109 140.86C198.051 143.963 196.328 148.14 196.309 152.497V163.73C196.3 172.459 192.829 180.829 186.657 187.002C180.486 193.176 172.117 196.65 163.388 196.662C161.212 196.662 159.126 195.798 157.588 194.259C156.049 192.721 155.185 190.634 155.185 188.459C155.185 186.283 156.049 184.197 157.588 182.659C159.126 181.12 161.212 180.256 163.388 180.256C167.769 180.251 171.969 178.509 175.067 175.41C178.164 172.312 179.905 168.111 179.908 163.73V163.73V152.487C179.898 148.177 180.74 143.908 182.386 139.925C184.031 135.942 186.448 132.324 189.497 129.278V129.278L197.369 121.392C198.919 119.858 200.15 118.032 200.991 116.019C201.831 114.007 202.265 111.848 202.267 109.667C202.269 107.485 201.84 105.326 201.003 103.312C200.166 101.298 198.938 99.4692 197.391 97.9319V97.9319L189.508 90.0459C186.46 86.9965 184.044 83.3762 182.397 79.3921C180.749 75.408 179.904 71.1382 179.908 66.8269V66.8269V55.5729C179.907 51.1911 178.166 46.9891 175.068 43.8902C171.97 40.7914 167.769 39.0493 163.387 39.0469C161.211 39.0469 159.125 38.1827 157.587 36.6443C156.048 35.106 155.184 33.0195 155.184 30.8439C155.184 28.6684 156.048 26.5819 157.587 25.0435C159.125 23.5052 161.211 22.6409 163.387 22.6409H163.388ZM86.006 9.97592C91.9609 4.01663 99.9749 0.568757 108.396 0.342893C116.818 0.117028 125.005 3.13038 131.271 8.76192C131.735 9.09379 132.173 9.45945 132.583 9.85592C134.047 11.389 134.869 13.4233 134.883 15.5429C134.885 17.1401 134.42 18.7032 133.546 20.04C132.673 21.3769 131.427 22.4295 129.963 23.0684C128.499 23.7073 126.881 23.9049 125.306 23.6367C123.732 23.3685 122.27 22.6464 121.1 21.5589C120.991 21.4499 120.991 21.4499 120.881 21.3509C117.734 18.3512 113.542 16.6952 109.195 16.734C104.847 16.7729 100.686 18.5035 97.593 21.5589L89.723 29.4299C86.6904 32.4906 83.0794 34.9178 79.1001 36.5702C75.1208 38.2225 70.8527 39.0672 66.544 39.0549H55.283C50.9081 39.0702 46.7169 40.8153 43.6238 43.9092C40.5307 47.0032 38.787 51.195 38.773 55.5699V66.8379C38.7879 71.1478 37.9449 75.4176 36.2931 79.3985C34.6413 83.3793 32.2138 86.9916 29.152 90.0249V90.0249L21.279 97.9099C18.181 101.036 16.4428 105.259 16.4428 109.66C16.4428 114.061 18.181 118.284 21.279 121.41C22.8016 122.956 23.6551 125.04 23.6551 127.21C23.6551 129.38 22.8016 131.463 21.279 133.01C19.7283 134.526 17.6526 135.386 15.484 135.41C14.4074 135.413 13.3408 135.202 12.3461 134.79C11.3514 134.378 10.4483 133.773 9.68901 133.01C3.5052 126.839 0.0210122 118.468 0.000578664 109.732C-0.0198549 100.997 3.42513 92.6093 9.58001 86.4099V86.4099L17.562 78.4299C19.0862 76.9083 20.2956 75.1013 21.1211 73.1121C21.9466 71.123 22.372 68.9906 22.373 66.8369V55.5729C22.3804 46.8459 25.8497 38.4783 32.0196 32.3063C38.1895 26.1344 46.556 22.6622 55.283 22.6519H66.544C68.6977 22.6534 70.8304 22.2291 72.8195 21.4032C74.8086 20.5774 76.6147 19.3664 78.134 17.8399V17.8399L86.006 9.97592Z" fill="#EBE9DA"/>
</svg>
