<?xml version="1.0" encoding="utf-8"?>
<svg viewBox="0 0 512 512" fill="none" xmlns="http://www.w3.org/2000/svg">
  <path class="st0" d="M41,315.8c-5.8,0-11.4-1.6-16.4-4.6L6,300v172.5h67.5V297.1l-11,10.2   C56.7,312.8,49,315.8,41,315.8z" id="XMLID_3390_" />
  <polygon class="st0" id="XMLID_183_" points="143.2,232.4 143.2,472.6 210.8,472.6 210.8,225.5 176.1,201.8  " />
  <path class="st0" d="M290.2,273.1c-6.4,0-12.6-1.9-17.9-5.5l-13.3-9.1v214h67.5V251.8L311,265.4   C305.2,270.4,297.8,273.1,290.2,273.1z" id="XMLID_182_" />
  <polygon class="st0" id="XMLID_175_" points="378.5,472.6 446,472.6 446,148 378.5,206.7  "/>
  <path class="st1" d="M 400.51 36.858 L 428.41 63.958 L 288.21 185.058 L 183.11 113.258 C 175.81 108.258 165.91 108.958 159.41 115.058 L 37.81 228.058 L 5.51 208.458 L 5.51 252.858 L 30.61 267.958 C 37.91 272.358 47.11 271.358 53.41 265.558 L 174.31 153.158 L 278.91 224.658 C 286.01 229.558 295.61 228.958 302.11 223.358 L 455.81 90.458 L 478.81 112.758 L 505.41 6.958 L 400.51 36.858 Z" id="XMLID_498_" />
</svg>