<svg width="188" height="42" viewBox="0 0 188 42" fill="none" xmlns="http://www.w3.org/2000/svg">
<path d="M84.083 41.491C83.3883 41.491 82.7123 41.4637 82.055 41.409C81.5008 41.3711 80.9504 41.2895 80.409 41.165V33.594C81.3136 33.7545 82.2314 33.8279 83.15 33.813C84.3862 33.9109 85.6202 33.5986 86.6611 32.9246C87.702 32.2505 88.4917 31.2521 88.908 30.084V30.029L79.94 6.34599C79.6984 5.70776 79.6153 5.02043 79.6978 4.34301C79.7803 3.66559 80.026 3.01832 80.4138 2.45677C80.8016 1.89522 81.3198 1.43617 81.9241 1.11902C82.5284 0.801883 83.2006 0.636126 83.883 0.635987H87.592L94.009 18.897L101.462 0.635987H104.72C105.412 0.635594 106.094 0.806876 106.704 1.13451C107.314 1.46214 107.834 1.9359 108.216 2.51339C108.598 3.09089 108.831 3.75411 108.894 4.44371C108.957 5.13332 108.848 5.82779 108.577 6.46499L98.062 31.126C97.2004 33.3093 96.0177 35.3518 94.553 37.186C93.367 38.6329 91.8408 39.7633 90.111 40.476C88.1845 41.1947 86.1386 41.5392 84.083 41.491Z" fill="#E33E20"/>
<path d="M111.38 25.045V5.09995C111.38 3.91707 111.849 2.7825 112.685 1.94561C113.521 1.10872 114.655 0.63801 115.838 0.63695H120.26V2.50195C121.985 1.21145 124.022 0.40404 126.163 0.162884C128.303 -0.0782712 130.469 0.255545 132.438 1.12995C133.881 1.81003 135.141 2.82564 136.112 4.09195C137.274 2.81819 138.695 1.80818 140.28 1.12995C141.944 0.42424 143.736 0.0695124 145.544 0.08795C147.58 0.0471997 149.589 0.559011 151.357 1.56895C153.033 2.55144 154.408 3.97381 155.333 5.68195C156.329 7.55357 156.829 9.64922 156.785 11.7689V24.3569C156.785 25.0509 156.649 25.738 156.383 26.3791C156.118 27.0203 155.729 27.6028 155.238 28.0936C154.747 28.5844 154.165 28.9737 153.524 29.2393C152.883 29.505 152.196 29.6418 151.502 29.6419H147.902V12.9759C147.976 11.5789 147.515 10.2061 146.614 9.13595C146.181 8.66311 145.65 8.29058 145.058 8.04443C144.466 7.79829 143.828 7.68447 143.187 7.71095C142.262 7.69835 141.345 7.88562 140.499 8.25995C139.684 8.63458 138.969 9.19815 138.415 9.90395C138.452 10.1966 138.48 10.4983 138.497 10.8089C138.516 11.1209 138.526 11.4399 138.526 11.7689V29.646H129.638V12.9759C129.711 11.5787 129.25 10.206 128.349 9.13595C127.916 8.66297 127.385 8.29037 126.793 8.04422C126.201 7.79807 125.562 7.68432 124.921 7.71095C124.008 7.69617 123.102 7.87368 122.262 8.23195C121.477 8.58007 120.79 9.11661 120.262 9.79395V29.646H115.98C115.376 29.646 114.778 29.5269 114.219 29.2957C113.661 29.0645 113.154 28.7255 112.727 28.2983C112.3 27.871 111.961 27.3638 111.73 26.8056C111.499 26.2474 111.38 25.6491 111.38 25.045Z" fill="#E33E20"/>
<path d="M170.22 30.139C168.338 30.1741 166.472 29.7805 164.765 28.988C163.255 28.289 161.965 27.1891 161.036 25.808C160.133 24.4237 159.666 22.7998 159.697 21.147C159.64 19.8947 159.899 18.6482 160.45 17.5222C161.001 16.3961 161.826 15.4267 162.85 14.703C164.953 13.187 167.887 12.4283 171.65 12.427C173.87 12.4209 176.081 12.6978 178.231 13.251V11.824C178.277 11.2076 178.174 10.5892 177.93 10.0212C177.686 9.45321 177.309 8.95232 176.831 8.56101C175.604 7.76477 174.151 7.38923 172.691 7.49101C171.402 7.51306 170.122 7.69752 168.879 8.04001C167.185 8.50555 165.527 9.09171 163.917 9.79401L160.737 3.26901C162.952 2.2648 165.255 1.46612 167.616 0.883008C169.798 0.355647 172.034 0.0871298 174.278 0.0830078C178.3 0.0830078 181.426 1.04301 183.655 2.96301C184.784 3.97486 185.67 5.22782 186.249 6.62898C186.827 8.03014 187.083 9.54355 186.997 11.057V23.857C186.997 25.393 186.387 26.866 185.301 27.9522C184.215 29.0384 182.742 29.6487 181.206 29.649H178.227V27.891C177.101 28.6742 175.85 29.2586 174.527 29.619C173.12 29.9792 171.672 30.154 170.22 30.139ZM168.137 20.981C168.128 21.413 168.235 21.8395 168.447 22.2159C168.659 22.5922 168.969 22.9045 169.343 23.12C170.364 23.6858 171.524 23.9521 172.689 23.888C173.694 23.8941 174.697 23.7837 175.677 23.559C176.578 23.3527 177.44 23.0008 178.228 22.517V18.788C177.38 18.5675 176.519 18.4025 175.65 18.294C174.758 18.1833 173.861 18.1282 172.962 18.129C171.73 18.0621 170.501 18.3175 169.398 18.87C169.012 19.0689 168.689 19.3721 168.466 19.7453C168.243 20.1184 168.129 20.5465 168.137 20.981Z" fill="#E33E20"/>
<path d="M29.886 29.521L0.925995 29.521L0.925995 0.560997L16.758 0.560997C18.4821 0.560997 20.1893 0.900595 21.7821 1.5604C23.3749 2.22021 24.8222 3.1873 26.0412 4.40645C27.2603 5.62561 28.2273 7.07294 28.887 8.66582C29.5467 10.2587 29.8861 11.9659 29.886 13.69L29.886 29.521Z" fill="#4D2C60"/>
<path d="M67.763 0.0489502H69.369C70.2238 0.0489502 71.0702 0.21731 71.8599 0.544418C72.6496 0.871526 73.3671 1.35098 73.9716 1.95539C74.576 2.55981 75.0554 3.27736 75.3825 4.06706C75.7096 4.85677 75.878 5.70318 75.878 6.55795V29.6849H67.763V0.0489502Z" fill="#E33E20"/>
<path d="M60.237 0.0489502H52.122V29.6849H60.237V0.0489502Z" fill="#E33E20"/>
<path d="M42.99 0.0489502H44.596V29.6849H36.481V6.55795C36.481 4.83166 37.1668 3.17607 38.3874 1.95539C39.6081 0.734718 41.2637 0.0489502 42.99 0.0489502V0.0489502Z" fill="#E33E20"/>
</svg>
