<svg width="189" height="43" viewBox="0 0 189 43" fill="none" xmlns="http://www.w3.org/2000/svg">
<path d="M84.337 42.5552C83.633 42.5552 82.947 42.5275 82.279 42.4721C81.7173 42.4325 81.1596 42.3488 80.611 42.2218V34.5377C81.5284 34.701 82.4593 34.7758 83.391 34.761C84.6448 34.8604 85.8964 34.5434 86.9522 33.8589C88.0079 33.1744 88.8088 32.1606 89.231 30.9745V30.9184L80.135 6.86995C79.8897 6.22182 79.8053 5.52376 79.889 4.83575C79.9726 4.14775 80.2219 3.49036 80.6153 2.92009C81.0088 2.34982 81.5346 1.88371 82.1477 1.56181C82.7608 1.23992 83.4427 1.07186 84.135 1.07208H87.897L94.404 19.614L101.968 1.07208H105.268C105.971 1.07146 106.663 1.24538 107.282 1.57825C107.901 1.91112 108.428 2.39255 108.815 2.9794C109.203 3.56625 109.439 4.2402 109.502 4.94085C109.566 5.64151 109.455 6.34699 109.179 6.99409L98.519 32.0317C97.6455 34.2489 96.4459 36.3229 94.96 38.185C93.7588 39.6536 92.2127 40.8011 90.46 41.525C88.5033 42.2561 86.4249 42.6058 84.337 42.5552Z" fill="#EBE9DA"/>
<path d="M112.018 25.8564V5.60339C112.018 5.00823 112.135 4.41894 112.363 3.86915C112.591 3.31937 112.924 2.81986 113.345 2.39917C113.765 1.97847 114.264 1.64482 114.814 1.41728C115.363 1.18974 115.952 1.07276 116.546 1.07302H121.03V2.96626C122.779 1.65715 124.844 0.83809 127.014 0.593324C129.184 0.348557 131.38 0.686922 133.376 1.57362C134.84 2.26296 136.118 3.29279 137.103 4.57717C138.281 3.28514 139.722 2.26094 141.329 1.57362C143.017 0.857125 144.835 0.497201 146.669 0.516365C148.733 0.4744 150.77 0.993395 152.563 2.01814C154.263 3.01486 155.658 4.45921 156.595 6.19408C157.606 8.09411 158.114 10.222 158.069 12.3744V25.1645C158.069 26.5875 157.504 27.9522 156.499 28.9584C155.494 29.9646 154.131 30.5299 152.71 30.5299H149.058V13.6019C149.132 12.1838 148.665 10.7906 147.752 9.70424C147.313 9.22374 146.775 8.84517 146.174 8.59509C145.574 8.345 144.926 8.22945 144.276 8.25652C143.338 8.24359 142.408 8.43346 141.55 8.81318C140.723 9.19361 139.999 9.76613 139.437 10.4832C139.474 10.7808 139.502 11.0872 139.52 11.4022C139.538 11.7173 139.548 12.042 139.549 12.3764V30.5279H130.539V13.6019C130.613 12.1837 130.146 10.7904 129.232 9.70424C128.793 9.22374 128.255 8.84517 127.654 8.59509C127.054 8.345 126.406 8.22945 125.756 8.25652C124.829 8.24113 123.909 8.42124 123.056 8.78515C122.259 9.13853 121.562 9.68365 121.026 10.372V30.5279H116.683C115.446 30.5276 114.259 30.0353 113.384 29.1593C112.509 28.2832 112.018 27.0951 112.018 25.8564Z" fill="#EBE9DA"/>
<path d="M171.696 31.0295C169.787 31.0657 167.894 30.6658 166.162 29.8601C164.63 29.1504 163.322 28.0336 162.38 26.6313C161.462 25.2263 160.987 23.5773 161.017 21.8987C160.96 20.627 161.223 19.3613 161.782 18.218C162.341 17.0747 163.179 16.0905 164.217 15.3559C166.35 13.8161 169.326 13.0459 173.144 13.0452C175.395 13.0394 177.637 13.3203 179.817 13.8812V12.4325C179.864 11.8067 179.759 11.1789 179.512 10.6022C179.265 10.0256 178.883 9.51696 178.398 9.11954C177.153 8.3106 175.679 7.9293 174.198 8.03325C172.891 8.05543 171.593 8.24246 170.333 8.58991C168.615 9.06319 166.932 9.65874 165.299 10.372L162.074 3.74618C164.322 2.72624 166.658 1.91521 169.054 1.32331C171.265 0.789622 173.531 0.518768 175.806 0.516357C179.884 0.516357 183.054 1.49084 185.317 3.43982C186.461 4.46608 187.36 5.73678 187.947 7.15787C188.534 8.57895 188.795 10.114 188.709 11.6495V24.6449C188.709 26.2044 188.09 27.7 186.989 28.8027C185.887 29.9054 184.394 30.5249 182.836 30.5249H179.811V28.7428C178.669 29.5386 177.4 30.1319 176.057 30.4968C174.633 30.8636 173.167 31.0427 171.696 31.0295ZM169.583 21.7305C169.573 22.169 169.682 22.6022 169.897 22.9843C170.112 23.3664 170.426 23.6834 170.806 23.902C171.841 24.4766 173.017 24.747 174.199 24.682C175.219 24.6881 176.236 24.5759 177.23 24.3476C178.144 24.1377 179.017 23.7803 179.816 23.2893V19.5038C178.956 19.2802 178.083 19.1129 177.202 19.0032C176.298 18.891 175.387 18.8351 174.476 18.836C173.226 18.7673 171.98 19.0265 170.861 19.5879C170.469 19.7897 170.142 20.0974 169.916 20.4761C169.689 20.8548 169.574 21.2894 169.582 21.7305H169.583Z" fill="#EBE9DA"/>
<path d="M29.37 30.4018L-5.72205e-06 30.4018L-5.72205e-06 0.996996C7.7894 0.996996 15.2598 4.09499 20.7677 9.60946C26.2757 15.1239 29.37 22.6032 29.37 30.4018L29.37 30.4018Z" fill="#EBE9DA"/>
<path d="M67.785 0.476349C69.9677 0.476349 72.0611 1.34446 73.6045 2.88972C75.1479 4.43497 76.015 6.53078 76.015 8.7161V30.568H67.785V0.476349Z" fill="#EBE9DA"/>
<path d="M60.152 0.476349H51.922V30.568H60.152V0.476349Z" fill="#EBE9DA"/>
<path d="M44.289 0.476349V30.568H36.059V8.7161C36.059 6.53078 36.9261 4.43497 38.4695 2.88972C40.0129 1.34446 42.1063 0.476349 44.289 0.476349V0.476349Z" fill="#EBE9DA"/>
</svg>
