<svg width="22" height="24" viewBox="0 0 22 24"  xmlns="http://www.w3.org/2000/svg">
<path d="M13.169 21.083C13.3335 20.937 13.5447 20.8543 13.7646 20.8499C13.9845 20.8456 14.1988 20.9197 14.369 21.059C14.4619 21.1348 14.5388 21.2283 14.5952 21.334C14.6517 21.4398 14.6866 21.5557 14.698 21.675C14.7093 21.7944 14.6969 21.9148 14.6613 22.0292C14.6258 22.1437 14.5679 22.25 14.491 22.342C14.0956 22.8533 13.5893 23.2682 13.0102 23.5554C12.4311 23.8426 11.7944 23.9946 11.148 24L10.887 23.989C10.2879 23.9461 9.7046 23.7772 9.17523 23.4934C8.64586 23.2096 8.18236 22.8172 7.81503 22.342L7.73603 22.232C7.62217 22.0453 7.5797 21.8237 7.61646 21.6081C7.65322 21.3925 7.76673 21.1975 7.93603 21.059C8.1242 20.9047 8.36562 20.8309 8.6079 20.8536C8.85017 20.8762 9.07372 20.9935 9.23003 21.18C9.37186 21.3698 9.54025 21.5382 9.73003 21.68C10.2386 22.0544 10.8748 22.2119 11.4993 22.1182C12.1238 22.0245 12.6857 21.6871 13.062 21.18H13.073L13.169 21.083ZM11.158 0C14.842 0 18.972 2.6 19.441 6.768V8.943C19.6016 9.72929 19.9692 10.4584 20.506 11.055C20.5378 11.091 20.5662 11.1299 20.591 11.171C21.0777 11.903 21.3572 12.753 21.4 13.631L21.368 13.853C21.4029 15.0533 21.0018 16.2256 20.239 17.153C19.2591 18.2084 17.9249 18.8662 16.491 19.001C12.953 19.3893 9.38307 19.3893 5.84503 19.001C4.43219 18.8568 3.12136 18.1993 2.16103 17.153C1.38604 16.2388 0.972992 15.0722 1.00003 13.874V13.726C1.05876 12.8207 1.3607 11.948 1.87403 11.2L1.96003 11.1C2.49315 10.4999 2.85997 9.77076 3.02403 8.985V6.81L3.08303 6.688C3.17824 6.52511 3.32133 6.39551 3.49283 6.31684C3.66433 6.23817 3.8559 6.21426 4.04147 6.24836C4.22705 6.28246 4.3976 6.37291 4.52994 6.5074C4.66227 6.6419 4.74994 6.8139 4.78103 7V9.176C4.78515 9.21456 4.78515 9.25344 4.78103 9.292C4.5586 10.3827 4.05181 11.3952 3.31203 12.227C3.02701 12.6772 2.8656 13.1946 2.84403 13.727V13.959C2.81997 14.7075 3.06874 15.4393 3.54403 16.018C4.20772 16.6964 5.09177 17.1155 6.03703 17.2C9.46242 17.5696 12.9176 17.5696 16.343 17.2C17.3133 17.1124 18.218 16.6731 18.887 15.965C19.341 15.3991 19.5788 14.6902 19.558 13.965V13.722C19.536 13.188 19.3784 12.6683 19.1 12.212C18.3296 11.3897 17.793 10.3764 17.546 9.277C17.5419 9.23844 17.5419 9.19956 17.546 9.161V6.979C17.237 3.79 14.033 1.816 11.246 1.816C10.0609 1.81285 8.89492 2.11451 7.86003 2.692L7.73303 2.755C7.60318 2.80778 7.46301 2.83025 7.32317 2.82072C7.18334 2.81119 7.04751 2.7699 6.92603 2.7C6.78311 2.62017 6.66468 2.50287 6.58348 2.36073C6.50227 2.2186 6.46137 2.05701 6.46518 1.89335C6.46898 1.7297 6.51735 1.57018 6.60508 1.43197C6.6928 1.29377 6.81656 1.1821 6.96303 1.109C8.24525 0.390961 9.68847 0.00942833 11.158 0V0Z" />
</svg>
