<svg width="234" height="316" viewBox="0 0 234 316" fill="none" xmlns="http://www.w3.org/2000/svg">
<path d="M47.762 256.24C47.762 254.92 48.422 254.26 49.742 254.26H52.082C53.402 254.26 54.062 254.92 54.062 256.24V278.02C54.062 279.34 53.402 280 52.082 280H49.742C48.422 280 47.762 279.34 47.762 278.02V256.24ZM57.9772 263.44C57.9772 262.12 58.6372 261.46 59.9572 261.46H61.9732C63.2692 261.46 63.9172 262.12 63.9172 263.44V263.764C63.9172 263.812 63.9052 263.86 63.8812 263.908C63.8812 263.956 63.8812 264.004 63.8812 264.052V264.232H63.9532C64.1692 263.872 64.4452 263.5 64.7812 263.116C65.1172 262.732 65.5252 262.396 66.0052 262.108C66.4852 261.796 67.0372 261.544 67.6612 261.352C68.3092 261.136 69.0412 261.028 69.8572 261.028C70.7932 261.028 71.6692 261.148 72.4852 261.388C73.3012 261.628 73.9972 262.024 74.5732 262.576C75.1732 263.104 75.6412 263.812 75.9772 264.7C76.3372 265.588 76.5172 266.68 76.5172 267.976V278.02C76.5172 279.34 75.8572 280 74.5372 280H72.2692C70.9492 280 70.2892 279.34 70.2892 278.02V269.128C70.2892 268.264 70.1212 267.64 69.7852 267.256C69.4492 266.872 68.9332 266.68 68.2372 266.68C67.5412 266.68 66.9412 266.812 66.4372 267.076C65.9332 267.34 65.5132 267.7 65.1772 268.156C64.8412 268.612 64.5892 269.14 64.4212 269.74C64.2772 270.34 64.2052 270.964 64.2052 271.612V278.02C64.2052 279.34 63.5452 280 62.2252 280H59.9572C58.6372 280 57.9772 279.34 57.9772 278.02V263.44ZM81.8579 283.024C82.0979 282.4 82.4099 281.992 82.7939 281.8C83.1779 281.632 83.7059 281.656 84.3779 281.872C84.8339 282.016 85.3139 282.136 85.8179 282.232C86.3459 282.328 86.9699 282.376 87.6899 282.376C88.2659 282.376 88.8179 282.316 89.3459 282.196C89.8739 282.076 90.3299 281.884 90.7139 281.62C91.1219 281.356 91.4459 280.996 91.6859 280.54C91.9259 280.084 92.0459 279.508 92.0459 278.812V277.876V277.444C92.0459 277.348 92.0579 277.264 92.0819 277.192H92.0099C91.5059 277.936 90.8939 278.5 90.1739 278.884C89.4779 279.268 88.5779 279.46 87.4739 279.46C86.0579 279.46 84.8099 279.196 83.7299 278.668C82.6739 278.14 81.7979 277.444 81.1019 276.58C80.4059 275.716 79.8779 274.732 79.5179 273.628C79.1819 272.5 79.0139 271.336 79.0139 270.136C79.0139 268.96 79.1819 267.832 79.5179 266.752C79.8539 265.648 80.3699 264.676 81.0659 263.836C81.7859 262.972 82.6739 262.288 83.7299 261.784C84.8099 261.28 86.0699 261.028 87.5099 261.028C88.5179 261.028 89.3339 261.16 89.9579 261.424C90.6059 261.664 91.1339 261.94 91.5419 262.252C91.9739 262.612 92.3219 263.008 92.5859 263.44H92.6579C92.6339 263.416 92.6219 263.38 92.6219 263.332V263.08V263.008C92.6219 262.576 92.7899 262.216 93.1259 261.928C93.4619 261.616 93.9539 261.46 94.6019 261.46H96.2939C97.6139 261.46 98.2739 262.12 98.2739 263.44V278.308C98.2739 280.012 97.9619 281.44 97.3379 282.592C96.7139 283.768 95.9099 284.728 94.9259 285.472C93.9419 286.216 92.8379 286.744 91.6139 287.056C90.4139 287.392 89.2259 287.56 88.0499 287.56C86.9699 287.56 85.9139 287.464 84.8819 287.272C83.8739 287.104 83.0939 286.9 82.5419 286.66C81.3659 286.18 81.0059 285.328 81.4619 284.104L81.8579 283.024ZM88.8419 274.276C89.2499 274.276 89.6459 274.216 90.0299 274.096C90.4379 273.976 90.7979 273.772 91.1099 273.484C91.4459 273.172 91.7099 272.752 91.9019 272.224C92.0939 271.696 92.1899 271.024 92.1899 270.208C92.1899 269.392 92.0819 268.732 91.8659 268.228C91.6739 267.7 91.4099 267.292 91.0739 267.004C90.7619 266.692 90.3779 266.488 89.9219 266.392C89.4899 266.272 89.0459 266.212 88.5899 266.212C87.4859 266.212 86.6579 266.56 86.1059 267.256C85.5539 267.952 85.2779 268.84 85.2779 269.92C85.2779 270.496 85.3499 271.048 85.4939 271.576C85.6379 272.104 85.8539 272.572 86.1419 272.98C86.4299 273.364 86.7899 273.676 87.2219 273.916C87.6779 274.156 88.2179 274.276 88.8419 274.276ZM101.993 263.44C101.993 262.12 102.653 261.46 103.973 261.46H105.989C107.309 261.46 107.969 262.12 107.969 263.44V264.592C107.969 264.76 107.957 264.904 107.933 265.024C107.933 265.144 107.933 265.264 107.933 265.384C107.909 265.504 107.897 265.624 107.897 265.744H107.969C108.113 265.264 108.341 264.76 108.653 264.232C108.965 263.704 109.337 263.224 109.769 262.792C110.201 262.36 110.681 262 111.209 261.712C111.761 261.424 112.325 261.28 112.901 261.28C113.525 261.28 113.957 261.448 114.197 261.784C114.461 262.12 114.593 262.612 114.593 263.26V265.276C114.593 266.596 113.933 267.256 112.613 267.256C111.869 267.256 111.221 267.412 110.669 267.724C110.117 268.012 109.661 268.408 109.301 268.912C108.941 269.416 108.665 270.004 108.473 270.676C108.305 271.348 108.221 272.056 108.221 272.8V278.02C108.221 279.34 107.561 280 106.241 280H103.973C102.653 280 101.993 279.34 101.993 278.02V263.44ZM115.363 270.712C115.363 269.344 115.579 268.072 116.011 266.896C116.467 265.72 117.103 264.7 117.919 263.836C118.759 262.972 119.779 262.288 120.979 261.784C122.179 261.28 123.523 261.028 125.011 261.028C126.379 261.028 127.591 261.256 128.647 261.712C129.727 262.168 130.627 262.792 131.347 263.584C132.091 264.376 132.643 265.312 133.003 266.392C133.387 267.472 133.579 268.636 133.579 269.884C133.579 270.364 133.387 270.832 133.003 271.288C132.619 271.72 132.115 271.936 131.491 271.936H121.735C121.975 273.088 122.503 273.928 123.319 274.456C124.135 274.984 125.047 275.248 126.055 275.248C126.679 275.248 127.279 275.164 127.855 274.996C128.431 274.828 128.959 274.624 129.439 274.384C130.039 274.12 130.555 274.036 130.987 274.132C131.419 274.228 131.791 274.564 132.103 275.14L132.607 276.076C132.895 276.628 132.991 277.144 132.895 277.624C132.799 278.08 132.475 278.464 131.923 278.776C131.251 279.16 130.375 279.532 129.295 279.892C128.239 280.252 126.991 280.432 125.551 280.432C123.895 280.432 122.431 280.156 121.159 279.604C119.887 279.052 118.819 278.332 117.955 277.444C117.115 276.532 116.467 275.488 116.011 274.312C115.579 273.136 115.363 271.936 115.363 270.712ZM127.423 268.372C127.423 267.604 127.195 266.956 126.739 266.428C126.283 265.876 125.659 265.6 124.867 265.6C123.955 265.6 123.271 265.876 122.815 266.428C122.359 266.98 122.047 267.628 121.879 268.372H127.423ZM136.13 278.74C135.578 278.428 135.266 278.032 135.194 277.552C135.146 277.072 135.29 276.556 135.626 276.004L136.166 275.176C136.526 274.648 136.91 274.348 137.318 274.276C137.75 274.204 138.278 274.312 138.902 274.6C139.358 274.792 139.874 275.008 140.45 275.248C141.026 275.464 141.686 275.572 142.43 275.572C143.054 275.572 143.486 275.476 143.726 275.284C143.99 275.068 144.122 274.816 144.122 274.528C144.122 274.168 143.906 273.88 143.474 273.664C143.042 273.448 142.502 273.244 141.854 273.052C141.23 272.836 140.534 272.608 139.766 272.368C139.022 272.104 138.326 271.756 137.678 271.324C137.054 270.868 136.526 270.292 136.094 269.596C135.662 268.876 135.446 267.976 135.446 266.896C135.446 265.936 135.638 265.096 136.022 264.376C136.43 263.632 136.982 263.02 137.678 262.54C138.374 262.036 139.19 261.664 140.126 261.424C141.062 261.16 142.07 261.028 143.15 261.028C144.326 261.028 145.346 261.16 146.21 261.424C147.098 261.688 147.83 261.952 148.406 262.216C148.958 262.48 149.282 262.852 149.378 263.332C149.474 263.812 149.39 264.328 149.126 264.88L148.694 265.744C148.43 266.32 148.082 266.668 147.65 266.788C147.218 266.908 146.69 266.848 146.066 266.608C145.634 266.44 145.154 266.284 144.626 266.14C144.098 265.972 143.522 265.888 142.898 265.888C142.226 265.888 141.782 265.984 141.566 266.176C141.35 266.368 141.242 266.596 141.242 266.86C141.242 267.22 141.458 267.508 141.89 267.724C142.322 267.916 142.85 268.12 143.474 268.336C144.122 268.528 144.818 268.744 145.562 268.984C146.33 269.224 147.026 269.572 147.65 270.028C148.298 270.46 148.838 271.024 149.27 271.72C149.702 272.392 149.918 273.268 149.918 274.348C149.918 275.212 149.738 276.016 149.378 276.76C149.042 277.504 148.538 278.152 147.866 278.704C147.218 279.232 146.414 279.652 145.454 279.964C144.518 280.276 143.462 280.432 142.286 280.432C140.894 280.432 139.682 280.252 138.65 279.892C137.618 279.508 136.778 279.124 136.13 278.74ZM151.428 274.78C151.428 273.532 151.752 272.5 152.4 271.684C153.072 270.868 153.924 270.22 154.956 269.74C155.988 269.26 157.116 268.924 158.34 268.732C159.564 268.54 160.752 268.444 161.904 268.444H162.444V268.12C162.444 267.352 162.18 266.824 161.652 266.536C161.124 266.224 160.512 266.068 159.816 266.068C159.216 266.068 158.628 266.152 158.052 266.32C157.476 266.488 156.948 266.68 156.468 266.896C155.244 267.424 154.356 267.136 153.804 266.032L153.372 265.132C153.108 264.58 153.036 264.076 153.156 263.62C153.276 263.14 153.612 262.756 154.164 262.468C154.86 262.132 155.736 261.808 156.792 261.496C157.848 261.184 159.048 261.028 160.392 261.028C162.96 261.028 164.976 261.7 166.44 263.044C167.928 264.364 168.672 266.212 168.672 268.588V278.02C168.672 279.34 168.012 280 166.692 280H164.964C163.644 280 162.984 279.328 162.984 277.984V277.84V277.588C162.984 277.54 162.996 277.504 163.02 277.48H162.948C162.588 278.032 162.144 278.524 161.616 278.956C161.16 279.34 160.584 279.688 159.888 280C159.192 280.288 158.388 280.432 157.476 280.432C156.588 280.432 155.772 280.288 155.028 280C154.284 279.712 153.648 279.316 153.12 278.812C152.592 278.308 152.172 277.708 151.86 277.012C151.572 276.316 151.428 275.572 151.428 274.78ZM157.584 274.204C157.584 274.636 157.728 275.008 158.016 275.32C158.328 275.632 158.772 275.788 159.348 275.788C159.804 275.788 160.224 275.692 160.608 275.5C160.992 275.284 161.328 275.02 161.616 274.708C161.904 274.396 162.12 274.048 162.264 273.664C162.432 273.28 162.516 272.896 162.516 272.512V272.008H161.94C161.46 272.008 160.956 272.044 160.428 272.116C159.924 272.188 159.456 272.308 159.024 272.476C158.616 272.644 158.268 272.872 157.98 273.16C157.716 273.424 157.584 273.772 157.584 274.204ZM172.059 278.74C171.507 278.428 171.195 278.032 171.123 277.552C171.075 277.072 171.219 276.556 171.555 276.004L172.095 275.176C172.455 274.648 172.839 274.348 173.247 274.276C173.679 274.204 174.207 274.312 174.831 274.6C175.287 274.792 175.803 275.008 176.379 275.248C176.955 275.464 177.615 275.572 178.359 275.572C178.983 275.572 179.415 275.476 179.655 275.284C179.919 275.068 180.051 274.816 180.051 274.528C180.051 274.168 179.835 273.88 179.403 273.664C178.971 273.448 178.431 273.244 177.783 273.052C177.159 272.836 176.463 272.608 175.695 272.368C174.951 272.104 174.255 271.756 173.607 271.324C172.983 270.868 172.455 270.292 172.023 269.596C171.591 268.876 171.375 267.976 171.375 266.896C171.375 265.936 171.567 265.096 171.951 264.376C172.359 263.632 172.911 263.02 173.607 262.54C174.303 262.036 175.119 261.664 176.055 261.424C176.991 261.16 177.999 261.028 179.079 261.028C180.255 261.028 181.275 261.16 182.139 261.424C183.027 261.688 183.759 261.952 184.335 262.216C184.887 262.48 185.211 262.852 185.307 263.332C185.403 263.812 185.319 264.328 185.055 264.88L184.623 265.744C184.359 266.32 184.011 266.668 183.579 266.788C183.147 266.908 182.619 266.848 181.995 266.608C181.563 266.44 181.083 266.284 180.555 266.14C180.027 265.972 179.451 265.888 178.827 265.888C178.155 265.888 177.711 265.984 177.495 266.176C177.279 266.368 177.171 266.596 177.171 266.86C177.171 267.22 177.387 267.508 177.819 267.724C178.251 267.916 178.779 268.12 179.403 268.336C180.051 268.528 180.747 268.744 181.491 268.984C182.259 269.224 182.955 269.572 183.579 270.028C184.227 270.46 184.767 271.024 185.199 271.72C185.631 272.392 185.847 273.268 185.847 274.348C185.847 275.212 185.667 276.016 185.307 276.76C184.971 277.504 184.467 278.152 183.795 278.704C183.147 279.232 182.343 279.652 181.383 279.964C180.447 280.276 179.391 280.432 178.215 280.432C176.823 280.432 175.611 280.252 174.579 279.892C173.547 279.508 172.707 279.124 172.059 278.74Z" fill="#663B73"/>
<path d="M0.62 302.886C0.62 302.49 0.818 302.292 1.214 302.292H7.406C7.802 302.292 8 302.49 8 302.886V303.246C8 303.642 7.802 303.84 7.406 303.84H2.384V307.818H6.362C6.758 307.818 6.956 308.016 6.956 308.412V308.772C6.956 309.168 6.758 309.366 6.362 309.366H2.384V313.452H7.712C8.108 313.452 8.306 313.65 8.306 314.046V314.406C8.306 314.802 8.108 315 7.712 315H1.214C0.818 315 0.62 314.802 0.62 314.406V302.886ZM9.88438 314.226C9.72838 314.13 9.64438 314.01 9.63238 313.866C9.62038 313.722 9.66238 313.572 9.75838 313.416L9.93838 313.164C10.0584 313.008 10.1784 312.924 10.2984 312.912C10.4304 312.9 10.5864 312.942 10.7664 313.038C10.9704 313.17 11.2584 313.326 11.6304 313.506C12.0024 313.686 12.4584 313.776 12.9984 313.776C13.4544 313.776 13.8264 313.674 14.1144 313.47C14.4024 313.254 14.5464 312.954 14.5464 312.57C14.5464 312.27 14.4264 312.03 14.1864 311.85C13.9584 311.67 13.6704 311.508 13.3224 311.364C12.9744 311.208 12.5964 311.064 12.1884 310.932C11.7924 310.788 11.4204 310.608 11.0724 310.392C10.7244 310.164 10.4304 309.888 10.1904 309.564C9.96238 309.24 9.84838 308.82 9.84838 308.304C9.84838 307.872 9.93238 307.494 10.1004 307.17C10.2804 306.834 10.5204 306.558 10.8204 306.342C11.1204 306.126 11.4684 305.964 11.8644 305.856C12.2724 305.736 12.6984 305.676 13.1424 305.676C13.7784 305.676 14.3004 305.76 14.7084 305.928C15.1284 306.096 15.4464 306.246 15.6624 306.378C15.8304 306.462 15.9264 306.576 15.9504 306.72C15.9864 306.852 15.9564 307.002 15.8604 307.17L15.6984 307.44C15.5304 307.74 15.2664 307.806 14.9064 307.638C14.7144 307.53 14.4624 307.416 14.1504 307.296C13.8504 307.176 13.4844 307.116 13.0524 307.116C12.6204 307.116 12.2544 307.212 11.9544 307.404C11.6664 307.596 11.5224 307.884 11.5224 308.268C11.5224 308.568 11.6364 308.814 11.8644 309.006C12.1044 309.186 12.3984 309.348 12.7464 309.492C13.0944 309.636 13.4664 309.78 13.8624 309.924C14.2704 310.068 14.6484 310.248 14.9964 310.464C15.3444 310.668 15.6324 310.938 15.8604 311.274C16.1004 311.598 16.2204 312.018 16.2204 312.534C16.2204 312.918 16.1424 313.278 15.9864 313.614C15.8304 313.938 15.6084 314.22 15.3204 314.46C15.0324 314.7 14.6844 314.886 14.2764 315.018C13.8804 315.15 13.4364 315.216 12.9444 315.216C12.5604 315.216 12.2064 315.18 11.8824 315.108C11.5704 315.048 11.2884 314.97 11.0364 314.874C10.7844 314.766 10.5564 314.658 10.3524 314.55C10.1604 314.43 10.0044 314.322 9.88438 314.226ZM17.5605 310.446C17.5605 309.774 17.6805 309.15 17.9205 308.574C18.1605 307.986 18.4965 307.482 18.9285 307.062C19.3605 306.63 19.8705 306.294 20.4585 306.054C21.0585 305.802 21.7125 305.676 22.4205 305.676C22.8045 305.676 23.1525 305.712 23.4645 305.784C23.7765 305.844 24.0585 305.922 24.3105 306.018C24.5625 306.114 24.7785 306.222 24.9585 306.342C25.1505 306.45 25.3065 306.552 25.4265 306.648C25.5825 306.744 25.6665 306.864 25.6785 307.008C25.6905 307.152 25.6425 307.302 25.5345 307.458L25.3545 307.728C25.1625 308.028 24.8925 308.076 24.5445 307.872C24.3525 307.74 24.0825 307.596 23.7345 307.44C23.3985 307.272 22.9905 307.188 22.5105 307.188C22.0545 307.188 21.6285 307.272 21.2325 307.44C20.8485 307.596 20.5125 307.818 20.2245 308.106C19.9485 308.394 19.7325 308.736 19.5765 309.132C19.4205 309.528 19.3425 309.96 19.3425 310.428C19.3425 310.896 19.4205 311.328 19.5765 311.724C19.7325 312.12 19.9545 312.468 20.2425 312.768C20.5305 313.056 20.8665 313.284 21.2505 313.452C21.6465 313.62 22.0785 313.704 22.5465 313.704C23.0985 313.704 23.5665 313.608 23.9505 313.416C24.3465 313.224 24.6525 313.044 24.8685 312.876C25.2045 312.66 25.4745 312.714 25.6785 313.038L25.8225 313.308C26.0145 313.632 25.9605 313.896 25.6605 314.1C25.5285 314.208 25.3605 314.328 25.1565 314.46C24.9645 314.58 24.7305 314.7 24.4545 314.82C24.1905 314.928 23.8845 315.018 23.5365 315.09C23.2005 315.174 22.8285 315.216 22.4205 315.216C21.7005 315.216 21.0405 315.096 20.4405 314.856C19.8525 314.616 19.3425 314.286 18.9105 313.866C18.4905 313.434 18.1605 312.93 17.9205 312.354C17.6805 311.766 17.5605 311.13 17.5605 310.446ZM26.979 312.516C26.979 312.048 27.069 311.646 27.249 311.31C27.429 310.962 27.669 310.674 27.969 310.446C28.269 310.218 28.605 310.032 28.977 309.888C29.361 309.744 29.757 309.636 30.165 309.564C30.573 309.492 30.969 309.444 31.353 309.42C31.749 309.396 32.103 309.384 32.415 309.384H32.883V309.15C32.883 308.778 32.829 308.466 32.721 308.214C32.625 307.95 32.487 307.74 32.307 307.584C32.127 307.428 31.917 307.32 31.677 307.26C31.437 307.188 31.179 307.152 30.903 307.152C30.447 307.152 30.039 307.218 29.679 307.35C29.331 307.482 29.055 307.608 28.851 307.728C28.503 307.896 28.233 307.824 28.041 307.512L27.897 307.26C27.705 306.9 27.771 306.63 28.095 306.45C28.371 306.294 28.755 306.126 29.247 305.946C29.751 305.766 30.351 305.676 31.047 305.676C32.187 305.676 33.069 305.982 33.693 306.594C34.317 307.194 34.629 308.076 34.629 309.24V314.406C34.629 314.802 34.431 315 34.035 315H33.585C33.189 315 32.991 314.802 32.991 314.406V313.866C32.991 313.782 32.991 313.704 32.991 313.632C32.991 313.56 32.997 313.5 33.009 313.452C33.021 313.404 33.033 313.356 33.045 313.308H33.009C32.829 313.668 32.601 313.986 32.325 314.262C32.085 314.502 31.779 314.724 31.407 314.928C31.035 315.12 30.579 315.216 30.039 315.216C29.643 315.216 29.259 315.156 28.887 315.036C28.515 314.916 28.185 314.742 27.897 314.514C27.621 314.274 27.399 313.992 27.231 313.668C27.063 313.332 26.979 312.948 26.979 312.516ZM28.743 312.372C28.743 312.732 28.881 313.068 29.157 313.38C29.445 313.68 29.871 313.83 30.435 313.83C30.819 313.83 31.161 313.746 31.461 313.578C31.773 313.398 32.031 313.17 32.235 312.894C32.451 312.606 32.613 312.294 32.721 311.958C32.841 311.61 32.901 311.268 32.901 310.932V310.536H32.433C32.109 310.536 31.737 310.554 31.317 310.59C30.897 310.614 30.495 310.686 30.111 310.806C29.727 310.926 29.403 311.112 29.139 311.364C28.875 311.604 28.743 311.94 28.743 312.372ZM37.0159 306.486C37.0159 306.09 37.2139 305.892 37.6099 305.892H38.1139C38.5099 305.892 38.7079 306.09 38.7079 306.486V307.296C38.7079 307.416 38.6959 307.536 38.6719 307.656C38.6599 307.704 38.6539 307.758 38.6539 307.818H38.6899C38.7739 307.626 38.9059 307.404 39.0859 307.152C39.2779 306.9 39.5179 306.666 39.8059 306.45C40.0939 306.234 40.4299 306.054 40.8139 305.91C41.1979 305.754 41.6419 305.676 42.1459 305.676C43.2259 305.676 44.0119 305.97 44.5039 306.558C45.0079 307.134 45.2599 308.004 45.2599 309.168V314.406C45.2599 314.802 45.0619 315 44.6659 315H44.1079C43.7119 315 43.5139 314.802 43.5139 314.406V309.564C43.5139 309.24 43.4899 308.94 43.4419 308.664C43.4059 308.388 43.3279 308.148 43.2079 307.944C43.0879 307.74 42.9139 307.578 42.6859 307.458C42.4579 307.338 42.1639 307.278 41.8039 307.278C41.3599 307.278 40.9519 307.368 40.5799 307.548C40.2079 307.716 39.8839 307.95 39.6079 308.25C39.3439 308.55 39.1339 308.91 38.9779 309.33C38.8339 309.738 38.7619 310.176 38.7619 310.644V314.406C38.7619 314.802 38.5639 315 38.1679 315H37.6099C37.2139 315 37.0159 314.802 37.0159 314.406V306.486ZM47.0746 310.446C47.0746 309.726 47.1886 309.072 47.4166 308.484C47.6566 307.896 47.9746 307.398 48.3706 306.99C48.7786 306.57 49.2586 306.246 49.8106 306.018C50.3746 305.79 50.9806 305.676 51.6286 305.676C52.2526 305.676 52.8106 305.784 53.3026 306C53.7946 306.216 54.2026 306.516 54.5266 306.9C54.8626 307.284 55.1146 307.74 55.2826 308.268C55.4626 308.796 55.5526 309.378 55.5526 310.014C55.5526 310.182 55.4926 310.326 55.3726 310.446C55.2646 310.566 55.1206 310.626 54.9406 310.626H48.8566C48.8806 311.118 48.9826 311.556 49.1626 311.94C49.3426 312.324 49.5766 312.648 49.8646 312.912C50.1526 313.176 50.4766 313.374 50.8366 313.506C51.2086 313.638 51.5986 313.704 52.0066 313.704C52.5106 313.704 52.9486 313.626 53.3206 313.47C53.6926 313.302 53.9806 313.14 54.1846 312.984C54.5446 312.792 54.8146 312.858 54.9946 313.182L55.1566 313.452C55.2526 313.608 55.2826 313.758 55.2466 313.902C55.2226 314.034 55.1326 314.148 54.9766 314.244C54.8446 314.34 54.6766 314.448 54.4726 314.568C54.2686 314.676 54.0346 314.778 53.7706 314.874C53.5186 314.97 53.2306 315.048 52.9066 315.108C52.5946 315.18 52.2586 315.216 51.8986 315.216C51.1786 315.216 50.5246 315.096 49.9366 314.856C49.3486 314.604 48.8386 314.268 48.4066 313.848C47.9866 313.416 47.6566 312.912 47.4166 312.336C47.1886 311.748 47.0746 311.118 47.0746 310.446ZM53.8066 309.474C53.7826 308.67 53.5546 308.064 53.1226 307.656C52.7026 307.248 52.1926 307.044 51.5926 307.044C50.9206 307.044 50.3386 307.26 49.8466 307.692C49.3666 308.112 49.0606 308.706 48.9286 309.474H53.8066ZM56.7212 312.516C56.7212 312.048 56.8112 311.646 56.9912 311.31C57.1712 310.962 57.4112 310.674 57.7112 310.446C58.0112 310.218 58.3472 310.032 58.7192 309.888C59.1032 309.744 59.4992 309.636 59.9072 309.564C60.3152 309.492 60.7112 309.444 61.0952 309.42C61.4912 309.396 61.8452 309.384 62.1572 309.384H62.6252V309.15C62.6252 308.778 62.5712 308.466 62.4632 308.214C62.3672 307.95 62.2292 307.74 62.0492 307.584C61.8692 307.428 61.6592 307.32 61.4192 307.26C61.1792 307.188 60.9212 307.152 60.6452 307.152C60.1892 307.152 59.7812 307.218 59.4212 307.35C59.0732 307.482 58.7972 307.608 58.5932 307.728C58.2452 307.896 57.9752 307.824 57.7832 307.512L57.6392 307.26C57.4472 306.9 57.5132 306.63 57.8372 306.45C58.1132 306.294 58.4972 306.126 58.9892 305.946C59.4932 305.766 60.0932 305.676 60.7892 305.676C61.9292 305.676 62.8112 305.982 63.4352 306.594C64.0592 307.194 64.3712 308.076 64.3712 309.24V314.406C64.3712 314.802 64.1732 315 63.7772 315H63.3272C62.9312 315 62.7332 314.802 62.7332 314.406V313.866C62.7332 313.782 62.7332 313.704 62.7332 313.632C62.7332 313.56 62.7392 313.5 62.7512 313.452C62.7632 313.404 62.7752 313.356 62.7872 313.308H62.7512C62.5712 313.668 62.3432 313.986 62.0672 314.262C61.8272 314.502 61.5212 314.724 61.1492 314.928C60.7772 315.12 60.3212 315.216 59.7812 315.216C59.3852 315.216 59.0012 315.156 58.6292 315.036C58.2572 314.916 57.9272 314.742 57.6392 314.514C57.3632 314.274 57.1412 313.992 56.9732 313.668C56.8052 313.332 56.7212 312.948 56.7212 312.516ZM58.4852 312.372C58.4852 312.732 58.6232 313.068 58.8992 313.38C59.1872 313.68 59.6132 313.83 60.1772 313.83C60.5612 313.83 60.9032 313.746 61.2032 313.578C61.5152 313.398 61.7732 313.17 61.9772 312.894C62.1932 312.606 62.3552 312.294 62.4632 311.958C62.5832 311.61 62.6432 311.268 62.6432 310.932V310.536H62.1752C61.8512 310.536 61.4792 310.554 61.0592 310.59C60.6392 310.614 60.2372 310.686 59.8532 310.806C59.4692 310.926 59.1452 311.112 58.8812 311.364C58.6172 311.604 58.4852 311.94 58.4852 312.372ZM66.758 306.486C66.758 306.09 66.956 305.892 67.352 305.892H67.856C68.252 305.892 68.45 306.09 68.45 306.486V307.296C68.45 307.416 68.438 307.536 68.414 307.656C68.402 307.704 68.396 307.758 68.396 307.818H68.432C68.516 307.626 68.648 307.404 68.828 307.152C69.02 306.9 69.26 306.666 69.548 306.45C69.836 306.234 70.172 306.054 70.556 305.91C70.94 305.754 71.384 305.676 71.888 305.676C72.968 305.676 73.754 305.97 74.246 306.558C74.75 307.134 75.002 308.004 75.002 309.168V314.406C75.002 314.802 74.804 315 74.408 315H73.85C73.454 315 73.256 314.802 73.256 314.406V309.564C73.256 309.24 73.232 308.94 73.184 308.664C73.148 308.388 73.07 308.148 72.95 307.944C72.83 307.74 72.656 307.578 72.428 307.458C72.2 307.338 71.906 307.278 71.546 307.278C71.102 307.278 70.694 307.368 70.322 307.548C69.95 307.716 69.626 307.95 69.35 308.25C69.086 308.55 68.876 308.91 68.72 309.33C68.576 309.738 68.504 310.176 68.504 310.644V314.406C68.504 314.802 68.306 315 67.91 315H67.352C66.956 315 66.758 314.802 66.758 314.406V306.486ZM76.8348 310.446C76.8348 309.726 76.9368 309.072 77.1408 308.484C77.3448 307.896 77.6268 307.398 77.9868 306.99C78.3588 306.57 78.7968 306.246 79.3008 306.018C79.8048 305.79 80.3568 305.676 80.9568 305.676C81.4848 305.676 81.9228 305.76 82.2708 305.928C82.6308 306.084 82.9248 306.264 83.1528 306.468C83.4168 306.696 83.6268 306.954 83.7828 307.242H83.8188C83.8068 307.182 83.7948 307.122 83.7828 307.062C83.7708 307.002 83.7648 306.942 83.7648 306.882C83.7648 306.81 83.7648 306.726 83.7648 306.63V302.886C83.7648 302.49 83.9628 302.292 84.3588 302.292H84.9168C85.3128 302.292 85.5108 302.49 85.5108 302.886V314.406C85.5108 314.802 85.3128 315 84.9168 315H84.4488C84.0528 315 83.8548 314.814 83.8548 314.442V313.92C83.8548 313.764 83.8608 313.656 83.8728 313.596C83.8728 313.548 83.8788 313.506 83.8908 313.47H83.8548C83.6868 313.806 83.4648 314.1 83.1888 314.352C82.9488 314.568 82.6368 314.766 82.2528 314.946C81.8808 315.126 81.4128 315.216 80.8488 315.216C80.2368 315.216 79.6788 315.102 79.1748 314.874C78.6828 314.634 78.2628 314.304 77.9148 313.884C77.5668 313.464 77.2968 312.966 77.1048 312.39C76.9248 311.802 76.8348 311.154 76.8348 310.446ZM78.6168 310.446C78.6168 310.938 78.6768 311.388 78.7968 311.796C78.9288 312.192 79.1088 312.534 79.3368 312.822C79.5648 313.098 79.8348 313.314 80.1468 313.47C80.4588 313.626 80.8068 313.704 81.1908 313.704C81.5268 313.704 81.8508 313.644 82.1628 313.524C82.4868 313.392 82.7688 313.194 83.0088 312.93C83.2488 312.666 83.4408 312.33 83.5848 311.922C83.7408 311.502 83.8188 311.004 83.8188 310.428C83.8188 310.02 83.7648 309.624 83.6568 309.24C83.5488 308.856 83.3868 308.514 83.1708 308.214C82.9548 307.914 82.6848 307.674 82.3608 307.494C82.0368 307.302 81.6588 307.206 81.2268 307.206C80.8668 307.206 80.5308 307.278 80.2188 307.422C79.9068 307.566 79.6308 307.776 79.3908 308.052C79.1508 308.328 78.9588 308.67 78.8148 309.078C78.6828 309.474 78.6168 309.93 78.6168 310.446ZM87.4512 310.428C87.4512 309.744 87.5772 309.114 87.8292 308.538C88.0932 307.95 88.4412 307.446 88.8732 307.026C89.3172 306.594 89.8332 306.264 90.4212 306.036C91.0212 305.796 91.6632 305.676 92.3472 305.676C93.0312 305.676 93.6672 305.796 94.2552 306.036C94.8552 306.264 95.3772 306.594 95.8212 307.026C96.2652 307.446 96.6132 307.95 96.8652 308.538C97.1292 309.114 97.2612 309.744 97.2612 310.428C97.2612 311.124 97.1292 311.766 96.8652 312.354C96.6132 312.93 96.2652 313.434 95.8212 313.866C95.3772 314.286 94.8552 314.616 94.2552 314.856C93.6672 315.096 93.0312 315.216 92.3472 315.216C91.6632 315.216 91.0212 315.096 90.4212 314.856C89.8332 314.616 89.3172 314.286 88.8732 313.866C88.4412 313.434 88.0932 312.93 87.8292 312.354C87.5772 311.766 87.4512 311.124 87.4512 310.428ZM89.2152 310.428C89.2152 310.908 89.2992 311.352 89.4672 311.76C89.6352 312.156 89.8572 312.498 90.1332 312.786C90.4212 313.074 90.7512 313.302 91.1232 313.47C91.5072 313.626 91.9152 313.704 92.3472 313.704C92.7792 313.704 93.1812 313.626 93.5532 313.47C93.9372 313.302 94.2732 313.074 94.5612 312.786C94.8492 312.498 95.0712 312.156 95.2272 311.76C95.3952 311.352 95.4792 310.908 95.4792 310.428C95.4792 309.96 95.3952 309.528 95.2272 309.132C95.0712 308.736 94.8492 308.394 94.5612 308.106C94.2732 307.818 93.9372 307.596 93.5532 307.44C93.1812 307.272 92.7792 307.188 92.3472 307.188C91.9152 307.188 91.5072 307.272 91.1232 307.44C90.7512 307.596 90.4212 307.818 90.1332 308.106C89.8572 308.394 89.6352 308.736 89.4672 309.132C89.2992 309.528 89.2152 309.96 89.2152 310.428ZM103.114 310.446C103.114 309.726 103.228 309.072 103.456 308.484C103.696 307.896 104.014 307.398 104.41 306.99C104.818 306.57 105.298 306.246 105.85 306.018C106.414 305.79 107.02 305.676 107.668 305.676C108.292 305.676 108.85 305.784 109.342 306C109.834 306.216 110.242 306.516 110.566 306.9C110.902 307.284 111.154 307.74 111.322 308.268C111.502 308.796 111.592 309.378 111.592 310.014C111.592 310.182 111.532 310.326 111.412 310.446C111.304 310.566 111.16 310.626 110.98 310.626H104.896C104.92 311.118 105.022 311.556 105.202 311.94C105.382 312.324 105.616 312.648 105.904 312.912C106.192 313.176 106.516 313.374 106.876 313.506C107.248 313.638 107.638 313.704 108.046 313.704C108.55 313.704 108.988 313.626 109.36 313.47C109.732 313.302 110.02 313.14 110.224 312.984C110.584 312.792 110.854 312.858 111.034 313.182L111.196 313.452C111.292 313.608 111.322 313.758 111.286 313.902C111.262 314.034 111.172 314.148 111.016 314.244C110.884 314.34 110.716 314.448 110.512 314.568C110.308 314.676 110.074 314.778 109.81 314.874C109.558 314.97 109.27 315.048 108.946 315.108C108.634 315.18 108.298 315.216 107.938 315.216C107.218 315.216 106.564 315.096 105.976 314.856C105.388 314.604 104.878 314.268 104.446 313.848C104.026 313.416 103.696 312.912 103.456 312.336C103.228 311.748 103.114 311.118 103.114 310.446ZM109.846 309.474C109.822 308.67 109.594 308.064 109.162 307.656C108.742 307.248 108.232 307.044 107.632 307.044C106.96 307.044 106.378 307.26 105.886 307.692C105.406 308.112 105.1 308.706 104.968 309.474H109.846ZM113.498 302.886C113.498 302.49 113.696 302.292 114.092 302.292H114.65C115.046 302.292 115.244 302.49 115.244 302.886V312.3C115.244 312.552 115.268 312.756 115.316 312.912C115.364 313.068 115.43 313.188 115.514 313.272C115.598 313.356 115.688 313.416 115.784 313.452C115.88 313.476 115.976 313.494 116.072 313.506C116.204 313.53 116.312 313.584 116.396 313.668C116.492 313.74 116.54 313.86 116.54 314.028V314.46C116.54 314.652 116.492 314.802 116.396 314.91C116.312 315.018 116.156 315.072 115.928 315.072C115.688 315.072 115.424 315.048 115.136 315C114.848 314.94 114.584 314.826 114.344 314.658C114.104 314.478 113.9 314.22 113.732 313.884C113.576 313.548 113.498 313.092 113.498 312.516V302.886ZM122.277 308.574C122.277 307.662 122.439 306.81 122.763 306.018C123.087 305.226 123.537 304.536 124.113 303.948C124.701 303.36 125.391 302.904 126.183 302.58C126.975 302.244 127.839 302.076 128.775 302.076C129.723 302.076 130.599 302.244 131.403 302.58C132.207 302.904 132.897 303.36 133.473 303.948C134.061 304.536 134.517 305.226 134.841 306.018C135.165 306.81 135.327 307.662 135.327 308.574C135.327 309.378 135.189 310.14 134.913 310.86C134.649 311.568 134.289 312.204 133.833 312.768L134.877 313.812C135.165 314.064 135.183 314.34 134.931 314.64L134.697 314.892C134.409 315.18 134.139 315.192 133.887 314.928L132.807 313.848C132.255 314.292 131.637 314.634 130.953 314.874C130.281 315.102 129.555 315.216 128.775 315.216C127.827 315.216 126.957 315.048 126.165 314.712C125.373 314.364 124.689 313.89 124.113 313.29C123.537 312.69 123.087 311.988 122.763 311.184C122.439 310.368 122.277 309.498 122.277 308.574ZM124.113 308.574C124.113 309.282 124.227 309.942 124.455 310.554C124.695 311.154 125.025 311.682 125.445 312.138C125.865 312.582 126.357 312.936 126.921 313.2C127.485 313.452 128.103 313.578 128.775 313.578C129.279 313.578 129.771 313.5 130.251 313.344C130.743 313.188 131.175 312.954 131.547 312.642L130.485 311.58C130.197 311.328 130.185 311.052 130.449 310.752L130.683 310.518C130.947 310.206 131.211 310.182 131.475 310.446L132.555 311.544C132.843 311.148 133.071 310.698 133.239 310.194C133.407 309.678 133.491 309.138 133.491 308.574C133.491 307.878 133.371 307.236 133.131 306.648C132.891 306.048 132.561 305.532 132.141 305.1C131.721 304.668 131.223 304.332 130.647 304.092C130.071 303.84 129.447 303.714 128.775 303.714C128.103 303.714 127.485 303.84 126.921 304.092C126.357 304.332 125.865 304.668 125.445 305.1C125.025 305.532 124.695 306.048 124.455 306.648C124.227 307.236 124.113 307.878 124.113 308.574ZM137.765 302.886C137.765 302.49 137.963 302.292 138.359 302.292H141.779C142.403 302.292 142.889 302.322 143.237 302.382C143.585 302.43 143.891 302.514 144.155 302.634C144.767 302.91 145.253 303.33 145.613 303.894C145.973 304.458 146.153 305.148 146.153 305.964C146.153 306.78 145.949 307.506 145.541 308.142C145.145 308.778 144.593 309.216 143.885 309.456V309.492C143.909 309.54 143.945 309.588 143.993 309.636C144.065 309.732 144.155 309.876 144.263 310.068L146.549 314.298C146.669 314.502 146.687 314.67 146.603 314.802C146.531 314.934 146.381 315 146.153 315H145.433C145.097 315 144.863 314.862 144.731 314.586L142.247 309.942H139.529V314.406C139.529 314.802 139.331 315 138.935 315H138.359C137.963 315 137.765 314.802 137.765 314.406V302.886ZM142.085 308.394C142.781 308.394 143.333 308.184 143.741 307.764C144.149 307.332 144.353 306.756 144.353 306.036C144.353 305.58 144.251 305.178 144.047 304.83C143.855 304.482 143.561 304.224 143.165 304.056C142.997 303.984 142.805 303.93 142.589 303.894C142.373 303.858 142.061 303.84 141.653 303.84H139.529V308.394H142.085ZM152.456 310.446C152.456 309.726 152.558 309.072 152.762 308.484C152.966 307.896 153.248 307.398 153.608 306.99C153.98 306.57 154.418 306.246 154.922 306.018C155.426 305.79 155.978 305.676 156.578 305.676C157.106 305.676 157.544 305.76 157.892 305.928C158.252 306.084 158.546 306.264 158.774 306.468C159.038 306.696 159.248 306.954 159.404 307.242H159.44C159.428 307.182 159.416 307.122 159.404 307.062C159.392 307.002 159.386 306.942 159.386 306.882C159.386 306.81 159.386 306.726 159.386 306.63V302.886C159.386 302.49 159.584 302.292 159.98 302.292H160.538C160.934 302.292 161.132 302.49 161.132 302.886V314.406C161.132 314.802 160.934 315 160.538 315H160.07C159.674 315 159.476 314.814 159.476 314.442V313.92C159.476 313.764 159.482 313.656 159.494 313.596C159.494 313.548 159.5 313.506 159.512 313.47H159.476C159.308 313.806 159.086 314.1 158.81 314.352C158.57 314.568 158.258 314.766 157.874 314.946C157.502 315.126 157.034 315.216 156.47 315.216C155.858 315.216 155.3 315.102 154.796 314.874C154.304 314.634 153.884 314.304 153.536 313.884C153.188 313.464 152.918 312.966 152.726 312.39C152.546 311.802 152.456 311.154 152.456 310.446ZM154.238 310.446C154.238 310.938 154.298 311.388 154.418 311.796C154.55 312.192 154.73 312.534 154.958 312.822C155.186 313.098 155.456 313.314 155.768 313.47C156.08 313.626 156.428 313.704 156.812 313.704C157.148 313.704 157.472 313.644 157.784 313.524C158.108 313.392 158.39 313.194 158.63 312.93C158.87 312.666 159.062 312.33 159.206 311.922C159.362 311.502 159.44 311.004 159.44 310.428C159.44 310.02 159.386 309.624 159.278 309.24C159.17 308.856 159.008 308.514 158.792 308.214C158.576 307.914 158.306 307.674 157.982 307.494C157.658 307.302 157.28 307.206 156.848 307.206C156.488 307.206 156.152 307.278 155.84 307.422C155.528 307.566 155.252 307.776 155.012 308.052C154.772 308.328 154.58 308.67 154.436 309.078C154.304 309.474 154.238 309.93 154.238 310.446ZM163.09 310.446C163.09 309.726 163.204 309.072 163.432 308.484C163.672 307.896 163.99 307.398 164.386 306.99C164.794 306.57 165.274 306.246 165.826 306.018C166.39 305.79 166.996 305.676 167.644 305.676C168.268 305.676 168.826 305.784 169.318 306C169.81 306.216 170.218 306.516 170.542 306.9C170.878 307.284 171.13 307.74 171.298 308.268C171.478 308.796 171.568 309.378 171.568 310.014C171.568 310.182 171.508 310.326 171.388 310.446C171.28 310.566 171.136 310.626 170.956 310.626H164.872C164.896 311.118 164.998 311.556 165.178 311.94C165.358 312.324 165.592 312.648 165.88 312.912C166.168 313.176 166.492 313.374 166.852 313.506C167.224 313.638 167.614 313.704 168.022 313.704C168.526 313.704 168.964 313.626 169.336 313.47C169.708 313.302 169.996 313.14 170.2 312.984C170.56 312.792 170.83 312.858 171.01 313.182L171.172 313.452C171.268 313.608 171.298 313.758 171.262 313.902C171.238 314.034 171.148 314.148 170.992 314.244C170.86 314.34 170.692 314.448 170.488 314.568C170.284 314.676 170.05 314.778 169.786 314.874C169.534 314.97 169.246 315.048 168.922 315.108C168.61 315.18 168.274 315.216 167.914 315.216C167.194 315.216 166.54 315.096 165.952 314.856C165.364 314.604 164.854 314.268 164.422 313.848C164.002 313.416 163.672 312.912 163.432 312.336C163.204 311.748 163.09 311.118 163.09 310.446ZM169.822 309.474C169.798 308.67 169.57 308.064 169.138 307.656C168.718 307.248 168.208 307.044 167.608 307.044C166.936 307.044 166.354 307.26 165.862 307.692C165.382 308.112 165.076 308.706 164.944 309.474H169.822ZM177.237 312.516C177.237 312.048 177.327 311.646 177.507 311.31C177.687 310.962 177.927 310.674 178.227 310.446C178.527 310.218 178.863 310.032 179.235 309.888C179.619 309.744 180.015 309.636 180.423 309.564C180.831 309.492 181.227 309.444 181.611 309.42C182.007 309.396 182.361 309.384 182.673 309.384H183.141V309.15C183.141 308.778 183.087 308.466 182.979 308.214C182.883 307.95 182.745 307.74 182.565 307.584C182.385 307.428 182.175 307.32 181.935 307.26C181.695 307.188 181.437 307.152 181.161 307.152C180.705 307.152 180.297 307.218 179.937 307.35C179.589 307.482 179.313 307.608 179.109 307.728C178.761 307.896 178.491 307.824 178.299 307.512L178.155 307.26C177.963 306.9 178.029 306.63 178.353 306.45C178.629 306.294 179.013 306.126 179.505 305.946C180.009 305.766 180.609 305.676 181.305 305.676C182.445 305.676 183.327 305.982 183.951 306.594C184.575 307.194 184.887 308.076 184.887 309.24V314.406C184.887 314.802 184.689 315 184.293 315H183.843C183.447 315 183.249 314.802 183.249 314.406V313.866C183.249 313.782 183.249 313.704 183.249 313.632C183.249 313.56 183.255 313.5 183.267 313.452C183.279 313.404 183.291 313.356 183.303 313.308H183.267C183.087 313.668 182.859 313.986 182.583 314.262C182.343 314.502 182.037 314.724 181.665 314.928C181.293 315.12 180.837 315.216 180.297 315.216C179.901 315.216 179.517 315.156 179.145 315.036C178.773 314.916 178.443 314.742 178.155 314.514C177.879 314.274 177.657 313.992 177.489 313.668C177.321 313.332 177.237 312.948 177.237 312.516ZM179.001 312.372C179.001 312.732 179.139 313.068 179.415 313.38C179.703 313.68 180.129 313.83 180.693 313.83C181.077 313.83 181.419 313.746 181.719 313.578C182.031 313.398 182.289 313.17 182.493 312.894C182.709 312.606 182.871 312.294 182.979 311.958C183.099 311.61 183.159 311.268 183.159 310.932V310.536H182.691C182.367 310.536 181.995 310.554 181.575 310.59C181.155 310.614 180.753 310.686 180.369 310.806C179.985 310.926 179.661 311.112 179.397 311.364C179.133 311.604 179.001 311.94 179.001 312.372ZM186.68 310.446C186.68 309.774 186.8 309.15 187.04 308.574C187.28 307.986 187.616 307.482 188.048 307.062C188.48 306.63 188.99 306.294 189.578 306.054C190.178 305.802 190.832 305.676 191.54 305.676C191.924 305.676 192.272 305.712 192.584 305.784C192.896 305.844 193.178 305.922 193.43 306.018C193.682 306.114 193.898 306.222 194.078 306.342C194.27 306.45 194.426 306.552 194.546 306.648C194.702 306.744 194.786 306.864 194.798 307.008C194.81 307.152 194.762 307.302 194.654 307.458L194.474 307.728C194.282 308.028 194.012 308.076 193.664 307.872C193.472 307.74 193.202 307.596 192.854 307.44C192.518 307.272 192.11 307.188 191.63 307.188C191.174 307.188 190.748 307.272 190.352 307.44C189.968 307.596 189.632 307.818 189.344 308.106C189.068 308.394 188.852 308.736 188.696 309.132C188.54 309.528 188.462 309.96 188.462 310.428C188.462 310.896 188.54 311.328 188.696 311.724C188.852 312.12 189.074 312.468 189.362 312.768C189.65 313.056 189.986 313.284 190.37 313.452C190.766 313.62 191.198 313.704 191.666 313.704C192.218 313.704 192.686 313.608 193.07 313.416C193.466 313.224 193.772 313.044 193.988 312.876C194.324 312.66 194.594 312.714 194.798 313.038L194.942 313.308C195.134 313.632 195.08 313.896 194.78 314.1C194.648 314.208 194.48 314.328 194.276 314.46C194.084 314.58 193.85 314.7 193.574 314.82C193.31 314.928 193.004 315.018 192.656 315.09C192.32 315.174 191.948 315.216 191.54 315.216C190.82 315.216 190.16 315.096 189.56 314.856C188.972 314.616 188.462 314.286 188.03 313.866C187.61 313.434 187.28 312.93 187.04 312.354C186.8 311.766 186.68 311.13 186.68 310.446ZM196.137 310.446C196.137 309.774 196.257 309.15 196.497 308.574C196.737 307.986 197.073 307.482 197.505 307.062C197.937 306.63 198.447 306.294 199.035 306.054C199.635 305.802 200.289 305.676 200.997 305.676C201.381 305.676 201.729 305.712 202.041 305.784C202.353 305.844 202.635 305.922 202.887 306.018C203.139 306.114 203.355 306.222 203.535 306.342C203.727 306.45 203.883 306.552 204.003 306.648C204.159 306.744 204.243 306.864 204.255 307.008C204.267 307.152 204.219 307.302 204.111 307.458L203.931 307.728C203.739 308.028 203.469 308.076 203.121 307.872C202.929 307.74 202.659 307.596 202.311 307.44C201.975 307.272 201.567 307.188 201.087 307.188C200.631 307.188 200.205 307.272 199.809 307.44C199.425 307.596 199.089 307.818 198.801 308.106C198.525 308.394 198.309 308.736 198.153 309.132C197.997 309.528 197.919 309.96 197.919 310.428C197.919 310.896 197.997 311.328 198.153 311.724C198.309 312.12 198.531 312.468 198.819 312.768C199.107 313.056 199.443 313.284 199.827 313.452C200.223 313.62 200.655 313.704 201.123 313.704C201.675 313.704 202.143 313.608 202.527 313.416C202.923 313.224 203.229 313.044 203.445 312.876C203.781 312.66 204.051 312.714 204.255 313.038L204.399 313.308C204.591 313.632 204.537 313.896 204.237 314.1C204.105 314.208 203.937 314.328 203.733 314.46C203.541 314.58 203.307 314.7 203.031 314.82C202.767 314.928 202.461 315.018 202.113 315.09C201.777 315.174 201.405 315.216 200.997 315.216C200.277 315.216 199.617 315.096 199.017 314.856C198.429 314.616 197.919 314.286 197.487 313.866C197.067 313.434 196.737 312.93 196.497 312.354C196.257 311.766 196.137 311.13 196.137 310.446ZM205.629 310.446C205.629 309.726 205.743 309.072 205.971 308.484C206.211 307.896 206.529 307.398 206.925 306.99C207.333 306.57 207.813 306.246 208.365 306.018C208.929 305.79 209.535 305.676 210.183 305.676C210.807 305.676 211.365 305.784 211.857 306C212.349 306.216 212.757 306.516 213.081 306.9C213.417 307.284 213.669 307.74 213.837 308.268C214.017 308.796 214.107 309.378 214.107 310.014C214.107 310.182 214.047 310.326 213.927 310.446C213.819 310.566 213.675 310.626 213.495 310.626H207.411C207.435 311.118 207.537 311.556 207.717 311.94C207.897 312.324 208.131 312.648 208.419 312.912C208.707 313.176 209.031 313.374 209.391 313.506C209.763 313.638 210.153 313.704 210.561 313.704C211.065 313.704 211.503 313.626 211.875 313.47C212.247 313.302 212.535 313.14 212.739 312.984C213.099 312.792 213.369 312.858 213.549 313.182L213.711 313.452C213.807 313.608 213.837 313.758 213.801 313.902C213.777 314.034 213.687 314.148 213.531 314.244C213.399 314.34 213.231 314.448 213.027 314.568C212.823 314.676 212.589 314.778 212.325 314.874C212.073 314.97 211.785 315.048 211.461 315.108C211.149 315.18 210.813 315.216 210.453 315.216C209.733 315.216 209.079 315.096 208.491 314.856C207.903 314.604 207.393 314.268 206.961 313.848C206.541 313.416 206.211 312.912 205.971 312.336C205.743 311.748 205.629 311.118 205.629 310.446ZM212.361 309.474C212.337 308.67 212.109 308.064 211.677 307.656C211.257 307.248 210.747 307.044 210.147 307.044C209.475 307.044 208.893 307.26 208.401 307.692C207.921 308.112 207.615 308.706 207.483 309.474H212.361ZM215.654 314.226C215.498 314.13 215.414 314.01 215.402 313.866C215.39 313.722 215.432 313.572 215.528 313.416L215.708 313.164C215.828 313.008 215.948 312.924 216.068 312.912C216.2 312.9 216.356 312.942 216.536 313.038C216.74 313.17 217.028 313.326 217.4 313.506C217.772 313.686 218.228 313.776 218.768 313.776C219.224 313.776 219.596 313.674 219.884 313.47C220.172 313.254 220.316 312.954 220.316 312.57C220.316 312.27 220.196 312.03 219.956 311.85C219.728 311.67 219.44 311.508 219.092 311.364C218.744 311.208 218.366 311.064 217.958 310.932C217.562 310.788 217.19 310.608 216.842 310.392C216.494 310.164 216.2 309.888 215.96 309.564C215.732 309.24 215.618 308.82 215.618 308.304C215.618 307.872 215.702 307.494 215.87 307.17C216.05 306.834 216.29 306.558 216.59 306.342C216.89 306.126 217.238 305.964 217.634 305.856C218.042 305.736 218.468 305.676 218.912 305.676C219.548 305.676 220.07 305.76 220.478 305.928C220.898 306.096 221.216 306.246 221.432 306.378C221.6 306.462 221.696 306.576 221.72 306.72C221.756 306.852 221.726 307.002 221.63 307.17L221.468 307.44C221.3 307.74 221.036 307.806 220.676 307.638C220.484 307.53 220.232 307.416 219.92 307.296C219.62 307.176 219.254 307.116 218.822 307.116C218.39 307.116 218.024 307.212 217.724 307.404C217.436 307.596 217.292 307.884 217.292 308.268C217.292 308.568 217.406 308.814 217.634 309.006C217.874 309.186 218.168 309.348 218.516 309.492C218.864 309.636 219.236 309.78 219.632 309.924C220.04 310.068 220.418 310.248 220.766 310.464C221.114 310.668 221.402 310.938 221.63 311.274C221.87 311.598 221.99 312.018 221.99 312.534C221.99 312.918 221.912 313.278 221.756 313.614C221.6 313.938 221.378 314.22 221.09 314.46C220.802 314.7 220.454 314.886 220.046 315.018C219.65 315.15 219.206 315.216 218.714 315.216C218.33 315.216 217.976 315.18 217.652 315.108C217.34 315.048 217.058 314.97 216.806 314.874C216.554 314.766 216.326 314.658 216.122 314.55C215.93 314.43 215.774 314.322 215.654 314.226ZM223.33 310.428C223.33 309.744 223.456 309.114 223.708 308.538C223.972 307.95 224.32 307.446 224.752 307.026C225.196 306.594 225.712 306.264 226.3 306.036C226.9 305.796 227.542 305.676 228.226 305.676C228.91 305.676 229.546 305.796 230.134 306.036C230.734 306.264 231.256 306.594 231.7 307.026C232.144 307.446 232.492 307.95 232.744 308.538C233.008 309.114 233.14 309.744 233.14 310.428C233.14 311.124 233.008 311.766 232.744 312.354C232.492 312.93 232.144 313.434 231.7 313.866C231.256 314.286 230.734 314.616 230.134 314.856C229.546 315.096 228.91 315.216 228.226 315.216C227.542 315.216 226.9 315.096 226.3 314.856C225.712 314.616 225.196 314.286 224.752 313.866C224.32 313.434 223.972 312.93 223.708 312.354C223.456 311.766 223.33 311.124 223.33 310.428ZM225.094 310.428C225.094 310.908 225.178 311.352 225.346 311.76C225.514 312.156 225.736 312.498 226.012 312.786C226.3 313.074 226.63 313.302 227.002 313.47C227.386 313.626 227.794 313.704 228.226 313.704C228.658 313.704 229.06 313.626 229.432 313.47C229.816 313.302 230.152 313.074 230.44 312.786C230.728 312.498 230.95 312.156 231.106 311.76C231.274 311.352 231.358 310.908 231.358 310.428C231.358 309.96 231.274 309.528 231.106 309.132C230.95 308.736 230.728 308.394 230.44 308.106C230.152 307.818 229.816 307.596 229.432 307.44C229.06 307.272 228.658 307.188 228.226 307.188C227.794 307.188 227.386 307.272 227.002 307.44C226.63 307.596 226.3 307.818 226.012 308.106C225.736 308.394 225.514 308.736 225.346 309.132C225.178 309.528 225.094 309.96 225.094 310.428Z" fill="#5A5956"/>
<path d="M37.551 155.53C39.7258 155.53 41.8115 156.394 43.3493 157.932C44.8871 159.469 45.751 161.555 45.751 163.73C45.7531 168.111 47.4944 172.312 50.5923 175.409C53.6902 178.507 57.8911 180.248 62.272 180.25H73.512C77.8188 180.245 82.0843 181.089 86.0649 182.733C90.0456 184.377 93.6635 186.789 96.712 189.831L104.595 197.731C106.129 199.282 107.956 200.513 109.97 201.353C111.984 202.192 114.145 202.623 116.327 202.62C118.514 202.674 120.687 202.268 122.706 201.427C124.725 200.587 126.545 199.331 128.048 197.742C128.808 196.979 129.712 196.373 130.706 195.959C131.701 195.545 132.768 195.331 133.845 195.329C134.922 195.327 135.989 195.538 136.985 195.948C137.981 196.359 138.887 196.961 139.65 197.722C140.413 198.482 141.019 199.386 141.433 200.38C141.847 201.375 142.061 202.441 142.063 203.519C142.065 204.596 141.854 205.663 141.444 206.659C141.033 207.655 140.43 208.561 139.67 209.324C133.505 215.5 125.144 218.98 116.417 219.003C107.691 219.025 99.3117 215.588 93.115 209.444L85.134 201.46C82.04 198.383 77.8533 196.657 73.49 196.66H62.272C53.5438 196.65 45.1759 193.179 39.0042 187.007C32.8324 180.835 29.3608 172.467 29.351 163.739C29.3498 162.661 29.5611 161.594 29.9726 160.598C30.3842 159.602 30.988 158.697 31.7495 157.935C32.5111 157.172 33.4155 156.568 34.4109 156.155C35.4064 155.742 36.4734 155.53 37.551 155.53ZM170.388 22.6409C179.118 22.6512 187.487 26.1245 193.659 32.2986C199.831 38.4726 203.302 46.843 203.309 55.5729V66.8159C203.308 71.1822 205.038 75.3708 208.12 78.4639L215.97 86.3169C222.157 92.4766 225.645 100.841 225.668 109.572C225.69 118.302 222.245 126.684 216.09 132.876L208.109 140.86C205.051 143.963 203.328 148.14 203.309 152.497V163.73C203.3 172.459 199.829 180.829 193.657 187.002C187.486 193.176 179.117 196.65 170.388 196.662C168.212 196.662 166.126 195.798 164.588 194.259C163.049 192.721 162.185 190.634 162.185 188.459C162.185 186.283 163.049 184.197 164.588 182.659C166.126 181.12 168.212 180.256 170.388 180.256C174.769 180.251 178.969 178.509 182.067 175.41C185.164 172.312 186.905 168.111 186.908 163.73V152.487C186.898 148.177 187.74 143.908 189.386 139.925C191.031 135.942 193.448 132.324 196.497 129.278L204.369 121.392C205.919 119.858 207.15 118.032 207.991 116.019C208.831 114.007 209.265 111.848 209.267 109.667C209.269 107.485 208.84 105.326 208.003 103.312C207.166 101.298 205.938 99.4692 204.391 97.9319L196.508 90.0459C193.46 86.9965 191.044 83.3762 189.397 79.3921C187.749 75.408 186.904 71.1382 186.908 66.8269V55.5729C186.907 51.1911 185.166 46.9891 182.068 43.8902C178.97 40.7914 174.769 39.0493 170.387 39.0469C168.211 39.0469 166.125 38.1827 164.587 36.6443C163.048 35.106 162.184 33.0195 162.184 30.8439C162.184 28.6684 163.048 26.5819 164.587 25.0435C166.125 23.5052 168.211 22.6409 170.387 22.6409H170.388ZM93.006 9.97592C98.9609 4.01663 106.975 0.568757 115.396 0.342893C123.818 0.117028 132.005 3.13038 138.271 8.76192C138.735 9.09379 139.173 9.45945 139.583 9.85592C141.047 11.389 141.869 13.4233 141.883 15.5429C141.885 17.1401 141.42 18.7032 140.546 20.04C139.673 21.3769 138.427 22.4295 136.963 23.0684C135.499 23.7073 133.881 23.9049 132.306 23.6367C130.732 23.3685 129.27 22.6464 128.1 21.5589C127.991 21.4499 127.991 21.4499 127.881 21.3509C124.734 18.3512 120.542 16.6952 116.195 16.734C111.847 16.7729 107.686 18.5035 104.593 21.5589L96.723 29.4299C93.6904 32.4906 90.0794 34.9178 86.1001 36.5702C82.1208 38.2225 77.8527 39.0672 73.544 39.0549H62.283C57.9081 39.0702 53.7169 40.8153 50.6238 43.9092C47.5307 47.0032 45.787 51.195 45.773 55.5699V66.8379C45.7879 71.1478 44.9449 75.4176 43.2931 79.3985C41.6413 83.3793 39.2138 86.9916 36.152 90.0249L28.279 97.9099C25.181 101.036 23.4428 105.259 23.4428 109.66C23.4428 114.061 25.181 118.284 28.279 121.41C29.8016 122.956 30.6551 125.04 30.6551 127.21C30.6551 129.38 29.8016 131.463 28.279 133.01C26.7283 134.526 24.6526 135.386 22.484 135.41C21.4074 135.413 20.3408 135.202 19.3461 134.79C18.3514 134.378 17.4483 133.773 16.689 133.01C10.5052 126.839 7.02101 118.468 7.00058 109.732C6.98015 100.997 10.4251 92.6093 16.58 86.4099L24.562 78.4299C26.0862 76.9083 27.2956 75.1013 28.1211 73.1121C28.9466 71.123 29.372 68.9906 29.373 66.8369V55.5729C29.3804 46.8459 32.8497 38.4783 39.0196 32.3063C45.1895 26.1344 53.556 22.6622 62.283 22.6519H73.544C75.6977 22.6534 77.8304 22.2291 79.8195 21.4032C81.8086 20.5774 83.6147 19.3664 85.134 17.8399L93.006 9.97592Z" fill="#EA572E"/>
<path d="M143.078 73.559H130.183V81.296H143.078C143.42 81.2962 143.748 81.4321 143.989 81.6738C144.231 81.9155 144.367 82.2432 144.367 82.585V95.48H152.104V82.585C152.104 81.3996 151.871 80.2259 151.417 79.1307C150.964 78.0356 150.299 77.0405 149.461 76.2023C148.622 75.3642 147.627 74.6993 146.532 74.2458C145.437 73.7922 144.263 73.5588 143.078 73.559Z" fill="#5A5956" stroke="#5A5956"/>
<path d="M101.815 73.559H88.92C87.7347 73.5588 86.5609 73.7922 85.4658 74.2458C84.3706 74.6993 83.3756 75.3642 82.5374 76.2023C81.6992 77.0405 81.0344 78.0356 80.5808 79.1307C80.1273 80.2259 79.8939 81.3996 79.894 82.585V95.48H87.631V82.585C87.631 82.2431 87.7668 81.9152 88.0086 81.6735C88.2503 81.4318 88.5782 81.296 88.92 81.296H101.815V73.559Z" fill="#5A5956" stroke="#5A5956"/>
<path d="M88.9211 145.769H101.816V138.032H88.9211C88.5792 138.032 88.2513 137.896 88.0096 137.654C87.7678 137.413 87.632 137.085 87.632 136.743V123.848H79.894V136.748C79.8939 137.933 80.1273 139.107 80.5808 140.202C81.0344 141.297 81.6992 142.292 82.5374 143.131C83.3756 143.969 84.3706 144.634 85.4658 145.087C86.5609 145.541 87.7347 145.774 88.92 145.774L88.9211 145.769Z" fill="#5A5956" stroke="#5A5956"/>
<path d="M144.368 136.748C144.368 137.09 144.232 137.418 143.991 137.659C143.749 137.901 143.421 138.037 143.079 138.037H130.182V145.774H143.082C144.267 145.774 145.441 145.541 146.536 145.087C147.631 144.634 148.627 143.969 149.465 143.131C150.303 142.292 150.968 141.297 151.421 140.202C151.875 139.107 152.108 137.933 152.108 136.748V123.848H144.371L144.368 136.748Z" fill="#5A5956" stroke="#5A5956"/>
<path d="M112.131 105.796H119.868V113.533H112.131V105.796Z" fill="#5A5956" stroke="#5A5956"/>
<path d="M122.447 95.48H130.184V103.217H122.447V95.48Z" fill="#5A5956" stroke="#5A5956"/>
<path d="M101.815 95.48H109.552V103.217H101.815V95.48Z" fill="#5A5956" stroke="#5A5956"/>
<path d="M122.447 116.112H130.184V123.849H122.447V116.112Z" fill="#5A5956" stroke="#5A5956"/>
<path d="M101.815 116.112H109.552V123.849H101.815V116.112Z" fill="#5A5956" stroke="#5A5956"/>
</svg>
