<svg width="234" height="319" viewBox="0 0 234 319" fill="none" xmlns="http://www.w3.org/2000/svg">
<path d="M42.4879 256.24C42.4879 254.92 43.1479 254.26 44.4679 254.26H51.6319C53.6479 254.26 55.4719 254.548 57.1039 255.124C58.7599 255.7 60.1639 256.54 61.3159 257.644C62.4679 258.724 63.3559 260.068 63.9799 261.676C64.6039 263.26 64.9159 265.06 64.9159 267.076C64.9159 269.092 64.6039 270.904 63.9799 272.512C63.3559 274.12 62.4679 275.476 61.3159 276.58C60.1639 277.684 58.7599 278.536 57.1039 279.136C55.4719 279.712 53.6479 280 51.6319 280H44.4679C43.1479 280 42.4879 279.34 42.4879 278.02V256.24ZM51.3799 274.6C53.5639 274.6 55.2799 273.964 56.5279 272.692C57.7759 271.42 58.3999 269.548 58.3999 267.076C58.3999 264.604 57.7639 262.756 56.4919 261.532C55.2199 260.284 53.5159 259.66 51.3799 259.66H48.7879V274.6H51.3799ZM69.6263 259.12C68.3063 259.12 67.6463 258.46 67.6463 257.14V256.24C67.6463 254.92 68.3063 254.26 69.6263 254.26H71.7503C73.0703 254.26 73.7303 254.92 73.7303 256.24V257.14C73.7303 258.46 73.0703 259.12 71.7503 259.12H69.6263ZM67.5743 263.44C67.5743 262.12 68.2343 261.46 69.5543 261.46H71.8223C73.1423 261.46 73.8023 262.12 73.8023 263.44V278.02C73.8023 279.34 73.1423 280 71.8223 280H69.5543C68.2343 280 67.5743 279.34 67.5743 278.02V263.44ZM77.4883 278.74C76.9363 278.428 76.6243 278.032 76.5523 277.552C76.5043 277.072 76.6483 276.556 76.9843 276.004L77.5243 275.176C77.8843 274.648 78.2683 274.348 78.6763 274.276C79.1083 274.204 79.6363 274.312 80.2603 274.6C80.7163 274.792 81.2323 275.008 81.8083 275.248C82.3843 275.464 83.0443 275.572 83.7883 275.572C84.4123 275.572 84.8443 275.476 85.0843 275.284C85.3483 275.068 85.4803 274.816 85.4803 274.528C85.4803 274.168 85.2643 273.88 84.8323 273.664C84.4003 273.448 83.8603 273.244 83.2123 273.052C82.5883 272.836 81.8923 272.608 81.1243 272.368C80.3803 272.104 79.6843 271.756 79.0363 271.324C78.4123 270.868 77.8843 270.292 77.4523 269.596C77.0203 268.876 76.8043 267.976 76.8043 266.896C76.8043 265.936 76.9963 265.096 77.3803 264.376C77.7883 263.632 78.3403 263.02 79.0363 262.54C79.7323 262.036 80.5483 261.664 81.4843 261.424C82.4203 261.16 83.4283 261.028 84.5083 261.028C85.6843 261.028 86.7043 261.16 87.5683 261.424C88.4563 261.688 89.1883 261.952 89.7643 262.216C90.3163 262.48 90.6403 262.852 90.7363 263.332C90.8323 263.812 90.7483 264.328 90.4843 264.88L90.0523 265.744C89.7883 266.32 89.4403 266.668 89.0083 266.788C88.5763 266.908 88.0483 266.848 87.4243 266.608C86.9923 266.44 86.5123 266.284 85.9843 266.14C85.4563 265.972 84.8803 265.888 84.2563 265.888C83.5843 265.888 83.1403 265.984 82.9243 266.176C82.7083 266.368 82.6003 266.596 82.6003 266.86C82.6003 267.22 82.8163 267.508 83.2483 267.724C83.6803 267.916 84.2083 268.12 84.8323 268.336C85.4803 268.528 86.1763 268.744 86.9203 268.984C87.6883 269.224 88.3843 269.572 89.0083 270.028C89.6563 270.46 90.1963 271.024 90.6283 271.72C91.0603 272.392 91.2763 273.268 91.2763 274.348C91.2763 275.212 91.0963 276.016 90.7363 276.76C90.4003 277.504 89.8963 278.152 89.2243 278.704C88.5763 279.232 87.7723 279.652 86.8123 279.964C85.8763 280.276 84.8203 280.432 83.6443 280.432C82.2523 280.432 81.0403 280.252 80.0083 279.892C78.9763 279.508 78.1363 279.124 77.4883 278.74ZM95.3069 266.644H94.8389C93.5189 266.644 92.8589 265.984 92.8589 264.664V263.764C92.8589 262.444 93.5189 261.784 94.8389 261.784H95.3069V260.884C95.3069 259.42 95.6189 258.244 96.2429 257.356C96.8669 256.444 97.5989 255.76 98.4389 255.304C99.3029 254.824 100.167 254.512 101.031 254.368C101.919 254.2 102.603 254.116 103.083 254.116H103.695C105.015 254.116 105.675 254.776 105.675 256.096V257.428C105.675 258.076 105.507 258.556 105.171 258.868C104.835 259.18 104.343 259.36 103.695 259.408C103.503 259.432 103.275 259.468 103.011 259.516C102.771 259.54 102.543 259.612 102.327 259.732C102.111 259.852 101.919 260.032 101.751 260.272C101.607 260.512 101.535 260.824 101.535 261.208V261.784H102.975C104.295 261.784 104.955 262.444 104.955 263.764V264.664C104.955 265.984 104.295 266.644 102.975 266.644H101.535V278.02C101.535 279.34 100.875 280 99.5549 280H97.2869C95.9669 280 95.3069 279.34 95.3069 278.02V266.644ZM107.16 263.44C107.16 262.12 107.82 261.46 109.14 261.46H111.156C112.476 261.46 113.136 262.12 113.136 263.44V264.592C113.136 264.76 113.124 264.904 113.1 265.024C113.1 265.144 113.1 265.264 113.1 265.384C113.076 265.504 113.064 265.624 113.064 265.744H113.136C113.28 265.264 113.508 264.76 113.82 264.232C114.132 263.704 114.504 263.224 114.936 262.792C115.368 262.36 115.848 262 116.376 261.712C116.928 261.424 117.492 261.28 118.068 261.28C118.692 261.28 119.124 261.448 119.364 261.784C119.628 262.12 119.76 262.612 119.76 263.26V265.276C119.76 266.596 119.1 267.256 117.78 267.256C117.036 267.256 116.388 267.412 115.836 267.724C115.284 268.012 114.828 268.408 114.468 268.912C114.108 269.416 113.832 270.004 113.64 270.676C113.472 271.348 113.388 272.056 113.388 272.8V278.02C113.388 279.34 112.728 280 111.408 280H109.14C107.82 280 107.16 279.34 107.16 278.02V263.44ZM121.534 263.44C121.534 262.12 122.194 261.46 123.514 261.46H125.782C127.102 261.46 127.762 262.12 127.762 263.44V272.332C127.762 273.196 127.93 273.82 128.266 274.204C128.602 274.588 129.094 274.78 129.742 274.78C130.414 274.78 130.99 274.648 131.47 274.384C131.974 274.096 132.382 273.724 132.694 273.268C133.03 272.788 133.27 272.248 133.414 271.648C133.582 271.024 133.666 270.364 133.666 269.668V263.44C133.666 262.12 134.326 261.46 135.646 261.46H137.914C139.234 261.46 139.894 262.12 139.894 263.44V278.02C139.894 279.34 139.234 280 137.914 280H135.898C134.602 280 133.954 279.34 133.954 278.02V277.696V277.408C133.954 277.336 133.966 277.276 133.99 277.228H133.918C133.414 278.236 132.634 279.028 131.578 279.604C130.522 280.156 129.37 280.432 128.122 280.432C127.21 280.432 126.346 280.312 125.53 280.072C124.738 279.832 124.042 279.448 123.442 278.92C122.842 278.368 122.374 277.648 122.038 276.76C121.702 275.872 121.534 274.78 121.534 273.484V263.44ZM144.842 266.644H144.302C143.006 266.644 142.358 265.984 142.358 264.664V263.764C142.358 262.444 143.018 261.784 144.338 261.784H145.022V258.436C145.022 257.116 145.682 256.456 147.002 256.456H149.09C150.41 256.456 151.07 257.116 151.07 258.436V261.784H152.978C154.298 261.784 154.958 262.444 154.958 263.764V264.664C154.958 265.984 154.31 266.644 153.014 266.644H151.07V272.26C151.07 273.052 151.286 273.628 151.718 273.988C152.174 274.324 152.678 274.528 153.23 274.6C153.95 274.696 154.454 274.876 154.742 275.14C155.054 275.404 155.21 275.884 155.21 276.58V278.2C155.21 278.944 154.994 279.46 154.562 279.748C154.13 280.036 153.494 280.18 152.654 280.18C151.958 280.18 151.166 280.084 150.278 279.892C149.39 279.7 148.538 279.352 147.722 278.848C146.906 278.344 146.222 277.66 145.67 276.796C145.118 275.908 144.842 274.78 144.842 273.412V266.644ZM156.701 274.78C156.701 273.532 157.025 272.5 157.673 271.684C158.345 270.868 159.197 270.22 160.229 269.74C161.261 269.26 162.389 268.924 163.613 268.732C164.837 268.54 166.025 268.444 167.177 268.444H167.717V268.12C167.717 267.352 167.453 266.824 166.925 266.536C166.397 266.224 165.785 266.068 165.089 266.068C164.489 266.068 163.901 266.152 163.325 266.32C162.749 266.488 162.221 266.68 161.741 266.896C160.517 267.424 159.629 267.136 159.077 266.032L158.645 265.132C158.381 264.58 158.309 264.076 158.429 263.62C158.549 263.14 158.885 262.756 159.437 262.468C160.133 262.132 161.009 261.808 162.065 261.496C163.121 261.184 164.321 261.028 165.665 261.028C168.233 261.028 170.249 261.7 171.713 263.044C173.201 264.364 173.945 266.212 173.945 268.588V278.02C173.945 279.34 173.285 280 171.965 280H170.237C168.917 280 168.257 279.328 168.257 277.984V277.84V277.588C168.257 277.54 168.269 277.504 168.293 277.48H168.221C167.861 278.032 167.417 278.524 166.889 278.956C166.433 279.34 165.857 279.688 165.161 280C164.465 280.288 163.661 280.432 162.749 280.432C161.861 280.432 161.045 280.288 160.301 280C159.557 279.712 158.921 279.316 158.393 278.812C157.865 278.308 157.445 277.708 157.133 277.012C156.845 276.316 156.701 275.572 156.701 274.78ZM162.857 274.204C162.857 274.636 163.001 275.008 163.289 275.32C163.601 275.632 164.045 275.788 164.621 275.788C165.077 275.788 165.497 275.692 165.881 275.5C166.265 275.284 166.601 275.02 166.889 274.708C167.177 274.396 167.393 274.048 167.537 273.664C167.705 273.28 167.789 272.896 167.789 272.512V272.008H167.213C166.733 272.008 166.229 272.044 165.701 272.116C165.197 272.188 164.729 272.308 164.297 272.476C163.889 272.644 163.541 272.872 163.253 273.16C162.989 273.424 162.857 273.772 162.857 274.204ZM177.332 278.74C176.78 278.428 176.468 278.032 176.396 277.552C176.348 277.072 176.492 276.556 176.828 276.004L177.368 275.176C177.728 274.648 178.112 274.348 178.52 274.276C178.952 274.204 179.48 274.312 180.104 274.6C180.56 274.792 181.076 275.008 181.652 275.248C182.228 275.464 182.888 275.572 183.632 275.572C184.256 275.572 184.688 275.476 184.928 275.284C185.192 275.068 185.324 274.816 185.324 274.528C185.324 274.168 185.108 273.88 184.676 273.664C184.244 273.448 183.704 273.244 183.056 273.052C182.432 272.836 181.736 272.608 180.968 272.368C180.224 272.104 179.528 271.756 178.88 271.324C178.256 270.868 177.728 270.292 177.296 269.596C176.864 268.876 176.648 267.976 176.648 266.896C176.648 265.936 176.84 265.096 177.224 264.376C177.632 263.632 178.184 263.02 178.88 262.54C179.576 262.036 180.392 261.664 181.328 261.424C182.264 261.16 183.272 261.028 184.352 261.028C185.528 261.028 186.548 261.16 187.412 261.424C188.3 261.688 189.032 261.952 189.608 262.216C190.16 262.48 190.484 262.852 190.58 263.332C190.676 263.812 190.592 264.328 190.328 264.88L189.896 265.744C189.632 266.32 189.284 266.668 188.852 266.788C188.42 266.908 187.892 266.848 187.268 266.608C186.836 266.44 186.356 266.284 185.828 266.14C185.3 265.972 184.724 265.888 184.1 265.888C183.428 265.888 182.984 265.984 182.768 266.176C182.552 266.368 182.444 266.596 182.444 266.86C182.444 267.22 182.66 267.508 183.092 267.724C183.524 267.916 184.052 268.12 184.676 268.336C185.324 268.528 186.02 268.744 186.764 268.984C187.532 269.224 188.228 269.572 188.852 270.028C189.5 270.46 190.04 271.024 190.472 271.72C190.904 272.392 191.12 273.268 191.12 274.348C191.12 275.212 190.94 276.016 190.58 276.76C190.244 277.504 189.74 278.152 189.068 278.704C188.42 279.232 187.616 279.652 186.656 279.964C185.72 280.276 184.664 280.432 183.488 280.432C182.096 280.432 180.884 280.252 179.852 279.892C178.82 279.508 177.98 279.124 177.332 278.74Z" fill="#663B73"/>
<path d="M0.62 302.886C0.62 302.49 0.818 302.292 1.214 302.292H4.832C5.804 302.292 6.686 302.436 7.478 302.724C8.27 303 8.948 303.408 9.512 303.948C10.076 304.488 10.508 305.154 10.808 305.946C11.12 306.726 11.276 307.62 11.276 308.628C11.276 309.636 11.12 310.536 10.808 311.328C10.508 312.12 10.076 312.786 9.512 313.326C8.948 313.866 8.27 314.28 7.478 314.568C6.686 314.856 5.804 315 4.832 315H1.214C0.818 315 0.62 314.802 0.62 314.406V302.886ZM4.706 313.452C5.426 313.452 6.074 313.35 6.65 313.146C7.238 312.93 7.736 312.618 8.144 312.21C8.564 311.802 8.882 311.298 9.098 310.698C9.326 310.098 9.44 309.408 9.44 308.628C9.44 307.848 9.326 307.164 9.098 306.576C8.87 305.976 8.546 305.472 8.126 305.064C7.718 304.656 7.22 304.35 6.632 304.146C6.056 303.942 5.414 303.84 4.706 303.84H2.384V313.452H4.706ZM12.7973 310.446C12.7973 309.726 12.9113 309.072 13.1393 308.484C13.3793 307.896 13.6973 307.398 14.0933 306.99C14.5013 306.57 14.9813 306.246 15.5333 306.018C16.0973 305.79 16.7033 305.676 17.3513 305.676C17.9753 305.676 18.5333 305.784 19.0253 306C19.5173 306.216 19.9253 306.516 20.2493 306.9C20.5853 307.284 20.8373 307.74 21.0053 308.268C21.1853 308.796 21.2753 309.378 21.2753 310.014C21.2753 310.182 21.2153 310.326 21.0953 310.446C20.9873 310.566 20.8433 310.626 20.6633 310.626H14.5793C14.6033 311.118 14.7053 311.556 14.8853 311.94C15.0653 312.324 15.2993 312.648 15.5873 312.912C15.8753 313.176 16.1993 313.374 16.5593 313.506C16.9313 313.638 17.3213 313.704 17.7293 313.704C18.2333 313.704 18.6713 313.626 19.0433 313.47C19.4153 313.302 19.7033 313.14 19.9073 312.984C20.2673 312.792 20.5373 312.858 20.7173 313.182L20.8793 313.452C20.9753 313.608 21.0053 313.758 20.9693 313.902C20.9453 314.034 20.8553 314.148 20.6993 314.244C20.5673 314.34 20.3993 314.448 20.1953 314.568C19.9913 314.676 19.7573 314.778 19.4933 314.874C19.2413 314.97 18.9533 315.048 18.6293 315.108C18.3173 315.18 17.9813 315.216 17.6213 315.216C16.9013 315.216 16.2473 315.096 15.6593 314.856C15.0713 314.604 14.5613 314.268 14.1293 313.848C13.7093 313.416 13.3793 312.912 13.1393 312.336C12.9113 311.748 12.7973 311.118 12.7973 310.446ZM19.5293 309.474C19.5053 308.67 19.2773 308.064 18.8453 307.656C18.4253 307.248 17.9153 307.044 17.3153 307.044C16.6433 307.044 16.0613 307.26 15.5693 307.692C15.0893 308.112 14.7833 308.706 14.6513 309.474H19.5293ZM23.1819 302.886C23.1819 302.49 23.3799 302.292 23.7759 302.292H24.3339C24.7299 302.292 24.9279 302.49 24.9279 302.886V312.3C24.9279 312.552 24.9519 312.756 24.9999 312.912C25.0479 313.068 25.1139 313.188 25.1979 313.272C25.2819 313.356 25.3719 313.416 25.4679 313.452C25.5639 313.476 25.6599 313.494 25.7559 313.506C25.8879 313.53 25.9959 313.584 26.0799 313.668C26.1759 313.74 26.2239 313.86 26.2239 314.028V314.46C26.2239 314.652 26.1759 314.802 26.0799 314.91C25.9959 315.018 25.8399 315.072 25.6119 315.072C25.3719 315.072 25.1079 315.048 24.8199 315C24.5319 314.94 24.2679 314.826 24.0279 314.658C23.7879 314.478 23.5839 314.22 23.4159 313.884C23.2599 313.548 23.1819 313.092 23.1819 312.516V302.886ZM32.4108 306.486C32.4108 306.09 32.6088 305.892 33.0048 305.892H33.4188C33.8148 305.892 34.0128 306.06 34.0128 306.396V306.936C34.0128 307.008 34.0068 307.074 33.9948 307.134C33.9948 307.182 33.9948 307.23 33.9948 307.278C33.9828 307.326 33.9768 307.374 33.9768 307.422H34.0128C34.1688 307.098 34.3908 306.81 34.6788 306.558C34.9188 306.342 35.2308 306.144 35.6148 305.964C36.0108 305.772 36.4968 305.676 37.0728 305.676C37.6848 305.676 38.2368 305.796 38.7288 306.036C39.2208 306.264 39.6408 306.588 39.9888 307.008C40.3368 307.428 40.6008 307.932 40.7808 308.52C40.9728 309.096 41.0688 309.738 41.0688 310.446C41.0688 311.166 40.9668 311.82 40.7628 312.408C40.5588 312.996 40.2708 313.5 39.8988 313.92C39.5268 314.328 39.0888 314.646 38.5848 314.874C38.0808 315.102 37.5348 315.216 36.9468 315.216C36.4188 315.216 35.9748 315.132 35.6148 314.964C35.2668 314.796 34.9788 314.61 34.7508 314.406C34.4868 314.178 34.2768 313.908 34.1208 313.596H34.0848C34.0848 313.656 34.0908 313.728 34.1028 313.812C34.1148 313.884 34.1208 313.968 34.1208 314.064C34.1328 314.16 34.1388 314.268 34.1388 314.388V318.006C34.1388 318.402 33.9468 318.6 33.5628 318.6H33.0048C32.6088 318.6 32.4108 318.402 32.4108 318.006V306.486ZM34.1028 310.482C34.1028 310.89 34.1568 311.286 34.2648 311.67C34.3848 312.054 34.5528 312.396 34.7688 312.696C34.9848 312.996 35.2488 313.242 35.5608 313.434C35.8848 313.614 36.2568 313.704 36.6768 313.704C37.0368 313.704 37.3728 313.632 37.6848 313.488C38.0088 313.344 38.2908 313.134 38.5308 312.858C38.7708 312.582 38.9568 312.246 39.0888 311.85C39.2328 311.442 39.3048 310.98 39.3048 310.464C39.3048 309.972 39.2388 309.528 39.1068 309.132C38.9868 308.724 38.8128 308.382 38.5848 308.106C38.3568 307.818 38.0808 307.596 37.7568 307.44C37.4448 307.284 37.1028 307.206 36.7308 307.206C36.3828 307.206 36.0528 307.272 35.7408 307.404C35.4288 307.524 35.1468 307.716 34.8948 307.98C34.6548 308.244 34.4628 308.586 34.3188 309.006C34.1748 309.414 34.1028 309.906 34.1028 310.482ZM43.0452 306.486C43.0452 306.09 43.2432 305.892 43.6392 305.892H44.1432C44.5392 305.892 44.7372 306.09 44.7372 306.486V307.53C44.7372 307.626 44.7312 307.716 44.7192 307.8C44.7192 307.884 44.7132 307.956 44.7012 308.016C44.6892 308.088 44.6832 308.154 44.6832 308.214H44.7192C44.8152 307.914 44.9472 307.62 45.1152 307.332C45.2952 307.044 45.5052 306.792 45.7452 306.576C45.9852 306.348 46.2492 306.168 46.5372 306.036C46.8372 305.892 47.1612 305.82 47.5092 305.82C47.8932 305.82 48.0852 306.018 48.0852 306.414V306.918C48.0852 307.314 47.8692 307.512 47.4372 307.512C46.9932 307.512 46.6032 307.626 46.2672 307.854C45.9432 308.07 45.6672 308.352 45.4392 308.7C45.2232 309.048 45.0612 309.45 44.9532 309.906C44.8452 310.35 44.7912 310.794 44.7912 311.238V314.406C44.7912 314.802 44.5932 315 44.1972 315H43.6392C43.2432 315 43.0452 314.802 43.0452 314.406V306.486ZM48.5332 310.428C48.5332 309.744 48.6592 309.114 48.9112 308.538C49.1752 307.95 49.5232 307.446 49.9552 307.026C50.3992 306.594 50.9152 306.264 51.5032 306.036C52.1032 305.796 52.7452 305.676 53.4292 305.676C54.1132 305.676 54.7492 305.796 55.3372 306.036C55.9372 306.264 56.4592 306.594 56.9032 307.026C57.3472 307.446 57.6952 307.95 57.9472 308.538C58.2112 309.114 58.3432 309.744 58.3432 310.428C58.3432 311.124 58.2112 311.766 57.9472 312.354C57.6952 312.93 57.3472 313.434 56.9032 313.866C56.4592 314.286 55.9372 314.616 55.3372 314.856C54.7492 315.096 54.1132 315.216 53.4292 315.216C52.7452 315.216 52.1032 315.096 51.5032 314.856C50.9152 314.616 50.3992 314.286 49.9552 313.866C49.5232 313.434 49.1752 312.93 48.9112 312.354C48.6592 311.766 48.5332 311.124 48.5332 310.428ZM50.2972 310.428C50.2972 310.908 50.3812 311.352 50.5492 311.76C50.7172 312.156 50.9392 312.498 51.2152 312.786C51.5032 313.074 51.8332 313.302 52.2052 313.47C52.5892 313.626 52.9972 313.704 53.4292 313.704C53.8612 313.704 54.2632 313.626 54.6352 313.47C55.0192 313.302 55.3552 313.074 55.6432 312.786C55.9312 312.498 56.1532 312.156 56.3092 311.76C56.4772 311.352 56.5612 310.908 56.5612 310.428C56.5612 309.96 56.4772 309.528 56.3092 309.132C56.1532 308.736 55.9312 308.394 55.6432 308.106C55.3552 307.818 55.0192 307.596 54.6352 307.44C54.2632 307.272 53.8612 307.188 53.4292 307.188C52.9972 307.188 52.5892 307.272 52.2052 307.44C51.8332 307.596 51.5032 307.818 51.2152 308.106C50.9392 308.394 50.7172 308.736 50.5492 309.132C50.3812 309.528 50.2972 309.96 50.2972 310.428ZM59.7137 310.446C59.7137 309.726 59.8157 309.072 60.0197 308.484C60.2237 307.896 60.5057 307.398 60.8657 306.99C61.2377 306.57 61.6757 306.246 62.1797 306.018C62.6837 305.79 63.2357 305.676 63.8357 305.676C64.3637 305.676 64.8017 305.76 65.1497 305.928C65.5097 306.084 65.8037 306.264 66.0317 306.468C66.2957 306.696 66.5057 306.954 66.6617 307.242H66.6977C66.6857 307.182 66.6737 307.122 66.6617 307.062C66.6497 307.002 66.6437 306.942 66.6437 306.882C66.6437 306.81 66.6437 306.726 66.6437 306.63V302.886C66.6437 302.49 66.8417 302.292 67.2377 302.292H67.7957C68.1917 302.292 68.3897 302.49 68.3897 302.886V314.406C68.3897 314.802 68.1917 315 67.7957 315H67.3277C66.9317 315 66.7337 314.814 66.7337 314.442V313.92C66.7337 313.764 66.7397 313.656 66.7517 313.596C66.7517 313.548 66.7577 313.506 66.7697 313.47H66.7337C66.5657 313.806 66.3437 314.1 66.0677 314.352C65.8277 314.568 65.5157 314.766 65.1317 314.946C64.7597 315.126 64.2917 315.216 63.7277 315.216C63.1157 315.216 62.5577 315.102 62.0537 314.874C61.5617 314.634 61.1417 314.304 60.7937 313.884C60.4457 313.464 60.1757 312.966 59.9837 312.39C59.8037 311.802 59.7137 311.154 59.7137 310.446ZM61.4957 310.446C61.4957 310.938 61.5557 311.388 61.6757 311.796C61.8077 312.192 61.9877 312.534 62.2157 312.822C62.4437 313.098 62.7137 313.314 63.0257 313.47C63.3377 313.626 63.6857 313.704 64.0697 313.704C64.4057 313.704 64.7297 313.644 65.0417 313.524C65.3657 313.392 65.6477 313.194 65.8877 312.93C66.1277 312.666 66.3197 312.33 66.4637 311.922C66.6197 311.502 66.6977 311.004 66.6977 310.428C66.6977 310.02 66.6437 309.624 66.5357 309.24C66.4277 308.856 66.2657 308.514 66.0497 308.214C65.8337 307.914 65.5637 307.674 65.2397 307.494C64.9157 307.302 64.5377 307.206 64.1057 307.206C63.7457 307.206 63.4097 307.278 63.0977 307.422C62.7857 307.566 62.5097 307.776 62.2697 308.052C62.0297 308.328 61.8377 308.67 61.6937 309.078C61.5617 309.474 61.4957 309.93 61.4957 310.446ZM70.8161 306.486C70.8161 306.09 71.0141 305.892 71.4101 305.892H71.9681C72.3521 305.892 72.5441 306.09 72.5441 306.486V311.328C72.5441 311.64 72.5621 311.934 72.5981 312.21C72.6461 312.486 72.7301 312.726 72.8501 312.93C72.9821 313.134 73.1561 313.296 73.3721 313.416C73.6001 313.536 73.8941 313.596 74.2541 313.596C74.7221 313.596 75.1361 313.5 75.4961 313.308C75.8681 313.116 76.1801 312.864 76.4321 312.552C76.6961 312.24 76.8941 311.88 77.0261 311.472C77.1581 311.052 77.2241 310.614 77.2241 310.158V306.486C77.2241 306.09 77.4221 305.892 77.8181 305.892H78.3761C78.7721 305.892 78.9701 306.09 78.9701 306.486V314.406C78.9701 314.802 78.7721 315 78.3761 315H77.8721C77.4761 315 77.2781 314.802 77.2781 314.406V313.596C77.2781 313.536 77.2781 313.476 77.2781 313.416C77.2781 313.344 77.2841 313.284 77.2961 313.236C77.3081 313.188 77.3201 313.134 77.3321 313.074H77.2961C77.2001 313.302 77.0501 313.542 76.8461 313.794C76.6541 314.046 76.4141 314.28 76.1261 314.496C75.8381 314.7 75.5081 314.868 75.1361 315C74.7641 315.144 74.3561 315.216 73.9121 315.216C72.8801 315.216 72.1061 314.94 71.5901 314.388C71.0741 313.824 70.8161 312.936 70.8161 311.724V306.486ZM80.8945 310.446C80.8945 309.774 81.0145 309.15 81.2545 308.574C81.4945 307.986 81.8305 307.482 82.2625 307.062C82.6945 306.63 83.2045 306.294 83.7925 306.054C84.3925 305.802 85.0465 305.676 85.7545 305.676C86.1385 305.676 86.4865 305.712 86.7985 305.784C87.1105 305.844 87.3925 305.922 87.6445 306.018C87.8965 306.114 88.1125 306.222 88.2925 306.342C88.4845 306.45 88.6405 306.552 88.7605 306.648C88.9165 306.744 89.0005 306.864 89.0125 307.008C89.0245 307.152 88.9765 307.302 88.8685 307.458L88.6885 307.728C88.4965 308.028 88.2265 308.076 87.8785 307.872C87.6865 307.74 87.4165 307.596 87.0685 307.44C86.7325 307.272 86.3245 307.188 85.8445 307.188C85.3885 307.188 84.9625 307.272 84.5665 307.44C84.1825 307.596 83.8465 307.818 83.5585 308.106C83.2825 308.394 83.0665 308.736 82.9105 309.132C82.7545 309.528 82.6765 309.96 82.6765 310.428C82.6765 310.896 82.7545 311.328 82.9105 311.724C83.0665 312.12 83.2885 312.468 83.5765 312.768C83.8645 313.056 84.2005 313.284 84.5845 313.452C84.9805 313.62 85.4125 313.704 85.8805 313.704C86.4325 313.704 86.9005 313.608 87.2845 313.416C87.6805 313.224 87.9865 313.044 88.2025 312.876C88.5385 312.66 88.8085 312.714 89.0125 313.038L89.1565 313.308C89.3485 313.632 89.2945 313.896 88.9945 314.1C88.8625 314.208 88.6945 314.328 88.4905 314.46C88.2985 314.58 88.0645 314.7 87.7885 314.82C87.5245 314.928 87.2185 315.018 86.8705 315.09C86.5345 315.174 86.1625 315.216 85.7545 315.216C85.0345 315.216 84.3745 315.096 83.7745 314.856C83.1865 314.616 82.6765 314.286 82.2445 313.866C81.8245 313.434 81.4945 312.93 81.2545 312.354C81.0145 311.766 80.8945 311.13 80.8945 310.446ZM91.483 307.404H90.853C90.469 307.404 90.277 307.206 90.277 306.81V306.576C90.277 306.18 90.475 305.982 90.871 305.982H91.519V303.984C91.519 303.588 91.717 303.39 92.113 303.39H92.635C93.031 303.39 93.229 303.588 93.229 303.984V305.982H94.813C95.209 305.982 95.407 306.18 95.407 306.576V306.81C95.407 307.206 95.215 307.404 94.831 307.404H93.229V311.454C93.229 311.886 93.289 312.234 93.409 312.498C93.529 312.762 93.673 312.966 93.841 313.11C94.021 313.254 94.207 313.356 94.399 313.416C94.603 313.464 94.789 313.494 94.957 313.506C95.197 313.53 95.359 313.584 95.443 313.668C95.539 313.752 95.587 313.896 95.587 314.1V314.478C95.587 314.874 95.347 315.072 94.867 315.072C94.411 315.072 93.979 315.006 93.571 314.874C93.163 314.742 92.803 314.538 92.491 314.262C92.191 313.986 91.945 313.638 91.753 313.218C91.573 312.798 91.483 312.3 91.483 311.724V307.404ZM96.5215 310.428C96.5215 309.744 96.6475 309.114 96.8995 308.538C97.1635 307.95 97.5115 307.446 97.9435 307.026C98.3875 306.594 98.9035 306.264 99.4915 306.036C100.091 305.796 100.733 305.676 101.417 305.676C102.101 305.676 102.737 305.796 103.325 306.036C103.925 306.264 104.447 306.594 104.891 307.026C105.335 307.446 105.683 307.95 105.935 308.538C106.199 309.114 106.331 309.744 106.331 310.428C106.331 311.124 106.199 311.766 105.935 312.354C105.683 312.93 105.335 313.434 104.891 313.866C104.447 314.286 103.925 314.616 103.325 314.856C102.737 315.096 102.101 315.216 101.417 315.216C100.733 315.216 100.091 315.096 99.4915 314.856C98.9035 314.616 98.3875 314.286 97.9435 313.866C97.5115 313.434 97.1635 312.93 96.8995 312.354C96.6475 311.766 96.5215 311.124 96.5215 310.428ZM98.2855 310.428C98.2855 310.908 98.3695 311.352 98.5375 311.76C98.7055 312.156 98.9275 312.498 99.2035 312.786C99.4915 313.074 99.8215 313.302 100.193 313.47C100.577 313.626 100.985 313.704 101.417 313.704C101.849 313.704 102.251 313.626 102.623 313.47C103.007 313.302 103.343 313.074 103.631 312.786C103.919 312.498 104.141 312.156 104.297 311.76C104.465 311.352 104.549 310.908 104.549 310.428C104.549 309.96 104.465 309.528 104.297 309.132C104.141 308.736 103.919 308.394 103.631 308.106C103.343 307.818 103.007 307.596 102.623 307.44C102.251 307.272 101.849 307.188 101.417 307.188C100.985 307.188 100.577 307.272 100.193 307.44C99.8215 307.596 99.4915 307.818 99.2035 308.106C98.9275 308.394 98.7055 308.736 98.5375 309.132C98.3695 309.528 98.2855 309.96 98.2855 310.428ZM112.202 310.446C112.202 309.726 112.304 309.072 112.508 308.484C112.712 307.896 112.994 307.398 113.354 306.99C113.726 306.57 114.164 306.246 114.668 306.018C115.184 305.79 115.742 305.676 116.342 305.676C116.882 305.676 117.332 305.766 117.692 305.946C118.064 306.126 118.37 306.318 118.61 306.522C118.874 306.774 119.09 307.056 119.258 307.368H119.294C119.282 307.32 119.276 307.272 119.276 307.224C119.264 307.176 119.258 307.122 119.258 307.062C119.258 307.002 119.258 306.936 119.258 306.864V306.396C119.258 306.06 119.456 305.892 119.852 305.892H120.284C120.68 305.892 120.878 306.09 120.878 306.486V318.006C120.878 318.402 120.68 318.6 120.284 318.6H119.726C119.33 318.6 119.132 318.402 119.132 318.006V314.316C119.132 314.196 119.132 314.088 119.132 313.992C119.132 313.896 119.138 313.812 119.15 313.74C119.162 313.656 119.174 313.584 119.186 313.524H119.15C118.994 313.848 118.778 314.13 118.502 314.37C118.262 314.586 117.956 314.784 117.584 314.964C117.212 315.132 116.744 315.216 116.18 315.216C115.58 315.216 115.034 315.102 114.542 314.874C114.062 314.634 113.648 314.304 113.3 313.884C112.952 313.464 112.682 312.966 112.49 312.39C112.298 311.802 112.202 311.154 112.202 310.446ZM113.984 310.446C113.984 310.938 114.044 311.388 114.164 311.796C114.296 312.192 114.476 312.534 114.704 312.822C114.932 313.098 115.202 313.314 115.514 313.47C115.826 313.626 116.174 313.704 116.558 313.704C116.894 313.704 117.218 313.644 117.53 313.524C117.854 313.392 118.136 313.194 118.376 312.93C118.616 312.666 118.808 312.33 118.952 311.922C119.108 311.502 119.186 311.004 119.186 310.428C119.186 310.02 119.132 309.624 119.024 309.24C118.916 308.856 118.754 308.514 118.538 308.214C118.322 307.914 118.052 307.674 117.728 307.494C117.404 307.302 117.026 307.206 116.594 307.206C116.234 307.206 115.898 307.278 115.586 307.422C115.274 307.566 114.998 307.776 114.758 308.052C114.518 308.328 114.326 308.67 114.182 309.078C114.05 309.474 113.984 309.93 113.984 310.446ZM123.304 306.486C123.304 306.09 123.502 305.892 123.898 305.892H124.456C124.84 305.892 125.032 306.09 125.032 306.486V311.328C125.032 311.64 125.05 311.934 125.086 312.21C125.134 312.486 125.218 312.726 125.338 312.93C125.47 313.134 125.644 313.296 125.86 313.416C126.088 313.536 126.382 313.596 126.742 313.596C127.21 313.596 127.624 313.5 127.984 313.308C128.356 313.116 128.668 312.864 128.92 312.552C129.184 312.24 129.382 311.88 129.514 311.472C129.646 311.052 129.712 310.614 129.712 310.158V306.486C129.712 306.09 129.91 305.892 130.306 305.892H130.864C131.26 305.892 131.458 306.09 131.458 306.486V314.406C131.458 314.802 131.26 315 130.864 315H130.36C129.964 315 129.766 314.802 129.766 314.406V313.596C129.766 313.536 129.766 313.476 129.766 313.416C129.766 313.344 129.772 313.284 129.784 313.236C129.796 313.188 129.808 313.134 129.82 313.074H129.784C129.688 313.302 129.538 313.542 129.334 313.794C129.142 314.046 128.902 314.28 128.614 314.496C128.326 314.7 127.996 314.868 127.624 315C127.252 315.144 126.844 315.216 126.4 315.216C125.368 315.216 124.594 314.94 124.078 314.388C123.562 313.824 123.304 312.936 123.304 311.724V306.486ZM133.401 310.446C133.401 309.726 133.515 309.072 133.743 308.484C133.983 307.896 134.301 307.398 134.697 306.99C135.105 306.57 135.585 306.246 136.137 306.018C136.701 305.79 137.307 305.676 137.955 305.676C138.579 305.676 139.137 305.784 139.629 306C140.121 306.216 140.529 306.516 140.853 306.9C141.189 307.284 141.441 307.74 141.609 308.268C141.789 308.796 141.879 309.378 141.879 310.014C141.879 310.182 141.819 310.326 141.699 310.446C141.591 310.566 141.447 310.626 141.267 310.626H135.183C135.207 311.118 135.309 311.556 135.489 311.94C135.669 312.324 135.903 312.648 136.191 312.912C136.479 313.176 136.803 313.374 137.163 313.506C137.535 313.638 137.925 313.704 138.333 313.704C138.837 313.704 139.275 313.626 139.647 313.47C140.019 313.302 140.307 313.14 140.511 312.984C140.871 312.792 141.141 312.858 141.321 313.182L141.483 313.452C141.579 313.608 141.609 313.758 141.573 313.902C141.549 314.034 141.459 314.148 141.303 314.244C141.171 314.34 141.003 314.448 140.799 314.568C140.595 314.676 140.361 314.778 140.097 314.874C139.845 314.97 139.557 315.048 139.233 315.108C138.921 315.18 138.585 315.216 138.225 315.216C137.505 315.216 136.851 315.096 136.263 314.856C135.675 314.604 135.165 314.268 134.733 313.848C134.313 313.416 133.983 312.912 133.743 312.336C133.515 311.748 133.401 311.118 133.401 310.446ZM140.133 309.474C140.109 308.67 139.881 308.064 139.449 307.656C139.029 307.248 138.519 307.044 137.919 307.044C137.247 307.044 136.665 307.26 136.173 307.692C135.693 308.112 135.387 308.706 135.255 309.474H140.133ZM147.691 310.446C147.691 309.774 147.811 309.15 148.051 308.574C148.291 307.986 148.627 307.482 149.059 307.062C149.491 306.63 150.001 306.294 150.589 306.054C151.189 305.802 151.843 305.676 152.551 305.676C152.935 305.676 153.283 305.712 153.595 305.784C153.907 305.844 154.189 305.922 154.441 306.018C154.693 306.114 154.909 306.222 155.089 306.342C155.281 306.45 155.437 306.552 155.557 306.648C155.713 306.744 155.797 306.864 155.809 307.008C155.821 307.152 155.773 307.302 155.665 307.458L155.485 307.728C155.293 308.028 155.023 308.076 154.675 307.872C154.483 307.74 154.213 307.596 153.865 307.44C153.529 307.272 153.121 307.188 152.641 307.188C152.185 307.188 151.759 307.272 151.363 307.44C150.979 307.596 150.643 307.818 150.355 308.106C150.079 308.394 149.863 308.736 149.707 309.132C149.551 309.528 149.473 309.96 149.473 310.428C149.473 310.896 149.551 311.328 149.707 311.724C149.863 312.12 150.085 312.468 150.373 312.768C150.661 313.056 150.997 313.284 151.381 313.452C151.777 313.62 152.209 313.704 152.677 313.704C153.229 313.704 153.697 313.608 154.081 313.416C154.477 313.224 154.783 313.044 154.999 312.876C155.335 312.66 155.605 312.714 155.809 313.038L155.953 313.308C156.145 313.632 156.091 313.896 155.791 314.1C155.659 314.208 155.491 314.328 155.287 314.46C155.095 314.58 154.861 314.7 154.585 314.82C154.321 314.928 154.015 315.018 153.667 315.09C153.331 315.174 152.959 315.216 152.551 315.216C151.831 315.216 151.171 315.096 150.571 314.856C149.983 314.616 149.473 314.286 149.041 313.866C148.621 313.434 148.291 312.93 148.051 312.354C147.811 311.766 147.691 311.13 147.691 310.446ZM157.148 310.428C157.148 309.744 157.274 309.114 157.526 308.538C157.79 307.95 158.138 307.446 158.57 307.026C159.014 306.594 159.53 306.264 160.118 306.036C160.718 305.796 161.36 305.676 162.044 305.676C162.728 305.676 163.364 305.796 163.952 306.036C164.552 306.264 165.074 306.594 165.518 307.026C165.962 307.446 166.31 307.95 166.562 308.538C166.826 309.114 166.958 309.744 166.958 310.428C166.958 311.124 166.826 311.766 166.562 312.354C166.31 312.93 165.962 313.434 165.518 313.866C165.074 314.286 164.552 314.616 163.952 314.856C163.364 315.096 162.728 315.216 162.044 315.216C161.36 315.216 160.718 315.096 160.118 314.856C159.53 314.616 159.014 314.286 158.57 313.866C158.138 313.434 157.79 312.93 157.526 312.354C157.274 311.766 157.148 311.124 157.148 310.428ZM158.912 310.428C158.912 310.908 158.996 311.352 159.164 311.76C159.332 312.156 159.554 312.498 159.83 312.786C160.118 313.074 160.448 313.302 160.82 313.47C161.204 313.626 161.612 313.704 162.044 313.704C162.476 313.704 162.878 313.626 163.25 313.47C163.634 313.302 163.97 313.074 164.258 312.786C164.546 312.498 164.768 312.156 164.924 311.76C165.092 311.352 165.176 310.908 165.176 310.428C165.176 309.96 165.092 309.528 164.924 309.132C164.768 308.736 164.546 308.394 164.258 308.106C163.97 307.818 163.634 307.596 163.25 307.44C162.878 307.272 162.476 307.188 162.044 307.188C161.612 307.188 161.204 307.272 160.82 307.44C160.448 307.596 160.118 307.818 159.83 308.106C159.554 308.394 159.332 308.736 159.164 309.132C158.996 309.528 158.912 309.96 158.912 310.428ZM168.887 306.486C168.887 306.09 169.085 305.892 169.481 305.892H169.985C170.381 305.892 170.579 306.09 170.579 306.486V307.296C170.579 307.416 170.567 307.536 170.543 307.656C170.531 307.704 170.525 307.758 170.525 307.818H170.561C170.669 307.554 170.825 307.296 171.029 307.044C171.245 306.78 171.491 306.552 171.767 306.36C172.055 306.156 172.361 305.994 172.685 305.874C173.021 305.742 173.369 305.676 173.729 305.676C175.229 305.676 176.141 306.366 176.465 307.746H176.501C176.621 307.482 176.789 307.224 177.005 306.972C177.221 306.72 177.467 306.498 177.743 306.306C178.019 306.114 178.325 305.964 178.661 305.856C178.997 305.736 179.351 305.676 179.723 305.676C180.767 305.676 181.529 305.97 182.009 306.558C182.489 307.134 182.729 308.004 182.729 309.168V314.406C182.729 314.802 182.531 315 182.135 315H181.577C181.181 315 180.983 314.802 180.983 314.406V309.546C180.983 309.222 180.959 308.922 180.911 308.646C180.875 308.37 180.797 308.13 180.677 307.926C180.569 307.722 180.407 307.56 180.191 307.44C179.987 307.32 179.717 307.26 179.381 307.26C178.961 307.26 178.583 307.362 178.247 307.566C177.911 307.758 177.623 308.022 177.383 308.358C177.155 308.682 176.981 309.054 176.861 309.474C176.741 309.894 176.681 310.32 176.681 310.752V314.406C176.681 314.802 176.489 315 176.105 315H175.529C175.145 315 174.953 314.802 174.953 314.406V309.546C174.953 309.246 174.935 308.958 174.899 308.682C174.863 308.406 174.791 308.166 174.683 307.962C174.575 307.746 174.413 307.578 174.197 307.458C173.993 307.326 173.717 307.26 173.369 307.26C172.937 307.26 172.547 307.362 172.199 307.566C171.863 307.77 171.575 308.04 171.335 308.376C171.107 308.7 170.933 309.072 170.813 309.492C170.693 309.912 170.633 310.332 170.633 310.752V314.406C170.633 314.802 170.435 315 170.039 315H169.481C169.085 315 168.887 314.802 168.887 314.406V306.486ZM185.147 306.486C185.147 306.09 185.345 305.892 185.741 305.892H186.155C186.551 305.892 186.749 306.06 186.749 306.396V306.936C186.749 307.008 186.743 307.074 186.731 307.134C186.731 307.182 186.731 307.23 186.731 307.278C186.719 307.326 186.713 307.374 186.713 307.422H186.749C186.905 307.098 187.127 306.81 187.415 306.558C187.655 306.342 187.967 306.144 188.351 305.964C188.747 305.772 189.233 305.676 189.809 305.676C190.421 305.676 190.973 305.796 191.465 306.036C191.957 306.264 192.377 306.588 192.725 307.008C193.073 307.428 193.337 307.932 193.517 308.52C193.709 309.096 193.805 309.738 193.805 310.446C193.805 311.166 193.703 311.82 193.499 312.408C193.295 312.996 193.007 313.5 192.635 313.92C192.263 314.328 191.825 314.646 191.321 314.874C190.817 315.102 190.271 315.216 189.683 315.216C189.155 315.216 188.711 315.132 188.351 314.964C188.003 314.796 187.715 314.61 187.487 314.406C187.223 314.178 187.013 313.908 186.857 313.596H186.821C186.821 313.656 186.827 313.728 186.839 313.812C186.851 313.884 186.857 313.968 186.857 314.064C186.869 314.16 186.875 314.268 186.875 314.388V318.006C186.875 318.402 186.683 318.6 186.299 318.6H185.741C185.345 318.6 185.147 318.402 185.147 318.006V306.486ZM186.839 310.482C186.839 310.89 186.893 311.286 187.001 311.67C187.121 312.054 187.289 312.396 187.505 312.696C187.721 312.996 187.985 313.242 188.297 313.434C188.621 313.614 188.993 313.704 189.413 313.704C189.773 313.704 190.109 313.632 190.421 313.488C190.745 313.344 191.027 313.134 191.267 312.858C191.507 312.582 191.693 312.246 191.825 311.85C191.969 311.442 192.041 310.98 192.041 310.464C192.041 309.972 191.975 309.528 191.843 309.132C191.723 308.724 191.549 308.382 191.321 308.106C191.093 307.818 190.817 307.596 190.493 307.44C190.181 307.284 189.839 307.206 189.467 307.206C189.119 307.206 188.789 307.272 188.477 307.404C188.165 307.524 187.883 307.716 187.631 307.98C187.391 308.244 187.199 308.586 187.055 309.006C186.911 309.414 186.839 309.906 186.839 310.482ZM195.781 306.486C195.781 306.09 195.979 305.892 196.375 305.892H196.879C197.275 305.892 197.473 306.09 197.473 306.486V307.53C197.473 307.626 197.467 307.716 197.455 307.8C197.455 307.884 197.449 307.956 197.437 308.016C197.425 308.088 197.419 308.154 197.419 308.214H197.455C197.551 307.914 197.683 307.62 197.851 307.332C198.031 307.044 198.241 306.792 198.481 306.576C198.721 306.348 198.985 306.168 199.273 306.036C199.573 305.892 199.897 305.82 200.245 305.82C200.629 305.82 200.821 306.018 200.821 306.414V306.918C200.821 307.314 200.605 307.512 200.173 307.512C199.729 307.512 199.339 307.626 199.003 307.854C198.679 308.07 198.403 308.352 198.175 308.7C197.959 309.048 197.797 309.45 197.689 309.906C197.581 310.35 197.527 310.794 197.527 311.238V314.406C197.527 314.802 197.329 315 196.933 315H196.375C195.979 315 195.781 314.802 195.781 314.406V306.486ZM201.372 312.516C201.372 312.048 201.462 311.646 201.642 311.31C201.822 310.962 202.062 310.674 202.362 310.446C202.662 310.218 202.998 310.032 203.37 309.888C203.754 309.744 204.15 309.636 204.558 309.564C204.966 309.492 205.362 309.444 205.746 309.42C206.142 309.396 206.496 309.384 206.808 309.384H207.276V309.15C207.276 308.778 207.222 308.466 207.114 308.214C207.018 307.95 206.88 307.74 206.7 307.584C206.52 307.428 206.31 307.32 206.07 307.26C205.83 307.188 205.572 307.152 205.296 307.152C204.84 307.152 204.432 307.218 204.072 307.35C203.724 307.482 203.448 307.608 203.244 307.728C202.896 307.896 202.626 307.824 202.434 307.512L202.29 307.26C202.098 306.9 202.164 306.63 202.488 306.45C202.764 306.294 203.148 306.126 203.64 305.946C204.144 305.766 204.744 305.676 205.44 305.676C206.58 305.676 207.462 305.982 208.086 306.594C208.71 307.194 209.022 308.076 209.022 309.24V314.406C209.022 314.802 208.824 315 208.428 315H207.978C207.582 315 207.384 314.802 207.384 314.406V313.866C207.384 313.782 207.384 313.704 207.384 313.632C207.384 313.56 207.39 313.5 207.402 313.452C207.414 313.404 207.426 313.356 207.438 313.308H207.402C207.222 313.668 206.994 313.986 206.718 314.262C206.478 314.502 206.172 314.724 205.8 314.928C205.428 315.12 204.972 315.216 204.432 315.216C204.036 315.216 203.652 315.156 203.28 315.036C202.908 314.916 202.578 314.742 202.29 314.514C202.014 314.274 201.792 313.992 201.624 313.668C201.456 313.332 201.372 312.948 201.372 312.516ZM203.136 312.372C203.136 312.732 203.274 313.068 203.55 313.38C203.838 313.68 204.264 313.83 204.828 313.83C205.212 313.83 205.554 313.746 205.854 313.578C206.166 313.398 206.424 313.17 206.628 312.894C206.844 312.606 207.006 312.294 207.114 311.958C207.234 311.61 207.294 311.268 207.294 310.932V310.536H206.826C206.502 310.536 206.13 310.554 205.71 310.59C205.29 310.614 204.888 310.686 204.504 310.806C204.12 310.926 203.796 311.112 203.532 311.364C203.268 311.604 203.136 311.94 203.136 312.372ZM211.048 314.226C210.892 314.13 210.808 314.01 210.796 313.866C210.784 313.722 210.826 313.572 210.922 313.416L211.102 313.164C211.222 313.008 211.342 312.924 211.462 312.912C211.594 312.9 211.75 312.942 211.93 313.038C212.134 313.17 212.422 313.326 212.794 313.506C213.166 313.686 213.622 313.776 214.162 313.776C214.618 313.776 214.99 313.674 215.278 313.47C215.566 313.254 215.71 312.954 215.71 312.57C215.71 312.27 215.59 312.03 215.35 311.85C215.122 311.67 214.834 311.508 214.486 311.364C214.138 311.208 213.76 311.064 213.352 310.932C212.956 310.788 212.584 310.608 212.236 310.392C211.888 310.164 211.594 309.888 211.354 309.564C211.126 309.24 211.012 308.82 211.012 308.304C211.012 307.872 211.096 307.494 211.264 307.17C211.444 306.834 211.684 306.558 211.984 306.342C212.284 306.126 212.632 305.964 213.028 305.856C213.436 305.736 213.862 305.676 214.306 305.676C214.942 305.676 215.464 305.76 215.872 305.928C216.292 306.096 216.61 306.246 216.826 306.378C216.994 306.462 217.09 306.576 217.114 306.72C217.15 306.852 217.12 307.002 217.024 307.17L216.862 307.44C216.694 307.74 216.43 307.806 216.07 307.638C215.878 307.53 215.626 307.416 215.314 307.296C215.014 307.176 214.648 307.116 214.216 307.116C213.784 307.116 213.418 307.212 213.118 307.404C212.83 307.596 212.686 307.884 212.686 308.268C212.686 308.568 212.8 308.814 213.028 309.006C213.268 309.186 213.562 309.348 213.91 309.492C214.258 309.636 214.63 309.78 215.026 309.924C215.434 310.068 215.812 310.248 216.16 310.464C216.508 310.668 216.796 310.938 217.024 311.274C217.264 311.598 217.384 312.018 217.384 312.534C217.384 312.918 217.306 313.278 217.15 313.614C216.994 313.938 216.772 314.22 216.484 314.46C216.196 314.7 215.848 314.886 215.44 315.018C215.044 315.15 214.6 315.216 214.108 315.216C213.724 315.216 213.37 315.18 213.046 315.108C212.734 315.048 212.452 314.97 212.2 314.874C211.948 314.766 211.72 314.658 211.516 314.55C211.324 314.43 211.168 314.322 211.048 314.226ZM219.751 307.404H219.121C218.737 307.404 218.545 307.206 218.545 306.81V306.576C218.545 306.18 218.743 305.982 219.139 305.982H219.787V303.984C219.787 303.588 219.985 303.39 220.381 303.39H220.903C221.299 303.39 221.497 303.588 221.497 303.984V305.982H223.081C223.477 305.982 223.675 306.18 223.675 306.576V306.81C223.675 307.206 223.483 307.404 223.099 307.404H221.497V311.454C221.497 311.886 221.557 312.234 221.677 312.498C221.797 312.762 221.941 312.966 222.109 313.11C222.289 313.254 222.475 313.356 222.667 313.416C222.871 313.464 223.057 313.494 223.225 313.506C223.465 313.53 223.627 313.584 223.711 313.668C223.807 313.752 223.855 313.896 223.855 314.1V314.478C223.855 314.874 223.615 315.072 223.135 315.072C222.679 315.072 222.247 315.006 221.839 314.874C221.431 314.742 221.071 314.538 220.759 314.262C220.459 313.986 220.213 313.638 220.021 313.218C219.841 312.798 219.751 312.3 219.751 311.724V307.404ZM224.825 310.446C224.825 309.726 224.939 309.072 225.167 308.484C225.407 307.896 225.725 307.398 226.121 306.99C226.529 306.57 227.009 306.246 227.561 306.018C228.125 305.79 228.731 305.676 229.379 305.676C230.003 305.676 230.561 305.784 231.053 306C231.545 306.216 231.953 306.516 232.277 306.9C232.613 307.284 232.865 307.74 233.033 308.268C233.213 308.796 233.303 309.378 233.303 310.014C233.303 310.182 233.243 310.326 233.123 310.446C233.015 310.566 232.871 310.626 232.691 310.626H226.607C226.631 311.118 226.733 311.556 226.913 311.94C227.093 312.324 227.327 312.648 227.615 312.912C227.903 313.176 228.227 313.374 228.587 313.506C228.959 313.638 229.349 313.704 229.757 313.704C230.261 313.704 230.699 313.626 231.071 313.47C231.443 313.302 231.731 313.14 231.935 312.984C232.295 312.792 232.565 312.858 232.745 313.182L232.907 313.452C233.003 313.608 233.033 313.758 232.997 313.902C232.973 314.034 232.883 314.148 232.727 314.244C232.595 314.34 232.427 314.448 232.223 314.568C232.019 314.676 231.785 314.778 231.521 314.874C231.269 314.97 230.981 315.048 230.657 315.108C230.345 315.18 230.009 315.216 229.649 315.216C228.929 315.216 228.275 315.096 227.687 314.856C227.099 314.604 226.589 314.268 226.157 313.848C225.737 313.416 225.407 312.912 225.167 312.336C224.939 311.748 224.825 311.118 224.825 310.446ZM231.557 309.474C231.533 308.67 231.305 308.064 230.873 307.656C230.453 307.248 229.943 307.044 229.343 307.044C228.671 307.044 228.089 307.26 227.597 307.692C227.117 308.112 226.811 308.706 226.679 309.474H231.557Z" fill="#5A5956"/>
<path d="M115.874 75.6579C119.584 73.2779 123.771 71.7417 128.14 71.1578C132.509 70.574 136.952 70.9567 141.157 72.2789C144.839 73.4353 148.248 75.3285 151.176 77.8436C154.104 80.3587 156.49 83.443 158.188 86.9089C162.254 95.4654 162.806 105.274 159.725 114.233C156.905 122.448 152.258 129.917 146.133 136.075C142.137 140.185 137.823 143.974 133.233 147.408V147.408L132.99 147.614C132.628 147.858 132.221 148.028 131.793 148.114C131.365 148.201 130.924 148.202 130.496 148.118C130.067 148.033 129.66 147.865 129.296 147.623C128.933 147.381 128.621 147.07 128.378 146.707C128.116 146.339 127.929 145.923 127.828 145.483C127.727 145.043 127.714 144.587 127.79 144.142C127.864 143.698 128.026 143.273 128.267 142.893C128.507 142.512 128.821 142.184 129.19 141.926C133.496 138.679 137.551 135.111 141.319 131.253C146.774 125.876 150.925 119.321 153.455 112.091C155.903 104.858 155.409 96.9535 152.08 90.0819C150.771 87.4282 148.939 85.0669 146.693 83.1405C144.448 81.2141 141.835 79.7624 139.013 78.8729C135.446 77.7385 131.658 77.487 127.972 78.1402C124.287 78.7934 120.815 80.3317 117.856 82.6229C117.274 83.0641 116.564 83.3029 115.833 83.3029C115.103 83.3029 114.393 83.0641 113.811 82.6229C110.853 80.3287 107.382 78.7884 103.696 78.1351C100.01 77.4818 96.2202 77.735 92.654 78.8729C89.8134 79.743 87.1794 81.1817 84.9122 83.1016C82.6451 85.0215 80.7921 87.3825 79.466 90.0409C76.2124 96.9061 75.7482 104.766 78.171 111.966C80.7112 119.18 84.8615 125.721 90.307 131.091C98.3112 138.911 107.157 145.82 116.683 151.691C117.275 152.115 117.721 152.713 117.957 153.403C118.193 154.092 118.208 154.838 118 155.536C117.8 156.231 117.384 156.844 116.813 157.287C116.242 157.73 115.545 157.979 114.822 158C114.157 158.003 113.507 157.802 112.961 157.423C103.038 151.306 93.8251 144.105 85.493 135.952C79.3337 129.813 74.6694 122.339 71.861 114.109C68.8869 105.164 69.4963 95.4141 73.561 86.9089C75.2593 83.4431 77.6448 80.3588 80.5725 77.8438C83.5001 75.3287 86.9087 73.4354 90.591 72.2789C94.7956 70.9567 99.2393 70.574 103.608 71.1578C107.977 71.7417 112.164 73.2779 115.874 75.6579V75.6579ZM133.159 89.216H133.674C136.645 90.1912 139.262 92.0215 141.198 94.4776C143.133 96.9336 144.301 99.9062 144.555 103.023V103.023L144.581 103.561C144.561 104.278 144.316 104.97 143.881 105.54C143.613 105.891 143.277 106.185 142.893 106.404C142.509 106.623 142.085 106.763 141.646 106.815C140.749 106.925 139.844 106.675 139.132 106.118C138.419 105.562 137.957 104.745 137.846 103.848C137.752 101.852 137.015 99.9401 135.746 98.3969C134.669 97.0858 133.234 96.1161 131.616 95.6059C130.967 95.1888 130.475 94.5688 130.216 93.8425C129.956 93.1163 129.944 92.3246 130.182 91.591C130.412 90.8607 130.882 90.2294 131.516 89.7995C132.149 89.3696 132.909 89.1661 133.673 89.2219L133.159 89.216Z" fill="#5A5956"/>
<path d="M133.159 89.216H133.674C136.645 90.1912 139.263 92.0214 141.198 94.4775C143.134 96.9335 144.302 99.9062 144.556 103.023V103.023L144.582 103.561C144.562 104.278 144.317 104.97 143.882 105.54C143.614 105.891 143.278 106.185 142.894 106.404C142.51 106.623 142.086 106.763 141.647 106.815C140.75 106.925 139.845 106.675 139.133 106.118C138.42 105.562 137.958 104.745 137.847 103.848C137.753 101.852 137.016 99.9402 135.747 98.397C134.67 97.0859 133.235 96.1162 131.617 95.606C130.969 95.1879 130.477 94.567 130.219 93.8401C129.961 93.1133 129.95 92.3215 130.189 91.588C130.419 90.8578 130.889 90.2265 131.523 89.7966C132.156 89.3666 132.916 89.1631 133.68 89.219L133.159 89.216Z" fill="#5A5956"/>
<path d="M37.551 155.53C39.7258 155.53 41.8115 156.394 43.3493 157.932C44.8871 159.469 45.751 161.555 45.751 163.73C45.7531 168.111 47.4944 172.312 50.5923 175.409C53.6902 178.507 57.8911 180.248 62.272 180.25H73.512C77.8188 180.245 82.0843 181.089 86.0649 182.733C90.0456 184.377 93.6635 186.789 96.712 189.831V189.831L104.595 197.731C106.129 199.282 107.956 200.513 109.97 201.353C111.984 202.192 114.145 202.623 116.327 202.62C118.514 202.674 120.687 202.268 122.706 201.427C124.725 200.587 126.545 199.331 128.048 197.742C128.808 196.979 129.712 196.373 130.706 195.959C131.701 195.545 132.768 195.331 133.845 195.329C134.922 195.327 135.989 195.538 136.985 195.948C137.981 196.359 138.887 196.961 139.65 197.722C140.413 198.482 141.019 199.386 141.433 200.38C141.847 201.375 142.061 202.441 142.063 203.519C142.065 204.596 141.854 205.663 141.444 206.659C141.033 207.655 140.43 208.561 139.67 209.324C133.505 215.5 125.144 218.98 116.417 219.003C107.691 219.025 99.3117 215.588 93.115 209.444V209.444L85.134 201.46C82.04 198.383 77.8533 196.657 73.49 196.66H62.272C53.5438 196.65 45.1759 193.179 39.0042 187.007C32.8324 180.835 29.3608 172.467 29.351 163.739C29.3498 162.661 29.561 161.594 29.9726 160.598C30.3842 159.602 30.988 158.697 31.7495 157.935C32.5111 157.172 33.4155 156.568 34.4109 156.155C35.4064 155.742 36.4734 155.53 37.551 155.53V155.53ZM170.388 22.6409C179.118 22.6512 187.487 26.1245 193.659 32.2986C199.831 38.4726 203.302 46.843 203.309 55.5729V55.5729V66.8159C203.308 71.1822 205.038 75.3707 208.12 78.4639V78.4639L215.97 86.3169C222.157 92.4766 225.645 100.841 225.668 109.572C225.69 118.302 222.245 126.684 216.09 132.876V132.876L208.109 140.86C205.051 143.963 203.328 148.14 203.309 152.497V163.73C203.3 172.459 199.829 180.829 193.657 187.002C187.486 193.176 179.117 196.65 170.388 196.662C168.212 196.662 166.126 195.798 164.588 194.259C163.049 192.721 162.185 190.634 162.185 188.459C162.185 186.283 163.049 184.197 164.588 182.659C166.126 181.12 168.212 180.256 170.388 180.256C174.769 180.251 178.969 178.509 182.067 175.41C185.164 172.312 186.905 168.111 186.908 163.73V163.73V152.487C186.898 148.177 187.74 143.908 189.386 139.925C191.031 135.942 193.448 132.324 196.497 129.278V129.278L204.369 121.392C205.919 119.858 207.15 118.032 207.991 116.019C208.831 114.007 209.265 111.848 209.267 109.667C209.269 107.485 208.84 105.326 208.003 103.312C207.166 101.298 205.938 99.4692 204.391 97.9319V97.9319L196.508 90.0459C193.46 86.9965 191.044 83.3762 189.397 79.3921C187.749 75.408 186.904 71.1382 186.908 66.8269V66.8269V55.5729C186.907 51.1911 185.166 46.9891 182.068 43.8902C178.97 40.7914 174.769 39.0493 170.387 39.0469C168.211 39.0469 166.125 38.1827 164.587 36.6443C163.048 35.106 162.184 33.0195 162.184 30.8439C162.184 28.6684 163.048 26.5819 164.587 25.0435C166.125 23.5052 168.211 22.6409 170.387 22.6409H170.388ZM93.006 9.97592C98.9609 4.01663 106.975 0.568757 115.396 0.342893C123.818 0.117028 132.005 3.13038 138.271 8.76192C138.735 9.09379 139.173 9.45945 139.583 9.85592C141.047 11.389 141.869 13.4233 141.883 15.5429C141.885 17.1401 141.42 18.7032 140.546 20.04C139.673 21.3769 138.427 22.4295 136.963 23.0684C135.499 23.7073 133.881 23.9049 132.306 23.6367C130.732 23.3685 129.27 22.6464 128.1 21.5589C127.991 21.4499 127.991 21.4499 127.881 21.3509C124.734 18.3512 120.542 16.6952 116.195 16.734C111.847 16.7729 107.686 18.5035 104.593 21.5589L96.723 29.4299C93.6904 32.4906 90.0794 34.9178 86.1001 36.5702C82.1208 38.2225 77.8527 39.0672 73.544 39.0549H62.283C57.9081 39.0702 53.7169 40.8153 50.6238 43.9092C47.5307 47.0032 45.787 51.195 45.773 55.5699V66.8379C45.7879 71.1478 44.9449 75.4176 43.2931 79.3985C41.6413 83.3793 39.2138 86.9916 36.152 90.0249V90.0249L28.279 97.9099C25.181 101.036 23.4428 105.259 23.4428 109.66C23.4428 114.061 25.181 118.284 28.279 121.41C29.8016 122.956 30.6551 125.04 30.6551 127.21C30.6551 129.38 29.8016 131.463 28.279 133.01C26.7283 134.526 24.6526 135.386 22.484 135.41C21.4074 135.413 20.3408 135.202 19.3461 134.79C18.3514 134.378 17.4483 133.773 16.689 133.01C10.5052 126.839 7.02101 118.468 7.00058 109.732C6.98015 100.997 10.4251 92.6093 16.58 86.4099V86.4099L24.562 78.4299C26.0862 76.9083 27.2956 75.1013 28.1211 73.1121C28.9466 71.123 29.372 68.9906 29.373 66.8369V55.5729C29.3804 46.8459 32.8497 38.4783 39.0196 32.3063C45.1895 26.1344 53.556 22.6622 62.283 22.6519H73.544C75.6977 22.6534 77.8304 22.2291 79.8195 21.4032C81.8086 20.5774 83.6147 19.3664 85.134 17.8399V17.8399L93.006 9.97592Z" fill="#EA572E"/>
</svg>
