<svg width="223" height="374" viewBox="0 0 223 374" fill="none" xmlns="http://www.w3.org/2000/svg">
<path d="M7.43527 353H8.87727L5.32127 343.116H3.86527L0.309266 353H1.73727L2.71727 350.158H6.44127L7.43527 353ZM4.60727 344.474C4.60727 344.474 4.81727 345.37 4.98527 345.874L6.07727 349.01H3.08127L4.18727 345.874C4.35527 345.37 4.57927 344.474 4.57927 344.474H4.60727ZM14.026 353H15.37V347.106H17.05V346.014H15.37V345.706C15.37 344.39 16.336 344.222 16.854 344.222C17.064 344.222 17.204 344.25 17.204 344.25V343.088C17.204 343.088 16.994 343.046 16.686 343.046C15.79 343.046 14.026 343.34 14.026 345.678V346.014H13.144V347.106H14.026V353ZM18.2531 350.452C18.2531 352.328 19.0791 353.168 20.6751 353.168C22.0611 353.168 22.9851 352.244 23.2791 351.544H23.3071C23.3071 351.544 23.2791 351.768 23.2791 352.062V353H24.5951V345.916H23.2371V349.234C23.2371 350.634 22.3831 351.908 20.9411 351.908C19.8071 351.908 19.6111 351.124 19.6111 350.144V345.916H18.2531V350.452ZM27.0123 350.41C27.0123 352.776 28.8183 353.056 29.7283 353.056C30.0083 353.056 30.2043 353.028 30.2043 353.028V351.824C30.2043 351.824 30.0783 351.852 29.8823 351.852C29.3643 351.852 28.3703 351.67 28.3703 350.256V347.106H30.0783V346.014H28.3703V343.97H27.0543V346.014H26.0883V347.106H27.0123V350.41ZM31.6379 350.452C31.6379 352.328 32.4639 353.168 34.0599 353.168C35.4459 353.168 36.3699 352.244 36.6639 351.544H36.6919C36.6919 351.544 36.6639 351.768 36.6639 352.062V353H37.9799V345.916H36.6219V349.234C36.6219 350.634 35.7679 351.908 34.3259 351.908C33.1919 351.908 32.9959 351.124 32.9959 350.144V345.916H31.6379V350.452ZM40.1031 353H41.4611V350.102C41.4611 349.668 41.5031 349.234 41.6291 348.828C41.9511 347.778 42.7491 347.162 43.6171 347.162C43.8271 347.162 44.0091 347.204 44.0091 347.204V345.86C44.0091 345.86 43.8411 345.832 43.6591 345.832C42.5671 345.832 41.7411 346.644 41.4191 347.68H41.3911C41.3911 347.68 41.4191 347.442 41.4191 347.148V345.916H40.1031V353ZM44.794 349.444C44.794 351.6 46.502 353.168 48.616 353.168C50.73 353.168 52.438 351.6 52.438 349.444C52.438 347.302 50.73 345.748 48.616 345.748C46.502 345.748 44.794 347.302 44.794 349.444ZM46.18 349.444C46.18 347.974 47.286 346.924 48.616 346.924C49.96 346.924 51.052 347.974 51.052 349.444C51.052 350.928 49.96 351.992 48.616 351.992C47.286 351.992 46.18 350.928 46.18 349.444ZM56.6501 355.506C56.6501 355.506 57.2241 355.94 58.0221 355.94C59.0161 355.94 59.8841 355.366 60.3181 354.274L63.6361 345.916H62.1661L60.4441 350.564C60.3181 350.928 60.2061 351.404 60.2061 351.404H60.1781C60.1781 351.404 60.0521 350.914 59.9121 350.55L58.1341 345.916H56.6081L59.5761 352.916L59.2261 353.728C58.9601 354.372 58.4981 354.764 57.9521 354.764C57.5181 354.764 57.1261 354.47 57.1261 354.47L56.6501 355.506ZM64.2068 351.012C64.2068 352.426 65.3968 353.168 66.6148 353.168C68.3088 353.168 68.8828 351.768 68.8828 351.768H68.9108C68.9108 351.768 68.8828 352.006 68.8828 352.328V353H70.1428V348.52C70.1428 346.728 69.1348 345.748 67.3428 345.748C65.7188 345.748 64.6968 346.588 64.6968 346.588L65.2568 347.582C65.2568 347.582 66.1388 346.896 67.2308 346.896C68.1268 346.896 68.7848 347.288 68.7848 348.45V348.576H68.4768C67.2868 348.576 64.2068 348.674 64.2068 351.012ZM65.5788 350.942C65.5788 349.668 67.4268 349.598 68.4488 349.598H68.7988V349.822C68.7988 350.872 68.0568 352.076 66.9088 352.076C66.0268 352.076 65.5788 351.516 65.5788 350.942ZM75.311 349.458C75.311 351.656 76.515 353.168 78.433 353.168C80.113 353.168 80.701 351.95 80.701 351.95H80.729C80.729 351.95 80.701 352.202 80.701 352.566V355.8H82.059V345.916H80.771V346.448C80.771 346.728 80.785 346.938 80.785 346.938H80.757C80.757 346.938 80.155 345.748 78.517 345.748C76.641 345.748 75.311 347.204 75.311 349.458ZM76.697 349.458C76.697 347.848 77.621 346.924 78.741 346.924C80.085 346.924 80.743 348.184 80.743 349.444C80.743 351.25 79.749 351.992 78.699 351.992C77.523 351.992 76.697 350.998 76.697 349.458ZM84.0832 350.452C84.0832 352.328 84.9092 353.168 86.5052 353.168C87.8912 353.168 88.8152 352.244 89.1092 351.544H89.1372C89.1372 351.544 89.1092 351.768 89.1092 352.062V353H90.4252V345.916H89.0672V349.234C89.0672 350.634 88.2132 351.908 86.7712 351.908C85.6372 351.908 85.4412 351.124 85.4412 350.144V345.916H84.0832V350.452ZM92.0584 349.458C92.0584 351.558 93.5844 353.168 95.8104 353.168C97.5044 353.168 98.5544 352.16 98.5544 352.16L97.9944 351.166C97.9944 351.166 97.1124 351.992 95.8944 351.992C94.6344 351.992 93.5284 351.208 93.4584 349.654H98.6244C98.6244 349.654 98.6664 349.248 98.6664 349.066C98.6664 347.232 97.6024 345.748 95.6004 345.748C93.5844 345.748 92.0584 347.204 92.0584 349.458ZM93.5004 348.632C93.6964 347.47 94.5364 346.826 95.5724 346.826C96.4824 346.826 97.2384 347.414 97.2804 348.632H93.5004ZM99.852 349.458C99.852 351.656 101.056 353.168 102.974 353.168C104.724 353.168 105.298 351.852 105.298 351.852H105.326C105.326 351.852 105.312 352.048 105.312 352.328V353H106.6V343.116H105.242V346.392C105.242 346.658 105.27 346.868 105.27 346.868H105.242C105.242 346.868 104.696 345.748 103.058 345.748C101.182 345.748 99.852 347.204 99.852 349.458ZM101.238 349.458C101.238 347.848 102.162 346.924 103.282 346.924C104.626 346.924 105.284 348.184 105.284 349.444C105.284 351.25 104.29 351.992 103.24 351.992C102.064 351.992 101.238 350.998 101.238 349.458ZM108.148 351.012C108.148 352.426 109.338 353.168 110.556 353.168C112.25 353.168 112.824 351.768 112.824 351.768H112.852C112.852 351.768 112.824 352.006 112.824 352.328V353H114.084V348.52C114.084 346.728 113.076 345.748 111.284 345.748C109.66 345.748 108.638 346.588 108.638 346.588L109.198 347.582C109.198 347.582 110.08 346.896 111.172 346.896C112.068 346.896 112.726 347.288 112.726 348.45V348.576H112.418C111.228 348.576 108.148 348.674 108.148 351.012ZM109.52 350.942C109.52 349.668 111.368 349.598 112.39 349.598H112.74V349.822C112.74 350.872 111.998 352.076 110.85 352.076C109.968 352.076 109.52 351.516 109.52 350.942ZM115.545 352.132C115.545 352.132 116.497 353.168 118.233 353.168C119.787 353.168 120.795 352.286 120.795 351.11C120.795 348.786 117.155 349.066 117.155 347.792C117.155 347.176 117.729 346.924 118.317 346.924C119.437 346.924 120.067 347.554 120.067 347.554L120.613 346.532C120.613 346.532 119.885 345.748 118.331 345.748C116.917 345.748 115.769 346.476 115.769 347.764C115.769 350.074 119.409 349.808 119.409 351.11C119.409 351.684 118.821 351.992 118.233 351.992C117.001 351.992 116.203 351.166 116.203 351.166L115.545 352.132ZM125.99 353H127.348V350.102C127.348 349.668 127.39 349.234 127.516 348.828C127.838 347.778 128.636 347.162 129.504 347.162C129.714 347.162 129.896 347.204 129.896 347.204V345.86C129.896 345.86 129.728 345.832 129.546 345.832C128.454 345.832 127.628 346.644 127.306 347.68H127.278C127.278 347.68 127.306 347.442 127.306 347.148V345.916H125.99V353ZM130.709 349.458C130.709 351.558 132.235 353.168 134.461 353.168C136.155 353.168 137.205 352.16 137.205 352.16L136.645 351.166C136.645 351.166 135.763 351.992 134.545 351.992C133.285 351.992 132.179 351.208 132.109 349.654H137.275C137.275 349.654 137.317 349.248 137.317 349.066C137.317 347.232 136.253 345.748 134.251 345.748C132.235 345.748 130.709 347.204 130.709 349.458ZM132.151 348.632C132.347 347.47 133.187 346.826 134.223 346.826C135.133 346.826 135.889 347.414 135.931 348.632H132.151ZM139.594 354.288L139.146 355.352C139.832 355.702 140.714 355.94 141.568 355.94C143.36 355.94 145.138 355.044 145.138 352.706V345.916H143.836V346.574C143.836 346.7 143.85 346.798 143.85 346.798H143.822C143.822 346.798 143.304 345.748 141.596 345.748C139.636 345.748 138.502 347.26 138.502 349.29C138.502 351.334 139.692 352.916 141.666 352.916C142.688 352.916 143.346 352.51 143.766 351.81H143.794C143.794 351.81 143.78 352.034 143.78 352.258V352.776C143.78 354.218 142.772 354.764 141.54 354.764C140.476 354.764 139.594 354.288 139.594 354.288ZM141.932 351.74C140.658 351.74 139.874 350.732 139.874 349.262C139.874 347.82 140.574 346.924 141.806 346.924C142.912 346.924 143.808 347.456 143.808 349.304C143.808 351.152 142.912 351.74 141.932 351.74ZM147.249 344.502H148.621V343.116H147.249V344.502ZM147.263 353H148.621V345.916H147.263V353ZM150.176 352.132C150.176 352.132 151.128 353.168 152.864 353.168C154.418 353.168 155.426 352.286 155.426 351.11C155.426 348.786 151.786 349.066 151.786 347.792C151.786 347.176 152.36 346.924 152.948 346.924C154.068 346.924 154.698 347.554 154.698 347.554L155.244 346.532C155.244 346.532 154.516 345.748 152.962 345.748C151.548 345.748 150.4 346.476 150.4 347.764C150.4 350.074 154.04 349.808 154.04 351.11C154.04 351.684 153.452 351.992 152.864 351.992C151.632 351.992 150.834 351.166 150.834 351.166L150.176 352.132ZM157.319 350.41C157.319 352.776 159.125 353.056 160.035 353.056C160.315 353.056 160.511 353.028 160.511 353.028V351.824C160.511 351.824 160.385 351.852 160.189 351.852C159.671 351.852 158.677 351.67 158.677 350.256V347.106H160.385V346.014H158.677V343.97H157.361V346.014H156.395V347.106H157.319V350.41ZM162.043 353H163.401V350.102C163.401 349.668 163.443 349.234 163.569 348.828C163.891 347.778 164.689 347.162 165.557 347.162C165.767 347.162 165.949 347.204 165.949 347.204V345.86C165.949 345.86 165.781 345.832 165.599 345.832C164.507 345.832 163.681 346.644 163.359 347.68H163.331C163.331 347.68 163.359 347.442 163.359 347.148V345.916H162.043V353ZM166.719 351.012C166.719 352.426 167.909 353.168 169.127 353.168C170.821 353.168 171.395 351.768 171.395 351.768H171.423C171.423 351.768 171.395 352.006 171.395 352.328V353H172.655V348.52C172.655 346.728 171.647 345.748 169.855 345.748C168.231 345.748 167.209 346.588 167.209 346.588L167.769 347.582C167.769 347.582 168.651 346.896 169.743 346.896C170.639 346.896 171.297 347.288 171.297 348.45V348.576H170.989C169.799 348.576 166.719 348.674 166.719 351.012ZM168.091 350.942C168.091 349.668 169.939 349.598 170.961 349.598H171.311V349.822C171.311 350.872 170.569 352.076 169.421 352.076C168.539 352.076 168.091 351.516 168.091 350.942ZM174.227 349.458C174.227 351.656 175.431 353.168 177.349 353.168C179.099 353.168 179.673 351.852 179.673 351.852H179.701C179.701 351.852 179.687 352.048 179.687 352.328V353H180.975V343.116H179.617V346.392C179.617 346.658 179.645 346.868 179.645 346.868H179.617C179.617 346.868 179.071 345.748 177.433 345.748C175.557 345.748 174.227 347.204 174.227 349.458ZM175.613 349.458C175.613 347.848 176.537 346.924 177.657 346.924C179.001 346.924 179.659 348.184 179.659 349.444C179.659 351.25 178.665 351.992 177.615 351.992C176.439 351.992 175.613 350.998 175.613 349.458ZM182.579 349.444C182.579 351.6 184.287 353.168 186.401 353.168C188.515 353.168 190.223 351.6 190.223 349.444C190.223 347.302 188.515 345.748 186.401 345.748C184.287 345.748 182.579 347.302 182.579 349.444ZM183.965 349.444C183.965 347.974 185.071 346.924 186.401 346.924C187.745 346.924 188.837 347.974 188.837 349.444C188.837 350.928 187.745 351.992 186.401 351.992C185.071 351.992 183.965 350.928 183.965 349.444ZM195.429 355.8H196.787V352.622C196.787 352.258 196.759 352.006 196.759 352.006H196.787C196.787 352.006 197.403 353.168 198.957 353.168C200.805 353.168 202.163 351.712 202.163 349.458C202.163 347.26 200.959 345.748 199.055 345.748C197.277 345.748 196.675 347.036 196.675 347.036H196.647C196.647 347.036 196.675 346.798 196.675 346.518V345.916H195.429V355.8ZM196.745 349.486C196.745 347.68 197.725 346.938 198.789 346.938C199.965 346.938 200.791 347.932 200.791 349.472C200.791 351.082 199.867 352.006 198.747 352.006C197.445 352.006 196.745 350.746 196.745 349.486ZM203.25 351.012C203.25 352.426 204.44 353.168 205.658 353.168C207.352 353.168 207.926 351.768 207.926 351.768H207.954C207.954 351.768 207.926 352.006 207.926 352.328V353H209.186V348.52C209.186 346.728 208.178 345.748 206.386 345.748C204.762 345.748 203.74 346.588 203.74 346.588L204.3 347.582C204.3 347.582 205.182 346.896 206.274 346.896C207.17 346.896 207.828 347.288 207.828 348.45V348.576H207.52C206.33 348.576 203.25 348.674 203.25 351.012ZM204.622 350.942C204.622 349.668 206.47 349.598 207.492 349.598H207.842V349.822C207.842 350.872 207.1 352.076 205.952 352.076C205.07 352.076 204.622 351.516 204.622 350.942ZM211.22 353H212.578V350.102C212.578 349.668 212.62 349.234 212.746 348.828C213.068 347.778 213.866 347.162 214.734 347.162C214.944 347.162 215.126 347.204 215.126 347.204V345.86C215.126 345.86 214.958 345.832 214.776 345.832C213.684 345.832 212.858 346.644 212.536 347.68H212.508C212.508 347.68 212.536 347.442 212.536 347.148V345.916H211.22V353ZM215.896 351.012C215.896 352.426 217.086 353.168 218.304 353.168C219.998 353.168 220.572 351.768 220.572 351.768H220.6C220.6 351.768 220.572 352.006 220.572 352.328V353H221.832V348.52C221.832 346.728 220.824 345.748 219.032 345.748C217.408 345.748 216.386 346.588 216.386 346.588L216.946 347.582C216.946 347.582 217.828 346.896 218.92 346.896C219.816 346.896 220.474 347.288 220.474 348.45V348.576H220.166C218.976 348.576 215.896 348.674 215.896 351.012ZM217.268 350.942C217.268 349.668 219.116 349.598 220.138 349.598H220.488V349.822C220.488 350.872 219.746 352.076 218.598 352.076C217.716 352.076 217.268 351.516 217.268 350.942ZM5.75248 370H7.11048V366.682C7.11048 366.332 7.13848 366.01 7.22248 365.73C7.51648 364.708 8.38448 363.994 9.46248 363.994C10.5965 363.994 10.8065 364.778 10.8065 365.772V370H12.1645V365.464C12.1645 363.658 11.3945 362.748 9.72848 362.748C8.18848 362.748 7.34848 363.756 7.06848 364.372H7.04048C7.04048 364.372 7.06848 364.134 7.06848 363.854V362.916H5.75248V370ZM14.09 367.452C14.09 369.328 14.916 370.168 16.512 370.168C17.898 370.168 18.822 369.244 19.116 368.544H19.144C19.144 368.544 19.116 368.768 19.116 369.062V370H20.432V362.916H19.074V366.234C19.074 367.634 18.22 368.908 16.778 368.908C15.644 368.908 15.448 368.124 15.448 367.144V362.916H14.09V367.452ZM22.0652 366.458C22.0652 368.558 23.5912 370.168 25.8172 370.168C27.5112 370.168 28.5612 369.16 28.5612 369.16L28.0012 368.166C28.0012 368.166 27.1192 368.992 25.9012 368.992C24.6412 368.992 23.5352 368.208 23.4652 366.654H28.6312C28.6312 366.654 28.6732 366.248 28.6732 366.066C28.6732 364.232 27.6092 362.748 25.6072 362.748C23.5912 362.748 22.0652 364.204 22.0652 366.458ZM23.5072 365.632C23.7032 364.47 24.5432 363.826 25.5792 363.826C26.4892 363.826 27.2452 364.414 27.2872 365.632H23.5072ZM32.0008 370H33.5688L36.1868 362.916H34.7588L33.0368 367.704C32.8968 368.096 32.7988 368.67 32.7848 368.67H32.7568C32.7428 368.67 32.6588 368.096 32.5188 367.704L30.7968 362.916H29.3548L32.0008 370ZM36.8302 366.444C36.8302 368.6 38.5382 370.168 40.6522 370.168C42.7662 370.168 44.4742 368.6 44.4742 366.444C44.4742 364.302 42.7662 362.748 40.6522 362.748C38.5382 362.748 36.8302 364.302 36.8302 366.444ZM38.2162 366.444C38.2162 364.974 39.3222 363.924 40.6522 363.924C41.9962 363.924 43.0882 364.974 43.0882 366.444C43.0882 367.928 41.9962 368.992 40.6522 368.992C39.3222 368.992 38.2162 367.928 38.2162 366.444ZM45.5105 369.132C45.5105 369.132 46.4625 370.168 48.1985 370.168C49.7525 370.168 50.7605 369.286 50.7605 368.11C50.7605 365.786 47.1205 366.066 47.1205 364.792C47.1205 364.176 47.6945 363.924 48.2825 363.924C49.4025 363.924 50.0325 364.554 50.0325 364.554L50.5785 363.532C50.5785 363.532 49.8505 362.748 48.2965 362.748C46.8825 362.748 45.7345 363.476 45.7345 364.764C45.7345 367.074 49.3745 366.808 49.3745 368.11C49.3745 368.684 48.7865 368.992 48.1985 368.992C46.9665 368.992 46.1685 368.166 46.1685 368.166L45.5105 369.132ZM55.4936 366.458C55.4936 368.656 56.6976 370.168 58.6156 370.168C60.3656 370.168 60.9396 368.852 60.9396 368.852H60.9676C60.9676 368.852 60.9536 369.048 60.9536 369.328V370H62.2416V360.116H60.8836V363.392C60.8836 363.658 60.9116 363.868 60.9116 363.868H60.8836C60.8836 363.868 60.3376 362.748 58.6996 362.748C56.8236 362.748 55.4936 364.204 55.4936 366.458ZM56.8796 366.458C56.8796 364.848 57.8036 363.924 58.9236 363.924C60.2676 363.924 60.9256 365.184 60.9256 366.444C60.9256 368.25 59.9316 368.992 58.8816 368.992C57.7056 368.992 56.8796 367.998 56.8796 366.458ZM63.8738 366.458C63.8738 368.558 65.3998 370.168 67.6258 370.168C69.3198 370.168 70.3698 369.16 70.3698 369.16L69.8098 368.166C69.8098 368.166 68.9278 368.992 67.7098 368.992C66.4498 368.992 65.3438 368.208 65.2738 366.654H70.4398C70.4398 366.654 70.4818 366.248 70.4818 366.066C70.4818 364.232 69.4178 362.748 67.4158 362.748C65.3998 362.748 63.8738 364.204 63.8738 366.458ZM65.3158 365.632C65.5118 364.47 66.3518 363.826 67.3878 363.826C68.2978 363.826 69.0538 364.414 69.0958 365.632H65.3158ZM71.5554 369.132C71.5554 369.132 72.5074 370.168 74.2434 370.168C75.7974 370.168 76.8054 369.286 76.8054 368.11C76.8054 365.786 73.1654 366.066 73.1654 364.792C73.1654 364.176 73.7394 363.924 74.3274 363.924C75.4474 363.924 76.0774 364.554 76.0774 364.554L76.6234 363.532C76.6234 363.532 75.8954 362.748 74.3414 362.748C72.9274 362.748 71.7794 363.476 71.7794 364.764C71.7794 367.074 75.4194 366.808 75.4194 368.11C75.4194 368.684 74.8314 368.992 74.2434 368.992C73.0114 368.992 72.2134 368.166 72.2134 368.166L71.5554 369.132ZM77.9008 366.458C77.9008 368.586 79.4688 370.168 81.6948 370.168C83.5428 370.168 84.5228 369.034 84.5228 369.034L83.9768 368.04C83.9768 368.04 83.1088 368.992 81.7928 368.992C80.3228 368.992 79.2868 367.886 79.2868 366.444C79.2868 364.988 80.3228 363.924 81.7508 363.924C82.9548 363.924 83.7108 364.736 83.7108 364.736L84.3548 363.784C84.3548 363.784 83.4728 362.748 81.6948 362.748C79.4688 362.748 77.9008 364.358 77.9008 366.458ZM85.9631 367.452C85.9631 369.328 86.7891 370.168 88.3851 370.168C89.7711 370.168 90.6951 369.244 90.9891 368.544H91.0171C91.0171 368.544 90.9891 368.768 90.9891 369.062V370H92.3051V362.916H90.9471V366.234C90.9471 367.634 90.0931 368.908 88.6511 368.908C87.5171 368.908 87.3211 368.124 87.3211 367.144V362.916H85.9631V367.452ZM93.9383 366.458C93.9383 368.558 95.4643 370.168 97.6903 370.168C99.3843 370.168 100.434 369.16 100.434 369.16L99.8743 368.166C99.8743 368.166 98.9923 368.992 97.7743 368.992C96.5143 368.992 95.4083 368.208 95.3383 366.654H100.504C100.504 366.654 100.546 366.248 100.546 366.066C100.546 364.232 99.4823 362.748 97.4803 362.748C95.4643 362.748 93.9383 364.204 93.9383 366.458ZM95.3803 365.632C95.5763 364.47 96.4163 363.826 97.4523 363.826C98.3623 363.826 99.1183 364.414 99.1603 365.632H95.3803ZM102.194 370H103.552V366.682C103.552 366.332 103.58 366.01 103.664 365.73C103.958 364.708 104.826 363.994 105.904 363.994C107.038 363.994 107.248 364.778 107.248 365.772V370H108.606V365.464C108.606 363.658 107.836 362.748 106.17 362.748C104.63 362.748 103.79 363.756 103.51 364.372H103.482C103.482 364.372 103.51 364.134 103.51 363.854V362.916H102.194V370ZM110.923 367.41C110.923 369.776 112.729 370.056 113.639 370.056C113.919 370.056 114.115 370.028 114.115 370.028V368.824C114.115 368.824 113.989 368.852 113.793 368.852C113.275 368.852 112.281 368.67 112.281 367.256V364.106H113.989V363.014H112.281V360.97H110.965V363.014H109.999V364.106H110.923V367.41ZM115.129 366.444C115.129 368.6 116.837 370.168 118.951 370.168C121.065 370.168 122.773 368.6 122.773 366.444C122.773 364.302 121.065 362.748 118.951 362.748C116.837 362.748 115.129 364.302 115.129 366.444ZM116.515 366.444C116.515 364.974 117.621 363.924 118.951 363.924C120.295 363.924 121.387 364.974 121.387 366.444C121.387 367.928 120.295 368.992 118.951 368.992C117.621 368.992 116.515 367.928 116.515 366.444ZM123.809 369.132C123.809 369.132 124.761 370.168 126.497 370.168C128.051 370.168 129.059 369.286 129.059 368.11C129.059 365.786 125.419 366.066 125.419 364.792C125.419 364.176 125.993 363.924 126.581 363.924C127.701 363.924 128.331 364.554 128.331 364.554L128.877 363.532C128.877 363.532 128.149 362.748 126.595 362.748C125.181 362.748 124.033 363.476 124.033 364.764C124.033 367.074 127.673 366.808 127.673 368.11C127.673 368.684 127.085 368.992 126.497 368.992C125.265 368.992 124.467 368.166 124.467 368.166L123.809 369.132ZM133.68 369.132C133.68 369.132 134.632 370.168 136.368 370.168C137.922 370.168 138.93 369.286 138.93 368.11C138.93 365.786 135.29 366.066 135.29 364.792C135.29 364.176 135.864 363.924 136.452 363.924C137.572 363.924 138.202 364.554 138.202 364.554L138.748 363.532C138.748 363.532 138.02 362.748 136.466 362.748C135.052 362.748 133.904 363.476 133.904 364.764C133.904 367.074 137.544 366.808 137.544 368.11C137.544 368.684 136.956 368.992 136.368 368.992C135.136 368.992 134.338 368.166 134.338 368.166L133.68 369.132ZM140.012 366.444C140.012 368.6 141.72 370.168 143.834 370.168C145.948 370.168 147.656 368.6 147.656 366.444C147.656 364.302 145.948 362.748 143.834 362.748C141.72 362.748 140.012 364.302 140.012 366.444ZM141.398 366.444C141.398 364.974 142.504 363.924 143.834 363.924C145.178 363.924 146.27 364.974 146.27 366.444C146.27 367.928 145.178 368.992 143.834 368.992C142.504 368.992 141.398 367.928 141.398 366.444ZM143.232 361.894H144.366L145.71 360.116H144.254L143.232 361.894ZM149.182 368.068C149.182 369.846 150.316 370.056 151.086 370.056C151.324 370.056 151.534 370.028 151.534 370.028V368.824C151.534 368.824 151.422 368.838 151.296 368.838C150.876 368.838 150.54 368.684 150.54 367.83V360.116H149.182V368.068ZM152.453 366.444C152.453 368.6 154.161 370.168 156.275 370.168C158.389 370.168 160.097 368.6 160.097 366.444C160.097 364.302 158.389 362.748 156.275 362.748C154.161 362.748 152.453 364.302 152.453 366.444ZM153.839 366.444C153.839 364.974 154.945 363.924 156.275 363.924C157.619 363.924 158.711 364.974 158.711 366.444C158.711 367.928 157.619 368.992 156.275 368.992C154.945 368.992 153.839 367.928 153.839 366.444ZM165.303 372.8H166.661V369.622C166.661 369.258 166.633 369.006 166.633 369.006H166.661C166.661 369.006 167.277 370.168 168.831 370.168C170.679 370.168 172.037 368.712 172.037 366.458C172.037 364.26 170.833 362.748 168.929 362.748C167.151 362.748 166.549 364.036 166.549 364.036H166.521C166.521 364.036 166.549 363.798 166.549 363.518V362.916H165.303V372.8ZM166.619 366.486C166.619 364.68 167.599 363.938 168.663 363.938C169.839 363.938 170.665 364.932 170.665 366.472C170.665 368.082 169.741 369.006 168.621 369.006C167.319 369.006 166.619 367.746 166.619 366.486ZM173.124 368.012C173.124 369.426 174.314 370.168 175.532 370.168C177.226 370.168 177.8 368.768 177.8 368.768H177.828C177.828 368.768 177.8 369.006 177.8 369.328V370H179.06V365.52C179.06 363.728 178.052 362.748 176.26 362.748C174.636 362.748 173.614 363.588 173.614 363.588L174.174 364.582C174.174 364.582 175.056 363.896 176.148 363.896C177.044 363.896 177.702 364.288 177.702 365.45V365.576H177.394C176.204 365.576 173.124 365.674 173.124 368.012ZM174.496 367.942C174.496 366.668 176.344 366.598 177.366 366.598H177.716V366.822C177.716 367.872 176.974 369.076 175.826 369.076C174.944 369.076 174.496 368.516 174.496 367.942ZM181.094 370H182.452V367.102C182.452 366.668 182.494 366.234 182.62 365.828C182.942 364.778 183.74 364.162 184.608 364.162C184.818 364.162 185 364.204 185 364.204V362.86C185 362.86 184.832 362.832 184.65 362.832C183.558 362.832 182.732 363.644 182.41 364.68H182.382C182.382 364.68 182.41 364.442 182.41 364.148V362.916H181.094V370ZM185.77 368.012C185.77 369.426 186.96 370.168 188.178 370.168C189.872 370.168 190.446 368.768 190.446 368.768H190.474C190.474 368.768 190.446 369.006 190.446 369.328V370H191.706V365.52C191.706 363.728 190.698 362.748 188.906 362.748C187.282 362.748 186.26 363.588 186.26 363.588L186.82 364.582C186.82 364.582 187.702 363.896 188.794 363.896C189.69 363.896 190.348 364.288 190.348 365.45V365.576H190.04C188.85 365.576 185.77 365.674 185.77 368.012ZM187.142 367.942C187.142 366.668 188.99 366.598 190.012 366.598H190.362V366.822C190.362 367.872 189.62 369.076 188.472 369.076C187.59 369.076 187.142 368.516 187.142 367.942ZM199.016 370H200.584L203.202 362.916H201.774L200.052 367.704C199.912 368.096 199.814 368.67 199.8 368.67H199.772C199.758 368.67 199.674 368.096 199.534 367.704L197.812 362.916H196.37L199.016 370ZM203.846 366.444C203.846 368.6 205.554 370.168 207.668 370.168C209.782 370.168 211.49 368.6 211.49 366.444C211.49 364.302 209.782 362.748 207.668 362.748C205.554 362.748 203.846 364.302 203.846 366.444ZM205.232 366.444C205.232 364.974 206.338 363.924 207.668 363.924C209.012 363.924 210.104 364.974 210.104 366.444C210.104 367.928 209.012 368.992 207.668 368.992C206.338 368.992 205.232 367.928 205.232 366.444ZM212.526 369.132C212.526 369.132 213.478 370.168 215.214 370.168C216.768 370.168 217.776 369.286 217.776 368.11C217.776 365.786 214.136 366.066 214.136 364.792C214.136 364.176 214.71 363.924 215.298 363.924C216.418 363.924 217.048 364.554 217.048 364.554L217.594 363.532C217.594 363.532 216.866 362.748 215.312 362.748C213.898 362.748 212.75 363.476 212.75 364.764C212.75 367.074 216.39 366.808 216.39 368.11C216.39 368.684 215.802 368.992 215.214 368.992C213.982 368.992 213.184 368.166 213.184 368.166L212.526 369.132Z" fill="#484744"/>
<path d="M48.835 103.446C48.835 97.02 50.998 91.644 55.324 87.318C59.692 82.95 65.152 80.766 71.704 80.766C78.214 80.766 83.653 82.95 88.021 87.318C92.347 91.644 94.51 97.02 94.51 103.446C94.51 110.082 92.347 115.626 88.021 120.078C83.695 124.53 78.256 126.756 71.704 126.756C65.11 126.756 59.65 124.53 55.324 120.078C50.998 115.626 48.835 110.082 48.835 103.446ZM55.261 103.446C55.261 108.444 56.815 112.623 59.923 115.983C63.073 119.343 67 121.023 71.704 121.023C76.408 121.023 80.314 119.343 83.422 115.983C86.53 112.623 88.084 108.444 88.084 103.446C88.084 98.616 86.53 94.584 83.422 91.35C80.314 88.116 76.408 86.499 71.704 86.499C67 86.499 63.073 88.116 59.923 91.35C56.815 94.584 55.261 98.616 55.261 103.446ZM103.231 123.921V99.036H101.215C99.8291 99.036 99.1361 98.343 99.1361 96.957V96.201C99.1361 94.815 99.8291 94.122 101.215 94.122H103.231V92.925C103.231 91.035 103.525 89.355 104.113 87.885C104.743 86.373 105.478 85.218 106.318 84.42C107.2 83.622 108.187 82.971 109.279 82.467C110.413 81.921 111.4 81.585 112.24 81.459C113.122 81.291 113.941 81.207 114.697 81.207H115.516C116.902 81.207 117.595 81.9 117.595 83.286V84.483C117.595 85.743 116.839 86.436 115.327 86.562C114.025 86.604 112.744 86.982 111.484 87.696C110.056 88.494 109.342 90.321 109.342 93.177V94.122H123.517V92.925C123.517 91.035 123.811 89.355 124.399 87.885C124.987 86.373 125.701 85.218 126.541 84.42C127.423 83.622 128.41 82.971 129.502 82.467C130.636 81.921 131.623 81.585 132.463 81.459C133.345 81.291 134.185 81.207 134.983 81.207H135.739C137.125 81.207 137.818 81.9 137.818 83.286V84.483C137.818 85.743 137.083 86.436 135.613 86.562C134.227 86.604 132.925 86.982 131.707 87.696C130.279 88.494 129.565 90.321 129.565 93.177V94.122H135.046C136.432 94.122 137.125 94.815 137.125 96.201V96.957C137.125 98.343 136.495 99.036 135.235 99.036H129.565V123.921C129.565 125.307 128.893 126 127.549 126H125.533C124.189 126 123.517 125.307 123.517 123.921V99.036H109.342V123.921C109.342 125.307 108.649 126 107.263 126H105.31C103.924 126 103.231 125.307 103.231 123.921ZM150.202 99.414C147.514 99.414 145.246 98.511 143.398 96.705C141.55 94.857 140.626 92.652 140.626 90.09C140.626 87.57 141.55 85.386 143.398 83.538C145.33 81.69 147.598 80.766 150.202 80.766C152.764 80.766 155.011 81.69 156.943 83.538C158.833 85.386 159.778 87.57 159.778 90.09C159.778 92.694 158.833 94.899 156.943 96.705C155.095 98.511 152.848 99.414 150.202 99.414ZM143.587 123.48L174.709 82.719C175.339 81.921 176.179 81.522 177.229 81.522H178.363C179.245 81.522 179.812 81.774 180.064 82.278C180.316 82.782 180.169 83.37 179.623 84.042L148.501 124.74C147.787 125.58 146.947 126 145.981 126H144.847C143.965 126 143.398 125.748 143.146 125.244C142.894 124.74 143.041 124.152 143.587 123.48ZM150.202 94.752C151.504 94.836 152.596 94.395 153.478 93.429C154.402 92.421 154.864 91.308 154.864 90.09C154.864 88.872 154.402 87.759 153.478 86.751C152.512 85.827 151.42 85.365 150.202 85.365C148.984 85.365 147.871 85.827 146.863 86.751C145.897 87.675 145.456 88.788 145.54 90.09C145.54 91.434 145.981 92.547 146.863 93.429C147.745 94.311 148.858 94.752 150.202 94.752ZM163.495 117.432C163.495 114.912 164.419 112.728 166.267 110.88C168.115 109.032 170.362 108.108 173.008 108.108C175.654 108.108 177.901 109.032 179.749 110.88C181.639 112.686 182.584 114.87 182.584 117.432C182.584 120.036 181.639 122.241 179.749 124.047C177.943 125.853 175.696 126.756 173.008 126.756C170.32 126.756 168.073 125.853 166.267 124.047C164.419 122.199 163.495 119.994 163.495 117.432ZM173.008 122.094C174.352 122.094 175.465 121.653 176.347 120.771C177.229 119.889 177.67 118.776 177.67 117.432C177.754 116.13 177.292 115.017 176.284 114.093C175.318 113.169 174.226 112.707 173.008 112.707C171.79 112.707 170.698 113.169 169.732 114.093C168.85 115.101 168.388 116.214 168.346 117.432C168.346 118.65 168.787 119.763 169.669 120.771C170.593 121.737 171.706 122.178 173.008 122.094Z" fill="#00A87C"/>
<path d="M63.3123 272.01V261.12C63.3123 260.46 63.6423 260.13 64.3023 260.13H67.8843C69.9123 260.13 71.5263 260.7 72.7263 261.84C73.9263 262.968 74.5263 264.534 74.5263 266.538C74.5263 268.554 73.9263 270.138 72.7263 271.29C71.5263 272.43 69.9123 273 67.8843 273H64.3023C63.6423 273 63.3123 272.67 63.3123 272.01ZM66.4623 262.83V270.3H67.7583C68.8743 270.3 69.7383 269.976 70.3503 269.328C70.9623 268.68 71.2683 267.75 71.2683 266.538C71.2683 265.35 70.9563 264.438 70.3323 263.802C69.7203 263.154 68.8623 262.83 67.7583 262.83H66.4623ZM75.3335 268.356C75.3335 266.964 75.7715 265.812 76.6475 264.9C77.5355 263.976 78.7055 263.514 80.1575 263.514C81.4895 263.514 82.5335 263.934 83.2895 264.774C84.0575 265.59 84.4415 266.646 84.4415 267.942C84.4415 268.206 84.3335 268.446 84.1175 268.662C83.9135 268.866 83.6735 268.968 83.3975 268.968H78.5195C78.6275 269.496 78.8735 269.904 79.2575 270.192C79.6535 270.48 80.1275 270.624 80.6795 270.624C81.2315 270.624 81.7955 270.48 82.3715 270.192C82.9835 269.916 83.4275 270.042 83.7035 270.57L83.9555 271.038C84.2675 271.638 84.1535 272.088 83.6135 272.388C82.6535 272.94 81.5915 273.216 80.4275 273.216C78.8675 273.216 77.6255 272.736 76.7015 271.776C75.7895 270.828 75.3335 269.688 75.3335 268.356ZM78.5915 267.186H81.3635C81.3635 266.79 81.2435 266.46 81.0035 266.196C80.7755 265.932 80.4695 265.8 80.0855 265.8C79.2935 265.8 78.7955 266.262 78.5915 267.186ZM86.2028 272.37C85.6508 272.07 85.5668 271.614 85.9508 271.002L86.2208 270.588C86.5448 270.132 87.0008 270.036 87.5888 270.3C88.3328 270.624 88.9208 270.786 89.3528 270.786C89.9168 270.786 90.1988 270.612 90.1988 270.264C90.1988 270.096 90.0728 269.952 89.8208 269.832C89.5808 269.7 89.1968 269.55 88.6688 269.382C86.7848 268.878 85.8488 267.9 85.8608 266.448C85.8608 265.536 86.2208 264.816 86.9408 264.288C87.6728 263.772 88.5968 263.514 89.7128 263.514C90.6128 263.514 91.4888 263.712 92.3408 264.108C92.8808 264.384 93.0008 264.828 92.7008 265.44L92.4848 265.872C92.2328 266.388 91.7948 266.532 91.1708 266.304C90.5228 266.064 89.9948 265.944 89.5868 265.944C89.0348 265.944 88.7588 266.106 88.7588 266.43C88.7588 266.586 88.8668 266.724 89.0828 266.844C89.2988 266.964 89.5628 267.066 89.8748 267.15C90.1988 267.234 90.5468 267.354 90.9188 267.51C91.3028 267.654 91.6508 267.822 91.9628 268.014C92.2868 268.206 92.5568 268.488 92.7728 268.86C92.9888 269.232 93.0968 269.67 93.0968 270.174C93.0968 271.062 92.7488 271.794 92.0528 272.37C91.3568 272.934 90.4328 273.216 89.2808 273.216C88.2128 273.216 87.1868 272.934 86.2028 272.37ZM93.4741 268.356C93.4741 267.048 93.9361 265.914 94.8601 264.954C95.7961 263.994 97.0561 263.514 98.6401 263.514C99.8161 263.514 100.812 263.79 101.628 264.342C102.132 264.666 102.204 265.116 101.844 265.692L101.538 266.16C101.226 266.652 100.782 266.748 100.206 266.448C99.7621 266.22 99.3061 266.106 98.8381 266.106C98.1661 266.106 97.6261 266.322 97.2181 266.754C96.8221 267.174 96.6241 267.696 96.6241 268.32C96.6241 268.956 96.8341 269.502 97.2541 269.958C97.6741 270.402 98.2381 270.624 98.9461 270.624C99.4741 270.624 100.032 270.45 100.62 270.102C101.232 269.766 101.682 269.88 101.97 270.444L102.204 270.894C102.492 271.482 102.402 271.932 101.934 272.244C100.962 272.892 99.8641 273.216 98.6401 273.216C97.0561 273.216 95.7961 272.742 94.8601 271.794C93.9361 270.834 93.4741 269.688 93.4741 268.356ZM103.415 269.742V264.72C103.415 264.06 103.745 263.73 104.405 263.73H105.539C106.199 263.73 106.529 264.06 106.529 264.72V269.166C106.529 269.982 106.859 270.39 107.519 270.39C108.143 270.39 108.623 270.156 108.959 269.688C109.307 269.208 109.481 268.59 109.481 267.834V264.72C109.481 264.06 109.811 263.73 110.471 263.73H111.605C112.265 263.73 112.595 264.06 112.595 264.72V272.01C112.595 272.67 112.265 273 111.605 273H110.597C109.949 273 109.625 272.67 109.625 272.01V271.848L109.643 271.614H109.607C109.355 272.106 108.965 272.496 108.437 272.784C107.909 273.072 107.333 273.216 106.709 273.216C104.513 273.216 103.415 272.058 103.415 269.742ZM113.917 268.356C113.917 266.964 114.355 265.812 115.231 264.9C116.119 263.976 117.289 263.514 118.741 263.514C120.073 263.514 121.117 263.934 121.873 264.774C122.641 265.59 123.025 266.646 123.025 267.942C123.025 268.206 122.917 268.446 122.701 268.662C122.497 268.866 122.257 268.968 121.981 268.968H117.103C117.211 269.496 117.457 269.904 117.841 270.192C118.237 270.48 118.711 270.624 119.263 270.624C119.815 270.624 120.379 270.48 120.955 270.192C121.567 269.916 122.011 270.042 122.287 270.57L122.539 271.038C122.851 271.638 122.737 272.088 122.197 272.388C121.237 272.94 120.175 273.216 119.011 273.216C117.451 273.216 116.209 272.736 115.285 271.776C114.373 270.828 113.917 269.688 113.917 268.356ZM117.175 267.186H119.947C119.947 266.79 119.827 266.46 119.587 266.196C119.359 265.932 119.053 265.8 118.669 265.8C117.877 265.8 117.379 266.262 117.175 267.186ZM124.301 272.01V264.72C124.301 264.06 124.631 263.73 125.291 263.73H126.299C126.947 263.73 127.271 264.06 127.271 264.72V264.882L127.253 265.116H127.289C127.925 264.048 128.909 263.514 130.241 263.514C132.461 263.514 133.571 264.672 133.571 266.988V272.01C133.571 272.67 133.241 273 132.581 273H131.447C130.787 273 130.457 272.67 130.457 272.01V267.564C130.457 266.748 130.115 266.34 129.431 266.34C128.795 266.34 128.297 266.568 127.937 267.024C127.589 267.48 127.415 268.074 127.415 268.806V272.01C127.415 272.67 127.085 273 126.425 273H125.291C124.631 273 124.301 272.67 124.301 272.01ZM135.829 269.706V266.322H135.559C134.911 266.322 134.587 265.992 134.587 265.332V264.882C134.587 264.222 134.917 263.892 135.577 263.892H135.919V262.218C135.919 261.558 136.249 261.228 136.909 261.228H137.953C138.613 261.228 138.943 261.558 138.943 262.218V263.892H139.897C140.557 263.892 140.887 264.222 140.887 264.882V265.332C140.887 265.992 140.563 266.322 139.915 266.322H138.943V269.13C138.943 269.814 139.303 270.204 140.023 270.3C140.395 270.348 140.653 270.444 140.797 270.588C140.941 270.72 141.013 270.954 141.013 271.29V272.1C141.013 272.76 140.587 273.09 139.735 273.09C139.435 273.09 139.123 273.06 138.799 273C138.475 272.952 138.133 272.85 137.773 272.694C137.413 272.538 137.089 272.34 136.801 272.1C136.525 271.848 136.291 271.518 136.099 271.11C135.919 270.702 135.829 270.234 135.829 269.706ZM146.982 263.514C148.482 263.514 149.73 263.97 150.726 264.882C151.746 265.782 152.256 266.952 152.256 268.392C152.256 269.82 151.752 270.984 150.744 271.884C149.724 272.772 148.476 273.216 147 273.216C145.524 273.216 144.276 272.772 143.256 271.884C142.248 270.984 141.744 269.82 141.744 268.392C141.744 266.976 142.248 265.806 143.256 264.882C144.252 263.97 145.494 263.514 146.982 263.514ZM144.894 268.392C144.894 269.052 145.092 269.592 145.488 270.012C145.896 270.42 146.4 270.624 147 270.624C147.6 270.624 148.098 270.42 148.494 270.012C148.902 269.592 149.106 269.052 149.106 268.392C149.106 267.72 148.902 267.174 148.494 266.754C148.098 266.322 147.6 266.106 147 266.106C146.4 266.106 145.896 266.322 145.488 266.754C145.092 267.174 144.894 267.72 144.894 268.392ZM154.054 272.37C153.502 272.07 153.418 271.614 153.802 271.002L154.072 270.588C154.396 270.132 154.852 270.036 155.44 270.3C156.184 270.624 156.772 270.786 157.204 270.786C157.768 270.786 158.05 270.612 158.05 270.264C158.05 270.096 157.924 269.952 157.672 269.832C157.432 269.7 157.048 269.55 156.52 269.382C154.636 268.878 153.7 267.9 153.712 266.448C153.712 265.536 154.072 264.816 154.792 264.288C155.524 263.772 156.448 263.514 157.564 263.514C158.464 263.514 159.34 263.712 160.192 264.108C160.732 264.384 160.852 264.828 160.552 265.44L160.336 265.872C160.084 266.388 159.646 266.532 159.022 266.304C158.374 266.064 157.846 265.944 157.438 265.944C156.886 265.944 156.61 266.106 156.61 266.43C156.61 266.586 156.718 266.724 156.934 266.844C157.15 266.964 157.414 267.066 157.726 267.15C158.05 267.234 158.398 267.354 158.77 267.51C159.154 267.654 159.502 267.822 159.814 268.014C160.138 268.206 160.408 268.488 160.624 268.86C160.84 269.232 160.948 269.67 160.948 270.174C160.948 271.062 160.6 271.794 159.904 272.37C159.208 272.934 158.284 273.216 157.132 273.216C156.064 273.216 155.038 272.934 154.054 272.37Z" fill="#00A87C"/>
<path d="M18.0092 290.446C18.0092 289.03 18.4352 287.878 19.2872 286.99C20.1512 286.114 21.2432 285.676 22.5632 285.676C23.7992 285.676 24.7592 286.078 25.4432 286.882C26.1392 287.662 26.4872 288.706 26.4872 290.014C26.4872 290.182 26.4272 290.326 26.3072 290.446C26.1992 290.566 26.0552 290.626 25.8752 290.626H19.7912C19.8512 291.574 20.1752 292.33 20.7632 292.894C21.3512 293.434 22.0772 293.704 22.9412 293.704C23.7572 293.704 24.4832 293.464 25.1192 292.984C25.4792 292.792 25.7492 292.858 25.9292 293.182L26.0912 293.452C26.2832 293.788 26.2232 294.052 25.9112 294.244C24.9872 294.892 23.9612 295.216 22.8332 295.216C21.4172 295.216 20.2592 294.766 19.3592 293.866C18.4592 292.942 18.0092 291.802 18.0092 290.446ZM19.8632 289.474H24.7412C24.7172 288.706 24.5012 288.112 24.0932 287.692C23.6852 287.26 23.1632 287.044 22.5272 287.044C21.8432 287.044 21.2552 287.266 20.7632 287.71C20.2832 288.142 19.9832 288.73 19.8632 289.474ZM28.3938 294.406V286.486C28.3938 286.09 28.5918 285.892 28.9878 285.892H29.4918C29.8878 285.892 30.0858 286.09 30.0858 286.486V287.296L30.0318 287.818H30.0678C30.2958 287.302 30.7098 286.816 31.3098 286.36C31.9098 285.904 32.6478 285.676 33.5238 285.676C35.5998 285.676 36.6378 286.84 36.6378 289.168V294.406C36.6378 294.802 36.4398 295 36.0438 295H35.4858C35.0898 295 34.8918 294.802 34.8918 294.406V289.564C34.8918 288.784 34.7658 288.208 34.5138 287.836C34.2738 287.464 33.8298 287.278 33.1818 287.278C32.3058 287.278 31.5798 287.602 31.0038 288.25C30.4278 288.898 30.1398 289.696 30.1398 290.644V294.406C30.1398 294.802 29.9418 295 29.5458 295H28.9878C28.5918 295 28.3938 294.802 28.3938 294.406ZM43.9606 291.724V287.404H43.3306C42.9466 287.404 42.7546 287.206 42.7546 286.81V286.576C42.7546 286.18 42.9526 285.982 43.3486 285.982H43.9966V283.984C43.9966 283.588 44.1946 283.39 44.5906 283.39H45.1126C45.5086 283.39 45.7066 283.588 45.7066 283.984V285.982H47.2906C47.6866 285.982 47.8846 286.18 47.8846 286.576V286.81C47.8846 287.206 47.6926 287.404 47.3086 287.404H45.7066V291.454C45.7066 292.738 46.2826 293.422 47.4346 293.506C47.6746 293.53 47.8366 293.584 47.9206 293.668C48.0166 293.752 48.0646 293.896 48.0646 294.1V294.478C48.0646 294.874 47.8246 295.072 47.3446 295.072C46.3366 295.072 45.5206 294.778 44.8966 294.19C44.2726 293.602 43.9606 292.78 43.9606 291.724ZM53.895 285.676C55.275 285.676 56.439 286.126 57.387 287.026C58.335 287.926 58.809 289.06 58.809 290.428C58.809 291.784 58.329 292.924 57.369 293.848C56.421 294.76 55.263 295.216 53.895 295.216C52.527 295.216 51.369 294.76 50.421 293.848C49.473 292.936 48.999 291.796 48.999 290.428C48.999 289.06 49.473 287.926 50.421 287.026C51.381 286.126 52.539 285.676 53.895 285.676ZM53.895 293.704C54.771 293.704 55.509 293.398 56.109 292.786C56.721 292.162 57.027 291.376 57.027 290.428C57.027 289.492 56.721 288.718 56.109 288.106C55.509 287.494 54.771 287.188 53.895 287.188C53.031 287.188 52.293 287.494 51.681 288.106C51.069 288.718 50.763 289.492 50.763 290.428C50.763 291.364 51.069 292.144 51.681 292.768C52.293 293.392 53.031 293.704 53.895 293.704ZM60.1795 290.446C60.1795 288.994 60.5635 287.842 61.3315 286.99C62.0995 286.114 63.0895 285.676 64.3015 285.676C65.0215 285.676 65.6155 285.832 66.0835 286.144C66.5515 286.456 66.8695 286.768 67.0375 287.08L67.1275 287.242H67.1635C67.1275 287.062 67.1095 286.858 67.1095 286.63V282.886C67.1095 282.49 67.3075 282.292 67.7035 282.292H68.2615C68.6575 282.292 68.8555 282.49 68.8555 282.886V294.406C68.8555 294.802 68.6575 295 68.2615 295H67.7935C67.3975 295 67.1995 294.814 67.1995 294.442V293.92L67.2355 293.47H67.1995C67.0315 293.746 66.8935 293.95 66.7855 294.082C66.1375 294.838 65.2735 295.216 64.1935 295.216C62.9695 295.216 61.9915 294.778 61.2595 293.902C60.5395 293.026 60.1795 291.874 60.1795 290.446ZM61.9615 290.446C61.9615 291.418 62.1955 292.204 62.6635 292.804C63.1435 293.404 63.7675 293.704 64.5355 293.704C65.3155 293.704 65.9455 293.422 66.4255 292.858C66.9175 292.294 67.1635 291.484 67.1635 290.428C67.1635 289.552 66.9355 288.796 66.4795 288.16C66.0235 287.524 65.3875 287.206 64.5715 287.206C63.8155 287.206 63.1915 287.5 62.6995 288.088C62.2075 288.676 61.9615 289.462 61.9615 290.446ZM75.6919 285.676C77.0719 285.676 78.2359 286.126 79.1839 287.026C80.1319 287.926 80.6059 289.06 80.6059 290.428C80.6059 291.784 80.1259 292.924 79.1659 293.848C78.2179 294.76 77.0599 295.216 75.6919 295.216C74.3239 295.216 73.1659 294.76 72.2179 293.848C71.2699 292.936 70.7959 291.796 70.7959 290.428C70.7959 289.06 71.2699 287.926 72.2179 287.026C73.1779 286.126 74.3359 285.676 75.6919 285.676ZM75.6919 293.704C76.5679 293.704 77.3059 293.398 77.9059 292.786C78.5179 292.162 78.8239 291.376 78.8239 290.428C78.8239 289.492 78.5179 288.718 77.9059 288.106C77.3059 287.494 76.5679 287.188 75.6919 287.188C74.8279 287.188 74.0899 287.494 73.4779 288.106C72.8659 288.718 72.5599 289.492 72.5599 290.428C72.5599 291.364 72.8659 292.144 73.4779 292.768C74.0899 293.392 74.8279 293.704 75.6919 293.704ZM82.4984 294.226C82.1984 294.034 82.1564 293.764 82.3724 293.416L82.5524 293.164C82.7564 292.876 83.0324 292.834 83.3804 293.038C84.1484 293.53 84.8924 293.776 85.6124 293.776C86.0804 293.776 86.4524 293.674 86.7284 293.47C87.0164 293.254 87.1604 292.954 87.1604 292.57C87.1604 292.006 86.6024 291.544 85.4864 291.184C85.0544 291.04 84.7004 290.908 84.4244 290.788C84.1604 290.656 83.8544 290.482 83.5064 290.266C83.1584 290.038 82.8944 289.762 82.7144 289.438C82.5464 289.102 82.4624 288.724 82.4624 288.304C82.4624 287.464 82.7744 286.822 83.3984 286.378C84.0224 285.91 84.8084 285.676 85.7564 285.676C86.7044 285.676 87.5444 285.91 88.2764 286.378C88.6124 286.534 88.6784 286.798 88.4744 287.17L88.3124 287.44C88.1564 287.74 87.8924 287.806 87.5204 287.638C86.8964 287.29 86.2784 287.116 85.6664 287.116C85.1984 287.116 84.8264 287.218 84.5504 287.422C84.2744 287.626 84.1364 287.908 84.1364 288.268C84.1364 288.832 84.6884 289.3 85.7924 289.672C86.2484 289.828 86.6084 289.966 86.8724 290.086C87.1364 290.194 87.4424 290.362 87.7904 290.59C88.1384 290.806 88.3964 291.076 88.5644 291.4C88.7444 291.724 88.8344 292.102 88.8344 292.534C88.8344 293.314 88.5284 293.956 87.9164 294.46C87.3284 294.964 86.5424 295.216 85.5584 295.216C84.3944 295.216 83.3744 294.886 82.4984 294.226ZM94.9446 292.516V282.886C94.9446 282.49 95.1426 282.292 95.5386 282.292H96.0966C96.4926 282.292 96.6906 282.49 96.6906 282.886V292.3C96.6906 293.056 96.9666 293.458 97.5186 293.506C97.8306 293.542 97.9866 293.716 97.9866 294.028V294.46C97.9866 294.868 97.7826 295.072 97.3746 295.072C95.7546 295.072 94.9446 294.22 94.9446 292.516ZM103.905 285.676C105.285 285.676 106.449 286.126 107.397 287.026C108.345 287.926 108.819 289.06 108.819 290.428C108.819 291.784 108.339 292.924 107.379 293.848C106.431 294.76 105.273 295.216 103.905 295.216C102.537 295.216 101.379 294.76 100.431 293.848C99.4828 292.936 99.0088 291.796 99.0088 290.428C99.0088 289.06 99.4828 287.926 100.431 287.026C101.391 286.126 102.549 285.676 103.905 285.676ZM103.905 293.704C104.781 293.704 105.519 293.398 106.119 292.786C106.731 292.162 107.037 291.376 107.037 290.428C107.037 289.492 106.731 288.718 106.119 288.106C105.519 287.494 104.781 287.188 103.905 287.188C103.041 287.188 102.303 287.494 101.691 288.106C101.079 288.718 100.773 289.492 100.773 290.428C100.773 291.364 101.079 292.144 101.691 292.768C102.303 293.392 103.041 293.704 103.905 293.704ZM110.711 294.226C110.411 294.034 110.369 293.764 110.585 293.416L110.765 293.164C110.969 292.876 111.245 292.834 111.593 293.038C112.361 293.53 113.105 293.776 113.825 293.776C114.293 293.776 114.665 293.674 114.941 293.47C115.229 293.254 115.373 292.954 115.373 292.57C115.373 292.006 114.815 291.544 113.699 291.184C113.267 291.04 112.913 290.908 112.637 290.788C112.373 290.656 112.067 290.482 111.719 290.266C111.371 290.038 111.107 289.762 110.927 289.438C110.759 289.102 110.675 288.724 110.675 288.304C110.675 287.464 110.987 286.822 111.611 286.378C112.235 285.91 113.021 285.676 113.969 285.676C114.917 285.676 115.757 285.91 116.489 286.378C116.825 286.534 116.891 286.798 116.687 287.17L116.525 287.44C116.369 287.74 116.105 287.806 115.733 287.638C115.109 287.29 114.491 287.116 113.879 287.116C113.411 287.116 113.039 287.218 112.763 287.422C112.487 287.626 112.349 287.908 112.349 288.268C112.349 288.832 112.901 289.3 114.005 289.672C114.461 289.828 114.821 289.966 115.085 290.086C115.349 290.194 115.655 290.362 116.003 290.59C116.351 290.806 116.609 291.076 116.777 291.4C116.957 291.724 117.047 292.102 117.047 292.534C117.047 293.314 116.741 293.956 116.129 294.46C115.541 294.964 114.755 295.216 113.771 295.216C112.607 295.216 111.587 294.886 110.711 294.226ZM123.175 298.006V286.486C123.175 286.09 123.373 285.892 123.769 285.892H124.183C124.579 285.892 124.777 286.06 124.777 286.396V286.936L124.741 287.422H124.777C124.945 287.158 125.083 286.96 125.191 286.828C125.851 286.06 126.733 285.676 127.837 285.676C129.049 285.676 130.015 286.114 130.735 286.99C131.467 287.866 131.833 289.018 131.833 290.446C131.833 291.862 131.443 293.014 130.663 293.902C129.895 294.778 128.911 295.216 127.711 295.216C127.003 295.216 126.415 295.06 125.947 294.748C125.479 294.424 125.155 294.1 124.975 293.776L124.885 293.596H124.849C124.885 293.812 124.903 294.076 124.903 294.388V298.006C124.903 298.402 124.711 298.6 124.327 298.6H123.769C123.373 298.6 123.175 298.402 123.175 298.006ZM124.867 290.482C124.867 291.334 125.095 292.09 125.551 292.75C126.019 293.386 126.649 293.704 127.441 293.704C128.209 293.704 128.839 293.41 129.331 292.822C129.823 292.234 130.069 291.448 130.069 290.464C130.069 289.492 129.829 288.706 129.349 288.106C128.881 287.506 128.263 287.206 127.495 287.206C126.715 287.206 126.079 287.488 125.587 288.052C125.107 288.616 124.867 289.426 124.867 290.482ZM133.81 294.406V286.486C133.81 286.09 134.008 285.892 134.404 285.892H134.908C135.304 285.892 135.502 286.09 135.502 286.486V287.53L135.448 288.214H135.484C135.712 287.53 136.078 286.96 136.582 286.504C137.086 286.048 137.65 285.82 138.274 285.82C138.658 285.82 138.85 286.018 138.85 286.414V286.918C138.85 287.314 138.634 287.512 138.202 287.512C137.362 287.512 136.708 287.89 136.24 288.646C135.784 289.39 135.556 290.254 135.556 291.238V294.406C135.556 294.802 135.358 295 134.962 295H134.404C134.008 295 133.81 294.802 133.81 294.406ZM144.194 285.676C145.574 285.676 146.738 286.126 147.686 287.026C148.634 287.926 149.108 289.06 149.108 290.428C149.108 291.784 148.628 292.924 147.668 293.848C146.72 294.76 145.562 295.216 144.194 295.216C142.826 295.216 141.668 294.76 140.72 293.848C139.772 292.936 139.298 291.796 139.298 290.428C139.298 289.06 139.772 287.926 140.72 287.026C141.68 286.126 142.838 285.676 144.194 285.676ZM144.194 293.704C145.07 293.704 145.808 293.398 146.408 292.786C147.02 292.162 147.326 291.376 147.326 290.428C147.326 289.492 147.02 288.718 146.408 288.106C145.808 287.494 145.07 287.188 144.194 287.188C143.33 287.188 142.592 287.494 141.98 288.106C141.368 288.718 141.062 289.492 141.062 290.428C141.062 291.364 141.368 292.144 141.98 292.768C142.592 293.392 143.33 293.704 144.194 293.704ZM150.478 290.446C150.478 288.994 150.862 287.842 151.63 286.99C152.398 286.114 153.388 285.676 154.6 285.676C155.32 285.676 155.914 285.832 156.382 286.144C156.85 286.456 157.168 286.768 157.336 287.08L157.426 287.242H157.462C157.426 287.062 157.408 286.858 157.408 286.63V282.886C157.408 282.49 157.606 282.292 158.002 282.292H158.56C158.956 282.292 159.154 282.49 159.154 282.886V294.406C159.154 294.802 158.956 295 158.56 295H158.092C157.696 295 157.498 294.814 157.498 294.442V293.92L157.534 293.47H157.498C157.33 293.746 157.192 293.95 157.084 294.082C156.436 294.838 155.572 295.216 154.492 295.216C153.268 295.216 152.29 294.778 151.558 293.902C150.838 293.026 150.478 291.874 150.478 290.446ZM152.26 290.446C152.26 291.418 152.494 292.204 152.962 292.804C153.442 293.404 154.066 293.704 154.834 293.704C155.614 293.704 156.244 293.422 156.724 292.858C157.216 292.294 157.462 291.484 157.462 290.428C157.462 289.552 157.234 288.796 156.778 288.16C156.322 287.524 155.686 287.206 154.87 287.206C154.114 287.206 153.49 287.5 152.998 288.088C152.506 288.676 152.26 289.462 152.26 290.446ZM161.581 291.724V286.486C161.581 286.09 161.779 285.892 162.175 285.892H162.733C163.117 285.892 163.309 286.09 163.309 286.486V291.328C163.309 292.084 163.435 292.654 163.687 293.038C163.951 293.41 164.395 293.596 165.019 293.596C165.919 293.596 166.639 293.26 167.179 292.588C167.719 291.916 167.989 291.106 167.989 290.158V286.486C167.989 286.09 168.187 285.892 168.583 285.892H169.141C169.537 285.892 169.735 286.09 169.735 286.486V294.406C169.735 294.802 169.537 295 169.141 295H168.637C168.241 295 168.043 294.802 168.043 294.406V293.596L168.097 293.074H168.061C167.833 293.59 167.413 294.082 166.801 294.55C166.213 294.994 165.505 295.216 164.677 295.216C162.613 295.216 161.581 294.052 161.581 291.724ZM171.659 290.446C171.659 289.09 172.115 287.956 173.027 287.044C173.939 286.132 175.103 285.676 176.519 285.676C177.695 285.676 178.697 286 179.525 286.648C179.837 286.84 179.873 287.11 179.633 287.458L179.453 287.728C179.261 288.028 178.991 288.076 178.643 287.872C178.007 287.416 177.329 287.188 176.609 287.188C175.697 287.188 174.941 287.494 174.341 288.106C173.741 288.73 173.441 289.504 173.441 290.428C173.441 291.352 173.741 292.132 174.341 292.768C174.953 293.392 175.721 293.704 176.645 293.704C177.461 293.704 178.235 293.428 178.967 292.876C179.315 292.66 179.585 292.714 179.777 293.038L179.921 293.308C180.125 293.632 180.071 293.896 179.759 294.1C178.847 294.844 177.767 295.216 176.519 295.216C175.091 295.216 173.921 294.766 173.009 293.866C172.109 292.966 171.659 291.826 171.659 290.446ZM182.248 291.724V287.404H181.618C181.234 287.404 181.042 287.206 181.042 286.81V286.576C181.042 286.18 181.24 285.982 181.636 285.982H182.284V283.984C182.284 283.588 182.482 283.39 182.878 283.39H183.4C183.796 283.39 183.994 283.588 183.994 283.984V285.982H185.578C185.974 285.982 186.172 286.18 186.172 286.576V286.81C186.172 287.206 185.98 287.404 185.596 287.404H183.994V291.454C183.994 292.738 184.57 293.422 185.722 293.506C185.962 293.53 186.124 293.584 186.208 293.668C186.304 293.752 186.352 293.896 186.352 294.1V294.478C186.352 294.874 186.112 295.072 185.632 295.072C184.624 295.072 183.808 294.778 183.184 294.19C182.56 293.602 182.248 292.78 182.248 291.724ZM192.182 285.676C193.562 285.676 194.726 286.126 195.674 287.026C196.622 287.926 197.096 289.06 197.096 290.428C197.096 291.784 196.616 292.924 195.656 293.848C194.708 294.76 193.55 295.216 192.182 295.216C190.814 295.216 189.656 294.76 188.708 293.848C187.76 292.936 187.286 291.796 187.286 290.428C187.286 289.06 187.76 287.926 188.708 287.026C189.668 286.126 190.826 285.676 192.182 285.676ZM192.182 293.704C193.058 293.704 193.796 293.398 194.396 292.786C195.008 292.162 195.314 291.376 195.314 290.428C195.314 289.492 195.008 288.718 194.396 288.106C193.796 287.494 193.058 287.188 192.182 287.188C191.318 287.188 190.58 287.494 189.968 288.106C189.356 288.718 189.05 289.492 189.05 290.428C189.05 291.364 189.356 292.144 189.968 292.768C190.58 293.392 191.318 293.704 192.182 293.704ZM198.989 294.226C198.689 294.034 198.647 293.764 198.863 293.416L199.043 293.164C199.247 292.876 199.523 292.834 199.871 293.038C200.639 293.53 201.383 293.776 202.103 293.776C202.571 293.776 202.943 293.674 203.219 293.47C203.507 293.254 203.651 292.954 203.651 292.57C203.651 292.006 203.093 291.544 201.977 291.184C201.545 291.04 201.191 290.908 200.915 290.788C200.651 290.656 200.345 290.482 199.997 290.266C199.649 290.038 199.385 289.762 199.205 289.438C199.037 289.102 198.953 288.724 198.953 288.304C198.953 287.464 199.265 286.822 199.889 286.378C200.513 285.91 201.299 285.676 202.247 285.676C203.195 285.676 204.035 285.91 204.767 286.378C205.103 286.534 205.169 286.798 204.965 287.17L204.803 287.44C204.647 287.74 204.383 287.806 204.011 287.638C203.387 287.29 202.769 287.116 202.157 287.116C201.689 287.116 201.317 287.218 201.041 287.422C200.765 287.626 200.627 287.908 200.627 288.268C200.627 288.832 201.179 289.3 202.283 289.672C202.739 289.828 203.099 289.966 203.363 290.086C203.627 290.194 203.933 290.362 204.281 290.59C204.629 290.806 204.887 291.076 205.055 291.4C205.235 291.724 205.325 292.102 205.325 292.534C205.325 293.314 205.019 293.956 204.407 294.46C203.819 294.964 203.033 295.216 202.049 295.216C200.885 295.216 199.865 294.886 198.989 294.226Z" fill="#5A5956"/>
<path d="M33.5505 155.199C35.7253 155.199 37.811 156.063 39.3488 157.601C40.8866 159.138 41.7505 161.224 41.7505 163.399C41.7526 167.78 43.494 171.981 46.5918 175.078C49.6897 178.176 53.8906 179.917 58.2715 179.919H69.5115C73.8183 179.914 78.0838 180.758 82.0645 182.402C86.0451 184.046 89.663 186.458 92.7115 189.5V189.5L100.595 197.4C102.129 198.951 103.956 200.182 105.97 201.022C107.984 201.861 110.145 202.292 112.327 202.289C114.513 202.343 116.686 201.937 118.706 201.096C120.725 200.256 122.545 199 124.048 197.411C124.808 196.648 125.711 196.042 126.706 195.628C127.701 195.214 128.767 195 129.844 194.998C130.922 194.996 131.989 195.207 132.985 195.617C133.981 196.028 134.886 196.63 135.65 197.391C136.413 198.151 137.018 199.055 137.432 200.049C137.846 201.044 138.061 202.11 138.062 203.188C138.064 204.265 137.854 205.332 137.443 206.328C137.033 207.324 136.43 208.23 135.67 208.993C129.505 215.169 121.143 218.649 112.417 218.672C103.691 218.694 95.3112 215.257 89.1145 209.113V209.113L81.1335 201.129C78.0395 198.052 73.8528 196.326 69.4895 196.329H58.2715C49.5433 196.319 41.1754 192.847 35.0037 186.676C28.8319 180.504 25.3603 172.136 25.3505 163.408C25.3493 162.33 25.5606 161.263 25.9721 160.267C26.3837 159.271 26.9875 158.366 27.7491 157.604C28.5106 156.841 29.415 156.237 30.4104 155.824C31.4059 155.411 32.4729 155.199 33.5505 155.199V155.199ZM166.388 22.3099C175.117 22.3202 183.487 25.7935 189.659 31.9675C195.831 38.1415 199.301 46.5119 199.309 55.2419V55.2419V66.4849C199.308 70.8512 201.038 75.0397 204.12 78.1329V78.1329L211.97 85.9859C218.157 92.1456 221.645 100.51 221.667 109.241C221.69 117.971 218.245 126.353 212.09 132.545V132.545L204.109 140.529C201.05 143.632 199.327 147.809 199.309 152.166V163.399C199.299 172.128 195.828 180.498 189.657 186.671C183.485 192.845 175.117 196.319 166.388 196.331C164.212 196.331 162.125 195.467 160.587 193.928C159.049 192.39 158.185 190.303 158.185 188.128C158.185 185.952 159.049 183.866 160.587 182.327C162.125 180.789 164.212 179.925 166.388 179.925C170.769 179.92 174.969 178.178 178.066 175.079C181.163 171.981 182.905 167.78 182.908 163.399V163.399V152.156C182.898 147.846 183.74 143.577 185.385 139.594C187.031 135.611 189.448 131.993 192.497 128.947V128.947L200.369 121.061C201.919 119.527 203.15 117.7 203.99 115.688C204.831 113.676 205.265 111.516 205.267 109.335C205.269 107.154 204.839 104.995 204.002 102.981C203.165 100.966 201.938 99.1381 200.391 97.6009V97.6009L192.508 89.7149C189.46 86.6655 187.043 83.0452 185.396 79.061C183.749 75.0769 182.903 70.8071 182.908 66.4959V66.4959V55.2419C182.906 50.8601 181.166 46.658 178.068 43.5592C174.97 40.4603 170.768 38.7183 166.387 38.7159C164.211 38.7159 162.124 37.8516 160.586 36.3133C159.048 34.7749 158.184 32.6884 158.184 30.5129C158.184 28.3373 159.048 26.2508 160.586 24.7125C162.124 23.1741 164.211 22.3099 166.387 22.3099H166.388ZM89.0055 9.64487C94.9604 3.68558 102.974 0.237703 111.396 0.0118383C119.817 -0.214026 128.005 2.79933 134.271 8.43087C134.734 8.76274 135.173 9.1284 135.583 9.52487C137.046 11.0579 137.869 13.0923 137.883 15.2119C137.884 16.8091 137.42 18.3721 136.546 19.709C135.672 21.0459 134.427 22.0984 132.963 22.7373C131.499 23.3763 129.88 23.5738 128.306 23.3056C126.731 23.0375 125.269 22.3153 124.1 21.2279C123.991 21.1189 123.991 21.1189 123.881 21.0199C120.733 18.0202 116.542 16.3642 112.194 16.403C107.847 16.4418 103.685 18.1724 100.593 21.2279L92.7225 29.0989C89.6899 32.1596 86.0789 34.5867 82.0996 36.2391C78.1203 37.8915 73.8522 38.7361 69.5435 38.7239H58.2825C53.9076 38.7392 49.7164 40.4842 46.6233 43.5782C43.5303 46.6722 41.7865 50.864 41.7725 55.2389V66.5069C41.7874 70.8168 40.9444 75.0866 39.2926 79.0674C37.6409 83.0483 35.2133 86.6606 32.1515 89.6939V89.6939L24.2785 97.5789C21.1805 100.705 19.4423 104.928 19.4423 109.329C19.4423 113.73 21.1805 117.953 24.2785 121.079C25.8011 122.625 26.6546 124.709 26.6546 126.879C26.6546 129.049 25.8011 131.132 24.2785 132.679C22.7279 134.195 20.6521 135.055 18.4835 135.079C17.4069 135.082 16.3403 134.871 15.3456 134.459C14.3509 134.047 13.4478 133.442 12.6885 132.679C6.50471 126.508 3.02052 118.137 3.00009 109.401C2.97966 100.666 6.42465 92.2783 12.5795 86.0789V86.0789L20.5615 78.0989C22.0857 76.5773 23.2951 74.7703 24.1206 72.7811C24.9461 70.7919 25.3715 68.6595 25.3725 66.5059V55.2419C25.3799 46.5149 28.8492 38.1472 35.0191 31.9753C41.1891 25.8033 49.5555 22.3312 58.2825 22.3209H69.5435C71.6972 22.3224 73.8299 21.898 75.819 21.0722C77.8081 20.2463 79.6142 19.0353 81.1335 17.5089V17.5089L89.0055 9.64487Z" fill="#EA572E"/>
<path d="M192.5 324.5H30.5" stroke="#484744"/>
</svg>
