<svg width="64" height="64" viewBox="0 0 64 64" fill="none" xmlns="http://www.w3.org/2000/svg">
<path d="M64 32C64 14.3269 49.6731 0 32 0C14.3269 0 0 14.3269 0 32C0 49.6731 14.3269 64 32 64C49.6731 64 64 49.6731 64 32Z" fill="white"/>
<path d="M31.828 5C26.5222 4.9996 21.3354 6.57264 16.9235 9.52016C12.5117 12.4677 9.07305 16.6573 7.04241 21.5592C5.01176 26.4611 4.48034 31.8551 5.51537 37.059C6.55039 42.2629 9.10536 47.043 12.8572 50.7948C16.609 54.5466 21.3891 57.1016 26.593 58.1366C31.7969 59.1717 37.1909 58.6403 42.0928 56.6096C46.9947 54.579 51.1843 51.1403 54.1318 46.7285C57.0794 42.3167 58.6524 37.1299 58.652 31.824C58.6435 24.7124 55.8147 17.8946 50.7861 12.8659C45.7574 7.83728 38.9396 5.00847 31.828 5ZM31.828 54.916C27.2614 54.9164 22.7973 53.5626 19.0001 51.0259C15.2029 48.4892 12.2432 44.8834 10.4953 40.6646C8.74741 36.4458 8.28976 31.8034 9.18027 27.3245C10.0708 22.8456 12.2694 18.7314 15.4982 15.502C18.727 12.2727 22.8409 10.0733 27.3196 9.18204C31.7984 8.29076 36.4408 8.74759 40.6599 10.4948C44.8791 12.242 48.4853 15.201 51.0227 18.9978C53.5601 22.7945 54.9146 27.2584 54.915 31.825C54.9081 37.9463 52.4737 43.815 48.1456 48.1438C43.8176 52.4726 37.9493 54.9081 31.828 54.916Z" fill="#FFCF4A"/>
<path d="M40.348 40.0229H23.306C22.8102 40.0229 22.3347 40.2199 21.9841 40.5705C21.6335 40.9211 21.4365 41.3966 21.4365 41.8924C21.4365 42.3883 21.6335 42.8638 21.9841 43.2144C22.3347 43.565 22.8102 43.7619 23.306 43.7619H40.348C40.8438 43.7619 41.3194 43.565 41.67 43.2144C42.0206 42.8638 42.2175 42.3883 42.2175 41.8924C42.2175 41.3966 42.0206 40.9211 41.67 40.5705C41.3194 40.2199 40.8438 40.0229 40.348 40.0229Z" fill="#FFCF4A"/>
<path d="M22 32C24.2091 32 26 30.2091 26 28C26 25.7909 24.2091 24 22 24C19.7909 24 18 25.7909 18 28C18 30.2091 19.7909 32 22 32Z" fill="#FFCF4A"/>
<path d="M41 32C43.2091 32 45 30.2091 45 28C45 25.7909 43.2091 24 41 24C38.7909 24 37 25.7909 37 28C37 30.2091 38.7909 32 41 32Z" fill="#FFCF4A"/>
</svg>
