<svg width="275" height="275" viewBox="0 0 275 275" fill="none" xmlns="http://www.w3.org/2000/svg">
<path d="M240.552 2.32331e-07H191.352V29.524H240.552C241.856 29.5245 243.107 30.0428 244.029 30.965C244.952 31.8871 245.47 33.1377 245.471 34.442V83.642H274.995V34.442C274.995 29.9188 274.105 25.4399 272.374 21.2609C270.643 17.082 268.106 13.2849 264.908 10.0866C261.709 6.88827 257.912 4.35133 253.733 2.62065C249.554 0.889977 245.075 -0.000525141 240.552 2.32331e-07Z" fill="#EA572E"/>
<path d="M83.646 9.29346e-07H34.446C29.9225 -0.00104991 25.4432 0.889072 21.2638 2.61952C17.0844 4.34997 13.2868 6.88686 10.0881 10.0853C6.88931 13.2836 4.352 17.0809 2.62106 21.2601C0.890127 25.4393 -0.000525294 29.9185 2.32428e-07 34.442V83.642H29.524V34.442C29.5245 33.1378 30.0429 31.8872 30.965 30.965C31.8872 30.0429 33.1378 29.5245 34.442 29.524H83.642L83.646 9.29346e-07Z" fill="#EA572E"/>
<path d="M34.442 275H83.642V245.476H34.442C33.1378 245.475 31.8872 244.957 30.965 244.035C30.0429 243.113 29.5245 241.862 29.524 240.558V191.354H1.30693e-07V240.554C-0.000393896 245.077 0.890182 249.556 2.62087 253.734C4.35155 257.913 6.88843 261.71 10.0867 264.908C13.2849 268.107 17.0818 270.643 21.2605 272.374C25.4393 274.105 29.918 274.995 34.441 274.995L34.442 275Z" fill="#EA572E"/>
<path d="M245.476 240.554C245.476 241.858 244.957 243.109 244.035 244.031C243.113 244.953 241.862 245.471 240.558 245.472H191.352V274.996H240.552C245.076 274.997 249.555 274.107 253.735 272.377C257.915 270.647 261.712 268.11 264.911 264.911C268.11 261.713 270.648 257.916 272.379 253.736C274.11 249.557 275.001 245.078 275 240.554V191.354H245.476V240.554Z" fill="#EA572E"/>
</svg>
