<svg width="26" height="26" viewBox="0 0 512 512" fill="none" xmlns="http://www.w3.org/2000/svg">
<path d="M448 8H64C61.8783 8 59.8434 8.84285 58.3431 10.3431C56.8429 11.8434 56 13.8783 56 16V496C56 498.122 56.8429 500.157 58.3431 501.657C59.8434 503.157 61.8783 504 64 504H448C450.122 504 452.157 503.157 453.657 501.657C455.157 500.157 456 498.122 456 496V16C456 13.8783 455.157 11.8434 453.657 10.3431C452.157 8.84285 450.122 8 448 8ZM440 488H72V24H440V488Z" ></path>
<path d="M328 32H88C85.8783 32 83.8434 32.8429 82.3431 34.3431C80.8429 35.8434 80 37.8783 80 40V392C80 394.122 80.8429 396.157 82.3431 397.657C83.8434 399.157 85.8783 400 88 400H328C330.122 400 332.157 399.157 333.657 397.657C335.157 396.157 336 394.122 336 392V40C336 37.8783 335.157 35.8434 333.657 34.3431C332.157 32.8429 330.122 32 328 32V32ZM184 384H136V304H184V384ZM280 384H232V304H280V384ZM320 384H296V296C296 293.878 295.157 291.843 293.657 290.343C292.157 288.843 290.122 288 288 288H224C221.878 288 219.843 288.843 218.343 290.343C216.843 291.843 216 293.878 216 296V384H200V296C200 293.878 199.157 291.843 197.657 290.343C196.157 288.843 194.122 288 192 288H128C125.878 288 123.843 288.843 122.343 290.343C120.843 291.843 120 293.878 120 296V384H96V240H320V384ZM320 224H96V208H320V224ZM136 192V112H184V192H136ZM266.34 109.66L280 123.31V192H232V123.31L245.66 109.66C247.159 108.158 248.001 106.122 248 104V72H264V104C263.999 106.122 264.841 108.158 266.34 109.66V109.66ZM320 192H296V120C296.001 117.878 295.159 115.842 293.66 114.34L280 100.69V64C280 61.8783 279.157 59.8434 277.657 58.3431C276.157 56.8429 274.122 56 272 56H240C237.878 56 235.843 56.8429 234.343 58.3431C232.843 59.8434 232 61.8783 232 64V100.69L218.34 114.34C216.841 115.842 215.999 117.878 216 120V192H200V104C200 101.878 199.157 99.8434 197.657 98.3431C196.157 96.8429 194.122 96 192 96H128C125.878 96 123.843 96.8429 122.343 98.3431C120.843 99.8434 120 101.878 120 104V192H96V48H320V192Z" ></path>
<path d="M88 480H328C330.122 480 332.157 479.157 333.657 477.657C335.157 476.157 336 474.122 336 472V416C336 413.878 335.157 411.843 333.657 410.343C332.157 408.843 330.122 408 328 408H88C85.8783 408 83.8434 408.843 82.3431 410.343C80.8429 411.843 80 413.878 80 416V472C80 474.122 80.8429 476.157 82.3431 477.657C83.8434 479.157 85.8783 480 88 480ZM96 424H320V464H96V424Z" ></path>
<path d="M352 256H424C426.122 256 428.157 255.157 429.657 253.657C431.157 252.157 432 250.122 432 248V40C432 37.8783 431.157 35.8434 429.657 34.3431C428.157 32.8429 426.122 32 424 32H352C349.878 32 347.843 32.8429 346.343 34.3431C344.843 35.8434 344 37.8783 344 40V248C344 250.122 344.843 252.157 346.343 253.657C347.843 255.157 349.878 256 352 256ZM360 48H416V240H360V48Z" ></path>
<path d="M352 408H424C426.122 408 428.157 407.157 429.657 405.657C431.157 404.157 432 402.122 432 400V320C432 317.878 431.157 315.843 429.657 314.343C428.157 312.843 426.122 312 424 312H352C349.878 312 347.843 312.843 346.343 314.343C344.843 315.843 344 317.878 344 320V400C344 402.122 344.843 404.157 346.343 405.657C347.843 407.157 349.878 408 352 408ZM360 328H416V392H360V328Z" ></path>
<path d="M352 304H424C426.122 304 428.157 303.157 429.657 301.657C431.157 300.157 432 298.122 432 296V272C432 269.878 431.157 267.843 429.657 266.343C428.157 264.843 426.122 264 424 264H352C349.878 264 347.843 264.843 346.343 266.343C344.843 267.843 344 269.878 344 272V296C344 298.122 344.843 300.157 346.343 301.657C347.843 303.157 349.878 304 352 304ZM360 280H416V288H360V280Z" ></path>
</svg>